<svg xmlns="http://www.w3.org/2000/svg" xmlns:xlink="http://www.w3.org/1999/xlink" viewBox="0 0 515 389"><defs><style>.cls-1{isolation:isolate;}.cls-2{fill:#e8f0ff;mix-blend-mode:multiply;}.cls-3{fill:url(#linear-gradient);}.cls-4{fill:#ccd3e0;}.cls-5{fill:#1a2e35;}.cls-6{fill:url(#linear-gradient-2);}.cls-7{fill:#fff;}.cls-8{fill:url(#linear-gradient-3);}.cls-9{fill:url(#linear-gradient-4);}.cls-10{fill:url(#linear-gradient-5);}.cls-11{fill:url(#linear-gradient-6);}.cls-12{fill:#e1e1e1;}.cls-13{opacity:0.4;}.cls-14{opacity:0.2;}.cls-15{fill:#375a64;}.cls-16{fill:#ff735d;}.cls-17{fill:#fafafa;}.cls-18{fill:url(#linear-gradient-7);}.cls-19{fill:url(#linear-gradient-8);}.cls-20{fill:url(#linear-gradient-9);}.cls-21{fill:url(#linear-gradient-10);}.cls-22{fill:url(#linear-gradient-11);}.cls-23{fill:url(#linear-gradient-12);}.cls-24{fill:url(#linear-gradient-13);}.cls-25{fill:url(#linear-gradient-14);}.cls-26{fill:url(#linear-gradient-15);}.cls-27{fill:url(#linear-gradient-16);}.cls-28{fill:#ffc19d;}.cls-29{fill:#ff9c6a;}.cls-30{fill:#f5f5f5;}.cls-31{opacity:0.3;}.cls-32{fill:url(#linear-gradient-17);}.cls-33{fill:url(#linear-gradient-18);}.cls-34{fill:url(#linear-gradient-19);}.cls-35{fill:url(#linear-gradient-20);}.cls-36{fill:#7c4235;}.cls-37{fill:#c27460;}.cls-38{fill:url(#linear-gradient-21);}.cls-39{fill:url(#linear-gradient-22);}.cls-40{fill:url(#linear-gradient-23);}.cls-41{fill:url(#linear-gradient-24);}</style><linearGradient id="linear-gradient" x1="140" y1="527.53" x2="532" y2="527.53" gradientTransform="translate(-141.99 -244.82) rotate(-6.91)" gradientUnits="userSpaceOnUse"><stop offset="0.52" stop-color="#676a78"/><stop offset="0.63" stop-color="#8b8e9e"/></linearGradient><linearGradient id="linear-gradient-2" x1="337.22" y1="108.19" x2="421.01" y2="108.19" gradientUnits="userSpaceOnUse"><stop offset="0.09" stop-color="#0196ff"/><stop offset="0.3" stop-color="#018ffc"/><stop offset="0.61" stop-color="#017af4"/><stop offset="0.99" stop-color="#0059e6"/><stop offset="1" stop-color="#0058e6"/></linearGradient><linearGradient id="linear-gradient-3" x1="363.92" y1="140.87" x2="370.52" y2="140.87" xlink:href="#linear-gradient-2"/><linearGradient id="linear-gradient-4" x1="372.78" y1="140.87" x2="379.39" y2="140.87" xlink:href="#linear-gradient-2"/><linearGradient id="linear-gradient-5" x1="381.65" y1="140.87" x2="388.26" y2="140.87" xlink:href="#linear-gradient-2"/><linearGradient id="linear-gradient-6" x1="390.52" y1="140.87" x2="397.13" y2="140.87" xlink:href="#linear-gradient-2"/><linearGradient id="linear-gradient-7" x1="356.48" y1="165.04" x2="406.48" y2="165.04" xlink:href="#linear-gradient-2"/><linearGradient id="linear-gradient-8" x1="362.35" y1="47.45" x2="366.97" y2="47.45" xlink:href="#linear-gradient-2"/><linearGradient id="linear-gradient-9" x1="366.91" y1="47.45" x2="372.39" y2="47.45" xlink:href="#linear-gradient-2"/><linearGradient id="linear-gradient-10" x1="372.77" y1="47.45" x2="377.11" y2="47.45" xlink:href="#linear-gradient-2"/><linearGradient id="linear-gradient-11" x1="380.01" y1="47.45" x2="383.77" y2="47.45" xlink:href="#linear-gradient-2"/><linearGradient id="linear-gradient-12" x1="384.87" y1="47.45" x2="388.2" y2="47.45" xlink:href="#linear-gradient-2"/><linearGradient id="linear-gradient-13" x1="389.38" y1="47.45" x2="393.31" y2="47.45" xlink:href="#linear-gradient-2"/><linearGradient id="linear-gradient-14" x1="394.11" y1="47.45" x2="397.92" y2="47.45" xlink:href="#linear-gradient-2"/><linearGradient id="linear-gradient-15" x1="98.92" y1="102.33" x2="137.56" y2="102.33" xlink:href="#linear-gradient-2"/><linearGradient id="linear-gradient-16" x1="309.65" y1="87.46" x2="320.18" y2="87.46" xlink:href="#linear-gradient-2"/><linearGradient id="linear-gradient-17" x1="248.39" y1="123.74" x2="276.19" y2="123.74" xlink:href="#linear-gradient-2"/><linearGradient id="linear-gradient-18" x1="265.32" y1="136.09" x2="283.41" y2="136.09" xlink:href="#linear-gradient-2"/><linearGradient id="linear-gradient-19" x1="293.8" y1="136.61" x2="309.13" y2="136.61" xlink:href="#linear-gradient-2"/><linearGradient id="linear-gradient-20" x1="301.17" y1="130.02" x2="309.94" y2="130.02" xlink:href="#linear-gradient-2"/><linearGradient id="linear-gradient-21" x1="169.27" y1="137" x2="189.65" y2="137" xlink:href="#linear-gradient-2"/><linearGradient id="linear-gradient-22" x1="169.75" y1="115.93" x2="184.14" y2="115.93" xlink:href="#linear-gradient-2"/><linearGradient id="linear-gradient-23" x1="175.25" y1="129.54" x2="210.23" y2="129.54" xlink:href="#linear-gradient-2"/><linearGradient id="linear-gradient-24" x1="196.35" y1="121.81" x2="228.55" y2="121.81" xlink:href="#linear-gradient-2"/></defs><g class="cls-1"><g id="Layer_1" data-name="Layer 1"><path class="cls-2" d="M283.53,358.24,69.27,266.88c-12.87-5.48-12.83-17.91.08-27.61L183,153.94c12.92-9.7,34-13.15,46.88-7.67l214.26,91.36c12.87,5.49,12.83,17.91-.08,27.61L330.41,350.58C317.49,360.28,296.4,363.72,283.53,358.24Z"/><path class="cls-3" d="M450.2,219.92l-16.24.31L228.18,132.49c-12.87-5.48-34-2-46.88,7.66L67.68,225.49c-.77.58-1.5,1.17-2.18,1.77l-9.25.17,1.83,15.06h0c.61,4.35,3.77,8.17,9.5,10.61l214.27,91.35c12.87,5.49,34,2,46.88-7.66l113.62-85.33c7-5.24,10.18-11.26,9.65-16.57h0Z"/><path class="cls-4" d="M280,329.42,65.77,238.06c-12.86-5.48-12.83-17.91.09-27.61l113.62-85.33c12.92-9.7,34-13.15,46.88-7.67l214.26,91.36c12.87,5.49,12.83,17.91-.08,27.61L326.91,321.76C314,331.46,292.9,334.9,280,329.42Z"/><path class="cls-5" d="M430.52,232.44c0,.07-78.45.14-175.21.14s-175.22-.07-175.22-.14,78.44-.14,175.22-.14S430.52,232.36,430.52,232.44Z"/><path class="cls-6" d="M408.27,190.5l-58.35,0a12.46,12.46,0,0,1-12.7-12.19l0-140.21A12.44,12.44,0,0,1,350,25.89l58.35,0A12.44,12.44,0,0,1,421,38.1l0,140.22A12.47,12.47,0,0,1,408.27,190.5Z"/><path class="cls-7" d="M408.25,30.88H396.94l-33,0H350a8.71,8.71,0,0,0-8.91,8.53l0,136.86a8.72,8.72,0,0,0,8.9,8.53l58.23,0a8.71,8.71,0,0,0,8.91-8.53l0-136.86A8.72,8.72,0,0,0,408.25,30.88Z"/><path class="cls-8" d="M369.87,143.94a3.2,3.2,0,0,1-1.88.85V146h-1.31v-1.17a7,7,0,0,1-1.55-.27,4.4,4.4,0,0,1-1.21-.56l.71-1.59a4.67,4.67,0,0,0,1.19.55,4.77,4.77,0,0,0,1.33.2c.83,0,1.24-.2,1.24-.62a.51.51,0,0,0-.35-.49,7.78,7.78,0,0,0-1.14-.33,10.15,10.15,0,0,1-1.44-.4,2.45,2.45,0,0,1-1-.68,1.83,1.83,0,0,1-.41-1.27,2.2,2.2,0,0,1,.67-1.61,3.25,3.25,0,0,1,2-.82v-1.21H368v1.18a6.69,6.69,0,0,1,1.2.22,4.29,4.29,0,0,1,1,.43l-.67,1.6a4.48,4.48,0,0,0-2.12-.59,1.75,1.75,0,0,0-.94.2.57.57,0,0,0-.29.49.48.48,0,0,0,.35.46,6.53,6.53,0,0,0,1.12.32,10.33,10.33,0,0,1,1.45.4,2.46,2.46,0,0,1,1,.67,1.82,1.82,0,0,1,.42,1.27A2.12,2.12,0,0,1,369.87,143.94Z"/><path class="cls-9" d="M378.74,143.94a3.2,3.2,0,0,1-1.88.85V146h-1.31v-1.17a7,7,0,0,1-1.55-.27,4.47,4.47,0,0,1-1.22-.56l.71-1.59a4.91,4.91,0,0,0,1.2.55,4.77,4.77,0,0,0,1.33.2c.83,0,1.24-.2,1.24-.62a.53.53,0,0,0-.35-.49,7.78,7.78,0,0,0-1.14-.33,10.73,10.73,0,0,1-1.45-.4,2.48,2.48,0,0,1-1-.68,1.83,1.83,0,0,1-.41-1.27,2.2,2.2,0,0,1,.67-1.61,3.22,3.22,0,0,1,2-.82v-1.21h1.31v1.18a6.58,6.58,0,0,1,1.19.22,4.2,4.2,0,0,1,1,.43l-.67,1.6a4.48,4.48,0,0,0-2.12-.59,1.75,1.75,0,0,0-.94.2.55.55,0,0,0-.29.49.48.48,0,0,0,.35.46,6.26,6.26,0,0,0,1.12.32,10.33,10.33,0,0,1,1.45.4,2.46,2.46,0,0,1,1,.67,1.82,1.82,0,0,1,.42,1.27A2.12,2.12,0,0,1,378.74,143.94Z"/><path class="cls-10" d="M387.61,143.94a3.2,3.2,0,0,1-1.88.85V146h-1.31v-1.17a6.87,6.87,0,0,1-1.55-.27,4.47,4.47,0,0,1-1.22-.56l.71-1.59a5,5,0,0,0,1.19.55,4.89,4.89,0,0,0,1.34.2c.83,0,1.24-.2,1.24-.62a.53.53,0,0,0-.35-.49,7.78,7.78,0,0,0-1.14-.33,10.73,10.73,0,0,1-1.45-.4,2.48,2.48,0,0,1-1-.68,1.83,1.83,0,0,1-.41-1.27,2.2,2.2,0,0,1,.67-1.61,3.22,3.22,0,0,1,2-.82v-1.21h1.31v1.18a6.58,6.58,0,0,1,1.19.22,4.2,4.2,0,0,1,1,.43l-.67,1.6a4.51,4.51,0,0,0-2.12-.59,1.75,1.75,0,0,0-.94.2.55.55,0,0,0-.29.49.48.48,0,0,0,.35.46,6.26,6.26,0,0,0,1.12.32,10.33,10.33,0,0,1,1.45.4,2.46,2.46,0,0,1,1,.67,1.82,1.82,0,0,1,.42,1.27A2.12,2.12,0,0,1,387.61,143.94Z"/><path class="cls-11" d="M396.48,143.94a3.2,3.2,0,0,1-1.88.85V146h-1.31v-1.17a7.06,7.06,0,0,1-1.56-.27,4.54,4.54,0,0,1-1.21-.56l.71-1.59a4.7,4.7,0,0,0,2.53.75c.83,0,1.24-.2,1.24-.62a.53.53,0,0,0-.35-.49,7.61,7.61,0,0,0-1.15-.33,11,11,0,0,1-1.44-.4,2.41,2.41,0,0,1-1-.68,1.84,1.84,0,0,1-.42-1.27,2.21,2.21,0,0,1,.68-1.61,3.2,3.2,0,0,1,2-.82v-1.21h1.31v1.18a6.58,6.58,0,0,1,1.19.22,4.29,4.29,0,0,1,1,.43l-.66,1.6a4.51,4.51,0,0,0-2.12-.59,1.75,1.75,0,0,0-.94.2.56.56,0,0,0-.3.49.49.49,0,0,0,.35.46,6.7,6.7,0,0,0,1.13.32,10.73,10.73,0,0,1,1.45.4,2.46,2.46,0,0,1,1,.67,1.82,1.82,0,0,1,.42,1.27A2.16,2.16,0,0,1,396.48,143.94Z"/><rect class="cls-12" x="354.66" y="82.61" width="49.68" height="6.75"/><g class="cls-13"><rect x="354.66" y="82.61" width="49.68" height="6.75"/></g><path class="cls-12" d="M407.2,82.21a25.43,25.43,0,0,0-6.09-2.36c-.62-.07-3.36-.45-3.36-.45l-.89-.07s-9.44-4.68-10.94-5.26a28.93,28.93,0,0,0-12.46-1s-7,.64-8.51,1.09-9,2.78-9,2.78a28.39,28.39,0,0,0-3.24.47,1.09,1.09,0,0,0,.32.48V80a4.74,4.74,0,0,0-.45.73c-.09.23-.3,2.1-.3,2.1a16.18,16.18,0,0,0-1,3c0,.61,1.78,3,2.21,3.32a20.76,20.76,0,0,0,3.93.87V88.16a4.76,4.76,0,1,1,9.52,0v2.29h27.25l0-1.7c0-.14,0-.27,0-.41a4.77,4.77,0,1,1,9.52,0c0,.14,0,.27,0,.41h.1v1.7h3.14s2.55-2,2.48-3V84.7a1.44,1.44,0,0,0-.38-1A7.9,7.9,0,0,0,407.2,82.21Z"/><g class="cls-14"><path d="M409.36,85.51l-2-.74-.24,1.13-3.21-.17a5.86,5.86,0,0,0-4.3-3,7.75,7.75,0,0,0-4.44,1.07L381,82.29s-7.17-.28-9.94-.24a9.39,9.39,0,0,0-5.2,2.12s-.82-1.23-3.71-1.26a4.91,4.91,0,0,0-4.1,1.73,11.56,11.56,0,0,1-5.64-2.41l-.14.12-.05.43a16.18,16.18,0,0,0-1,3c0,.61,1.78,3,2.21,3.32a20.76,20.76,0,0,0,3.93.87V88.16a4.76,4.76,0,1,1,9.52,0v2.29h27.25l0-1.7c0-.14,0-.27,0-.41a4.77,4.77,0,1,1,9.52,0c0,.14,0,.27,0,.41h.1v1.7h3.14s2.55-2,2.48-3v-2Z"/></g><path class="cls-5" d="M360.87,77.05a.35.35,0,0,0,.15.62l2.39.33L377,79.56l16.59,1a.74.74,0,0,0,.68-.33.65.65,0,0,0-.15-.87,30.82,30.82,0,0,0-4.5-2.84,24.37,24.37,0,0,0-13.38-3.08c-2.29.08-6.7.76-12.38,1.53a.79.79,0,0,0-.34.14Z"/><path class="cls-15" d="M363.7,77.75a18.41,18.41,0,0,1,1.5-2.65c.24-.14,10.14-1.44,10.27-1.27s.48,5.22.48,5.22Z"/><polygon class="cls-5" points="367.47 74.74 367.39 78.26 367.9 78.26 367.9 74.68 367.47 74.74"/><path class="cls-5" d="M391.27,77.38l0,.05.07.16.11.26.14.37a13.84,13.84,0,0,1,.58,2.52,21.22,21.22,0,0,1,.12,4c0,.77-.13,1.59-.25,2.45-.07.43-.14.87-.23,1.32,0,.11,0,.22-.09.33a3,3,0,0,1-.15.31,6,6,0,0,1-.39.59h0l-11.25-.21-6.14-.15c-1,0-1.92,0-2.84,0-.11,0-.23,0-.34,0h-.34a1.48,1.48,0,0,1-.65-.19,2.32,2.32,0,0,1-.54-.39,3.35,3.35,0,0,1-.42-.51h0c-1.05-1.5-2-2.88-2.82-4.12-.41-.61-.8-1.19-1.15-1.74s-.66-1-.93-1.5a6.29,6.29,0,0,1-.35-.68l-.07-.16s0-.11-.05-.17,0-.1,0-.16l0-.15a2.37,2.37,0,0,1,.07-1.06,2.15,2.15,0,0,1,.27-.6,1.08,1.08,0,0,1,.13-.18l0,0a1,1,0,0,0-.1.14,3,3,0,0,0-.26.6,2.51,2.51,0,0,0-.06,1l0,.16a1.42,1.42,0,0,0,.05.16.49.49,0,0,0,.05.16l.06.16a6.32,6.32,0,0,0,.36.67c.26.46.58,1,.93,1.5s.74,1.12,1.15,1.74c.83,1.23,1.78,2.61,2.83,4.11h0a2.59,2.59,0,0,0,.94.89,1.75,1.75,0,0,0,.63.18H371l2.84,0,6.14.14,11.25.22h0a5.25,5.25,0,0,0,.38-.58,1.77,1.77,0,0,0,.15-.31,1.17,1.17,0,0,0,.09-.32c.09-.45.17-.89.23-1.31.13-.86.21-1.68.26-2.46a21.09,21.09,0,0,0-.11-4,12.81,12.81,0,0,0-.57-2.52l-.13-.37c0-.11-.08-.19-.11-.27l-.07-.16Z"/><path class="cls-5" d="M377.23,79.57a.26.26,0,0,1,0,.1,2,2,0,0,1,.06.29c0,.26.08.63.11,1.09.06.92,0,2.2,0,3.6s-.05,2.68-.07,3.6c0,.46,0,.83,0,1.1v.37a0,0,0,0,1,0,0v-.4l0-1.1.06-3.6c0-1.41,0-2.68,0-3.6,0-.46-.06-.83-.1-1.09s0-.22,0-.29V79.6A.08.08,0,0,1,377.23,79.57Z"/><path class="cls-15" d="M377.35,73.73l1,5.32,10.83.8,1.67-2.34A30.72,30.72,0,0,0,383,74.29,20.76,20.76,0,0,0,377.35,73.73Z"/><g class="cls-14"><path d="M368.83,86s5.06,2.21,6,2.42,15.74.32,15.74.32l.31-.68L375.39,88S369.17,85.56,368.83,86Z"/></g><path class="cls-5" d="M365.88,84.17l0,0-.07-.07-.33-.26c-.15-.09-.34-.2-.56-.31a5.33,5.33,0,0,0-.81-.3,6.68,6.68,0,0,0-1-.2,5,5,0,0,0-.57,0h-.61a6.31,6.31,0,0,0-2.6.71,6,6,0,0,0-1,.67l0,0,0,0c-.48-.69-.93-1.35-1.32-1.95s-.72-1.14-1-1.6-.47-.83-.62-1.09l-.16-.3,0-.07a.08.08,0,0,1,0,0l0,0,0,.08.17.29c.15.26.37.62.63,1.08s.61,1,1,1.59.84,1.25,1.32,1.94h0a5.18,5.18,0,0,1,1-.68,6.06,6.06,0,0,1,2.62-.71c.11,0,.21,0,.31,0h.3c.2,0,.39,0,.58.06a8.71,8.71,0,0,1,1,.21,5.58,5.58,0,0,1,.8.31,3.45,3.45,0,0,1,.56.33,2,2,0,0,1,.32.26l.08.08S365.88,84.16,365.88,84.17Z"/><path class="cls-5" d="M352.94,87a.69.69,0,0,1-.05-.17c0-.11-.05-.27-.09-.46-.07-.39-.16-.94-.24-1.54s-.15-1.15-.19-1.55c0-.19,0-.36-.05-.47s0-.17,0-.17l0,.17c0,.12,0,.28.06.47,0,.39.12.94.2,1.54s.17,1.15.23,1.54l.08.47C352.93,86.91,352.94,87,352.94,87Z"/><path class="cls-5" d="M357.49,87.36s0,0-.06,0h-.77c-.52,0-1.23-.06-2-.14s-1.49-.19-2-.28l-.6-.11-.17,0-.05,0h.06l.16,0,.61.09c.51.08,1.21.18,2,.26s1.49.13,2,.15l.61,0h.22Z"/><path class="cls-7" d="M407.35,84.77s-.62-1.5-.61-1.55c.1-.27.46-1,.46-1s.29.17.65.43a8.41,8.41,0,0,1,1.21,1.1,1.19,1.19,0,0,1,.3.8V85.8Z"/><path class="cls-5" d="M393.73,77.81a4,4,0,0,1-.29.41c-.17.22-.29.4-.3.39a1.52,1.52,0,0,1,.25-.43A1.85,1.85,0,0,1,393.73,77.81Z"/><path class="cls-16" d="M353,77.85s4.75.4,4.69.51S353,80,353,80Z"/><path class="cls-5" d="M353,80a19.46,19.46,0,0,1,0-2.16s0,.49,0,1.08S353,80,353,80Z"/><path class="cls-5" d="M403.9,85.73l0,0-.08-.12a4,4,0,0,0-.31-.47,6.84,6.84,0,0,0-.57-.68,5.52,5.52,0,0,0-.9-.79,5.14,5.14,0,0,0-1.3-.68,5.58,5.58,0,0,0-1.68-.26,6.81,6.81,0,0,0-1.92.21,6.16,6.16,0,0,0-1,.33,4.71,4.71,0,0,0-.94.55h0L387.94,83l-6.71-.69-.19,0h-.2l-.38,0-.74,0-1.43-.05-2.56-.06c-1.57,0-2.84,0-3.71,0h3.71l2.56.06,1.43,0,.75,0,.38,0H381l.19,0,6.71.68,7.22.75h0a4.24,4.24,0,0,1,1-.55,5.91,5.91,0,0,1,1-.34,7.78,7.78,0,0,1,1.94-.21,5.34,5.34,0,0,1,1.69.28,4.76,4.76,0,0,1,1.31.68,6.06,6.06,0,0,1,.9.8,8.51,8.51,0,0,1,.57.69,5.18,5.18,0,0,1,.3.48A.88.88,0,0,1,403.9,85.73Z"/><path class="cls-5" d="M390.55,88.76h-.86l-2.34,0-7.73-.15-4.25-.09h-.49a1.72,1.72,0,0,1-.45-.16l-.84-.34-1.52-.58-2.19-.86-.59-.25-.15-.07-.05,0,.05,0,.16.06.59.24,2.2.84c.46.17,1,.36,1.52.58l.84.34a1.62,1.62,0,0,0,.44.14,1.64,1.64,0,0,0,.23,0h.25l4.25.09,7.73.17,2.34,0,.64,0h.22Z"/><path class="cls-12" d="M389.3,77.47a3.61,3.61,0,0,0-.39,1.74.81.81,0,0,0,.79.77l1.95,0a.59.59,0,0,0,.59-.5.58.58,0,0,0-.05-.31c-.2-.43-.37-.35-.37-.35a4.34,4.34,0,0,0-1.49-1.74A.75.75,0,0,0,389.3,77.47Z"/><path class="cls-5" d="M391.32,80a.61.61,0,0,0,.18-.09.79.79,0,0,0,.28-.4,1.81,1.81,0,0,0,0-.49.5.5,0,0,0,0-.2.62.62,0,0,0,0,.2,2.23,2.23,0,0,1-.06.47.83.83,0,0,1-.24.38C391.38,80,391.31,80,391.32,80Z"/><path class="cls-7" d="M391.47,78.58a1.32,1.32,0,0,0-.11-.27,2.74,2.74,0,0,0-.41-.54,2.25,2.25,0,0,0-.53-.42.88.88,0,0,0-.25-.11,4.73,4.73,0,0,1,.74.57A5.55,5.55,0,0,1,391.47,78.58Z"/><path class="cls-15" d="M376.41,73.38l0,.06,0,.18.12.66c.1.56.23,1.33.35,2.18s.21,1.63.26,2.19c0,.14,0,.27,0,.38s0,.21,0,.29v.19a.15.15,0,0,1,0,.06.28.28,0,0,0,0-.06v-.19c0-.07,0-.17,0-.28s0-.24,0-.38c-.06-.56-.16-1.34-.28-2.19s-.24-1.63-.33-2.18l-.1-.67,0-.18A.28.28,0,0,1,376.41,73.38Z"/><g class="cls-14"><path d="M353,80l2.35-1.45.07-.44a17.59,17.59,0,0,1,2.27.3C357.68,78.43,354.8,79.38,353,80Z"/></g><g class="cls-14"><path d="M406.74,83.22l1.26,1.1,1.36.22V85.8l-2-1C407.1,84.17,406.88,83.61,406.74,83.22Z"/></g><path class="cls-5" d="M406.73,83.22h0l-.09,0-.35-.16L405,82.45c-.54-.24-1.18-.52-1.9-.81a11,11,0,0,0-1.15-.42,6.19,6.19,0,0,0-.62-.13l-.66-.1-4.53-.7-1.38-.21-.37-.06h0l.37,0,1.38.19c1.16.17,2.77.4,4.54.68l.65.1.64.13c.41.12.79.28,1.15.42.72.3,1.36.59,1.9.83l1.27.58.34.17.09,0Z"/><path class="cls-5" d="M357.69,88.45a4.44,4.44,0,1,0,4.5-4.53A4.51,4.51,0,0,0,357.69,88.45Z"/><path class="cls-5" d="M357.69,88.44h0a4.44,4.44,0,1,0,8.87.13h0Z"/><path class="cls-17" d="M359,88.47a3.12,3.12,0,1,0,3.16-3.18A3.17,3.17,0,0,0,359,88.47Z"/><path class="cls-12" d="M362.17,85.29A3.16,3.16,0,0,0,359,88.47l6.23.09A3.17,3.17,0,0,0,362.17,85.29Z"/><path class="cls-5" d="M360.22,88.49a1.9,1.9,0,1,0,1.93-1.94A1.94,1.94,0,0,0,360.22,88.49Z"/><path class="cls-5" d="M394.41,88.45a4.44,4.44,0,1,0,4.5-4.53A4.53,4.53,0,0,0,394.41,88.45Z"/><path class="cls-5" d="M394.41,88.44h0a4.44,4.44,0,1,0,8.88.13h0Z"/><path class="cls-17" d="M395.73,88.47a3.12,3.12,0,1,0,3.16-3.18A3.17,3.17,0,0,0,395.73,88.47Z"/><path class="cls-12" d="M398.89,85.29a3.17,3.17,0,0,0-3.16,3.18l6.24.09A3.18,3.18,0,0,0,398.89,85.29Z"/><path class="cls-5" d="M397,88.49a1.9,1.9,0,1,0,1.93-1.94A1.93,1.93,0,0,0,397,88.49Z"/><path class="cls-7" d="M382.09,78.16s.81-.46,1.84-1,1.85-1,1.86-1-.82.46-1.84,1S382.1,78.18,382.09,78.16Z"/><path class="cls-7" d="M380.94,78s.78-.45,1.75-1,1.76-1,1.77-.93-.77.45-1.74,1S381,78.06,380.94,78Z"/><path class="cls-7" d="M369.5,77.85l.16-.08.45-.18,1.46-.61,1.46-.62.44-.19.16-.06-.15.08-.44.21c-.36.17-.88.4-1.45.64s-1.09.44-1.47.59l-.45.16Z"/><path class="cls-7" d="M370.56,76.58s.42-.22.95-.47a8.25,8.25,0,0,1,1-.42,8.17,8.17,0,0,1-1,.47A7.5,7.5,0,0,1,370.56,76.58Z"/><path class="cls-5" d="M409.36,85.8s0-.06,0-.18v-.49c0-.21,0-.46,0-.73a1.52,1.52,0,0,0-.4-.76,6,6,0,0,0-.63-.61c-.21-.17-.4-.31-.57-.43l-.39-.28-.14-.11.15.09.4.26c.17.12.37.26.58.43a4,4,0,0,1,.64.61,3.28,3.28,0,0,1,.27.38.91.91,0,0,1,.14.41c0,.28,0,.53,0,.74v.49C409.37,85.74,409.37,85.8,409.36,85.8Z"/><rect class="cls-12" x="356.33" y="52.98" width="47.96" height="4.85" rx="2.36"/><rect class="cls-12" x="354.54" y="104.32" width="51.94" height="4.85" rx="2.36"/><rect class="cls-12" x="354.54" y="113.5" width="51.94" height="4.85" rx="2.36"/><rect class="cls-12" x="354.54" y="122.68" width="51.94" height="4.85" rx="2.36"/><rect class="cls-18" x="356.48" y="156.85" width="50" height="16.39" rx="1.82"/><path class="cls-7" d="M372,166h-1v1.67h-1.78v-6.3h2.88a3.77,3.77,0,0,1,1.49.28,2.22,2.22,0,0,1,1,.81,2.33,2.33,0,0,1,.34,1.24,2.18,2.18,0,0,1-.32,1.19,2.16,2.16,0,0,1-.91.8l1.36,2h-1.91Zm.85-3a1.25,1.25,0,0,0-.83-.25h-1v1.85h1a1.25,1.25,0,0,0,.83-.24.83.83,0,0,0,.28-.68A.84.84,0,0,0,372.87,163Z"/><path class="cls-7" d="M381,166.28v1.38h-5.06v-6.3h4.94v1.38h-3.18v1.06h2.8v1.33h-2.8v1.15Z"/><path class="cls-7" d="M388,161.36v6.3H386.5l-2.78-3.36v3.36H382v-6.3h1.46l2.78,3.36v-3.36Z"/><path class="cls-7" d="M390.57,162.77h-1.93v-1.41h5.64v1.41h-1.93v4.89h-1.78Z"/><path class="cls-19" d="M363.61,49.59a2.34,2.34,0,0,1-.92-.87,2.54,2.54,0,0,1,0-2.54,2.34,2.34,0,0,1,.92-.87,2.8,2.8,0,0,1,1.33-.31,2.94,2.94,0,0,1,1.17.23,2.23,2.23,0,0,1,.86.66l-.85.77a1.4,1.4,0,0,0-1.79-.39,1.15,1.15,0,0,0-.47.48,1.42,1.42,0,0,0-.16.7,1.45,1.45,0,0,0,.16.7,1.15,1.15,0,0,0,.47.48,1.4,1.4,0,0,0,1.79-.39L367,49a2.23,2.23,0,0,1-.86.66,2.94,2.94,0,0,1-1.17.23A2.8,2.8,0,0,1,363.61,49.59Z"/><path class="cls-20" d="M370.64,48.89h-2l-.37.92h-1.36L369,45.09h1.31l2.08,4.72H371Zm-.39-1-.61-1.51-.6,1.51Z"/><path class="cls-21" d="M374.83,48.55h-.73v1.26h-1.33V45.09h2.15a2.6,2.6,0,0,1,1.12.22,1.64,1.64,0,0,1,.72.6,1.66,1.66,0,0,1,.26.93,1.56,1.56,0,0,1-.92,1.48l1,1.49h-1.42Zm.63-2.22a.87.87,0,0,0-.62-.19h-.74v1.38h.74a1,1,0,0,0,.62-.17.72.72,0,0,0,0-1Z"/><path class="cls-22" d="M383.22,49.81l-1.07-1.52-.38,0H380.5v1.5H380V45.09h1.76a2.16,2.16,0,0,1,1.41.43,1.49,1.49,0,0,1,.51,1.19,1.55,1.55,0,0,1-.27.93,1.6,1.6,0,0,1-.8.55l1.15,1.62Zm-.39-2.23a1.22,1.22,0,0,0,0-1.75,1.68,1.68,0,0,0-1.07-.31H380.5v2.37h1.26A1.68,1.68,0,0,0,382.83,47.58Z"/><path class="cls-23" d="M388.2,49.37v.44h-3.33V45.09h3.23v.43h-2.73V47.2h2.44v.42h-2.44v1.75Z"/><path class="cls-24" d="M393.31,45.09v4.72h-.41l-3-3.83v3.83h-.49V45.09h.41l3,3.83V45.09Z"/><path class="cls-25" d="M395.76,45.52h-1.65v-.43h3.81v.43h-1.66v4.29h-.5Z"/><rect class="cls-12" x="91.92" y="181.78" width="270.57" height="36.76"/><g class="cls-13"><rect x="91.92" y="181.78" width="270.57" height="36.76"/></g><path class="cls-12" d="M378.1,179.6c-7.68-4.76-27.63-12.22-33.17-12.85-3.35-.39-18.28-2.44-18.28-2.44l-4.84-.39s-51.44-25.5-59.63-28.66c-12.67-4.9-39.44-9.16-67.84-5.66,0,0-37.94,3.47-46.37,5.92s-49.23,15.16-49.23,15.16-17.88,1.88-17.61,2.57a5.68,5.68,0,0,0,1.74,2.57v11.44a26.54,26.54,0,0,0-2.48,4c-.5,1.28-1.61,11.43-1.61,11.43s-5.35,12.73-5.35,16.07,9.69,16.19,12,18.12,21.39,4.74,21.39,4.74l0-9.62c.5-14.65,11.91-26.37,25.92-26.37s25.41,11.72,25.91,26.37l.06,12.47H307.14l-.1-9.26c-.05-.73-.09-1.46-.09-2.21,0-15.12,11.61-27.37,25.94-27.37s25.93,12.25,25.93,27.37c0,.75,0,1.48-.09,2.21h.53v9.26h17.11s13.89-10.67,13.51-16.07v-15.2a8.19,8.19,0,0,0-2.05-5.45A45.08,45.08,0,0,0,378.1,179.6Z"/><g class="cls-14"><path d="M389.88,197.6l-10.95-4-1.3,6.17-17.48-1s-7.7-15.24-23.44-16.58c-13.47-1.15-24.18,5.8-24.18,5.8l-77-7.92s-39.06-1.54-54.13-1.35-28.34,11.54-28.34,11.54-4.45-6.68-20.21-6.83-22.32,9.43-22.32,9.43a63.42,63.42,0,0,1-30.72-13.13l-.77.64c-.16,1.37-.26,2.33-.26,2.33s-5.35,12.73-5.35,16.07,9.69,16.19,12,18.12,21.39,4.74,21.39,4.74l0-9.62c.5-14.65,11.91-26.37,25.92-26.37s25.41,11.72,25.91,26.37l.06,12.47H307.14l-.1-9.26c-.05-.73-.09-1.46-.09-2.21,0-15.12,11.61-27.37,25.94-27.37s25.93,12.25,25.93,27.37c0,.75,0,1.48-.09,2.21h.53v9.26h17.11s13.89-10.67,13.51-16.07V197.6Z"/></g><path class="cls-5" d="M125.77,151.51a1.88,1.88,0,0,0,.81,3.36l13,1.81,74.13,8.47,90.39,5.19a4.09,4.09,0,0,0,3.7-1.81c.77-1.19,1.06-2.85-.84-4.74-3.79-3.79-20.58-13.55-24.52-15.48a132.89,132.89,0,0,0-72.85-16.76c-12.49.45-36.46,4.15-67.45,8.35a4,4,0,0,0-1.83.75Z"/><path class="cls-15" d="M141.18,155.29c.19-.57,6.86-13.64,8.16-14.4s55.23-7.88,56-6.92,2.59,28.43,2.59,28.43Z"/><polygon class="cls-5" points="161.74 138.89 161.27 158.06 164.05 158.06 164.05 138.57 161.74 138.89"/><path class="cls-5" d="M291.36,153.28s.05.1.13.29l.39.87c.16.39.39.86.6,1.44s.48,1.25.76,2a70.24,70.24,0,0,1,3.17,13.72,115.69,115.69,0,0,1,.66,21.86c-.25,4.22-.69,8.69-1.38,13.37-.35,2.34-.75,4.73-1.25,7.16a12,12,0,0,1-.48,1.83,13.48,13.48,0,0,1-.85,1.7,38,38,0,0,1-2.08,3.2l0,.06h-.07l-61.28-1.16-33.44-.8c-5.31-.11-10.48-.22-15.47-.25-.63,0-1.25,0-1.87,0s-1.23,0-1.86,0a9.24,9.24,0,0,1-3.53-1,12.49,12.49,0,0,1-2.94-2.15,15.62,15.62,0,0,1-2.28-2.79h0c-5.71-8.15-10.87-15.68-15.38-22.4-2.25-3.37-4.35-6.53-6.24-9.48s-3.62-5.67-5.07-8.2a36.25,36.25,0,0,1-1.92-3.68l-.36-.89c-.12-.3-.18-.61-.27-.9s-.19-.58-.24-.87l-.15-.87a13.17,13.17,0,0,1,1.83-9,7.27,7.27,0,0,1,.72-1l-.18.25c-.12.17-.29.42-.5.76a13.07,13.07,0,0,0-1.42,3.27,12.84,12.84,0,0,0-.33,5.71c.05.28.1.57.16.86s.16.57.23.86.16.6.28.89l.36.88a34.15,34.15,0,0,0,1.93,3.65c1.46,2.52,3.18,5.24,5.09,8.18s4,6.09,6.26,9.45c4.53,6.71,9.7,14.23,15.42,22.37h0a14,14,0,0,0,5.11,4.83,8.89,8.89,0,0,0,3.42,1c.6,0,1.22,0,1.84,0h1.87c5,0,10.16.13,15.48.24l33.44.78,61.27,1.2-.11.06c.74-1,1.45-2.09,2.07-3.17a15.11,15.11,0,0,0,.83-1.66,11.64,11.64,0,0,0,.47-1.78c.5-2.42.91-4.81,1.26-7.15.69-4.67,1.15-9.13,1.4-13.34a115,115,0,0,0-.6-21.83,70.86,70.86,0,0,0-3.08-13.71c-.28-.76-.52-1.44-.74-2s-.43-1.05-.58-1.44l-.37-.88C291.39,153.38,291.36,153.28,291.36,153.28Z"/><path class="cls-5" d="M214.89,165.21a2.76,2.76,0,0,1,.15.54c.09.36.19.9.3,1.59.22,1.39.45,3.42.6,5.93.33,5,.2,12,.1,19.62s-.28,14.61-.42,19.63c-.07,2.49-.14,4.51-.18,5.94l-.07,1.62,0,.42c0,.09,0,.14,0,.14s0,0,0-.14v-.42c0-.4,0-.94,0-1.62,0-1.43.05-3.46.08-6,.08-5,.2-12,.33-19.62s.26-14.6,0-19.61c-.12-2.51-.32-4.53-.5-5.92-.09-.69-.17-1.23-.24-1.59l-.07-.41C214.89,165.26,214.88,165.21,214.89,165.21Z"/><path class="cls-15" d="M215.51,133.43l5.53,29,59,4.35L289.1,154s-22.85-13.48-42.93-17.54C225.8,132.31,215.51,133.43,215.51,133.43Z"/><g class="cls-14"><path d="M169.13,200.37s27.55,12,32.56,13.14,85.74,1.78,85.74,1.78l1.67-3.74L204.84,211S171,197.87,169.13,200.37Z"/></g><path class="cls-5" d="M153.06,190.24s-.05,0-.15-.13-.24-.23-.42-.4a19.66,19.66,0,0,0-1.78-1.37,24.56,24.56,0,0,0-3.07-1.73,32.29,32.29,0,0,0-4.36-1.6,35.78,35.78,0,0,0-5.51-1.1c-1-.16-2.05-.21-3.12-.3-.53-.05-1.08,0-1.63,0s-1.11,0-1.68,0a33.53,33.53,0,0,0-14.15,3.87,29.91,29.91,0,0,0-5.47,3.64l-.13.12-.1-.14c-2.63-3.76-5.07-7.32-7.19-10.58s-3.91-6.24-5.37-8.75-2.59-4.53-3.37-5.92c-.37-.69-.67-1.23-.88-1.61l-.22-.42-.07-.15a.63.63,0,0,1,.09.13l.25.41.93,1.58c.81,1.4,2,3.39,3.44,5.87s3.29,5.45,5.42,8.7,4.59,6.79,7.22,10.55l-.23,0a30.69,30.69,0,0,1,5.54-3.69,33.48,33.48,0,0,1,14.28-3.88c.57-.05,1.14,0,1.69,0s1.11,0,1.65,0c1.08.1,2.13.15,3.13.32a36,36,0,0,1,5.54,1.15,29.28,29.28,0,0,1,4.37,1.66,24.71,24.71,0,0,1,3.07,1.78,16.14,16.14,0,0,1,1.75,1.43c.18.18.32.32.4.42A1.59,1.59,0,0,1,153.06,190.24Z"/><path class="cls-5" d="M82.56,205.52a6.4,6.4,0,0,1-.23-.92c-.13-.59-.29-1.46-.49-2.52-.39-2.14-.88-5.1-1.34-8.38s-.83-6.26-1-8.42c-.11-1.08-.19-1.95-.23-2.56a6.61,6.61,0,0,1,0-.94,5.39,5.39,0,0,1,.16.93c.09.66.2,1.52.34,2.55.27,2.15.66,5.12,1.13,8.4s.92,6.23,1.25,8.38c.16,1,.29,1.88.39,2.54A5.7,5.7,0,0,1,82.56,205.52Z"/><path class="cls-5" d="M107.38,207.67a1.14,1.14,0,0,1-.32,0h-.91c-.78,0-1.92,0-3.33-.07-2.81-.1-6.7-.33-11-.77s-8.13-1-10.91-1.48c-1.38-.24-2.5-.45-3.28-.61l-.88-.19c-.21,0-.31-.07-.31-.09a1.29,1.29,0,0,1,.32,0l.89.13,3.3.5c2.78.42,6.63.95,10.9,1.39s8.14.7,11,.86l3.33.17.9.06Z"/><path class="cls-7" d="M378.93,193.55s-3.41-8.19-3.31-8.46c.53-1.47,2.48-5.49,2.48-5.49a37.2,37.2,0,0,1,3.55,2.36,45.35,45.35,0,0,1,6.6,6,6.74,6.74,0,0,1,1.64,4.39v6.85Z"/><path class="cls-5" d="M304.73,155.64a20.68,20.68,0,0,1-1.59,2.21A18.43,18.43,0,0,1,301.5,160a13.1,13.1,0,0,1,3.23-4.37Z"/><path class="cls-16" d="M82.87,155.82s25.83,2.2,25.55,2.79-25.55,8.65-25.55,8.65Z"/><path class="cls-5" d="M82.79,167.59a53.25,53.25,0,0,1-.16-5.86,58.18,58.18,0,0,1,.15-5.85,53.14,53.14,0,0,1,.16,5.85A58.3,58.3,0,0,1,82.79,167.59Z"/><path class="cls-5" d="M360.15,198.75s0-.07-.14-.23-.22-.38-.4-.67c-.35-.6-.92-1.46-1.69-2.54a37.69,37.69,0,0,0-3.13-3.75,31.71,31.71,0,0,0-4.91-4.29,26.66,26.66,0,0,0-7.08-3.67,29.71,29.71,0,0,0-9.16-1.46,39.71,39.71,0,0,0-10.46,1.16,32.38,32.38,0,0,0-5.4,1.82,24.48,24.48,0,0,0-5.16,3l-.05,0h-.05l-39.33-4-36.54-3.77-1.05-.11-1-.06-2.07-.1-4.07-.19-7.77-.28c-5-.16-9.69-.26-14-.33-8.54-.12-15.44-.14-20.21-.16l-5.5,0h-1.43l-.49,0,.49,0H181l5.5,0c4.77,0,11.68,0,20.21.06,4.27,0,8.94.14,14,.29q3.76.1,7.78.27l4.06.18,2.08.1,1,0,1,.11,36.55,3.74,39.32,4.06-.1,0a24.36,24.36,0,0,1,5.24-3,32.54,32.54,0,0,1,5.44-1.83,39.68,39.68,0,0,1,10.52-1.14,30.2,30.2,0,0,1,9.23,1.5,27.09,27.09,0,0,1,7.11,3.73,31.84,31.84,0,0,1,4.91,4.35,36.85,36.85,0,0,1,3.1,3.78c.76,1.1,1.32,2,1.66,2.57S360.15,198.75,360.15,198.75Z"/><path class="cls-5" d="M287.43,215.29h-1.21l-3.47,0L270,215l-42.09-.82-23.17-.5-1.33,0a11.77,11.77,0,0,1-1.32-.06,10,10,0,0,1-2.47-.84c-1.56-.66-3.08-1.27-4.56-1.86-3-1.17-5.73-2.23-8.26-3.2-5-1.92-9.14-3.51-11.93-4.67-1.4-.57-2.49-1-3.22-1.36l-.82-.36-.28-.14.29.1.84.34L174.9,203c2.81,1.12,6.9,2.67,12,4.57,2.53.95,5.31,2,8.27,3.15,1.48.59,3,1.2,4.58,1.85a9.06,9.06,0,0,0,2.4.81,10.8,10.8,0,0,0,1.29.07l1.33,0,23.17.47,42.09.92,12.75.32,3.47.1.9,0Z"/><path class="cls-12" d="M280.61,153.77a20.19,20.19,0,0,0-2.11,9.48,4.41,4.41,0,0,0,4.31,4.22l10.62.09a3.2,3.2,0,0,0,3.19-2.74,3.09,3.09,0,0,0-.27-1.68c-1.11-2.33-2-1.89-2-1.89s-3.21-6.88-8.11-9.49A4.11,4.11,0,0,0,280.61,153.77Z"/><path class="cls-5" d="M291.6,167.54s.43-.08,1-.48a4.14,4.14,0,0,0,1.54-2.17,9.88,9.88,0,0,0,.22-2.66,3.2,3.2,0,0,0-.1-1.1,3.34,3.34,0,0,0-.16,1.09,15.42,15.42,0,0,1-.31,2.57,4.54,4.54,0,0,1-1.35,2.06C291.93,167.29,291.58,167.49,291.6,167.54Z"/><path class="cls-7" d="M292.41,159.8a4.86,4.86,0,0,0-.6-1.43,13.3,13.3,0,0,0-2.19-3,13,13,0,0,0-2.89-2.25,4,4,0,0,0-1.39-.6,24.48,24.48,0,0,1,4,3.12A26.35,26.35,0,0,1,292.41,159.8Z"/><path class="cls-15" d="M210.42,131.51a1.54,1.54,0,0,1,.09.33c.05.26.11.58.19,1,.16.85.39,2.07.65,3.59.52,3,1.22,7.23,1.88,11.88s1.18,8.88,1.44,11.95q.11,1.16.15,2.07c0,.61.07,1.14.07,1.57s0,.73,0,1a1.3,1.3,0,0,1,0,.34,1.38,1.38,0,0,1,0-.34c0-.26,0-.59-.07-1s-.07-.95-.12-1.56-.12-1.3-.2-2.07c-.32-3.06-.86-7.27-1.53-11.92s-1.32-8.85-1.79-11.89c-.23-1.49-.41-2.71-.55-3.6-.05-.4-.1-.73-.14-1S210.4,131.51,210.42,131.51Z"/><g class="cls-14"><path d="M82.87,167.26l12.77-7.85L96,157c5,.51,11,1,12.41,1.59C108.42,159,92.71,164.17,82.87,167.26Z"/></g><g class="cls-14"><path d="M375.62,185.09l6.83,6,7.44,1.21v6.85l-11-5.61C377.58,190.29,376.35,187.24,375.62,185.09Z"/></g><path class="cls-5" d="M375.55,185.09l-.18-.06-.49-.21L373,184l-7-3.09c-2.94-1.29-6.45-2.82-10.37-4.42-2-.78-4-1.63-6.23-2.28-1.1-.29-2.26-.47-3.43-.68l-3.56-.58c-9.64-1.52-18.38-2.81-24.7-3.77L310.25,168l-2-.33-.53-.09-.18,0s.07,0,.19,0l.53.06,2,.26,7.5,1c6.33.9,15.07,2.15,24.71,3.68l3.57.58c1.17.21,2.33.39,3.46.69,2.22.66,4.28,1.52,6.25,2.31,3.93,1.62,7.43,3.17,10.36,4.49s5.29,2.42,6.92,3.18l1.86.9.49.24Z"/><ellipse class="cls-5" cx="132.59" cy="213.94" rx="24.17" ry="25.05"/><path class="cls-5" d="M108.43,213.51s0,.05,0,.07c-.19,13.83,10.48,25.21,23.82,25.41s24.33-10.85,24.52-24.69v-.06Z"/><path class="cls-17" d="M115.62,213.69c-.13,9.71,7.36,17.7,16.73,17.84s17.07-7.62,17.21-17.34-7.35-17.7-16.72-17.84S115.76,204,115.62,213.69Z"/><path class="cls-12" d="M132.84,196.35c-9.37-.14-17.08,7.62-17.22,17.34l33.94.5C149.7,204.48,142.21,196.49,132.84,196.35Z"/><path class="cls-5" d="M122.26,213.78a10.34,10.34,0,1,0,10.48-10.55A10.53,10.53,0,0,0,122.26,213.78Z"/><ellipse class="cls-5" cx="332.63" cy="213.94" rx="24.17" ry="25.05"/><path class="cls-5" d="M308.46,213.51v.07c-.19,13.83,10.47,25.21,23.82,25.41s24.32-10.85,24.52-24.69c0,0,0,0,0-.06Z"/><path class="cls-17" d="M315.66,213.69c-.14,9.71,7.35,17.7,16.72,17.84s17.08-7.62,17.21-17.34-7.35-17.7-16.72-17.84S315.79,204,315.66,213.69Z"/><path class="cls-12" d="M332.87,196.35c-9.37-.14-17.08,7.62-17.21,17.34l33.93.5C349.73,204.48,342.24,196.49,332.87,196.35Z"/><path class="cls-5" d="M322.29,213.78a10.34,10.34,0,1,0,10.49-10.55A10.54,10.54,0,0,0,322.29,213.78Z"/><path class="cls-7" d="M241.34,157.54c0-.08,4.44-2.51,10-5.42s10.11-5.21,10.15-5.13-4.44,2.51-10,5.42S241.38,157.62,241.34,157.54Z"/><path class="cls-7" d="M235.11,156.91c0-.08,4.21-2.48,9.49-5.36s9.61-5.15,9.65-5.07-4.21,2.47-9.5,5.36S235.15,157,235.11,156.91Z"/><path class="cls-7" d="M172.79,155.83a5.53,5.53,0,0,1,.87-.4l2.42-1,8-3.3,7.94-3.39,2.4-1a5.25,5.25,0,0,1,.9-.34,5.17,5.17,0,0,1-.85.45c-.55.28-1.36.66-2.36,1.13-2,.93-4.8,2.17-7.91,3.48s-5.95,2.43-8,3.21l-2.45.91A5.7,5.7,0,0,1,172.79,155.83Z"/><path class="cls-7" d="M178.55,149a51.83,51.83,0,0,1,5.18-2.59,53.28,53.28,0,0,1,5.3-2.29,49.39,49.39,0,0,1-5.18,2.59A50.58,50.58,0,0,1,178.55,149Z"/><path class="cls-5" d="M389.89,199.16a6.43,6.43,0,0,1-.06-1c0-.7,0-1.6-.05-2.69s0-2.5-.07-4-1.17-2.8-2.2-4.13a22.32,22.32,0,0,0-3.42-3.29c-1.14-.93-2.2-1.72-3.09-2.37l-2.13-1.54a6.8,6.8,0,0,1-.77-.58,4.75,4.75,0,0,1,.84.48c.52.33,1.28.82,2.19,1.45s2,1.4,3.14,2.32a21.9,21.9,0,0,1,3.48,3.32,19.86,19.86,0,0,1,1.46,2.06,5.28,5.28,0,0,1,.79,2.26c.05,1.52,0,2.86,0,4s0,2-.05,2.69A6.43,6.43,0,0,1,389.89,199.16Z"/><path class="cls-26" d="M137.56,97.22a19.32,19.32,0,1,0-36,9.76h0l0,.08c.74,1.24,1.67,2.14,2.61,3.45l11.22,14.85a3.48,3.48,0,0,0,5.56,0l11-14.61a41.91,41.91,0,0,0,2.81-3.71l0-.06h0A19.21,19.21,0,0,0,137.56,97.22Zm-19.32,8.41a8.5,8.5,0,1,1,8.5-8.5A8.49,8.49,0,0,1,118.24,105.63Z"/><path class="cls-7" d="M303.26,93.73l3.42.61a10.36,10.36,0,1,0-1.93-3.18h0Z"/><path class="cls-5" d="M303.26,93.73a1.06,1.06,0,0,0,.1-.17l.3-.49,1.12-1.89h-.06s0,0,0,0a.06.06,0,0,0,0,0,10.26,10.26,0,0,1-.58-5,11.44,11.44,0,0,1,.33-1.56,11.29,11.29,0,0,1,.63-1.6,10.19,10.19,0,0,1,2.22-3,10.2,10.2,0,0,1,12.46-1.22,10.13,10.13,0,0,1,3.45,3.58,10.28,10.28,0,0,1-2,12.76,10.27,10.27,0,0,1-10.36,2,10.33,10.33,0,0,1-4.19-2.82l0,0-2.53-.42-.66-.11-.23,0,.21,0,.64.12,2.56.48h0a10.42,10.42,0,0,0,16.82-12.12l-.33-.56c-.13-.18-.26-.35-.38-.53-.25-.35-.56-.65-.83-1-.15-.16-.31-.29-.47-.44s-.3-.29-.47-.42c-.35-.24-.67-.52-1-.72a10.67,10.67,0,0,0-4.58-1.55,10.48,10.48,0,0,0-8.09,2.81A10.45,10.45,0,0,0,305,82.94a12,12,0,0,0-.62,1.62,9.38,9.38,0,0,0-.33,1.59,10.23,10.23,0,0,0,.63,5l.06,0h0a0,0,0,0,0,0,0h0l-1.09,1.94-.27.49A1.14,1.14,0,0,0,303.26,93.73Z"/><polygon class="cls-27" points="314.73 91.71 309.65 88.31 310.84 86.54 314.24 88.82 318.48 83.21 320.18 84.5 314.73 91.71"/><path class="cls-5" d="M265.85,126.36a1.14,1.14,0,0,1,.55-.9c4.83-3.2,8.47-10.29,8.84-16.29l0-1h0c.28-8.58,1.54-19,2.68-21.76,2.09-5.12,9.19-5.6,9.19-5.6,9.42-.68,11.1,6.56,12.05,13.15.59,4.1,2.87,18.75,2.87,18.75l-1.73.67a21.32,21.32,0,0,1-12.6,13.18c-1.74.65-3.21.91-3.9.35a23.75,23.75,0,0,1-9.91,6,12.34,12.34,0,0,1-4.7.62,3.73,3.73,0,0,1-2.73-1.26,2.37,2.37,0,0,1,2-3.77C268.16,127.33,265.81,127.67,265.85,126.36Z"/><path class="cls-28" d="M285.81,83.16l.59-.56,5,2c.92,0,2.45,1.82,2.48,2.74l-.1,20.25c0,1.41.36,2.66-.49,3.79l-.9,1.18a4.7,4.7,0,0,1-7.85-.5,2.19,2.19,0,0,1-.22-.54,3,3,0,0,1-.1-.46c-.19-1.67-.39-2.84-.39-2.84s0-2.86,0-2.84-3.9-.45-5-5.46a40.71,40.71,0,0,1-.28-9.29C278.82,86,282.06,83.16,285.81,83.16Z"/><path class="cls-5" d="M286.47,94.07a.65.65,0,0,0,.66.63.62.62,0,0,0,.63-.62.64.64,0,0,0-.65-.62A.61.61,0,0,0,286.47,94.07Z"/><path class="cls-5" d="M280,94.07a.65.65,0,0,0,.66.63.63.63,0,0,0,.64-.62.65.65,0,0,0-.66-.62A.62.62,0,0,0,280,94.07Z"/><path class="cls-5" d="M279.36,92.24c.08.08.56-.3,1.25-.34s1.23.29,1.3.2-.06-.18-.29-.33a1.79,1.79,0,0,0-1-.27,1.64,1.64,0,0,0-1,.38C279.38,92.05,279.32,92.21,279.36,92.24Z"/><path class="cls-5" d="M286.43,92.32c.09.07.52-.37,1.21-.47s1.25.16,1.31.07-.07-.19-.32-.31a1.72,1.72,0,0,0-1.06-.16,1.67,1.67,0,0,0-.95.48C286.43,92.12,286.38,92.28,286.43,92.32Z"/><path class="cls-5" d="M284,97.39a4.13,4.13,0,0,0-1.14-.15c-.18,0-.35,0-.38-.16a.85.85,0,0,1,.09-.53l.46-1.38a23.79,23.79,0,0,0,1-3.6,22.27,22.27,0,0,0-1.29,3.51l-.44,1.39a1,1,0,0,0-.05.7.46.46,0,0,0,.3.25,1.78,1.78,0,0,0,.31,0A4.87,4.87,0,0,0,284,97.39Z"/><path class="cls-29" d="M283.86,105.38a12.82,12.82,0,0,0,6.66-2.14s-1.61,3.58-6.69,3.37Z"/><path class="cls-29" d="M284.37,99.05a1.26,1.26,0,0,1,1.1-.52,1.15,1.15,0,0,1,.82.38.73.73,0,0,1,.09.83.86.86,0,0,1-.9.28,2.68,2.68,0,0,1-.91-.49.8.8,0,0,1-.21-.2.23.23,0,0,1,0-.26"/><path class="cls-5" d="M286.07,97.77c-.12,0-.08.75-.7,1.32s-1.43.53-1.43.63.19.14.53.13a1.89,1.89,0,0,0,1.19-.48,1.65,1.65,0,0,0,.54-1.11C286.21,97.94,286.12,97.76,286.07,97.77Z"/><path class="cls-5" d="M285.76,89.6c.1.18.77,0,1.6,0s1.51.09,1.59-.09-.11-.25-.4-.39a2.65,2.65,0,0,0-1.22-.23,2.72,2.72,0,0,0-1.21.33C285.84,89.35,285.72,89.52,285.76,89.6Z"/><path class="cls-5" d="M279.46,89.25c.13.15.6,0,1.18-.07s1.07,0,1.17-.12,0-.24-.26-.38a1.71,1.71,0,0,0-1-.21,1.67,1.67,0,0,0-.92.37C279.46,89,279.4,89.18,279.46,89.25Z"/><path class="cls-5" d="M294.39,96s-3.56,1.11-5.58-7.69a12.14,12.14,0,0,0-3.48-5.45l1.13-.34s7,2,7.15,2.07,1.78,3.64,1.78,3.64Z"/><path class="cls-28" d="M293,95.52c0-.38.37-1.28.74-1.36,1-.21,2.78-.22,2.92,2.3.19,3.44-3.3,2.93-3.31,2.83S293.06,96.82,293,95.52Z"/><path class="cls-29" d="M294.33,97.93s.06,0,.16.08a.64.64,0,0,0,.45,0,1.47,1.47,0,0,0,.61-1.37,2.09,2.09,0,0,0-.21-.85.71.71,0,0,0-.48-.43.31.31,0,0,0-.35.18c0,.1,0,.17,0,.17s-.08,0-.06-.19a.39.39,0,0,1,.13-.23.43.43,0,0,1,.32-.1.83.83,0,0,1,.66.5,2,2,0,0,1,.26.94,1.55,1.55,0,0,1-.79,1.54.68.68,0,0,1-.55-.06C294.34,98,294.31,97.93,294.33,97.93Z"/><path class="cls-15" d="M296.67,109s0-.06,0-.17.05-.28.09-.49c.07-.44.18-1.07.31-1.87H297l-.06.41v0l-.07.16.09,0a34.12,34.12,0,0,0,1.1-5.54,33.49,33.49,0,0,0,.21-3.58A16.17,16.17,0,0,0,298,94a6.08,6.08,0,0,0-.63-1.56,7.92,7.92,0,0,0-.95-1.32c-.7-.81-1.45-1.51-2.14-2.2l-3.69-3.63-2.5-2.44-.69-.66-.18-.17-.06,0,.05.07.17.18.67.67,2.46,2.48L294.14,89c.69.69,1.44,1.39,2.13,2.19A6.81,6.81,0,0,1,297.81,94a16.79,16.79,0,0,1,.34,3.89c0,1.26-.08,2.45-.2,3.57A34.47,34.47,0,0,1,296.9,107l.08,0,.07-.16h0l.05-.41H297c-.12.8-.21,1.43-.28,1.87,0,.21,0,.37-.06.5S296.67,109,296.67,109Z"/><path class="cls-15" d="M299,92.32l-.06-.14-.2-.41c-.18-.35-.45-.84-.81-1.44s-.82-1.3-1.36-2-1.19-1.55-1.9-2.34-1.44-1.51-2.13-2.14-1.33-1.15-1.89-1.57-1-.75-1.36-1l-.38-.24a.65.65,0,0,0-.13-.08s0,0,.12.1l.36.27c.32.23.77.56,1.32,1s1.18,1,1.86,1.59,1.4,1.34,2.11,2.13,1.35,1.58,1.9,2.32,1,1.43,1.38,2,.66,1.07.85,1.41l.23.39C298.93,92.28,299,92.33,299,92.32Z"/><path class="cls-29" d="M240,119.23l-3.39,2.3a1.11,1.11,0,0,0,1.59.51c1.17-.52,3.25-1.8,3.25-1.8l1.61.65,1.23-1.49-4-.26A.56.56,0,0,0,240,119.23Z"/><path class="cls-28" d="M253.11,124.42l-8.44-5a.28.28,0,0,0-.13,0h-.92l-3.41.46a.18.18,0,0,0-.12,0l-3.17,2.55a.25.25,0,0,0,.08.44,3.86,3.86,0,0,0,1.59.1,7.58,7.58,0,0,0,2.41-1.41.24.24,0,0,1,.2-.05l2.24.4a.25.25,0,0,1,.21.24l0,.27a.27.27,0,0,1-.15.24,3.9,3.9,0,0,1-2.12.41,7.51,7.51,0,0,0-1.6-.17,6,6,0,0,0-1.74.36.58.58,0,0,0,.24,1c1,.24,3.58.59,4.13.76.76.23,1.09,1.11,3.21,1.79a6.42,6.42,0,0,0,3.27-.32l1.93,1.93a.24.24,0,0,0,.35-.09l2-3.57A.25.25,0,0,0,253.11,124.42Z"/><rect class="cls-15" x="236.78" y="124.84" width="3.07" height="4.48" rx="0.95" transform="translate(442.99 303.29) rotate(-167.34)"/><path class="cls-5" d="M239.16,123s-.16-.07-.4,0a1.21,1.21,0,0,0-.82.53,1.32,1.32,0,0,0-.15,1c.06.24.16.36.19.35s0-.16,0-.38a1.47,1.47,0,0,1,.18-.8,1.32,1.32,0,0,1,.65-.49C239,123,239.16,123,239.16,123Z"/><path class="cls-5" d="M238.81,125.25c0,.06.33.26.8.06a.63.63,0,0,0,.36-.5c0-.15,0-.24-.05-.24s-.11.36-.42.5S238.82,125.17,238.81,125.25Z"/><path class="cls-5" d="M237.27,129.15a.46.46,0,0,1-.12-.14.62.62,0,0,1,0-.48c.14-.55.28-1.08.43-1.65l.41-1.66a.48.48,0,0,1,.27-.38.43.43,0,0,1,.18,0s-.06-.06-.19,0a.52.52,0,0,0-.33.4c-.12.42-.28,1-.44,1.65s-.31,1.23-.41,1.66a.69.69,0,0,0,.07.52C237.19,129.14,237.27,129.16,237.27,129.15Z"/><path class="cls-5" d="M237.7,126.17a6.41,6.41,0,0,0,1.09.37,6.21,6.21,0,0,0,1.12.26,14,14,0,0,0-2.21-.63Z"/><path class="cls-5" d="M237.38,127.53a7.23,7.23,0,0,0,1,.35,6,6,0,0,0,1.07.26,5.54,5.54,0,0,0-1-.36A5.16,5.16,0,0,0,237.38,127.53Z"/><path class="cls-12" d="M237,129.08a.64.64,0,0,1-.19-.65c.09-.43.75-3.09.75-3.09l-.39-.12-.67,3S236.38,128.93,237,129.08Z"/><path class="cls-5" d="M288.19,236.12v.49s-8.29,3.42-8.37,5l16.54-.25-.31-5.5A9.45,9.45,0,0,1,288.19,236.12Z"/><path class="cls-15" d="M296.36,241.37l-.07-1.32-15.83.72s-.73.33-.64.85Z"/><path class="cls-7" d="M288.14,236.66c0,.08.4.11.81.36s.61.59.69.56-.06-.5-.55-.8S288.12,236.58,288.14,236.66Z"/><path class="cls-7" d="M286.41,237.4c0,.08.34.21.62.55s.36.7.44.69.13-.46-.23-.87S286.41,237.32,286.41,237.4Z"/><path class="cls-7" d="M285.46,239.49c.07,0,.18-.39,0-.83s-.59-.61-.62-.54.2.3.37.66S285.38,239.48,285.46,239.49Z"/><path class="cls-5" d="M300,231.13l-7,2,1.76,4-1.82,10.11a1.14,1.14,0,0,0,.79,1.31,1.17,1.17,0,0,0,1.19-.34c1.55-1.74,7.24-8.18,7.1-9l-.23-2.1a14.9,14.9,0,0,0-.46-1.56Z"/><path class="cls-15" d="M293.91,248.55l8-10.08,0,.46a1.24,1.24,0,0,1-.32,1,81.44,81.44,0,0,1-6.72,8.19,1.19,1.19,0,0,1-1,.38Z"/><path class="cls-7" d="M296,243.58a3.37,3.37,0,0,0-1-.76,3.79,3.79,0,0,0-1.3-.12s.12-.12.37-.18a1.85,1.85,0,0,1,1,.08,1.77,1.77,0,0,1,.81.6C296,243.41,296.05,243.57,296,243.58Z"/><path class="cls-7" d="M295.36,245.1a8.24,8.24,0,0,0-1-.37,7,7,0,0,0-1.1,0,1.33,1.33,0,0,1,1.15-.2C295.06,244.62,295.42,245.07,295.36,245.1Z"/><path class="cls-7" d="M297.33,241.58a11.33,11.33,0,0,0-1.55-.68,11.92,11.92,0,0,0-1.68-.23,2.62,2.62,0,0,1,1.75,0A2.47,2.47,0,0,1,297.33,241.58Z"/><path class="cls-15" d="M294.65,235.72a8.36,8.36,0,0,1,.08,1.36h0c-.09.59-.21,1.34-.35,2.15s-.33,1.83-.46,2.45a6,6,0,0,1-.25,1,4.81,4.81,0,0,1,.1-1c.09-.63.23-1.51.4-2.47.14-.81.28-1.55.4-2.13h0A8.36,8.36,0,0,1,294.65,235.72Z"/><path class="cls-5" d="M304.67,170.68c.55-2.68,2-7.52,1.4-9.75-1.28-5.17-3.53-8.15-6.61-14.71h-2.28l-21.95-.39-1.79,4c-2,5.37-3.36,8.58-3.92,12.5-.64,4.52.49,11.07,3,17.69,5.43,14.27,8.45,25.69,8.66,28.77s.54,6.25,3.39,16c2.08,7.11,3.62,11.36,3.62,11.36,2.16,1.22,4.46,1.55,6.54.36L301.1,234s-2-16.76-4.23-21.21c-1.64-3.2-4.32-4.72-3.07-8.9S303,178.9,304.67,170.68Z"/><path class="cls-15" d="M279,157.14s0,0,.09.11l.24.34.93,1.32,3.48,5,0,0v0c-.17,1.88-.23,4.05-.35,6.48s-.24,5.09-.37,7.95-.31,5.93-.48,9.13-.36,6.56-.68,10a41.29,41.29,0,0,0-.38,8.4,18.86,18.86,0,0,0,.27,2,13,13,0,0,0,.47,1.91c.46,1.22,1,2.4,1.49,3.54,2,4.58,3.92,8.68,5.5,12.13s2.87,6.21,3.76,8.15l1,2.21c.11.25.19.44.26.58l.08.2a1.55,1.55,0,0,1-.1-.19c-.07-.13-.16-.32-.28-.57l-1.06-2.2-3.82-8.12c-1.6-3.44-3.51-7.53-5.54-12.11-.51-1.15-1-2.31-1.5-3.55a12.79,12.79,0,0,1-.48-1.94,19.24,19.24,0,0,1-.28-2,41.58,41.58,0,0,1,.38-8.44c.32-3.44.49-6.79.68-10s.34-6.27.5-9.13.28-5.53.4-8,.21-4.6.39-6.48V164l-3.43-5-.9-1.34c-.1-.15-.18-.26-.23-.35Z"/><path class="cls-30" d="M281.91,110.27l1.86-3.34,4,4.53,6.09-4.9,1,1.24,2.22,39.39s-7.78,1.57-11.66,1a45,45,0,0,1-8.46-2.32v-22.4Z"/><path class="cls-5" d="M294,111.87l-.06.07-.17.19-.69.71a26.34,26.34,0,0,1-2.63,2.3l0,0,0,0a29,29,0,0,1-2.41-3l-.24-.34h.1l-1.93,2.6a1.38,1.38,0,0,1-.27.27.53.53,0,0,1-.37.1.63.63,0,0,1-.33-.18l-.22-.26-.76-1c-.45-.57-.83-1-1.09-1.38l-.29-.38a1,1,0,0,1-.1-.13l.11.12.31.36L284,113.3l.77,1c.14.16.28.36.48.4s.4-.15.54-.34l1.92-2.6,0-.07.05.07.24.34a30.06,30.06,0,0,0,2.39,3h-.07A34.1,34.1,0,0,0,293,112.8l.7-.69.19-.18C294,111.88,294,111.86,294,111.87Z"/><g class="cls-31"><path d="M284.82,114.36s1,1.26,1.31.94,1.79-2.65,2-2.74,2,3.17,2.72,2.94,3.26-2.77,3.26-2.77l.05-1-3.71,3.38-2.64-3.36-2.22,2.89S285.09,115,284.82,114.36Z"/></g><path class="cls-5" d="M286.53,148.45a2.12,2.12,0,0,1,0-.37l0-1.06c0-.94.09-2.26.16-3.88.13-3.29.32-7.82.49-12.83s.3-9.55.39-12.83c0-1.63.09-3,.11-3.89,0-.45,0-.8,0-1.06a1.82,1.82,0,0,1,0-.37,1.53,1.53,0,0,1,0,.37v1.06c0,.94,0,2.26,0,3.89-.05,3.28-.15,7.82-.32,12.84s-.39,9.54-.56,12.82c-.1,1.63-.18,3-.23,3.89,0,.44-.06.79-.08,1.05A2,2,0,0,1,286.53,148.45Z"/><g class="cls-31"><path d="M279.46,132.55l-4.23,27.69.33,3a1,1,0,0,0,1.49-.14,3.08,3.08,0,0,0,.58-1.55A125.93,125.93,0,0,0,279.46,132.55Z"/></g><path class="cls-32" d="M273.52,110.37c-1.55.48-2.25,1.49-3.27,3.33l-7.51,14.66s-10.46-5.22-10.48-5.1l-3.87,5.84,12.26,7.58a6.29,6.29,0,0,0,8.46-1.72l3.86-5.47,3.22-19.64Z"/><path class="cls-33" d="M279.32,109.23l-4.76.94-1.66,17.75.61,12.27,0,.49-8.22,18.41c1.83,3.28,6.8,4.82,10.31,5.65,0,0,3.55-25.16,3.78-30.7s4-26.61,4-26.61Z"/><path class="cls-5" d="M266.32,157l0-.08.1-.25.4-.92c.35-.82.87-2,1.5-3.45l5.14-11.66v0c0-1.25-.08-2.55-.15-3.88-.13-3-.3-5.86-.41-8.46s-.17-4.94-.2-6.91,0-3.56,0-4.66c0-.55,0-1,0-1.27v-.33a.87.87,0,0,0,0-.11v.44c0,.3,0,.72,0,1.27,0,1.1,0,2.69,0,4.66s.1,4.31.22,6.91.27,5.45.42,8.45c.07,1.34.11,2.64.15,3.89h0v0l-5.17,11.64-1.53,3.43-.42.92-.11.24A.46.46,0,0,0,266.32,157Z"/><path class="cls-5" d="M279.15,131.29a.32.32,0,0,1,0-.06l0-.18-.16-.68c-.12-.6-.3-1.46-.46-2.54s-.32-2.36-.45-3.79-.22-3-.3-4.67c0-.62-.06-1.23-.08-1.82l0-.88,0-.43v-.33a.11.11,0,0,1,0,0,.06.06,0,0,1,0,0,0,0,0,0,1,0,0s0,0,.06,0,0,0,0,0l-.08,0,1.28-.88V115l-1.39-.65,0,0v0c.21-.79.46-1.48.68-2.1s.42-1.16.59-1.59.31-.78.41-1l.11-.27,0-.09s0,0,0,.1l-.09.27c-.09.24-.22.58-.38,1s-.36,1-.57,1.59-.46,1.32-.66,2.11l0-.06,1.39.64.09,0-.08,0-1.27.9-.08,0s0,0,0,0,0,0,0,0h0v.36l0,.43c0,.29,0,.59,0,.88,0,.6.06,1.2.09,1.82.07,1.66.17,3.24.29,4.67s.27,2.71.42,3.79.32,1.94.43,2.54l.13.69,0,.18A.28.28,0,0,1,279.15,131.29Z"/><path class="cls-34" d="M303.1,143l3-30.65-8.53-3.13a21.93,21.93,0,0,1-3.12-2.08l-.32,4.1s-1.15,19.67.66,29.58,1.56,9.57,2.89,16c1,4.69,1.13,8.79,2.59,9.2s8.83-2.28,8.83-2.28Z"/><path class="cls-35" d="M306.13,112.35a6.15,6.15,0,0,1,3,4.88c.34,3.18.9,22.69.83,24.26s-1.43,6-3.87,6.18a4.65,4.65,0,0,1-4.9-2.73l1-10Z"/><path class="cls-5" d="M296.35,130.23v0l0-.17c0-.16.08-.38.13-.66.11-.56.26-1.38.41-2.4.3-2,.56-4.87.71-8,0-.74.07-1.47.1-2.16,0-.35,0-.7,0-1l0-.49v-.37a.07.07,0,0,0,0,0v0h.05s0,0,0,0h-.08l-1.27-.89-.07,0,.08,0,1.39-.64,0,.05c-.14-.62-.21-1.19-.28-1.69s-.13-.93-.2-1.28a7.45,7.45,0,0,0-.19-.8l-.07-.2a.31.31,0,0,0,0-.07.14.14,0,0,1,0,.07,1.62,1.62,0,0,1,.08.2,4.53,4.53,0,0,1,.22.79c.08.35.15.78.22,1.28s.15,1.07.3,1.68v0h0l-1.39.65v-.09l1.28.89-.08,0v0a.07.07,0,0,1,0,0l0,0h0s0,0,0,0v0a.2.2,0,0,1,0,.07v.37l0,.5c0,.34,0,.68,0,1,0,.7-.07,1.42-.1,2.16a75.81,75.81,0,0,1-.75,8c-.15,1-.32,1.84-.44,2.4-.06.28-.12.49-.15.65l0,.17A.12.12,0,0,1,296.35,130.23Z"/><g class="cls-31"><path d="M283.8,146.27s-.58.76.7,1,15.8-.84,15.8-.84l2.76,1.6-.36-1.16-2.31-2.45Z"/></g><path class="cls-5" d="M301.24,122.12l-18.27.94a.84.84,0,0,0-.8.79L281,145.53a.85.85,0,0,0,.89.89l17.73-.93a.83.83,0,0,0,.8-.77L302.12,123A.84.84,0,0,0,301.24,122.12Z"/><path class="cls-5" d="M305.08,117.37l0,.2-.11.55c-.09.49-.23,1.18-.4,2-.33,1.72-.77,4.1-1.19,6.74s-.73,5-.94,6.77l-.25,2.06-.07.56a1.09,1.09,0,0,1,0,.19s0-.07,0-.2,0-.32.05-.56c0-.49.11-1.19.21-2.06.19-1.74.49-4.14.91-6.78s.87-5,1.22-6.73c.18-.86.33-1.55.44-2l.13-.55Z"/><path class="cls-28" d="M301.62,136.32s1.05.06,2,1.62l1.78,1.13a4.54,4.54,0,0,1,0,4.74,2.1,2.1,0,0,1-3.44.35s-1.88.93-2.41.77a39,39,0,0,1-4.61-2.53c-.16-.13-1.31-1.45-1.31-1.45s-1.59-.34-1.77-.7-.19-1.2.88-1.12c0,0-1.05-.32-1.17-.84s0-1.21,1.85-.95,5.4,1.25,5.81,1.15a.26.26,0,0,0,0-.47c-.13-.06-4.31-1.68-5-1.87s-.83-1.81.67-1.43,6.37,1.56,6.37,1.56Z"/><path class="cls-29" d="M298.86,142.52a6,6,0,0,1-.77-.23c-.47-.16-1.13-.37-1.86-.58s-1.4-.39-1.88-.51a7.11,7.11,0,0,1-.78-.22l.22,0,.58.11c.49.11,1.16.27,1.89.49s1.39.43,1.86.61l.55.21C298.8,142.48,298.87,142.51,298.86,142.52Z"/><path class="cls-29" d="M299.46,140.58a.8.8,0,0,1-.27,0l-.74-.1c-.62-.1-1.48-.24-2.42-.45s-1.78-.41-2.39-.58l-.71-.22-.26-.09.27.05.72.18c.61.15,1.46.35,2.4.55s1.79.36,2.4.47l.74.14Z"/><path class="cls-29" d="M304.53,140.17s0,.07,0,.19a2.48,2.48,0,0,1-.07.52,4.63,4.63,0,0,1-1.86,2.82l-.44.27L302,144s.23-.15.58-.41a5.12,5.12,0,0,0,1.14-1.23,4.94,4.94,0,0,0,.68-1.54C304.49,140.44,304.51,140.17,304.53,140.17Z"/><path class="cls-5" d="M305.12,144.41s.23-.25.5-.72a4.11,4.11,0,0,0,.13-4c-.25-.48-.48-.73-.46-.75a1.1,1.1,0,0,1,.17.17,3.32,3.32,0,0,1,.36.54,3.92,3.92,0,0,1,.51,2.07,4.1,4.1,0,0,1-.63,2,4,4,0,0,1-.4.51A1,1,0,0,1,305.12,144.41Z"/><path class="cls-5" d="M309.24,136.63s-.3-.2-.82-.45a5.66,5.66,0,0,0-.93-.36,7.23,7.23,0,0,0-1.21-.22,6.17,6.17,0,0,0-1.23,0,5.56,5.56,0,0,0-1,.21c-.55.17-.86.35-.87.33a.87.87,0,0,1,.21-.14l.27-.12a3,3,0,0,1,.36-.15,5.65,5.65,0,0,1,1-.24,6.31,6.31,0,0,1,1.25-.05,6.4,6.4,0,0,1,1.23.23,5.68,5.68,0,0,1,.94.39,3.4,3.4,0,0,1,.34.2,1.91,1.91,0,0,1,.24.17A.94.94,0,0,1,309.24,136.63Z"/><g class="cls-31"><path d="M297.29,109.61s1.54,3.6,1.33,3.9a2.49,2.49,0,0,1-1,.51s1.33.57,1.33,1.08c0,1-1.43,7-1.43,7l.35-7.33-1.27-.89,1.39-.65Z"/></g><path class="cls-15" d="M288.37,122.78c-.06.22.16-1.81.16-1.81l8.62-.38-.25,1.76Z"/><path class="cls-36" d="M238.58,132.2c-.38.78-.68,1.45-.73,1.56l-.41-3s-.9-.06-1,1.05a20.17,20.17,0,0,1-.33,2l-.46.09-1.13.09-3.12-1.7,1,2.44s1.75.61,1.89.64,5-.76,5-.76,1.07-3.35,1.07-3.35S239,131.35,238.58,132.2Z"/><path class="cls-15" d="M176.49,180.43s1.32-12.08,4.15-13.42,6.75-2.23,7.82-.42a21.49,21.49,0,0,1,2.61,7.42,45.37,45.37,0,0,1,.18,7.31L188,181s.16-12-.82-13.82-6-.35-6.49,1.8S179,180.7,179,180.7Z"/><path class="cls-15" d="M165.26,197.46c.15-5,.63-16,.84-20.8a2.45,2.45,0,0,1,2.47-2.34l29.63.17a2.45,2.45,0,0,1,2.44,2.39l.58,20.46a2.46,2.46,0,0,1-2.44,2.53l-31.05.12A2.46,2.46,0,0,1,165.26,197.46Z"/><path class="cls-5" d="M165.26,197.46a2.73,2.73,0,0,0,.28,1.15,2.42,2.42,0,0,0,1,1,2.57,2.57,0,0,0,.86.29,8.76,8.76,0,0,0,1,0l12.58-.09,8.68,0,4.84,0h3.82a3.23,3.23,0,0,0,1.25-.14,2.33,2.33,0,0,0,1.51-1.88,12,12,0,0,0,0-1.34c0-.45,0-.91,0-1.37-.06-1.83-.11-3.71-.17-5.62-.11-3.82-.22-7.77-.33-11.82a4.55,4.55,0,0,0-.17-1.45,2.39,2.39,0,0,0-.87-1.11,2.45,2.45,0,0,0-1.34-.4h-1.49l-5.82,0-11-.07-10-.07H168.7a2.4,2.4,0,0,0-1.07.19,2.37,2.37,0,0,0-1.35,1.55,4.51,4.51,0,0,0-.1,1.05c0,.35,0,.7-.05,1,0,.69,0,1.37-.08,2-.23,5.29-.42,9.58-.55,12.56-.07,1.47-.13,2.62-.16,3.41,0,.39,0,.68-.05.89a2.29,2.29,0,0,1,0,.3v-.3c0-.21,0-.5,0-.89,0-.79.06-1.94.11-3.41.11-3,.27-7.27.47-12.57,0-.67,0-1.34.08-2l0-1.05a5.14,5.14,0,0,1,.1-1.09,2.56,2.56,0,0,1,1.46-1.69,2.8,2.8,0,0,1,1.15-.21h1.16l10,.05,11,.06,5.82,0h1.49a2.61,2.61,0,0,1,2.61,2.44l0,.76c.11,4.05.22,8,.33,11.83,0,1.9.11,3.78.16,5.62,0,.46,0,.91,0,1.37a12.52,12.52,0,0,1,0,1.37,2.59,2.59,0,0,1-1.67,2.07,3.59,3.59,0,0,1-1.33.15h-8.66L181,200H168.4a9.18,9.18,0,0,1-1.06,0,2.57,2.57,0,0,1-.87-.32,2.43,2.43,0,0,1-1-1.06,2.5,2.5,0,0,1-.23-.86A2.46,2.46,0,0,1,165.26,197.46Z"/><path class="cls-5" d="M198.58,182a1.76,1.76,0,0,1,0,.22v.66c0,.6,0,1.46,0,2.56,0,2.24,0,5.47-.05,9.45v.76a1.49,1.49,0,0,1-.17.79,1.38,1.38,0,0,1-.61.56,2,2,0,0,1-.83.12H186.05l-8.27,0h-7.16a2.38,2.38,0,0,1-.59,0,1.35,1.35,0,0,1-.93-.75,1.53,1.53,0,0,1-.13-.51c0-.18,0-.33,0-.5s0-.65,0-1c0-.64,0-1.28,0-1.92,0-1.28.06-2.54.08-3.77q.09-3.72.16-7.16v-.11h.11c8.51.52,15.82.66,21,.68,2.58,0,4.63,0,6,0h2l-.42,0-1.6.05c-1.41,0-3.46.06-6,.07-5.18,0-12.48-.1-21-.6l.11-.11c-.05,2.29-.1,4.69-.15,7.16,0,1.24-.05,2.5-.08,3.77,0,.64,0,1.28,0,1.93,0,.32,0,.64,0,1a1.94,1.94,0,0,0,.1.91,1.18,1.18,0,0,0,.78.63,3,3,0,0,0,.54,0h7.16l8.27,0,7.47,0,3.39,0a1.71,1.71,0,0,0,.76-.11,1.2,1.2,0,0,0,.53-.49,1.21,1.21,0,0,0,.16-.7v-.75c.06-4,.11-7.18.14-9.41,0-1.11,0-2,.05-2.58v-.67C198.58,182.09,198.58,182,198.58,182Z"/><path class="cls-5" d="M190.07,195.15a4.93,4.93,0,0,0,.52-.07,2.6,2.6,0,0,0,1.28-.71,2.68,2.68,0,0,0,.72-2.15c0-.94,0-2,0-3.16,0-.59,0-1.2,0-1.84a2.6,2.6,0,0,0-.52-1.81,2.43,2.43,0,0,0-1.76-.93c-.72,0-1.49,0-2.26,0L178,184.37a2.43,2.43,0,0,0-2.47,2.35c0,.42,0,.85,0,1.27l0,2.48c0,.4,0,.8,0,1.2a11.13,11.13,0,0,0,0,1.16,2.45,2.45,0,0,0,1.15,1.75,2.51,2.51,0,0,0,1,.35c.33,0,.7,0,1,0l3.82,0,5.55.09,1.5,0,.39,0H188l-5.55,0-3.83,0c-.34,0-.68,0-1,0a2.57,2.57,0,0,1-1.06-.36,2.66,2.66,0,0,1-1.25-1.9,11.7,11.7,0,0,1,0-1.18c0-.4,0-.8,0-1.21,0-.81,0-1.63,0-2.47,0-.43,0-.85,0-1.28a2.62,2.62,0,0,1,.38-1.28,2.66,2.66,0,0,1,2.31-1.28l10.06.1c.78,0,1.53,0,2.27,0a2.62,2.62,0,0,1,1.89,1,2.75,2.75,0,0,1,.55,1.92c0,.64,0,1.25,0,1.84,0,1.17,0,2.23,0,3.16,0,.23,0,.45,0,.68a2.49,2.49,0,0,1-.16.61,2.45,2.45,0,0,1-.6.92,2.52,2.52,0,0,1-1.34.69A1.71,1.71,0,0,1,190.07,195.15Z"/><g class="cls-31"><path d="M169.9,196.92A47.37,47.37,0,0,0,197,197Z"/></g><rect class="cls-12" x="182.21" y="185.53" width="5.48" height="1.98" rx="0.86" transform="translate(1.71 -1.68) rotate(0.52)"/><path class="cls-28" d="M186.54,162a8.61,8.61,0,0,1,1.35,1.5,23.54,23.54,0,0,1,1,3.28s-.49.45-1.37-1a12,12,0,0,1-1.14-2.11Z"/><path class="cls-28" d="M182.18,156.69l1.17,2.07,3.24,3.28,1.22,4.86a2.19,2.19,0,0,1-.16,1.53.78.78,0,0,1-.33.36c-.36.15-1.39-.38-1.39-.38s-.75.93-1.55.39c0,0-1.15.59-1.79,0,0,0-.73.58-1.27.22a18.09,18.09,0,0,1-2.1-2.63l-2.09-7.49Z"/><path class="cls-37" d="M227.66,136.72l7.48.73s6.21-2.28,6.91-2.57a.58.58,0,0,0,.33-.34.7.7,0,0,0-.79-.9l-7,1a1.46,1.46,0,0,1-1.15-.36l-2.42-2.18s1.33-.85,2.2-1.53a1.34,1.34,0,0,0,.5-1.55c-.9-.05-6,2.37-6,2.37l-2.15,1.07Z"/><path class="cls-5" d="M201.88,78.77a2.18,2.18,0,0,0,.83-4.26,2.35,2.35,0,0,0,.33-2.64,2.33,2.33,0,0,0-2.4-1.14,2.71,2.71,0,0,0-4.14-2.13,3,3,0,0,0-3.76,0,2.16,2.16,0,0,0-1.83,3.72"/><path class="cls-37" d="M202.2,79.07a9.24,9.24,0,0,0-9.4-8.31h-.48c-5.16.41-7.69,5-7.14,10.17l.47,18.42h0l8.87,9.59,3.75-6.13,0-6.11s4.94-.88,4.9-5.85C203.11,88.47,202.66,83.53,202.2,79.07Z"/><path class="cls-36" d="M198.27,96.7a12.06,12.06,0,0,1-6.55-1.76s1.53,3.63,6.48,3.08Z"/><path class="cls-5" d="M201,83.61a.71.71,0,0,1-.67.73.67.67,0,0,1-.74-.62.69.69,0,0,1,.66-.73A.68.68,0,0,1,201,83.61Z"/><path class="cls-5" d="M201.19,81.52c-.09.09-.63-.29-1.4-.27s-1.31.41-1.39.32,0-.21.28-.39a1.91,1.91,0,0,1,1.12-.38,1.88,1.88,0,0,1,1.11.34C201.15,81.31,201.23,81.48,201.19,81.52Z"/><path class="cls-5" d="M194.05,83.9a.71.71,0,0,1-.67.73.67.67,0,0,1-.74-.62.71.71,0,0,1,.67-.73A.67.67,0,0,1,194.05,83.9Z"/><path class="cls-5" d="M193.69,81.82c-.08.1-.63-.29-1.39-.27s-1.32.41-1.4.32,0-.21.28-.39a2,2,0,0,1,1.12-.37,1.88,1.88,0,0,1,1.11.33C193.65,81.62,193.73,81.78,193.69,81.82Z"/><path class="cls-5" d="M196.58,87.42a5.74,5.74,0,0,1,1.24-.25c.19,0,.37-.06.4-.2a.91.91,0,0,0-.14-.57c-.19-.47-.39-1-.61-1.47a24.81,24.81,0,0,1-1.37-3.86,26,26,0,0,1,1.68,3.74c.2.51.4,1,.58,1.48a1.07,1.07,0,0,1,.12.76.49.49,0,0,1-.31.29,1.1,1.1,0,0,1-.33,0A4.6,4.6,0,0,1,196.58,87.42Z"/><path class="cls-5" d="M193.87,79.22c-.1.2-.76,0-1.56,0s-1.48.14-1.56-.06.1-.27.39-.43a2.42,2.42,0,0,1,1.2-.28,2.36,2.36,0,0,1,1.18.33C193.79,79,193.91,79.13,193.87,79.22Z"/><path class="cls-5" d="M201.22,78.82c-.15.17-.79,0-1.55,0s-1.39.14-1.54,0,0-.26.3-.43a2.53,2.53,0,0,1,1.26-.31,2.42,2.42,0,0,1,1.24.32C201.2,78.55,201.29,78.73,201.22,78.82Z"/><path class="cls-37" d="M186.09,85.76a1.35,1.35,0,0,0-1.49-1.27c-.92.11-1.94.65-1.84,2.57.18,3.39,3.55,2.51,3.55,2.41S186.17,87.17,186.09,85.76Z"/><path class="cls-36" d="M185.51,88.23s-.06,0-.16.1a.57.57,0,0,1-.44,0,1.45,1.45,0,0,1-.75-1.28,2.14,2.14,0,0,1,.12-.85.69.69,0,0,1,.42-.48.3.3,0,0,1,.36.15c.05.09,0,.16.05.16s.07-.06,0-.2a.38.38,0,0,0-.15-.2.44.44,0,0,0-.33-.07.83.83,0,0,0-.59.56,2,2,0,0,0-.15.95,1.52,1.52,0,0,0,.94,1.42.61.61,0,0,0,.53-.12C185.5,88.31,185.52,88.24,185.51,88.23Z"/><path class="cls-5" d="M199.23,72.07a.9.9,0,0,0-.12-.24,2.2,2.2,0,0,0-1.71-.93,8,8,0,0,0-1.2-.47,3,3,0,0,0-5-.11l-.41.08a3,3,0,0,0-4.56,1.4A2.19,2.19,0,0,0,183.79,75a2.09,2.09,0,0,0-1.11,1.68,1.23,1.23,0,0,0,1.26,1.21,44.2,44.2,0,0,0,.25,5.23c.09,1.18,1.62,1.86,1.74,2.66.62,4.11,1.91,1.8,2.25-6.73a2.61,2.61,0,0,0,.25-.23c.18-.16.22-.37.37-.55s.52-.16.81-.14a2.15,2.15,0,0,0,2.21-1.6.91.91,0,0,0,1.22.09,4.63,4.63,0,0,0,.91-1A1.4,1.4,0,0,1,195.1,75a3.24,3.24,0,0,0,.74.15c.45,0,.65-.58.71-1a2.1,2.1,0,0,1,.32-1.07,2.54,2.54,0,0,1,.86-.27l.51.07h.23l.32.12c1.51.69,2.89,3.77,2.89,3.77A6,6,0,0,0,199.23,72.07Z"/><path class="cls-15" d="M183.36,75.23s0,0,0,0a1.37,1.37,0,0,1,.1-.14,1.87,1.87,0,0,1,.52-.39,2.11,2.11,0,0,1,1-.24,2,2,0,0,1,1.27.44l-.09,0a2.69,2.69,0,0,1,1.37-1.73,3.25,3.25,0,0,1,1.21-.39,4,4,0,0,1,1.34.06,7,7,0,0,1,2.3,1l-.1,0a3,3,0,0,1,1.5-1.63,2.83,2.83,0,0,1,1.73-.25,2.67,2.67,0,0,1,1.08.41,1.25,1.25,0,0,1,.25.18.3.3,0,0,1,.08.07s-.12-.08-.35-.22a3.3,3.3,0,0,0-1.07-.36,2.8,2.8,0,0,0-1.67.27,2.94,2.94,0,0,0-1.43,1.58l0,.08-.07,0a7,7,0,0,0-2.26-1,4,4,0,0,0-1.29-.07,3.29,3.29,0,0,0-1.17.38,2.57,2.57,0,0,0-1.32,1.64l0,.09-.07-.06a1.86,1.86,0,0,0-1.2-.44,2.25,2.25,0,0,0-1,.2A2.19,2.19,0,0,0,183.36,75.23Z"/><path class="cls-15" d="M196.9,72.88a1.11,1.11,0,0,0-.05.13,2.2,2.2,0,0,0-.12.4c0,.17-.08.39-.13.65a2.09,2.09,0,0,1-.32.84.7.7,0,0,1-.47.26,2.26,2.26,0,0,1-.58,0,1.1,1.1,0,0,0-.57,0,1.42,1.42,0,0,0-.49.4c-.15.16-.28.35-.43.53a2.33,2.33,0,0,1-.5.55,1.58,1.58,0,0,1-.74.27,1.43,1.43,0,0,1-.41,0,.56.56,0,0,1-.37-.24l.13,0a2.16,2.16,0,0,1-.22.58,2,2,0,0,1-.4.49,2.3,2.3,0,0,1-1.18.52,2.45,2.45,0,0,1-.54,0,1.38,1.38,0,0,0-.5,0,.73.73,0,0,0-.35.3,4.32,4.32,0,0,1-.34.39,2.66,2.66,0,0,1-1.73.86,2.55,2.55,0,0,1-2.38-1.93l.06,0a1.34,1.34,0,0,1-1.11-.25,1.22,1.22,0,0,1-.46-.72,1.41,1.41,0,0,1,0-.54l0-.13,0,0a1.47,1.47,0,0,0,0,.71,1.19,1.19,0,0,0,.46.67,1.25,1.25,0,0,0,1,.21h0v0a2.45,2.45,0,0,0,.76,1.21,2.36,2.36,0,0,0,1.52.61,2.51,2.51,0,0,0,1.64-.83,2.91,2.91,0,0,0,.33-.37.86.86,0,0,1,.42-.35.9.9,0,0,1,.28,0l.26,0a2.44,2.44,0,0,0,1.63-.52,1.78,1.78,0,0,0,.37-.45,1.76,1.76,0,0,0,.2-.54l0-.15.09.13a.7.7,0,0,0,.65.2,1.58,1.58,0,0,0,.68-.24,2.6,2.6,0,0,0,.47-.52c.15-.19.29-.37.44-.54a1.64,1.64,0,0,1,.53-.42,1.15,1.15,0,0,1,.63,0,2.74,2.74,0,0,0,.56,0,.61.61,0,0,0,.41-.23,1.92,1.92,0,0,0,.32-.8c.06-.25.1-.47.15-.65a3.19,3.19,0,0,1,.14-.39Z"/><path class="cls-36" d="M194.23,88.81a1.87,1.87,0,0,0,.76,2.27,1.23,1.23,0,0,0,.94.11,1.27,1.27,0,0,0,.86-.7,2.39,2.39,0,0,0,.21-1.14C196.23,89.18,195,89,194.23,88.81Z"/><path class="cls-5" d="M196.68,90.72a1,1,0,0,1-.2.2,1.47,1.47,0,0,1-.73.27,1.51,1.51,0,0,1-1.1-.34,1.78,1.78,0,0,1-.64-1.26,2.09,2.09,0,0,1,.08-.75l0-.06h.06l2,.41a5.85,5.85,0,0,1,.79.19,4.27,4.27,0,0,1-.81-.11l-2-.35.08-.05a2,2,0,0,0-.07.7,1.65,1.65,0,0,0,.58,1.17,1.49,1.49,0,0,0,1,.34,1.46,1.46,0,0,0,.71-.21A2,2,0,0,1,196.68,90.72Z"/><path class="cls-5" d="M192.37,225.48l-.48,11.06s11.08,4.21,11.19,6.26l-21.49-.17,0-17.27Z"/><path class="cls-15" d="M181.59,242.63l.08-1.74,20.57.81s.95.43.84,1.1Z"/><path class="cls-5" d="M192.24,236.43c0,.11-.53.15-1.05.49s-.8.77-.9.73.07-.65.71-1S192.26,236.34,192.24,236.43Z"/><path class="cls-5" d="M194.48,237.38c0,.1-.43.28-.79.72s-.47.91-.57.9-.17-.59.29-1.13S194.48,237.28,194.48,237.38Z"/><path class="cls-5" d="M195.74,240.09c-.09,0-.24-.5,0-1.08s.76-.79.81-.71-.26.4-.48.87S195.85,240.08,195.74,240.09Z"/><path class="cls-5" d="M192.07,233.9c0,.09-.53-.05-1.12,0s-1.06.22-1.11.13.39-.46,1.09-.49S192.12,233.82,192.07,233.9Z"/><path class="cls-5" d="M192.34,233.77a17.38,17.38,0,0,1,0,2.67l-.08-.13c1.25.47,2.92,1.12,4.69,1.95a25.14,25.14,0,0,1,4.76,2.75,4.83,4.83,0,0,1,1.18,1.2c.23.34.2.6.16.59a1.69,1.69,0,0,0-.27-.52,6.36,6.36,0,0,0-1.22-1.07,30.44,30.44,0,0,0-4.76-2.62c-1.76-.83-3.41-1.5-4.64-2l-.09,0v-.09A19.24,19.24,0,0,1,192.34,233.77Z"/><path class="cls-5" d="M178.48,148.32l-2.15,12.6,5.26,29.57s-.41,14.9-1.18,23.37c-.67,7.37.42,20.19.42,20.19h11.73l4.2-42.76,2.6-26.67,4.72-15.79Z"/><path class="cls-5" d="M199.27,223.56,196.2,234.2s9.78,6.69,9.4,8.71l-20.84-5.21,4.1-16.78Z"/><path class="cls-15" d="M184.76,237.7l.48-1.68,19.8,5.63s.83.64.56,1.26Z"/><path class="cls-15" d="M196.56,234.17c0,.11-.55,0-1.13.23s-1,.56-1,.5.21-.62.92-.85S196.61,234.09,196.56,234.17Z"/><path class="cls-15" d="M198.52,235.63c0,.1-.49.16-.94.51s-.67.77-.77.74,0-.62.55-1S198.54,235.53,198.52,235.63Z"/><path class="cls-15" d="M199.11,238.55c-.1,0-.12-.54.29-1s.93-.6.95-.5-.35.32-.67.73S199.21,238.57,199.11,238.55Z"/><path class="cls-5" d="M197,231.67c-.07.08-.5-.17-1.08-.28s-1.08,0-1.11-.13.49-.36,1.18-.23S197.06,231.6,197,231.67Z"/><path class="cls-5" d="M208.61,149l.54,5.45-.21,38.16a14.35,14.35,0,0,1-.64,4.12l-9.08,29.13L197,233.59l-12-2.26L194.23,149Z"/><path class="cls-15" d="M208.25,196.89s0,.06,0,.18l-.15.52c-.14.47-.35,1.14-.61,2-.53,1.77-1.31,4.34-2.3,7.59-2,6.49-4.79,15.67-8.08,26.42l0,.09-.1,0-12-2.13-.11,0,0-.1c.61-3.07,1.25-6.27,1.9-9.53,1.94-9.66,3.76-18.77,5.36-26.74v0c-2-11.82-3.57-21.24-4.48-26.65v0l-2-3.45-.51-.9c-.12-.2-.17-.3-.17-.3a3.24,3.24,0,0,1,.19.29c.12.21.3.5.53.88l2,3.44h0c.93,5.41,2.54,14.82,4.58,26.62v0c-1.59,8-3.41,17.08-5.33,26.74-.66,3.26-1.3,6.46-1.91,9.52l-.09-.12,12,2.15-.12.07c3.32-10.75,6.15-19.92,8.16-26.41l2.36-7.57c.27-.87.48-1.55.63-2l.17-.52Z"/><path class="cls-38" d="M170.24,123.66s-1.65,9.8-.66,13.53,9.06,13.15,9.06,13.15l11-6.82-7.25-17.83Z"/><path class="cls-39" d="M176.48,103.78s7.58.22,7.66,7.44a130.94,130.94,0,0,1-1.35,16.86l-13-.92s.8-13.51,1.85-17.5A9.94,9.94,0,0,1,176.48,103.78Z"/><path class="cls-7" d="M185.51,96.74l0-1.36s11.31,3.16,13,4.22.4,2.76.4,2.76Z"/><path class="cls-40" d="M207.52,133.6l-4-29.5-4-2.48h0a5.19,5.19,0,0,0-3.19-2.14l-10.8-3.56-.69,2.7-9.62,5.81,3.37,31.94-3.07,26.79h5.73l2.11-6.24.63,6.24,26.21-.77Z"/><path class="cls-41" d="M201.89,103s4,1.51,5.2,7c.42,1.83,3.92,19.52,3.92,19.52L227.19,131l1.36,8.35-17.74,1.16c-4.91.58-9.65-.91-11-8,0-.17-.09-.33-.12-.51-1.32-6.2-3.07-14.88-3.31-17.85C196.07,109.88,197,104.16,201.89,103Z"/><path class="cls-5" d="M193.85,138.21a2,2,0,0,1-.52.07l-1.43.08c-1.21,0-2.88.11-4.73.14s-3.51,0-4.72,0l-1.43,0a2.85,2.85,0,0,1-.53,0,1.89,1.89,0,0,1,.52-.06l1.44-.06c1.21,0,2.88-.06,4.72-.09l4.72-.07h1.44A2.43,2.43,0,0,1,193.85,138.21Z"/><path class="cls-5" d="M174.42,114.73s0,0,0,.11l.08.32c.06.31.14.72.25,1.24l.88,4.55c.72,3.86,1.71,9.16,2.8,15,.07.37.14.75.2,1.09v0c-.66,5.67-1.26,10.75-1.69,14.44-.22,1.82-.4,3.29-.53,4.34l-.16,1.17a2.77,2.77,0,0,1-.07.41,2.53,2.53,0,0,1,0-.41c0-.29.06-.69.11-1.18.11-1.05.27-2.53.46-4.35.41-3.69,1-8.78,1.61-14.45v0c-.06-.35-.13-.72-.2-1.09-1.06-5.87-2-11.17-2.73-15-.33-1.91-.61-3.46-.8-4.57l-.2-1.24,0-.32A.94.94,0,0,1,174.42,114.73Z"/><path class="cls-5" d="M199.73,101.73a3.19,3.19,0,0,1-.59-.13l-1.58-.41c-1.33-.34-3.17-.77-5.23-1.2s-3.92-.74-5.27-1l-1.61-.27a2.07,2.07,0,0,1-.58-.13,4.32,4.32,0,0,1,.59,0c.39,0,.94.1,1.62.19,1.37.18,3.24.49,5.3.91s3.91.88,5.23,1.27c.66.19,1.19.36,1.56.49A2.47,2.47,0,0,1,199.73,101.73Z"/><path class="cls-5" d="M203.77,104.63a12.38,12.38,0,0,0-1.67.05,6.17,6.17,0,0,0-3.5,1.75,6.79,6.79,0,0,0-1.77,3.51c-.18,1-.1,1.66-.15,1.66a1.34,1.34,0,0,1-.07-.44,5.54,5.54,0,0,1,0-1.25,6.53,6.53,0,0,1,1.77-3.65,6,6,0,0,1,3.66-1.76,5.37,5.37,0,0,1,1.24,0A1.69,1.69,0,0,1,203.77,104.63Z"/><path class="cls-5" d="M173.47,107.24a7.27,7.27,0,0,1,.59,1.83,7.18,7.18,0,0,1,.34,1.91,8.19,8.19,0,0,1-.59-1.84A7.73,7.73,0,0,1,173.47,107.24Z"/><path class="cls-5" d="M198.93,120.91a.85.85,0,0,1,0,.21c0,.16,0,.37,0,.63,0,.56.1,1.37.23,2.41.27,2.09.8,5.1,1.32,8.83l.06.35v.13c-.08,0,.2,0-.19.05,0,0,0,0,0,0h0c-.17.05.24,0,.19,0l0,.17.14.71a10.7,10.7,0,0,0,.44,1.43,7.72,7.72,0,0,0,1.65,2.67,6.82,6.82,0,0,0,2.88,1.68,10.57,10.57,0,0,0,3.57.35l16.17-1.06,3-.2-.13.16c-.46-2.87-.92-5.67-1.35-8.34l.12.11L211,129.65h-.08v-.07c-.82-4.2-1.48-7.6-1.94-10l-.51-2.72-.13-.71a.74.74,0,0,1,0-.24l.06.24.16.7.56,2.71c.49,2.36,1.18,5.76,2,9.94l-.09-.08,16.19,1.41h.1l0,.1c.43,2.68.89,5.47,1.36,8.35l0,.15h-.15l-3.05.2-16.18,1a10.81,10.81,0,0,1-3.65-.37,7.13,7.13,0,0,1-3-1.76,7.8,7.8,0,0,1-1.69-2.75,11.58,11.58,0,0,1-.44-1.46c-.05-.24-.1-.48-.14-.72l0-.18s.37-.1.2,0h0s.06,0-.06,0-.18,0-.14,0h0v-.11l-.05-.35c-.5-3.74-1-6.75-1.23-8.84-.12-1.05-.18-1.87-.19-2.43,0-.27,0-.48,0-.63S198.93,120.91,198.93,120.91Z"/></g></g></svg>