<svg xmlns="http://www.w3.org/2000/svg" xmlns:xlink="http://www.w3.org/1999/xlink" viewBox="0 0 320.92 243.5"><defs><style>.cls-1{isolation:isolate;}.cls-2{fill:#e8f0ff;mix-blend-mode:multiply;}.cls-3{fill:url(#linear-gradient);}.cls-4{fill:#ccd3e0;}.cls-5{fill:#b3d1e4;}.cls-6{fill:#b5a9c4;}.cls-7{fill:#cbbadd;}.cls-8{fill:#00b5be;}.cls-9{fill:#250b33;}.cls-10{fill:#341b3f;}.cls-11{fill:#ff6d4c;}.cls-12{fill:#ffcd4e;}.cls-13{fill:#fff;}.cls-14{fill:#f2543b;}.cls-15{fill:#f99e26;}.cls-16{fill:#00939e;}.cls-17{fill:#ffa0a3;}.cls-18{fill:#f76969;}.cls-19{fill:#466aa5;}</style><linearGradient id="linear-gradient" y1="136.97" x2="320.92" y2="136.97" gradientUnits="userSpaceOnUse"><stop offset="0.45" stop-color="#676a78"/><stop offset="0.55" stop-color="#8b8e9e"/></linearGradient></defs><g class="cls-1"><g id="Layer_1" data-name="Layer 1"><path class="cls-2" d="M147.18,62.93l-139,80.26c-12.11,7-10.58,19.33,3.41,27.4l114.7,66.23c14,8.07,35.35,9,47.46,2l139-80.25c12.12-7,10.58-19.33-3.41-27.4L194.64,64.9C180.65,56.83,159.3,55.94,147.18,62.93Z"/><path class="cls-3" d="M320.92,117.59l-10.54.28-1-.63L194.64,51c-14-8.08-35.34-9-47.46-2L14.56,125.62,0,126v15.17H0c0,5.41,3.9,11.11,11.57,15.54l114.7,66.22c14,8.08,35.35,9,47.46,2l139-80.26c5.52-3.18,8.19-7.47,8.16-12h0Z"/><path class="cls-4" d="M147.18,33.9l-139,80.26c-12.11,7-10.58,19.33,3.41,27.4l114.7,66.22c14,8.08,35.35,9,47.46,2l139-80.25c12.12-7,10.58-19.33-3.41-27.41L194.64,35.87C180.65,27.79,159.3,26.91,147.18,33.9Z"/><path class="cls-5" d="M45.38,124.28S16,59.42,73.68,59.42c30.48,0,17.92-17.64,38.64-38s93.18-36.72,108.6,2.69S198.23,93.4,235.06,88.27c44.25-6.17,61.86,36,61.86,36Z"/><path class="cls-6" d="M83.34,38.66V118c0,3.72,2.87,6.23,6.59,6.23h66.72c3.72,0,6.84-2.51,6.84-6.23V38.66a6.73,6.73,0,0,0-6.73-6.73H90.08A6.73,6.73,0,0,0,83.34,38.66Z"/><path class="cls-7" d="M79.69,38.66V118c0,3.72,2.94,6.23,6.66,6.23H132.1c3.72,0,6.68-2.52,6.68-6.24V38.66a6.73,6.73,0,0,0-6.73-6.73H86.42A6.73,6.73,0,0,0,79.69,38.66Z"/><rect class="cls-8" x="147.94" y="65.23" width="106.76" height="59.05" rx="6.73"/><rect class="cls-8" x="143.07" y="65.23" width="78.71" height="59.05" rx="6.73"/><polygon class="cls-9" points="218.81 103.47 107.15 103.47 111.69 86.72 218.81 86.72 218.81 103.47"/><polygon class="cls-10" points="167.95 70.33 167.95 70.33 167.94 70.33 167.95 70.33"/><path class="cls-10" d="M135.88,83h0c1.67-.07,3.41-.1,5.22-.1,0,0,10-8.68,21.57-11.63C150.78,74.16,135.88,83,135.88,83Z"/><path class="cls-11" d="M226.46,89.47V79.89s-11.24-1.29-18-3.75c-15.74-5.78-24.2-5.89-38.49-5.89-10.85,0-21.84,7.27-26.51,10.77A9.38,9.38,0,0,1,138,82.89c-17.17.38-27.78,3.81-33,6.12a6.79,6.79,0,0,0-4.06,6.23v3.22h0a.65.65,0,0,0-.64.65v5.35a.64.64,0,0,0,.64.64h10.25a11.9,11.9,0,0,1-1.52-6.17,12,12,0,0,1,24.08.31,12,12,0,0,1-1.52,5.86h63a11.9,11.9,0,0,1-1.52-6.17,12,12,0,0,1,24.08.31,12,12,0,0,1-1.52,5.86h2.52c8.71,0,9.94-8.9,10-13.27A2.31,2.31,0,0,0,226.46,89.47Z"/><path class="cls-10" d="M164.41,72C154.47,74.5,143.8,83.1,143.8,83.1L172,82.5a2.93,2.93,0,0,0,2.57-1.68l4.32-9.34H168.46A16.7,16.7,0,0,0,164.41,72Z"/><path class="cls-10" d="M180.58,71.7l-4,9.08a1.05,1.05,0,0,0,1,1.47c4,0,14.49-.14,20.54-1.66a1.91,1.91,0,0,0,.86-3.22C196.53,75,191.19,71.7,180.58,71.7Z"/><path class="cls-12" d="M101.61,92.16h4.12a36.51,36.51,0,0,1,17.56-8.08S103.3,86.28,101.61,92.16Z"/><path class="cls-13" d="M226.46,89.47h-1.09a1.57,1.57,0,0,1-1.43-.91,17.5,17.5,0,0,0-4.15-5.67,1.16,1.16,0,0,1,.76-2h5.55a.36.36,0,0,1,.36.36Z"/><path class="cls-14" d="M172.32,85.16h-5.48a.55.55,0,0,1-.55-.55h0a.55.55,0,0,1,.55-.55h5.48a.55.55,0,0,1,.55.55h0A.54.54,0,0,1,172.32,85.16Z"/><path class="cls-14" d="M196.57,85.16h-5.48a.55.55,0,0,1-.55-.55h0a.55.55,0,0,1,.55-.55h5.48a.55.55,0,0,1,.55.55h0A.54.54,0,0,1,196.57,85.16Z"/><path class="cls-14" d="M191.93,88.72H142.47a2.63,2.63,0,0,0-2.24,4l3.19,5.23a2.3,2.3,0,0,0,3.29.68C150.94,95.6,163.12,89.35,191.93,88.72Z"/><circle class="cls-10" cx="205.81" cy="99.24" r="10.48" transform="translate(35.36 251.41) rotate(-67.5)"/><path class="cls-7" d="M205.81,92.75a6.5,6.5,0,1,0,6.49,6.49A6.49,6.49,0,0,0,205.81,92.75Zm.89.72a5.8,5.8,0,0,1,3.55,2L208,96.83a3.32,3.32,0,0,0-1.3-.72Zm-1.78,0v2.64a3.32,3.32,0,0,0-1.3.72l-2.25-1.39A5.8,5.8,0,0,1,204.92,93.47Zm-4.5,8a5.72,5.72,0,0,1-.46-2.27,5.86,5.86,0,0,1,.47-2.29l2.25,1.39a3.38,3.38,0,0,0-.13.9,3.17,3.17,0,0,0,.12.88Zm4.5,3.51a5.8,5.8,0,0,1-3.57-2l2.25-1.39a3.25,3.25,0,0,0,1.32.74Zm-.58-5.78a1.47,1.47,0,1,1,1.47,1.48A1.47,1.47,0,0,1,204.34,99.24ZM206.7,105v-2.64a3.25,3.25,0,0,0,1.32-.74l2.25,1.39A5.8,5.8,0,0,1,206.7,105Zm2.25-4.9a3.17,3.17,0,0,0,.12-.88,3.38,3.38,0,0,0-.13-.9L211.19,97a5.82,5.82,0,0,1,0,4.56Z"/><circle class="cls-10" cx="121.65" cy="99.32" r="10.48"/><path class="cls-7" d="M121.65,92.83a6.49,6.49,0,1,0,6.49,6.49A6.48,6.48,0,0,0,121.65,92.83Zm.89.71a5.85,5.85,0,0,1,3.55,2l-2.25,1.39a3.32,3.32,0,0,0-1.3-.72Zm-1.78,0v2.64a3.32,3.32,0,0,0-1.3.72l-2.25-1.39A5.85,5.85,0,0,1,120.76,93.54Zm-4.5,8a5.67,5.67,0,0,1-.46-2.26,5.87,5.87,0,0,1,.47-2.3l2.25,1.39a3,3,0,0,0-.13.91,3.1,3.1,0,0,0,.12.87Zm4.5,3.52a5.86,5.86,0,0,1-3.57-2l2.25-1.39a3.25,3.25,0,0,0,1.32.74Zm-.59-5.78a1.48,1.48,0,1,1,1.48,1.47A1.48,1.48,0,0,1,120.17,99.32Zm2.37,5.78v-2.65a3.25,3.25,0,0,0,1.32-.74l2.25,1.39A5.86,5.86,0,0,1,122.54,105.1Zm2.25-4.91a3.51,3.51,0,0,0,.12-.87,3.39,3.39,0,0,0-.13-.91L127,97a5.94,5.94,0,0,1,0,4.56Z"/><polygon class="cls-9" points="151.79 59.75 248.56 59.75 244.63 45.24 151.79 45.24 151.79 59.75"/><polygon class="cls-10" points="195.87 31.03 195.87 31.03 195.88 31.03 195.87 31.03"/><path class="cls-10" d="M223.66,42h0c-1.45,0-3-.08-4.52-.08,0,0-8.67-7.52-18.7-10.08C210.75,34.35,223.66,42,223.66,42Z"/><path class="cls-12" d="M145.16,47.62V39.31s9.74-1.11,15.64-3.25c13.64-5,21-5.1,33.35-5.1,9.41,0,18.93,6.3,23,9.33a8.11,8.11,0,0,0,4.71,1.63c14.88.32,24.08,3.29,28.65,5.3a5.89,5.89,0,0,1,3.51,5.4v2.79h0a.56.56,0,0,1,.56.56v4.64a.56.56,0,0,1-.56.56h-8.87a10.44,10.44,0,1,0-18.24,0H172.26a10.44,10.44,0,1,0-18.24,0h-2.18c-7.55,0-8.62-7.72-8.69-11.51A2,2,0,0,1,145.16,47.62Z"/><path class="cls-10" d="M198.94,32.46c8.61,2.18,17.86,9.64,17.86,9.64l-24.47-.53a2.5,2.5,0,0,1-2.22-1.45L186.36,32h9.07A14.35,14.35,0,0,1,198.94,32.46Z"/><path class="cls-10" d="M184.92,32.21l3.44,7.87a.91.91,0,0,1-.84,1.28c-3.47,0-12.57-.12-17.81-1.44a1.65,1.65,0,0,1-.74-2.79C171.1,35.09,175.73,32.21,184.92,32.21Z"/><path class="cls-11" d="M253.37,50h-3.58a31.53,31.53,0,0,0-15.22-7S251.9,44.86,253.37,50Z"/><path class="cls-11" d="M145.16,47.62h1a1.38,1.38,0,0,0,1.24-.79,15,15,0,0,1,3.59-4.91,1,1,0,0,0-.65-1.77h-5.13Z"/><path class="cls-15" d="M192.08,43.88h4.75a.48.48,0,0,0,.48-.47h0a.48.48,0,0,0-.48-.48h-4.75a.47.47,0,0,0-.48.48h0A.47.47,0,0,0,192.08,43.88Z"/><path class="cls-15" d="M171.06,43.88h4.75a.47.47,0,0,0,.48-.47h0a.47.47,0,0,0-.48-.48h-4.75a.48.48,0,0,0-.48.48h0A.48.48,0,0,0,171.06,43.88Z"/><path class="cls-15" d="M175.09,47H218a2.27,2.27,0,0,1,1.94,3.45L217.13,55a2,2,0,0,1-2.85.59C210.61,52.93,200.05,47.51,175.09,47Z"/><circle class="cls-10" cx="163.06" cy="56.09" r="9.08"/><path class="cls-7" d="M163.06,50.46a5.63,5.63,0,1,1-5.63,5.63A5.63,5.63,0,0,1,163.06,50.46Zm-.77.62a5.06,5.06,0,0,0-3.08,1.71L161.16,54a2.8,2.8,0,0,1,1.13-.63Zm1.54,0v2.29A2.76,2.76,0,0,1,165,54l2-1.21A5.06,5.06,0,0,0,163.83,51.08Zm3.9,7a5.14,5.14,0,0,0,0-3.95l-1.95,1.2a3,3,0,0,1,.11.79,3.17,3.17,0,0,1-.1.76Zm-3.9,3.05a5.06,5.06,0,0,0,3.09-1.73L165,58.16a2.88,2.88,0,0,1-1.14.65Zm.5-5a1.28,1.28,0,1,0-1.27,1.28A1.27,1.27,0,0,0,164.33,56.09Zm-2,5V58.81a2.85,2.85,0,0,1-1.15-.65l-1.95,1.21A5.06,5.06,0,0,0,162.29,61.1Zm-1.95-4.25a2.74,2.74,0,0,1-.11-.76,3,3,0,0,1,.11-.79l-2-1.2a5.14,5.14,0,0,0,0,3.95Z"/><circle class="cls-10" cx="236" cy="56.15" r="9.08"/><path class="cls-7" d="M236,50.53a5.63,5.63,0,1,1-5.63,5.62A5.62,5.62,0,0,1,236,50.53Zm-.77.61a5.07,5.07,0,0,0-3.08,1.72l1.95,1.2a2.78,2.78,0,0,1,1.13-.62Zm1.54,0v2.3a2.85,2.85,0,0,1,1.13.62l1.94-1.2A5.07,5.07,0,0,0,236.77,51.14Zm3.9,7a5.17,5.17,0,0,0,.4-2,5.09,5.09,0,0,0-.41-2l-1.95,1.21a2.88,2.88,0,0,1,.11.78,2.68,2.68,0,0,1-.1.76Zm-3.9,3a5.06,5.06,0,0,0,3.09-1.73l-2-1.2a2.86,2.86,0,0,1-1.14.64Zm.51-5a1.28,1.28,0,1,0-2.56,0,1.28,1.28,0,1,0,2.56,0Zm-2.05,5V58.87a2.83,2.83,0,0,1-1.15-.64l-2,1.2A5.08,5.08,0,0,0,235.23,61.16Zm-1.95-4.25a2.68,2.68,0,0,1-.11-.76,2.54,2.54,0,0,1,.12-.78l-1.95-1.21a5.09,5.09,0,0,0-.41,2,5,5,0,0,0,.4,2Z"/><polygon class="cls-9" points="157.77 27.78 83.39 27.78 86.41 16.62 157.77 16.62 157.77 27.78"/><polygon class="cls-10" points="123.89 5.71 123.89 5.71 123.89 5.71 123.89 5.71"/><path class="cls-10" d="M102.53,14.11h0c1.12,0,2.27-.06,3.48-.06,0,0,6.66-5.78,14.37-7.75C112.45,8.26,102.53,14.11,102.53,14.11Z"/><path class="cls-8" d="M162.87,18.46V12.07s-7.49-.85-12-2.49c-10.48-3.86-16.12-3.93-25.64-3.93-7.23,0-14.55,4.84-17.66,7.17a6.21,6.21,0,0,1-3.62,1.25c-11.44.25-18.51,2.54-22,4.08a4.53,4.53,0,0,0-2.7,4.15v2.15h0a.42.42,0,0,0-.43.42v3.57a.43.43,0,0,0,.43.43H86a8,8,0,1,1,14,0h42a7.94,7.94,0,0,1-1-4.11,8,8,0,1,1,15,4.11h1.67c5.81,0,6.63-5.94,6.68-8.84A1.53,1.53,0,0,0,162.87,18.46Z"/><path class="cls-10" d="M121.54,6.81c-6.63,1.67-13.73,7.4-13.73,7.4l18.8-.4a1.93,1.93,0,0,0,1.71-1.12l2.88-6.22h-7A10.61,10.61,0,0,0,121.54,6.81Z"/><path class="cls-10" d="M132.31,6.62l-2.64,6a.71.71,0,0,0,.64,1c2.67,0,9.66-.1,13.69-1.11a1.27,1.27,0,0,0,.57-2.15C142.93,8.82,139.38,6.62,132.31,6.62Z"/><path class="cls-12" d="M79.7,20.25h2.74a24.34,24.34,0,0,1,11.71-5.39S80.83,16.33,79.7,20.25Z"/><path class="cls-12" d="M162.87,18.46h-.73a1.06,1.06,0,0,1-.95-.61,11.6,11.6,0,0,0-2.76-3.78.77.77,0,0,1,.5-1.36h3.94Z"/><path class="cls-16" d="M126.81,15.58h-3.66a.36.36,0,0,1-.36-.36h0a.37.37,0,0,1,.36-.37h3.66a.37.37,0,0,1,.36.37h0A.36.36,0,0,1,126.81,15.58Z"/><path class="cls-16" d="M143,15.58h-3.65a.37.37,0,0,1-.37-.36h0a.38.38,0,0,1,.37-.37H143a.38.38,0,0,1,.37.37h0A.37.37,0,0,1,143,15.58Z"/><path class="cls-16" d="M139.87,18H106.92a1.74,1.74,0,0,0-1.49,2.65l2.12,3.49a1.52,1.52,0,0,0,2.19.45C112.56,22.54,120.68,18.37,139.87,18Z"/><circle class="cls-10" cx="149.11" cy="24.97" r="6.98" transform="translate(100.58 168.16) rotate(-80.78)"/><path class="cls-7" d="M149.11,20.64A4.33,4.33,0,1,0,153.44,25,4.33,4.33,0,0,0,149.11,20.64Zm.6.48a3.85,3.85,0,0,1,2.36,1.31l-1.5.93a2.15,2.15,0,0,0-.86-.48Zm-1.19,0v1.76a2.15,2.15,0,0,0-.86.48l-1.5-.93A3.85,3.85,0,0,1,148.52,21.12Zm-3,5.36a4,4,0,0,1-.3-1.51,3.87,3.87,0,0,1,.31-1.53l1.5.92a2,2,0,0,0-.09.61,2.25,2.25,0,0,0,.08.58Zm3,2.34a3.94,3.94,0,0,1-2.38-1.34l1.5-.92a2.13,2.13,0,0,0,.88.49ZM148.13,25a1,1,0,1,1,1,1A1,1,0,0,1,148.13,25Zm1.58,3.85V27.05a2.13,2.13,0,0,0,.88-.49l1.49.92A3.92,3.92,0,0,1,149.71,28.82Zm1.5-3.27a2.25,2.25,0,0,0,.08-.58,2.43,2.43,0,0,0-.09-.61l1.5-.92A3.87,3.87,0,0,1,153,25a4,4,0,0,1-.3,1.51Z"/><circle class="cls-10" cx="93.05" cy="25.01" r="6.98"/><path class="cls-7" d="M93.05,20.69A4.33,4.33,0,1,0,97.37,25,4.33,4.33,0,0,0,93.05,20.69Zm.59.47A4,4,0,0,1,96,22.48l-1.5.93a2.19,2.19,0,0,0-.87-.48Zm-1.18,0v1.77a2.12,2.12,0,0,0-.87.48l-1.5-.93A3.91,3.91,0,0,1,92.46,21.16Zm-3,5.37a3.82,3.82,0,0,1,0-3l1.49.92a2.41,2.41,0,0,0-.08.6,2.27,2.27,0,0,0,.08.59Zm3,2.34a3.91,3.91,0,0,1-2.38-1.34l1.5-.92a2,2,0,0,0,.88.49ZM92.07,25a1,1,0,1,1,1,1A1,1,0,0,1,92.07,25Zm1.57,3.86V27.1a2.13,2.13,0,0,0,.88-.49l1.5.92A3.94,3.94,0,0,1,93.64,28.87Zm1.5-3.27a2.27,2.27,0,0,0,.08-.59,2,2,0,0,0-.09-.6l1.5-.92a3.94,3.94,0,0,1,0,3Z"/><rect class="cls-15" x="127.58" y="109.76" width="106.76" height="14.52" rx="6.73"/><rect class="cls-12" x="94.66" y="109.76" width="106.76" height="14.52" rx="6.73"/><rect class="cls-10" x="44.42" y="123.84" width="252.58" height="0.71" rx="0.26"/><path class="cls-10" d="M128.93,66.38s7-.06,8.73,2.31,5.4,15.15,3.46,19.4-5.56-1.76-7.57-4.36S128.93,66.38,128.93,66.38Z"/><path class="cls-17" d="M129,65.3V66s.19,2.27-2.61,2.61-4.92-.89-4.84-2.65a19.88,19.88,0,0,0,.54-3.41,8.49,8.49,0,0,0-.09-1.37l5.42-.1,1.6.26Z"/><path class="cls-18" d="M129,61.37l0,3.93a4.59,4.59,0,0,1-2,.43c-2.49,0-4.1-1.83-5-3.15a8.49,8.49,0,0,0-.09-1.37l5.42-.1Z"/><path class="cls-17" d="M121.58,60.34c.63,3.39,5,3.28,6.89,3.07.53-.06.87-.13.87-.13.6-.16.93-1.11,1.09-2.34a19,19,0,0,0-.5-7c-.62-1.39-1.79-2.88-6.2-1.8S120.77,56,121.58,60.34Z"/><path class="cls-10" d="M124.21,160.28a12.78,12.78,0,0,0-.86-3.28c-.6-1.2-4.43-.44-4.43-.44s-.76.66-.93,3.72Z"/><path class="cls-10" d="M137.25,160.28c-.89-.55-.38-4.64-.38-4.64s4.19-3.36,4.76-.79,4,3.72,5.92,4a2.1,2.1,0,0,1,1.89,1.4Z"/><path class="cls-10" d="M118.25,162.28c-.89-.55-.38-4.64-.38-4.64s4.19-3.36,4.76-.79,4,3.72,5.92,4a2.1,2.1,0,0,1,1.89,1.4Z"/><path class="cls-9" d="M136.12,75.9s3.55,7.38,3.47,9.18a4.74,4.74,0,0,0-3.47-1C133.91,84.2,136.12,75.9,136.12,75.9Z"/><path class="cls-18" d="M128.47,63.41c.53-.06.87-.13.87-.13.6-.16.93-1.11,1.09-2.34a3,3,0,0,0-1.86,1.51A2.42,2.42,0,0,0,128.47,63.41Z"/><path class="cls-17" d="M131.33,65.32s2.45-4,.54-4.21a2.87,2.87,0,0,0-2.94,1.58A7.68,7.68,0,0,0,129,65.3Z"/><path class="cls-8" d="M128.57,130.41a19.9,19.9,0,0,1,.31,2.26c.39,7.6,6.4,25,7.47,25.38,1.67.63,4.28-.7,5.65-1.14a1.18,1.18,0,0,0,.83-1.33c-3-13.68-4.07-33.37-4.47-45a52.64,52.64,0,0,0-1.21-9.93s-14.65-3.91-14.74,1C122.34,106,127.27,123.19,128.57,130.41Z"/><path class="cls-16" d="M128.57,130.41l9.79-19.86a52.64,52.64,0,0,0-1.21-9.93s-14.65-3.91-14.74,1C122.34,106,127.27,123.19,128.57,130.41Z"/><path class="cls-8" d="M131.83,101.67l-7.74,56.14a15.12,15.12,0,0,1-6,.16s-2.27-29.85-2.08-37.07-1.63-19.32.42-20.65S131.83,101.67,131.83,101.67Z"/><path class="cls-10" d="M115.25,98.65l.06-.72,0-.19c0-.19,0-.37,0-.56V97c0-.48.07-1,.1-1.41v-.16l0-.57v-.13c0-.23,0-.46,0-.69h0l0-.66v-.15c0-.18,0-.37,0-.55v-.11c0-.22,0-.44,0-.66a.22.22,0,0,0,0-.08c0-.19,0-.37,0-.55v-.18c0-.16,0-.31,0-.46a1.09,1.09,0,0,0,0-.18l0-.55c0-.14,0-.28,0-.42a.28.28,0,0,0,0-.09c0-.73,0-1.43.07-2.12v0c0-.41,0-.81,0-1.2V86c0-.16,0-.32,0-.48a.49.49,0,0,0,0-.12c0-.17,0-.34,0-.51v0c0-.17,0-.34,0-.51v-.16c0-.12,0-.24,0-.36l0-.18c0-.12,0-.25,0-.37l0-.22c0-.1,0-.21,0-.31v0c0-.14,0-.28,0-.42s0-.08,0-.12,0-.29,0-.44-.09-.11-.14-.17c-3.35-4-5.08-9.26-3.73-11.19,2.21-3.16,9.26-4.36,9.26-4.36,0,1.17,2.53,2.63,4.56,2.5a3.49,3.49,0,0,0,.94-.19c.66-1.62,1.11-2.7,1.11-2.7s.81-1.65,3.67-.7c0,0,.09,1.46,0,3.63v.12c2.18,2,4.81,5,4.81,7.87,0,4.06.06,7.49.13,10.37.08,3.21.2,5.74.32,7.74.35,5.91.74,7.15.48,7.14,0,0-2.24,2-8.18,2a45.5,45.5,0,0,1-9-.91,24.56,24.56,0,0,1-4.66-1.35C115.06,101.51,115.2,99.27,115.25,98.65Z"/><path class="cls-10" d="M131.28,50.75a14.67,14.67,0,0,1-4.22-1.14c-1.86-.81-4.2.08-5,.48a1.12,1.12,0,0,1,.19-.46,1,1,0,0,0-.39.58s-.05,0,0,0a1.35,1.35,0,0,0-.64,0s.17,0,.24.09l0,0c-2.89,1.4-3.16,6-2.23,7a23.67,23.67,0,0,1,2.47,4.14,2.43,2.43,0,0,0,.28-1.8c-.2-1.12.77-1.12,2-1.62s.2-1.94,1.27-2.81,5-.35,5-1C131.66,53.81,131.28,50.9,131.28,50.75Z"/><path class="cls-9" d="M120.69,87.15c1.15,4.61,13.57,7,16.4,7.48-.12-2-.24-4.53-.32-7.74Z"/><path class="cls-17" d="M123.42,88.65a21.61,21.61,0,0,1-3.24-.63c-.47-.24-2.63-3.31-1.22-4.1s5.23,2.36,5.23,2.36Z"/><path class="cls-10" d="M139.5,89.57s-10.23.55-17.09-.92a3,3,0,0,1,2-2.86s10.69-2.27,13.26-1.64S139.5,89.57,139.5,89.57Z"/><path class="cls-9" d="M116,81.54c2.12,2.56,4.89,4.65,8,5.14h0c6.36-2.87,7.65-12.73,7.86-18.15,0,0-3,10.92-7.1,14.73a4.49,4.49,0,0,1-2.32,1.27s-5.16-1.46-6.25-2.83A.61.61,0,0,0,116,81.54Z"/><path class="cls-9" d="M118.13,75.35s3.19,4,5.09.43C123.22,75.78,121.23,77.72,118.13,75.35Z"/><path class="cls-17" d="M69.71,157.57l-2.2,1.14a36.74,36.74,0,0,1-2.5-3.78,13.77,13.77,0,0,1-1.76-4.42c-.45-3.23-3.88-8.56-3.52-9.46s7.15-2.48,7.15-2.48,1.33,9.1,2.21,15C69.35,155.27,69.57,156.71,69.71,157.57Z"/><path class="cls-10" d="M68,144.87A14.29,14.29,0,0,1,64.6,146a11,11,0,0,1-3.12.19l-.28,0a12.76,12.76,0,0,1-2.64-2.94,22.36,22.36,0,0,1-2.26-4.6l10.38-1Z"/><path class="cls-9" d="M64.6,146a11,11,0,0,1-3.12.19l1.17-4.53A16.69,16.69,0,0,1,64.6,146Z"/><path class="cls-13" d="M69.71,157.57l-2.2,1.14a36.74,36.74,0,0,1-2.5-3.78,8.73,8.73,0,0,0,4.08-1.38C69.35,155.27,69.57,156.71,69.71,157.57Z"/><path class="cls-17" d="M64.7,140.65a36.42,36.42,0,0,0-4.46,9.45,13.43,13.43,0,0,1-3.12,4.35c-1.32,1.4-2.66,2.62-3.16,3.23l-2.24-1.08a30.4,30.4,0,0,1,2-4.31,12.29,12.29,0,0,1,1.44-2.08c.71-.8.48-10.9,1.19-11.56S64.7,140.65,64.7,140.65Z"/><path class="cls-10" d="M66,138.32l-4.11,8.35a11.71,11.71,0,0,1-5.22-1.12A5.6,5.6,0,0,1,54.91,144l1.28-5.72Z"/><path class="cls-17" d="M58.39,122.64h0A0,0,0,0,1,58.39,122.64Z"/><path class="cls-17" d="M64.14,126.11l-5.74-3.46a5.3,5.3,0,0,0,.58-1.43,7.43,7.43,0,0,0,.33-1.35s0-.07,0-.11a3.76,3.76,0,0,0,0-.83l1.25.45,2.33.85a2.8,2.8,0,0,0,.18,1.29,1,1,0,0,0,.88.69Z"/><path class="cls-18" d="M63.1,121.52a4.31,4.31,0,0,1-3.79-1.65l-.07-.08.08,0,1.27-.38,2.33.85A2.8,2.8,0,0,0,63.1,121.52Z"/><path class="cls-17" d="M63.21,120.71s-5,.55-5.09-2.83-.84-4.92,2.61-5.22,4.27.94,4.48,2.08C65.84,118.31,64.62,120.56,63.21,120.71Z"/><path class="cls-17" d="M76.34,108.24a1.37,1.37,0,0,0-.94,0,5,5,0,0,0-1.06.44s0,0-.08,0c-.9.49-.87,2.76-.87,2.79-.57.47-2.76,4.92-3.27,6.13s-5.3,4.9-5.3,4.9l1.2,4c1.43-.72,5.78-5.73,6.69-7.21s2.21-6.36,2-7.19h0s.12-.2.28-.43c.27-.41.7-1,1-1.36a2.74,2.74,0,0,0,.45-1.12C76.55,108.79,76.52,108.34,76.34,108.24Z"/><path class="cls-10" d="M61,114.31c-1.77-.45-1.09,2.68-1.54,2.47s-1.36-.24-1.22.36a10.79,10.79,0,0,0,.43,1.2c.1.37,0,1.12-.41,1S54,114.8,56.73,111.4s10.74-1.31,8.21,2.25C64.49,114.27,62.26,114.63,61,114.31Z"/><path class="cls-12" d="M67.41,139.55a8.7,8.7,0,0,1-3.86.76,27.3,27.3,0,0,1-6.76-1.42c-1.17-.42-2-.88-1.87-1.25.14-.55,1.14-4.73,2.07-8.61.84-3.54,1.63-6.82,1.63-6.82s2.34,1.66,3.7,1.08S63.51,122,63.51,122a2.84,2.84,0,0,1,1.31-.23c.41.13,1.6-.54,1.6-.54a4.23,4.23,0,0,1,1.36,3.19,5.45,5.45,0,0,1-.07,1l-.94,1.09A28.94,28.94,0,0,1,67.41,139.55Z"/><path class="cls-10" d="M73.36,160.28H66.78a8,8,0,0,1,0-2A.5.5,0,0,1,67,158a2.35,2.35,0,0,0,1.58,0,3.5,3.5,0,0,0,1.16-.72c.07.06,1.43,1.36,2.06,1.36A1.48,1.48,0,0,1,73.36,160.28Z"/><path class="cls-13" d="M57.12,154.45c-1.32,1.4-2.66,2.62-3.16,3.23l-2.24-1.08a30.4,30.4,0,0,1,2-4.31A4.82,4.82,0,0,0,57.12,154.45Z"/><path class="cls-10" d="M54.45,157.1s-.08,1.43.39,1.61,1.37.66,1.37,1.57h-3.3a12.44,12.44,0,0,1-2.57-1.59c-.31-.48,1.51-2.5,1.51-2.5A3,3,0,0,0,54.45,157.1Z"/><path class="cls-15" d="M56.79,138.89c-1.17-.42-2-.88-1.87-1.25.14-.55,1.14-4.73,2.07-8.61l.44-.8S59.19,136.27,56.79,138.89Z"/><path class="cls-17" d="M61.9,134a3.7,3.7,0,0,0-2-.11,37.17,37.17,0,0,1-3.73-2.67.63.63,0,0,1-.05-.8,18.4,18.4,0,0,0,1.28-2.19c.33-.78,2.49-5.21,1.25-5.57,0,0-4.45.94-6.2,7.85a2.11,2.11,0,0,0,.47,1.91c.81.9,2.59,2.2,6.72,2.68a2.62,2.62,0,0,0,2.56.08C62.63,134.94,62.47,134.37,61.9,134Z"/><path class="cls-12" d="M58.62,122.21a7.15,7.15,0,0,0-4.74,3,5.17,5.17,0,0,0,4.1,3.31S60.07,123.84,58.62,122.21Z"/><path class="cls-18" d="M76.45,109.28A2.63,2.63,0,0,1,76,110.4c-.27.32-.7.95-1,1.36-.74-.66-.77-2.16-.69-3.05a6.32,6.32,0,0,1,1.06-.44A2.07,2.07,0,0,1,76.45,109.28Z"/><path class="cls-10" d="M91.46,54c-.06-.24-.93-2.91-5.1-2,0,0,2.09-.27,2.66.54,0,0-1.65-.76-2.69-.13s-1.21,2.77-1,3.42,1.3,2.59,2.06,2.59a2.23,2.23,0,0,0,.86-.22c-.11.35-.22.72-.31,1.13-.8,3.79,1.72,6.67,3,6,.84-.46,1.47,1,1.47,1l6.93-9.19S94.48,51.29,91.46,54Z"/><path class="cls-17" d="M109.8,107.38c-.19.7-.79,2.29-1.26,2.29s-.52-1.94-1-2.36a5.8,5.8,0,0,1-1.39-2.16c-.19-.63-.37-.76-.37-.76h0S100.07,94,99.63,91.31c-.15-.87-.52-2.61-1-4.56-.48-2.12-1-4.48-1.44-6.26A33.25,33.25,0,0,1,102.7,80c.33,2.16.63,4.36.89,6.28.38,2.85.67,5.06.85,5.53.49,1.3,1.86,8.31,3.15,11.95a4.19,4.19,0,0,0,1,1.61C109.18,105.74,110,106.67,109.8,107.38Z"/><path class="cls-17" d="M102.36,99.42c-3.15-10.06.3-12.24,0-17.28S98.11,71.7,98.11,71.7l-.54,0c-.26-.14-.33-1.23-.33-2.39,0-1.38.11-2.85.11-2.85l-4.67-.93-.28,0c0,3.25-.84,5.38-1.46,5.88a20.52,20.52,0,0,0-4.61,1,2.12,2.12,0,0,0-1.17.87c-1.29,2.82-2.57,9.94-3.47,15-.5,2.83-.88,5-1.08,5.5-.55,1.28-2.21,8.22-3.65,11.8a4.34,4.34,0,0,1-1.09,1.57c-.59.37-1.42,1.26-1.27,2s.31,1.82,1.06,1.82c.32,0,.83-.62,1.32-1.36.33.18.4-.37.77-.69a4.7,4.7,0,0,0,.6-1.85c.21-.62.4-.74.4-.74h0s6.13-10.17,6.68-12.81c.19-.86.63-2.59,1.15-4.52l.24-.89c.92,2.49,1.39,3.65,1.36,4.72,0,1.53-1.07,2.91-3.24,7.77C83.74,103.21,105.57,109.69,102.36,99.42Z"/><path class="cls-18" d="M97.35,66.41s-.1,1.47-.11,2.85c-2.61-.07-4-2.46-4.56-3.78Z"/><path class="cls-10" d="M92.2,65a13.71,13.71,0,0,1-1.7-4c-.24-1.33.44-6.23,5.36-5.52a6.64,6.64,0,0,1,2.77,1.05c1.07.72,2.62,2.28.89,6.55l-.45,1.45Z"/><path class="cls-17" d="M98.23,67.72S92,67.82,92,64s-.8-6.44,3.15-6.67,4.72,1.24,5,2.53S99.84,67.59,98.23,67.72Z"/><path class="cls-11" d="M106.86,157.53l-2,.49a60.73,60.73,0,0,1-5.71-10.11,37,37,0,0,1-3.37-11.83,15.38,15.38,0,0,1,.4-5.07s-.56-3.73-1.32-8.71c-.84-5.53-1.93-12.61-2.79-17.81l.52-.15,11.08-3.29s2.17,8.48,1.17,21.79c-.2,2.73-.53,5.66-1,8.76a46.91,46.91,0,0,0,.21,15.07A57.72,57.72,0,0,0,106.86,157.53Z"/><path class="cls-14" d="M104.85,122.84l-9.06,13.24a15.38,15.38,0,0,1,.4-5.07s-.56-3.73-1.32-8.71c-.84-5.53-1.93-12.61-2.79-17.81l.52-.15,11.08-3.29S105.85,109.53,104.85,122.84Z"/><path class="cls-11" d="M95.13,131.9c-.39.74-4.28,5.42-8.2,10.6-.33.44-.68.92-1,1.42-2.31,3.25-5,7.48-6.55,9.54-1.44,1.87-2.73-.47-2-2.14,1.15-2.64,2.12-7.26,3.23-10.65a21.94,21.94,0,0,1,.8-2.13,32.19,32.19,0,0,1,6.36-8.5c.49-.51-4.11-12.52-3.8-21.78.12-3.67.63-6.9,1.8-8.86l11.64.57S99,124.71,95.13,131.9Z"/><path class="cls-10" d="M100,57.69c-1-1.16-1.68-.91-2.08-.56a7,7,0,0,0-6.61.15A24.77,24.77,0,0,1,90,62.37s1.12.7,3.72,0A4.45,4.45,0,0,0,95.81,61a14.44,14.44,0,0,1-2.48,3c3.1-1.44,4.35-5.76,4.47-6.21a4.81,4.81,0,0,1,1.35,1.8c.31,1,.45,3,1,2.93C100.19,62.5,101.46,59.42,100,57.69Z"/><path class="cls-8" d="M103.1,83.47a25.41,25.41,0,0,0,.36-4.65c-.08-3.57-1.13-5.58-1.94-6.39a2.87,2.87,0,0,0-1.37-.44c-.47-.08-1.12-.17-2-.29l-.39,0c.17.31,2,3,1.82,3.89s-7.22.79-7.78.28-2-4.36-2-4.36a11,11,0,0,0-4.27,1.31,1.12,1.12,0,0,0-.34.43c-1.49,2.84-3,10-4,15.13a7.41,7.41,0,0,0,5.45.79c-.9,5.9-3,12.22-3.08,14.91a2.83,2.83,0,0,0,.07.93c.25.78,1.1,1.13,3.16.92,1.25-.13,1.81-2.24,2.06-4q1.14,3.86,3.18,4.31c2,.45,12,1.67,12.71-3.11C105.38,97.8,103.21,88.49,103.1,83.47Z"/><path class="cls-17" d="M99.16,147.91A60.73,60.73,0,0,0,104.87,158l2-.49A57.72,57.72,0,0,1,104,146.67C103.39,147.13,102,147.73,99.16,147.91Z"/><path class="cls-10" d="M103.3,160.27h1.36c.46-.08.8-.21,1.26-.27a1.29,1.29,0,0,1,1.11.27h5.79c.14-.21,0-.69-.14-1a.82.82,0,0,0-.54-.5,6.11,6.11,0,0,1-2.92-1.33c-.63-.57-3-2.07-3-2.07h0s-.3.07-1.39,1c-.56.47-1.51-.67-1.51-.67a1.33,1.33,0,0,0-.31.43,1.4,1.4,0,0,0-.13.88,5.77,5.77,0,0,1-.41,2.15c-.14.39-.25.67-.25.67S102.13,160.12,103.3,160.27Z"/><path class="cls-19" d="M103.3,160.27h1.36c.46-.08.8-.21,1.26-.27a1.29,1.29,0,0,1,1.11.27h5.79c.14-.21,0-.69-.14-1-.17-.16-.22.68-.32.81a25.54,25.54,0,0,1-5-.15,2.78,2.78,0,0,0-2.18-.26,5.33,5.33,0,0,1-2.75-.52c-.14.39-.25.67-.25.67S102.13,160.12,103.3,160.27Z"/><path class="cls-16" d="M83.48,104c1.38-.46,3.15-1.69,5.28-4.44,5.64-7.28.48-15.84-.21-16s-2,5.53-2,5.53C85.66,95,83.61,101.35,83.48,104Z"/><path class="cls-13" d="M96.45,65.44s.12.48,1.3.39c0,0,1-.07,1-.6A3.21,3.21,0,0,0,96.45,65.44Z"/><path class="cls-17" d="M85.9,143.92c-2.31,3.25-5,7.48-6.55,9.54-1.44,1.87-2.73-.47-2-2.14,1.15-2.64,2.12-7.26,3.23-10.65A8,8,0,0,0,85.9,143.92Z"/><path class="cls-10" d="M82.44,160.28s-3.39-.43-4.24-1.52a8.82,8.82,0,0,1-.31-1.33,1.31,1.31,0,0,0-.8-.87c-.44-.21-.82-.26-1.24-.5a12.63,12.63,0,0,1-1.17-.79c-1-.75-.68-1-.68-1l.61-.44.3-.24a5,5,0,0,0,1.3-1.37,1.54,1.54,0,0,1,1.13-.88s.17,1.54.92,1.46c1.47-.17,1.73-.09,1.77-.06h0s.84,2.4,1,3.25a6.48,6.48,0,0,0,1.43,2.68,1.19,1.19,0,0,1,.21.42A1.15,1.15,0,0,1,82.44,160.28Z"/><path class="cls-19" d="M82.44,160.28s-3.39-.43-4.24-1.52a8.82,8.82,0,0,1-.31-1.33,1.31,1.31,0,0,0-.8-.87c-.44-.21-.82-.26-1.24-.5a12.63,12.63,0,0,1-1.17-.79c-1-.75-.68-1-.68-1l.61-.44.3-.24a2.14,2.14,0,0,0,1,1.69,6.4,6.4,0,0,1,2.5,2.22c.28.67.44,1.26,1.11,1.59a9.18,9.18,0,0,0,2.64.61c.11,0,.27-.48.56-.6A1.15,1.15,0,0,1,82.44,160.28Z"/></g></g></svg>