<svg xmlns="http://www.w3.org/2000/svg" xmlns:xlink="http://www.w3.org/1999/xlink" viewBox="0 0 320.92 278.86"><defs><style>.cls-1{isolation:isolate;}.cls-2{fill:#e8f0ff;mix-blend-mode:multiply;}.cls-3{fill:url(#linear-gradient);}.cls-4{fill:#ccd3e0;}.cls-17,.cls-5{fill:#fff;}.cls-15,.cls-16,.cls-19,.cls-20,.cls-21,.cls-22,.cls-23,.cls-24,.cls-25,.cls-26,.cls-27,.cls-28,.cls-29,.cls-30,.cls-31,.cls-32,.cls-33,.cls-34,.cls-35,.cls-36,.cls-37,.cls-38,.cls-39,.cls-40,.cls-41,.cls-42,.cls-43,.cls-44,.cls-45,.cls-46,.cls-47,.cls-48,.cls-49,.cls-5,.cls-50,.cls-51,.cls-52,.cls-53,.cls-54,.cls-55,.cls-56,.cls-57,.cls-58,.cls-59,.cls-6,.cls-60,.cls-61,.cls-62,.cls-63,.cls-64,.cls-65,.cls-66,.cls-67,.cls-68,.cls-69,.cls-70{stroke:#1a2e35;}.cls-19,.cls-20,.cls-21,.cls-22,.cls-23,.cls-24,.cls-25,.cls-26,.cls-27,.cls-28,.cls-29,.cls-30,.cls-31,.cls-32,.cls-33,.cls-35,.cls-36,.cls-37,.cls-38,.cls-39,.cls-40,.cls-41,.cls-42,.cls-43,.cls-44,.cls-45,.cls-46,.cls-47,.cls-48,.cls-49,.cls-5,.cls-50,.cls-51,.cls-52,.cls-53,.cls-54,.cls-55,.cls-56,.cls-57,.cls-58,.cls-59,.cls-6,.cls-60,.cls-61,.cls-62,.cls-63,.cls-64,.cls-65,.cls-66,.cls-67,.cls-68,.cls-69,.cls-70{stroke-miterlimit:10;}.cls-6{fill:#a2c7de;}.cls-7{fill:url(#linear-gradient-2);}.cls-8{fill:url(#linear-gradient-3);}.cls-9{fill:url(#linear-gradient-4);}.cls-10{fill:url(#linear-gradient-5);}.cls-11{fill:url(#linear-gradient-6);}.cls-12{fill:url(#linear-gradient-7);}.cls-13{fill:url(#linear-gradient-8);}.cls-14{fill:url(#linear-gradient-9);}.cls-15{fill:#707070;}.cls-15,.cls-16,.cls-34{stroke-linejoin:round;}.cls-16,.cls-18,.cls-19,.cls-21{fill:#1a2e35;}.cls-19,.cls-20{stroke-width:0.75px;}.cls-20{fill:#5ae4a7;}.cls-22{fill:url(#linear-gradient-10);}.cls-23,.cls-34{fill:none;}.cls-24{fill:url(#linear-gradient-11);}.cls-25{fill:url(#linear-gradient-12);}.cls-26{fill:#023847;}.cls-27{fill:url(#linear-gradient-13);}.cls-28{fill:url(#linear-gradient-14);}.cls-29{fill:url(#linear-gradient-15);}.cls-30{fill:url(#linear-gradient-16);}.cls-31,.cls-32,.cls-33,.cls-35,.cls-36,.cls-37,.cls-38,.cls-39,.cls-40,.cls-41,.cls-43,.cls-44,.cls-45,.cls-46,.cls-47,.cls-48,.cls-49,.cls-51,.cls-67,.cls-68,.cls-69{stroke-width:0.5px;}.cls-31{fill:url(#linear-gradient-17);}.cls-32{fill:url(#linear-gradient-18);}.cls-33{fill:url(#linear-gradient-19);}.cls-34{stroke-linecap:round;}.cls-35{fill:url(#linear-gradient-20);}.cls-36{fill:url(#linear-gradient-21);}.cls-37{fill:url(#linear-gradient-22);}.cls-38{fill:url(#linear-gradient-23);}.cls-39{fill:url(#linear-gradient-24);}.cls-40{fill:url(#linear-gradient-25);}.cls-41{fill:url(#linear-gradient-26);}.cls-42{fill:url(#linear-gradient-27);}.cls-43{fill:url(#linear-gradient-28);}.cls-44{fill:url(#linear-gradient-29);}.cls-45{fill:url(#linear-gradient-30);}.cls-46{fill:url(#linear-gradient-31);}.cls-47{fill:url(#linear-gradient-32);}.cls-48{fill:url(#linear-gradient-33);}.cls-49{fill:url(#linear-gradient-34);}.cls-50{fill:#737373;}.cls-51{fill:url(#linear-gradient-35);}.cls-52{fill:url(#linear-gradient-36);}.cls-53{fill:url(#linear-gradient-37);}.cls-54{fill:url(#linear-gradient-38);}.cls-55{fill:url(#linear-gradient-39);}.cls-56{fill:url(#linear-gradient-40);}.cls-57{fill:url(#linear-gradient-41);}.cls-58{fill:url(#linear-gradient-42);}.cls-59{fill:url(#linear-gradient-43);}.cls-60,.cls-62,.cls-63,.cls-70{stroke-width:0.25px;}.cls-60{fill:url(#linear-gradient-44);}.cls-61{fill:url(#linear-gradient-45);}.cls-62{fill:url(#linear-gradient-46);}.cls-63{fill:url(#linear-gradient-47);}.cls-64{fill:url(#linear-gradient-48);}.cls-65{fill:url(#linear-gradient-49);}.cls-66{fill:url(#linear-gradient-50);}.cls-67{fill:url(#linear-gradient-51);}.cls-68{fill:url(#linear-gradient-52);}.cls-69{fill:url(#linear-gradient-53);}.cls-70{fill:url(#linear-gradient-54);}</style><linearGradient id="linear-gradient" y1="172.33" x2="320.92" y2="172.33" gradientUnits="userSpaceOnUse"><stop offset="0.45" stop-color="#676a78"/><stop offset="0.55" stop-color="#8b8e9e"/></linearGradient><linearGradient id="linear-gradient-2" x1="108.65" y1="69.04" x2="132.82" y2="69.04" gradientUnits="userSpaceOnUse"><stop offset="0.09" stop-color="#0196ff"/><stop offset="0.3" stop-color="#018ffc"/><stop offset="0.61" stop-color="#017af4"/><stop offset="0.99" stop-color="#0059e6"/><stop offset="1" stop-color="#0058e6"/></linearGradient><linearGradient id="linear-gradient-3" x1="51.56" y1="22.99" x2="63.87" y2="22.99" xlink:href="#linear-gradient-2"/><linearGradient id="linear-gradient-4" x1="65.92" y1="21.55" x2="74.79" y2="21.55" xlink:href="#linear-gradient-2"/><linearGradient id="linear-gradient-5" x1="65.38" y1="49.56" x2="95.85" y2="49.56" xlink:href="#linear-gradient-2"/><linearGradient id="linear-gradient-6" x1="77.41" y1="20.25" x2="83.16" y2="20.25" xlink:href="#linear-gradient-2"/><linearGradient id="linear-gradient-7" x1="48.38" y1="104.52" x2="58.32" y2="104.52" xlink:href="#linear-gradient-2"/><linearGradient id="linear-gradient-8" x1="61.08" y1="101.59" x2="74.87" y2="101.59" xlink:href="#linear-gradient-2"/><linearGradient id="linear-gradient-9" x1="76.94" y1="97.93" x2="85.21" y2="97.93" xlink:href="#linear-gradient-2"/><linearGradient id="linear-gradient-10" x1="83.32" y1="116.88" x2="275.81" y2="116.88" xlink:href="#linear-gradient-2"/><linearGradient id="linear-gradient-11" x1="202.88" y1="105.56" x2="214.2" y2="105.56" xlink:href="#linear-gradient-2"/><linearGradient id="linear-gradient-12" x1="130.9" y1="132.86" x2="147.36" y2="132.86" xlink:href="#linear-gradient-2"/><linearGradient id="linear-gradient-13" x1="124.76" y1="127.78" x2="145.33" y2="127.78" xlink:href="#linear-gradient-2"/><linearGradient id="linear-gradient-14" x1="136.42" y1="128.14" x2="140" y2="128.14" xlink:href="#linear-gradient-2"/><linearGradient id="linear-gradient-15" x1="136.01" y1="117.54" x2="140.52" y2="117.54" xlink:href="#linear-gradient-2"/><linearGradient id="linear-gradient-16" x1="127.5" y1="139.37" x2="138.37" y2="139.37" xlink:href="#linear-gradient-2"/><linearGradient id="linear-gradient-17" x1="140.79" y1="67.51" x2="152.39" y2="67.51" gradientUnits="userSpaceOnUse"><stop offset="0.14" stop-color="#ffcab8"/><stop offset="0.77" stop-color="#ff9574"/></linearGradient><linearGradient id="linear-gradient-18" x1="146.48" y1="68.12" x2="148.21" y2="68.12" xlink:href="#linear-gradient-17"/><linearGradient id="linear-gradient-19" x1="138.86" y1="72.44" x2="148.26" y2="72.44" xlink:href="#linear-gradient-17"/><linearGradient id="linear-gradient-20" x1="143.29" y1="109.31" x2="154.16" y2="109.31" xlink:href="#linear-gradient-17"/><linearGradient id="linear-gradient-21" x1="141.57" y1="101.52" x2="148.83" y2="101.52" xlink:href="#linear-gradient-17"/><linearGradient id="linear-gradient-22" x1="27.29" y1="68.88" x2="40.07" y2="68.88" xlink:href="#linear-gradient-17"/><linearGradient id="linear-gradient-23" x1="27.29" y1="64.31" x2="33.75" y2="64.31" xlink:href="#linear-gradient-17"/><linearGradient id="linear-gradient-24" x1="30.44" y1="65.55" x2="33.16" y2="65.55" xlink:href="#linear-gradient-17"/><linearGradient id="linear-gradient-25" x1="23.58" y1="156.65" x2="39.22" y2="156.65" xlink:href="#linear-gradient-17"/><linearGradient id="linear-gradient-26" x1="43.2" y1="154.79" x2="58.84" y2="154.79" xlink:href="#linear-gradient-17"/><linearGradient id="linear-gradient-27" x1="22.6" y1="128.25" x2="47.81" y2="128.25" xlink:href="#linear-gradient-2"/><linearGradient id="linear-gradient-28" x1="38.39" y1="93.97" x2="43.56" y2="93.97" xlink:href="#linear-gradient-17"/><linearGradient id="linear-gradient-29" x1="42.71" y1="91.12" x2="50.55" y2="91.12" xlink:href="#linear-gradient-17"/><linearGradient id="linear-gradient-30" x1="43.72" y1="89.23" x2="48.8" y2="89.23" xlink:href="#linear-gradient-17"/><linearGradient id="linear-gradient-31" x1="50.57" y1="88.23" x2="51.88" y2="88.23" xlink:href="#linear-gradient-17"/><linearGradient id="linear-gradient-32" x1="48.3" y1="89.03" x2="51.05" y2="89.03" xlink:href="#linear-gradient-17"/><linearGradient id="linear-gradient-33" x1="47.19" y1="89.88" x2="50.54" y2="89.88" xlink:href="#linear-gradient-17"/><linearGradient id="linear-gradient-34" x1="45.89" y1="91.54" x2="49.12" y2="91.54" xlink:href="#linear-gradient-17"/><linearGradient id="linear-gradient-35" x1="35.08" y1="83.19" x2="39.88" y2="83.19" xlink:href="#linear-gradient-17"/><linearGradient id="linear-gradient-36" x1="256.92" y1="54.16" x2="268.28" y2="54.16" xlink:href="#linear-gradient-17"/><linearGradient id="linear-gradient-37" x1="255.76" y1="46.56" x2="264.22" y2="46.56" xlink:href="#linear-gradient-17"/><linearGradient id="linear-gradient-38" x1="257.07" y1="47.98" x2="257.82" y2="47.98" xlink:href="#linear-gradient-17"/><linearGradient id="linear-gradient-39" x1="257.45" y1="48.62" x2="260.53" y2="48.62" xlink:href="#linear-gradient-17"/><linearGradient id="linear-gradient-40" x1="255.88" y1="43.97" x2="256.97" y2="43.97" xlink:href="#linear-gradient-17"/><linearGradient id="linear-gradient-41" x1="258.6" y1="42.69" x2="260.68" y2="42.69" xlink:href="#linear-gradient-17"/><linearGradient id="linear-gradient-42" x1="259.49" y1="44.65" x2="260.53" y2="44.65" xlink:href="#linear-gradient-17"/><linearGradient id="linear-gradient-43" x1="256.2" y1="45.69" x2="257.09" y2="45.69" xlink:href="#linear-gradient-17"/><linearGradient id="linear-gradient-44" x1="236.21" y1="58.65" x2="238.54" y2="58.65" xlink:href="#linear-gradient-17"/><linearGradient id="linear-gradient-45" x1="237.16" y1="69.16" x2="248.28" y2="69.16" xlink:href="#linear-gradient-17"/><linearGradient id="linear-gradient-46" x1="236.59" y1="60.1" x2="240.68" y2="60.1" xlink:href="#linear-gradient-17"/><linearGradient id="linear-gradient-47" x1="236.45" y1="62.34" x2="241.13" y2="62.34" xlink:href="#linear-gradient-17"/><linearGradient id="linear-gradient-48" x1="251.31" y1="115.33" x2="284.63" y2="115.33" xlink:href="#linear-gradient-2"/><linearGradient id="linear-gradient-49" x1="261.14" y1="147.68" x2="268.06" y2="147.68" xlink:href="#linear-gradient-2"/><linearGradient id="linear-gradient-50" x1="278.18" y1="139.98" x2="285.29" y2="139.98" xlink:href="#linear-gradient-2"/><linearGradient id="linear-gradient-51" x1="261.72" y1="74.44" x2="274.57" y2="74.44" xlink:href="#linear-gradient-17"/><linearGradient id="linear-gradient-52" x1="262.14" y1="69.9" x2="266.06" y2="69.9" xlink:href="#linear-gradient-17"/><linearGradient id="linear-gradient-53" x1="262.84" y1="71.31" x2="266.53" y2="71.31" xlink:href="#linear-gradient-17"/><linearGradient id="linear-gradient-54" x1="236.67" y1="64.17" x2="240.33" y2="64.17" xlink:href="#linear-gradient-17"/></defs><g class="cls-1"><g id="Layer_1" data-name="Layer 1"><path class="cls-2" d="M147.18,98.29l-139,80.26c-12.11,7-10.58,19.32,3.41,27.4l114.7,66.22c14,8.08,35.35,9,47.46,2l139-80.26c12.12-7,10.58-19.32-3.41-27.4l-114.7-66.22C180.65,92.18,159.3,91.29,147.18,98.29Z"/><path class="cls-3" d="M320.92,153l-10.54.27-1-.63L194.64,86.37c-14-8.07-35.34-9-47.46-2L14.56,161,0,161.35v15.17H0c0,5.41,3.9,11.11,11.57,15.54l114.7,66.23c14,8.07,35.35,9,47.46,2l139-80.25c5.52-3.19,8.19-7.48,8.16-12h0Z"/><path class="cls-4" d="M147.18,69.26l-139,80.25c-12.11,7-10.58,19.33,3.41,27.41l114.7,66.22c14,8.07,35.35,9,47.46,2l139-80.26c12.12-7,10.58-19.33-3.41-27.4L194.64,71.22C180.65,63.15,159.3,62.26,147.18,69.26Z"/><path class="cls-5" d="M132.82,15.88V140.75a12.51,12.51,0,0,1-12.52,12.52H60.91a12.52,12.52,0,0,1-12.53-12.52V15.88A12.53,12.53,0,0,1,60.91,3.36H85.74l0,.09c.73,2.65,2.42,4.37,4.3,4.37h1.07c1.88,0,3.57-1.72,4.3-4.37l0-.09H120.3A12.52,12.52,0,0,1,132.82,15.88Z"/><path class="cls-6" d="M132.75,14.55A12.51,12.51,0,0,0,120.3,3.36H95.47l0,.09C94.71,6.1,93,7.82,91.14,7.82H90.07c-1.88,0-3.57-1.72-4.3-4.37l0-.09H60.91A12.51,12.51,0,0,0,48.46,14.55Z"/><path class="cls-5" d="M100.16,94.82V55.31H118.3a.84.84,0,0,0,.75-.48l13.77-30.12V20.76l-15,32.91H100.16V14.56H98.52v9c-16.38-1.62-26,6.11-31.16,13a44.15,44.15,0,0,0-7.14,14.54L48.39,43.57v1.94L69.58,59h0V83L48.39,79.11v1.67l50.13,9.15v4.49L48.39,134.47v2.1l22.67-18.11,17.28,23.38a.82.82,0,0,0,.66.34l.21,0,27.24-7v18.1h1.64v-34a.83.83,0,0,0-.45-.73l-6.12-3.09L122,104.06l10.84,4.17v-1.76L122,102.33a.82.82,0,0,0-.9.21L110,114.7,89,104.1l10.82-8.64A.82.82,0,0,0,100.16,94.82Zm16.29,25v13.68l-27.12,6.94-17-23,15.29-12.22ZM98.52,88.26l-27.31-5V60L98.52,77.35Zm0-12.86L61.68,52a42.81,42.81,0,0,1,7-14.48c7.17-9.46,17.21-13.59,29.85-12.29Z"/><polygon class="cls-7" points="132.82 77.93 130.37 77.93 124.16 93.44 111.75 93.44 118.3 78.27 108.65 78.27 108.65 63.45 123.13 63.45 132.82 44.63 132.82 77.93"/><rect class="cls-8" x="51.56" y="17.86" width="12.31" height="10.26"/><rect class="cls-9" x="65.92" y="17.86" width="8.86" height="7.39"/><path class="cls-10" d="M65.38,50.53,95.85,70.21V29S74.06,26.84,65.38,50.53Z"/><rect class="cls-11" x="77.41" y="17.86" width="5.74" height="4.79"/><polygon class="cls-6" points="93.83 114.29 82.75 122.09 88.9 133.58 111.06 132.34 112.29 121.68 103.67 117.98 99.98 123.73 96.29 121.68 99.57 115.52 93.83 114.29"/><polygon class="cls-12" points="58.32 91.14 58.32 113.31 48.38 118.37 48.38 90.68 58.32 91.14"/><polygon class="cls-13" points="74.87 104.9 74.87 91.92 61.08 91.28 61.08 111.91 74.87 104.9"/><polygon class="cls-14" points="76.94 92.02 76.94 103.85 85.21 99.64 85.21 92.41 76.94 92.02"/><path class="cls-15" d="M138.19,49.21V33.34h-1.43V13A12.53,12.53,0,0,0,124.24.5H57A12.53,12.53,0,0,0,44.45,13V149.7A12.53,12.53,0,0,0,57,162.22h67.27a12.53,12.53,0,0,0,12.52-12.52v-87h1.43V53.35h-1.43V49.21Zm-5.37,91.54a12.51,12.51,0,0,1-12.52,12.52H60.91a12.52,12.52,0,0,1-12.53-12.52V15.88A12.53,12.53,0,0,1,60.91,3.36H85.74l0,.09c.73,2.65,2.42,4.37,4.3,4.37h1.07c1.88,0,3.57-1.72,4.3-4.37l0-.09H120.3a12.52,12.52,0,0,1,12.52,12.52Z"/><path class="cls-16" d="M122.79,2.22H58.42A12.53,12.53,0,0,0,45.9,14.75V148a12.52,12.52,0,0,0,12.52,12.52h64.37A12.52,12.52,0,0,0,135.31,148V14.75A12.53,12.53,0,0,0,122.79,2.22Zm10,138.53a12.51,12.51,0,0,1-12.52,12.52H60.91a12.52,12.52,0,0,1-12.53-12.52V15.88A12.53,12.53,0,0,1,60.91,3.36H85.74l0,.09c.73,2.65,2.42,4.37,4.3,4.37h1.07c1.88,0,3.57-1.72,4.3-4.37l0-.09H120.3a12.52,12.52,0,0,1,12.52,12.52Z"/><circle class="cls-17" cx="90.35" cy="3.96" r="1.18"/><path class="cls-18" d="M55.89,8.47c0,1.19-1.34,1.62-1.34,2.52v.06h1.29v.41H54.11v-.34c0-1.28,1.34-1.52,1.34-2.64,0-.4-.14-.62-.46-.62s-.46.24-.46.58v.35h-.42V8.47c0-.6.28-1,.89-1S55.89,7.86,55.89,8.47Z"/><path class="cls-18" d="M58.05,8.46v.1a.79.79,0,0,1-.48.82.78.78,0,0,1,.48.81v.31c0,.6-.28,1-.89,1s-.89-.39-.89-1v-.27h.42v.29c0,.36.14.57.46.57s.46-.2.46-.6v-.31c0-.39-.16-.57-.5-.58h-.23V9.2h.26a.47.47,0,0,0,.47-.54V8.48c0-.41-.14-.62-.46-.62s-.46.22-.46.58v.2h-.42V8.46c0-.6.29-1,.89-1S58.05,7.86,58.05,8.46Z"/><path class="cls-18" d="M58.9,8.76v.55h-.42V8.76Zm0,2.15v.55h-.42v-.55Z"/><path class="cls-18" d="M59.79,9.12a.63.63,0,0,1,.59-.33c.51,0,.73.37.73.93v.78c0,.6-.29,1-.89,1s-.88-.39-.88-1v-.27h.41v.29c0,.36.14.57.46.57s.46-.21.46-.57V9.76c0-.36-.15-.57-.46-.57a.43.43,0,0,0-.45.42V9.7h-.41l.11-2.19H61V7.9H59.85Z"/><path class="cls-18" d="M63.3,8.46v.07h-.41v-.1c0-.36-.14-.57-.46-.57S62,8.08,62,8.5v.89A.63.63,0,0,1,62.58,9c.51,0,.74.37.74.94v.6a.87.87,0,0,1-.91,1c-.61,0-.9-.39-.9-1v-2c0-.62.28-1,.9-1S63.3,7.85,63.3,8.46ZM62,9.93v.59c0,.36.14.57.46.57s.47-.21.47-.57V9.93c0-.35-.15-.57-.47-.57S62,9.58,62,9.93Z"/><rect class="cls-18" x="105.26" y="8.63" width="1.11" height="2.79"/><rect class="cls-18" x="106.75" y="8.07" width="1.11" height="3.34"/><rect class="cls-18" x="108.24" y="7.68" width="1.11" height="3.74"/><rect class="cls-18" x="109.72" y="6.99" width="1.11" height="4.43"/><path class="cls-18" d="M124.62,11.34h-6.68V7.25h6.68ZM118.31,11h5.94V7.62h-5.94Z"/><rect class="cls-18" x="118.87" y="8.03" width="3.53" height="2.53"/><rect class="cls-18" x="124.39" y="8.81" width="0.84" height="0.96"/><path class="cls-18" d="M115.49,10.45a.2.2,0,0,1-.13,0,2,2,0,0,0-2.3,0,.24.24,0,0,1-.35,0,.25.25,0,0,1,0-.35,2.43,2.43,0,0,1,2.88,0,.25.25,0,0,1-.12.46Z"/><path class="cls-18" d="M116,9.61a.31.31,0,0,1-.13,0,2.82,2.82,0,0,0-3.3,0,.25.25,0,0,1-.35,0,.26.26,0,0,1,0-.36,3.33,3.33,0,0,1,3.89,0,.25.25,0,0,1-.13.46Z"/><path class="cls-18" d="M116.45,8.64a.2.2,0,0,1-.13,0,3.57,3.57,0,0,0-4.22,0,.24.24,0,0,1-.35,0,.25.25,0,0,1,0-.35,4.1,4.1,0,0,1,4.8,0,.26.26,0,0,1,.09.35A.25.25,0,0,1,116.45,8.64Z"/><circle class="cls-18" cx="114.11" cy="10.87" r="0.63"/><path class="cls-19" d="M122.37,23.34a1.49,1.49,0,1,0-1.49,1.49A1.49,1.49,0,0,0,122.37,23.34Z"/><path class="cls-20" d="M120.88,22.31a1,1,0,1,0,1,1A1,1,0,0,0,120.88,22.31Z"/><path class="cls-19" d="M120.88,22.56a.78.78,0,1,0,.78.78A.78.78,0,0,0,120.88,22.56Z"/><path class="cls-20" d="M121.9,23.26a1,1,0,0,0-.19-.53.57.57,0,0,1-.55.31c-.32,0-.1-.53,0-.69a.75.75,0,0,0-.26,0,.92.92,0,0,0-.29,0,.7.7,0,0,1,.1.51c-.07.27-.41.18-.69-.06a1,1,0,0,0-.15.51c.2,0,.56,0,.6.18s-.17.36-.41.45a1,1,0,0,0,.45.35c0-.18.15-.5.37-.51s.32.33.36.53a1,1,0,0,0,.47-.33c-.16-.06-.55-.24-.42-.52S121.72,23.23,121.9,23.26Z"/><path class="cls-19" d="M110.32,23.34a1.49,1.49,0,1,0-1.49,1.49A1.49,1.49,0,0,0,110.32,23.34Z"/><path class="cls-20" d="M108.83,22.31a1,1,0,1,0,1,1A1,1,0,0,0,108.83,22.31Z"/><path class="cls-19" d="M108.83,22.56a.78.78,0,1,0,.78.78A.78.78,0,0,0,108.83,22.56Z"/><path class="cls-20" d="M109.86,23.26a1.07,1.07,0,0,0-.2-.53.56.56,0,0,1-.54.31c-.32,0-.1-.53,0-.69a.75.75,0,0,0-.26,0,1,1,0,0,0-.29,0,.7.7,0,0,1,.11.51c-.07.27-.42.18-.7-.06a1.09,1.09,0,0,0-.15.51c.21,0,.56,0,.6.18s-.16.36-.4.45a1,1,0,0,0,.44.35c0-.18.15-.5.37-.51s.32.33.36.53a1,1,0,0,0,.47-.33c-.15-.06-.54-.24-.42-.52S109.67,23.23,109.86,23.26Z"/><path class="cls-18" d="M124,23.34l0-.66a.3.3,0,0,0,.06-.18,3.13,3.13,0,0,0-.38-1.07,2.32,2.32,0,0,0-1.1-.92,13.5,13.5,0,0,0-2.17-.49h-.07l0,0,0,0h0l-.12-.07,0,0,0,0-.1-.06,0,0h0l-.14-.09-.1-.06-.07,0,0,0-.35-.23-.11-.07h0l0,0,0,0h0l-.26-.17,0,0-.12-.08h0l-.4-.25,0,0-.05,0h0l-.32-.21h0l-.06,0h0l0,0h0l-.06,0h0l-.06,0h0l0,0h0l-.15-.09h0l0,0h0l0,0h0l0,0h0l0,0h0l0,0h0l-.25-.16a1.66,1.66,0,0,0-.58-.17,26.59,26.59,0,0,0-3.17-.17c-1.45,0-2.91.09-4.28.23,0,0-.42,0-.42.07s0,.14,0,.14l-1.08,1.61a1.86,1.86,0,0,0-.35.35,1.22,1.22,0,0,0-.07.21.25.25,0,0,0,0,.07c-.1.37-.25,1-.25,1a1.32,1.32,0,0,0-.23.57,9.15,9.15,0,0,0,.07.93s-.11.15-.06.23.14.37.24.44a1,1,0,0,0,.34.1h0a1.78,1.78,0,1,1,3.55.11,2.64,2.64,0,0,1,0,.28h.07l8.48.13h0c0-.1,0-.21,0-.31a1.78,1.78,0,1,1,3.55,0,2,2,0,0,1,0,.35,4.38,4.38,0,0,0,1.17-.12.54.54,0,0,0,.2-.31A.42.42,0,0,0,124,23.34Zm-16.26-3.85h-.3l1-1.57.18.06Zm3,0h-.12l-.33,0a.24.24,0,0,1-.24-.19l-.27-1.18a.18.18,0,0,1,.16-.23c.17,0,.41,0,.68-.06h.12c.83,0,1.89,0,2.41,0l.06,1.8Zm3.42.16-.27-1.83,1.95.06a.19.19,0,0,1,.1,0l2.87,2Zm5.26.27-2.9-2H117l3.15,2Z"/><path class="cls-19" d="M66.09,34.93a1.49,1.49,0,1,0-1.49,1.49A1.48,1.48,0,0,0,66.09,34.93Z"/><path class="cls-20" d="M64.6,33.9a1,1,0,1,0,1,1A1,1,0,0,0,64.6,33.9Z"/><path class="cls-19" d="M64.6,34.15a.79.79,0,1,0,.79.78A.78.78,0,0,0,64.6,34.15Z"/><path class="cls-20" d="M65.63,34.85a1.07,1.07,0,0,0-.2-.52.59.59,0,0,1-.54.31c-.32,0-.1-.54,0-.7a1.26,1.26,0,0,0-.27,0,.87.87,0,0,0-.28.05.72.72,0,0,1,.1.51c-.07.26-.42.17-.69-.06a1,1,0,0,0-.16.51c.21,0,.56,0,.61.17s-.17.37-.41.46a1.09,1.09,0,0,0,.44.35c.05-.19.15-.5.37-.52s.32.34.36.54a1.08,1.08,0,0,0,.47-.34c-.15-.06-.54-.24-.41-.52S65.44,34.82,65.63,34.85Z"/><circle class="cls-19" cx="52.56" cy="34.93" r="1.49"/><path class="cls-20" d="M52.56,33.9a1,1,0,1,0,1,1A1,1,0,0,0,52.56,33.9Z"/><path class="cls-19" d="M52.56,34.15a.79.79,0,1,0,.78.78A.78.78,0,0,0,52.56,34.15Z"/><path class="cls-20" d="M53.58,34.85a1,1,0,0,0-.19-.52.61.61,0,0,1-.55.31c-.32,0-.1-.54,0-.7a1.09,1.09,0,0,0-.26,0,.93.93,0,0,0-.29.05.68.68,0,0,1,.1.51c-.06.26-.41.17-.69-.06a1,1,0,0,0-.15.51c.2,0,.56,0,.6.17s-.17.37-.41.46a1.12,1.12,0,0,0,.45.35c0-.19.15-.5.37-.52s.32.34.36.54a1.14,1.14,0,0,0,.47-.34c-.16-.06-.55-.24-.42-.52S53.4,34.82,53.58,34.85Z"/><path class="cls-18" d="M67.71,34.94l0-.67a.3.3,0,0,0,.06-.18A3,3,0,0,0,67.33,33a2.2,2.2,0,0,0-1.1-.91,12.22,12.22,0,0,0-2.16-.49H64l0,0,0,0h0l-.12-.08,0,0h0l-.09-.06,0,0h0l-.14-.1-.1-.06-.07,0,0,0-.35-.22-.11-.07,0,0-.05,0,0,0h0l-.25-.16,0,0-.13-.08h0l-.4-.25,0,0-.05,0h0l-.32-.2h0l-.06,0h0l-.06,0h0l0,0h0l-.06,0h0l-.05,0h0L61,29.67h0l0,0h0l0,0h0l0,0h0l0,0h0l-.26-.15a1.55,1.55,0,0,0-.58-.17A25.4,25.4,0,0,0,56.77,29c-1.46,0-2.91.09-4.28.24,0,0-.42,0-.42.07s0,.13,0,.13L51,31.08a2,2,0,0,0-.36.34l-.06.22a.19.19,0,0,0,0,.07c-.11.37-.25,1-.25,1a1.23,1.23,0,0,0-.24.57,8.37,8.37,0,0,0,.08.92s-.12.16-.07.24.15.36.25.43a.86.86,0,0,0,.33.11h0a1.78,1.78,0,1,1,3.55.11,2.83,2.83,0,0,1,0,.29h.07l8.47.14h0c0-.11,0-.21,0-.32a1.78,1.78,0,1,1,3.55,0,2,2,0,0,1,0,.35,4,4,0,0,0,1.17-.12.55.55,0,0,0,.2-.3A.42.42,0,0,0,67.71,34.94ZM51.44,31.08h-.29l1-1.57.18.07Zm3,0H54a.28.28,0,0,1-.24-.2l-.26-1.18a.18.18,0,0,1,.15-.23l.69-.05h.12c.82,0,1.88,0,2.41,0l.06,1.81Zm3.42.16-.27-1.83,1.95.06a.16.16,0,0,1,.09,0l2.88,2Zm5.26.27-2.9-2h.46l3.15,2Z"/><circle class="cls-19" cx="73.49" cy="137.42" r="1.49"/><path class="cls-20" d="M73.49,136.39a1,1,0,1,0,1,1A1,1,0,0,0,73.49,136.39Z"/><path class="cls-19" d="M73.49,136.64a.78.78,0,1,0,.78.78A.78.78,0,0,0,73.49,136.64Z"/><path class="cls-20" d="M74.52,137.34a1.11,1.11,0,0,0-.2-.53.57.57,0,0,1-.54.32c-.32,0-.1-.54,0-.7a.75.75,0,0,0-.26,0,1.35,1.35,0,0,0-.29,0,.76.76,0,0,1,.11.52c-.07.26-.42.17-.7-.07a1.12,1.12,0,0,0-.15.51c.21,0,.56,0,.6.18s-.16.37-.41.45a1,1,0,0,0,.45.35c0-.18.15-.5.37-.51s.32.33.36.53a1,1,0,0,0,.47-.33c-.15-.06-.54-.24-.42-.52S74.33,137.31,74.52,137.34Z"/><circle class="cls-19" cx="61.44" cy="137.42" r="1.49"/><path class="cls-20" d="M61.44,136.39a1,1,0,1,0,1,1A1,1,0,0,0,61.44,136.39Z"/><path class="cls-19" d="M61.44,136.64a.78.78,0,1,0,.79.78A.78.78,0,0,0,61.44,136.64Z"/><path class="cls-20" d="M62.47,137.34a.94.94,0,0,0-.2-.53.56.56,0,0,1-.54.32c-.32,0-.1-.54,0-.7a.8.8,0,0,0-.27,0,1.26,1.26,0,0,0-.28,0,.76.76,0,0,1,.1.52c-.07.26-.42.17-.69-.07a1,1,0,0,0-.15.51c.2,0,.56,0,.6.18s-.17.37-.41.45a1,1,0,0,0,.44.35c.05-.18.15-.5.37-.51s.33.33.36.53a1,1,0,0,0,.47-.33c-.15-.06-.54-.24-.41-.52S62.28,137.31,62.47,137.34Z"/><path class="cls-18" d="M76.6,137.42l0-.66a.3.3,0,0,0,.06-.18,3,3,0,0,0-.39-1.07,2.27,2.27,0,0,0-1.1-.92,13.23,13.23,0,0,0-2.17-.48h-.07l0,0,0,0h0l-.12-.07,0,0,0,0-.09-.05,0,0h0l-.15-.09-.1-.06-.07,0,0,0-.35-.23-.11-.07h0l0,0,0,0h0l-.25-.16,0,0-.12-.08h0l-.4-.25,0,0,0,0h0l-.32-.2h0l-.06,0h0l0,0h0l-.06,0h0l0,0h0l0,0h0l-.14-.09h0l0,0h0l0,0h0l0,0h0l0,0h0l0,0h0a1.89,1.89,0,0,0-.25-.15,1.48,1.48,0,0,0-.58-.18,26.52,26.52,0,0,0-3.16-.17c-1.46,0-2.91.09-4.29.23,0,0-.41,0-.41.08s0,.13,0,.13l-1.08,1.62a1.72,1.72,0,0,0-.36.34l-.07.21s0,.06,0,.07c-.1.38-.24,1-.24,1a1.29,1.29,0,0,0-.24.57,9.15,9.15,0,0,0,.07.93s-.11.15-.06.23.14.37.25.44a1,1,0,0,0,.33.1h0a1.77,1.77,0,1,1,3.54.11,1.32,1.32,0,0,1,0,.28h.07l8.48.13h0a1.55,1.55,0,0,1,0-.31,1.78,1.78,0,1,1,3.55,0,2,2,0,0,1,0,.35,4.34,4.34,0,0,0,1.17-.12.53.53,0,0,0,.21-.3A.45.45,0,0,0,76.6,137.42Zm-16.27-3.85H60l1-1.57.18.06Zm3,0h-.46a.27.27,0,0,1-.24-.2l-.27-1.18a.2.2,0,0,1,.16-.23l.68-.05h.13c.82,0,1.88,0,2.4,0l.06,1.81Zm3.41.16-.26-1.83,1.94.06a.17.17,0,0,1,.1,0l2.88,2ZM72,134l-2.9-2h.46l3.16,2Z"/><path class="cls-21" d="M128.85,149.28c.05-.64.08-1.29.08-1.94,0-11.78-8.68-21.33-19.39-21.33-10.34,0-18.78,8.9-19.35,20.11Z"/><path class="cls-21" d="M261.11,148.56c0-11.78-8.68-21.33-19.39-21.33s-19.38,9.55-19.38,21.33a22.8,22.8,0,0,0,.25,3.43l38.2.42A23.26,23.26,0,0,0,261.11,148.56Z"/><path class="cls-21" d="M260.85,152.41l2.72,0a.82.82,0,0,1,0-.1C262.48,152.38,261.51,152.4,260.85,152.41Z"/><path class="cls-22" d="M275.57,146l-.56-7.23a3.25,3.25,0,0,0,.67-2c0-1.22-1.34-6.67-4.23-11.67s-6.78-7.45-12-10-23.68-5.33-23.68-5.33S199.64,86.61,197,85.17a17.33,17.33,0,0,0-6.34-1.89,286.38,286.38,0,0,0-34.57-1.89c-15.9.33-31.8,1-46.81,2.56,0,0-4.55-.34-4.55.77s.55,1.45.55,1.45L93.47,103.85s-3.23,2.44-3.89,3.78-3.67,13.67-3.67,13.67-2.45,3.33-2.56,6.23a98.65,98.65,0,0,0,.78,10.11s-1.22,1.67-.67,2.56,1.56,4,2.67,4.78a10.88,10.88,0,0,0,3.67,1.11l.39,0c.56-11.21,9-20.12,19.35-20.12,10.71,0,19.39,9.55,19.39,21.33a22.88,22.88,0,0,1-.21,3.11l.77.09,92.6,1.44h.5a22.8,22.8,0,0,1-.25-3.43c0-11.78,8.68-21.33,19.38-21.33s19.39,9.55,19.39,21.33a23.17,23.17,0,0,1-.32,3.85c2.85,0,11.57-.3,12.77-1.32a6.07,6.07,0,0,0,2.23-3.33A4.75,4.75,0,0,0,275.57,146Z"/><path class="cls-21" d="M218.87,108.4l-88.16-4.21-1.33-.07-3.67-.17a2.82,2.82,0,0,1-2.59-2.17L120.18,88.9a2,2,0,0,1,1.71-2.49c1.92-.27,4.53-.46,7.49-.59l1.33,0c12.4-.45,29.79.07,29.79.07l25.87.76a2,2,0,0,1,1.08.35Z"/><path class="cls-6" d="M157,85.75l.73,19.73,10.41.5-3.24-20-4.41-.13Z"/><path class="cls-23" d="M130.71,104.19V85.77l-1.33,0v18.3"/><path class="cls-21" d="M194,86.61,225.32,109l10.45.78S208,92,199.36,86.61Z"/><path class="cls-24" d="M212.2,108.74v-5.23a2.6,2.6,0,0,0-1.45-1.44c-1.11-.45-6-1.34-7.11-.67s-.67,7.45-.67,7.45L214.2,110Z"/><path class="cls-5" d="M257.44,117s-3.11.78-2.22,1.23a17.5,17.5,0,0,1,7.89,4.78c3.34,3.67,5,6.22,6,6.89s4.44.89,4.44.89-.11-2.45-3.44-6.56S261.67,116.52,257.44,117Z"/><path class="cls-23" d="M230.54,116.86c-7.16-.72-14.78-1.45-14.78-1.45"/><path class="cls-23" d="M275,138.75h-4.43a4.58,4.58,0,0,1-4.32-3c-1.2-3.34-3.49-8.64-6.81-11.53-5.12-4.45-15.12-5.67-16.68-6-.59-.13-4.64-.56-9.44-1"/><line class="cls-23" x1="270.04" y1="147.09" x2="274.45" y2="147.09"/><path class="cls-23" d="M259,133.42s2.85,2.65,4.3,11.83a2.17,2.17,0,0,0,2.14,1.84h2.3"/><path class="cls-23" d="M163.12,110c.44,4.51,1.13,13,1.5,24.46"/><path class="cls-23" d="M160.5,83.39l1.31,12.32s.45,5.89.69,8.29"/><path class="cls-23" d="M164.28,139.64s-.55,6-.55,6.67"/><path class="cls-23" d="M220.43,124.8a136.6,136.6,0,0,1-2.34,16.84c-.44,1.56-.33,5-1.56,5.34a6,6,0,0,1-2.11.22"/><path class="cls-23" d="M218.87,108.4A46.5,46.5,0,0,1,220.54,119c.05.88.06,1.88,0,3"/><line class="cls-23" x1="212.09" y1="147.2" x2="138.49" y2="145.42"/><path class="cls-23" d="M127.77,131.9c-.9-1.42-1.9-2.9-3-4.37-4.23-5.9-11.9-13.12-12.68-16.35a25.28,25.28,0,0,1-.66-6.11"/><path class="cls-23" d="M135.94,145.09a7.73,7.73,0,0,1-3-3.56,47.62,47.62,0,0,0-4.17-8.05"/><path class="cls-23" d="M112.69,98.28c.78-4.55,2.11-11.52,3.35-13.78"/><path class="cls-23" d="M112,102.4s.12-.8.33-2.08"/><rect class="cls-21" x="117.04" y="108.63" width="10.89" height="2" rx="0.28"/><rect class="cls-21" x="165.73" y="111.52" width="10.89" height="2" rx="0.28"/><path class="cls-6" d="M86.46,120.52H90s1.67-8.23,6-10a21.31,21.31,0,0,1,8.34-1.56s-.66-3.56-1.78-4-4-1.23-9,.78-5,5.33-5,5.33Z"/><path class="cls-21" d="M108.48,87l-3.23-.78L93.47,103.85s4.11-.12,5.67-2.67S108.48,87,108.48,87Z"/><circle class="cls-23" cx="101.69" cy="117.19" r="3.78" transform="translate(-53.08 106.23) rotate(-45)"/><circle class="cls-21" cx="241.63" cy="145.96" r="16.26" transform="translate(-25.74 55.38) rotate(-12.42)"/><path class="cls-5" d="M241.63,134.71A11.25,11.25,0,1,0,252.88,146,11.26,11.26,0,0,0,241.63,134.71Z"/><path class="cls-21" d="M241.63,137.41a8.55,8.55,0,1,0,8.55,8.55A8.55,8.55,0,0,0,241.63,137.41Z"/><path class="cls-5" d="M252.83,145.09a11.08,11.08,0,0,0-2.14-5.77,6.36,6.36,0,0,1-5.92,3.42c-3.53-.22-1.12-5.86-.27-7.65a11.11,11.11,0,0,0-6,.07c.67,1.17,1.71,3.43,1.14,5.61-.76,2.86-4.57,1.91-7.59-.68a11.2,11.2,0,0,0-1.65,5.55c2.23-.13,6.12-.06,6.57,1.92.51,2.21-1.83,4-4.46,5a11.3,11.3,0,0,0,4.87,3.84c.47-2,1.63-5.46,4-5.64s3.52,3.67,3.92,5.85a11.26,11.26,0,0,0,5.14-3.67c-1.68-.63-5.94-2.59-4.55-5.67C247.12,144.54,250.8,144.75,252.83,145.09Z"/><circle class="cls-21" cx="110.04" cy="145.96" r="16.26" transform="translate(-70.98 120.56) rotate(-45)"/><path class="cls-5" d="M110,134.71A11.25,11.25,0,1,0,121.29,146,11.25,11.25,0,0,0,110,134.71Z"/><path class="cls-21" d="M110,137.41a8.55,8.55,0,1,0,8.55,8.55A8.55,8.55,0,0,0,110,137.41Z"/><path class="cls-5" d="M121.25,145.09a11.08,11.08,0,0,0-2.14-5.77,6.4,6.4,0,0,1-5.93,3.42c-3.52-.22-1.12-5.86-.27-7.65a11.23,11.23,0,0,0-2.87-.38,11.12,11.12,0,0,0-3.13.45c.67,1.17,1.71,3.43,1.13,5.61-.76,2.86-4.56,1.91-7.59-.68a11.19,11.19,0,0,0-1.64,5.55c2.22-.13,6.12-.06,6.57,1.92.5,2.21-1.83,4-4.46,5a11.27,11.27,0,0,0,4.86,3.84c.48-2,1.63-5.46,4-5.64s3.52,3.67,3.91,5.85a11.28,11.28,0,0,0,5.15-3.67c-1.68-.63-5.94-2.59-4.56-5.67C115.54,144.54,119.22,144.75,121.25,145.09Z"/><path class="cls-21" d="M166.34,55.59a7.87,7.87,0,0,0-7.87,7.87c0,4.34,7.87,12.56,7.87,12.56s7.86-8.22,7.86-12.56A7.87,7.87,0,0,0,166.34,55.59Zm0,11.53A3.66,3.66,0,1,1,170,63.46,3.66,3.66,0,0,1,166.34,67.12Z"/><path class="cls-6" d="M165.41,54.29a7.86,7.86,0,0,0-7.87,7.86c0,4.34,7.87,12.56,7.87,12.56s7.86-8.22,7.86-12.56A7.86,7.86,0,0,0,165.41,54.29Zm0,11.52a3.66,3.66,0,1,1,3.66-3.66A3.66,3.66,0,0,1,165.41,65.81Z"/><path class="cls-5" d="M232.83,50a18.54,18.54,0,1,0-3,2.38l4.71,4Z"/><path class="cls-6" d="M217.41,14.68A5.29,5.29,0,0,0,212.12,20c0,2.92,5.29,8.45,5.29,8.45s5.28-5.53,5.28-8.45A5.28,5.28,0,0,0,217.41,14.68Zm0,7.74A2.46,2.46,0,1,1,219.87,20,2.46,2.46,0,0,1,217.41,22.42Z"/><circle class="cls-19" cx="230.01" cy="41.52" r="2.69"/><path class="cls-20" d="M230,39.66a1.86,1.86,0,1,0,1.85,1.86A1.86,1.86,0,0,0,230,39.66Z"/><path class="cls-19" d="M230,40.11a1.42,1.42,0,1,0,1.41,1.41A1.42,1.42,0,0,0,230,40.11Z"/><path class="cls-20" d="M231.86,41.38a1.84,1.84,0,0,0-.36-1,1,1,0,0,1-1,.56c-.58,0-.18-1,0-1.26a1.84,1.84,0,0,0-.47-.07,1.77,1.77,0,0,0-.52.08,1.34,1.34,0,0,1,.19.93c-.13.47-.76.31-1.26-.12a1.9,1.9,0,0,0-.27.92c.37,0,1,0,1.09.32s-.31.66-.74.82a1.84,1.84,0,0,0,.8.63c.08-.33.27-.9.67-.93s.58.61.65,1a1.92,1.92,0,0,0,.85-.61c-.28-.1-1-.43-.76-.94S231.52,41.32,231.86,41.38Z"/><circle class="cls-19" cx="208.27" cy="41.52" r="2.69"/><path class="cls-20" d="M208.27,39.66a1.86,1.86,0,1,0,1.86,1.86A1.87,1.87,0,0,0,208.27,39.66Z"/><path class="cls-19" d="M208.27,40.11a1.42,1.42,0,0,0,0,2.83,1.42,1.42,0,1,0,0-2.83Z"/><path class="cls-20" d="M210.12,41.38a1.75,1.75,0,0,0-.35-1,1,1,0,0,1-1,.56c-.58,0-.18-1,0-1.26a1.85,1.85,0,0,0-.48-.07,1.82,1.82,0,0,0-.52.08,1.24,1.24,0,0,1,.19.93c-.12.47-.75.31-1.25-.12a1.8,1.8,0,0,0-.27.92c.36,0,1,0,1.08.32s-.3.66-.73.82a1.84,1.84,0,0,0,.8.63c.08-.33.27-.9.67-.93s.58.61.64,1a1.86,1.86,0,0,0,.85-.61c-.28-.1-1-.43-.75-.94S209.79,41.32,210.12,41.38Z"/><path class="cls-18" d="M235.61,41.53l-.09-1.2a.55.55,0,0,0,.11-.33,5.54,5.54,0,0,0-.7-1.93,4.12,4.12,0,0,0-2-1.65,23.54,23.54,0,0,0-3.91-.88h0l0,0h0l0,0-.05,0,0,0,0,0-.22-.13-.05,0,0,0-.17-.11-.07,0,0,0-.26-.16-.17-.12-.13-.08-.07,0-.64-.41-.2-.12,0,0-.08-.06-.05,0h0l-.46-.29-.06,0-.22-.15h0l-.72-.46L225,33l-.09,0,0,0-.58-.36h0l-.1-.06h0l-.1-.06h0l-.1-.07h0l-.1-.06h0l-.09-.06h0l-.26-.16h0l-.07-.05h0l-.07,0,0,0-.06,0,0,0,0,0,0,0-.05,0h0l-.45-.28a2.85,2.85,0,0,0-1-.31,45.72,45.72,0,0,0-5.71-.31c-2.62.05-5.25.16-7.73.42,0,0-.75-.06-.75.13a.28.28,0,0,0,.09.24l-1.94,2.92a3.13,3.13,0,0,0-.65.62,3.63,3.63,0,0,0-.12.38s0,.1,0,.13c-.18.67-.44,1.75-.44,1.75a2.3,2.3,0,0,0-.43,1c0,.48.13,1.67.13,1.67s-.2.27-.11.42.26.66.44.79a1.79,1.79,0,0,0,.61.18H205a3.21,3.21,0,1,1,6.4.2,4.24,4.24,0,0,1,0,.51l.12,0,15.3.24h.08a3.64,3.64,0,0,1,0-.57,3.2,3.2,0,1,1,6.35.64,8,8,0,0,0,2.11-.22,1,1,0,0,0,.37-.55A.69.69,0,0,0,235.61,41.53Zm-29.35-7h-.53l1.88-2.84.32.12Zm5.43,0h-.22l-.61,0a.46.46,0,0,1-.43-.35L210,32.1a.32.32,0,0,1,.28-.41,11.73,11.73,0,0,1,1.24-.1h.22c1.48,0,3.39,0,4.34,0l.11,3.26Zm6.16.3-.48-3.31,3.51.11a.3.3,0,0,1,.18.06l5.19,3.54Zm9.49.49-5.23-3.57h.83l5.69,3.65Z"/><path class="cls-25" d="M147.36,109.57s-.63,6.6-1.08,8.5-2.26,14.65-3.17,16.28-.54,3.07-1.08,4.07-.91,1.62-.91,1.62-1,8.78-1.35,11a5.27,5.27,0,0,0,0,3.07c.18,1-1,1.72-1,1.72a18.28,18.28,0,0,1,1.72,2.26c.45.81,3.07,1.17,4.34,1.54s1.36,1.35,1.08,1.62a3,3,0,0,1-1.26.36H131s-.09-1.89-.09-2.89a11.61,11.61,0,0,1,.28-2.53,6.69,6.69,0,0,0,.27-2.17c0-1.27,1.62-3.07,1.71-3.8a41.47,41.47,0,0,1,.37-7.5c.63-3.26,2.62-11.31,2.62-11.58s.18-9.4.18-9.4-3.26-8.32-3.62-8.68-1.9-5.79-1.63-6.6,1.27-2.26,6.24-2.26,7,2.44,7.42,3S147.36,109.57,147.36,109.57Z"/><path class="cls-26" d="M138.77,155.78a18.28,18.28,0,0,1,1.72,2.26c.45.81,3.07,1.17,4.34,1.54s1.36,1.35,1.08,1.62a3,3,0,0,1-1.26.36H131s-.09-1.89-.09-2.89c0-.23,0-.48,0-.72l1.06-.18A44.13,44.13,0,0,0,138.77,155.78Z"/><path class="cls-5" d="M130.94,160.24l11.45.69,3.65-.07a.48.48,0,0,1-.13.34,3,3,0,0,1-1.26.36H131S131,161,130.94,160.24Z"/><path class="cls-26" d="M131,150.44l.46,3.53s2.89,4.07,3.25,4.52-.36.81-1.08,1.09-5.79-1.72-6.79-2.63-2.89-2.89-2.89-2.89l-.81.54s-2.17-2.71-1.9-3.34,3.53-3.08,3.53-3.08Z"/><path class="cls-26" d="M121.92,150.49a72.73,72.73,0,0,0,5.37,5.83c1.24,1,6,2.36,7.34,2.71a3.27,3.27,0,0,1-1,.55c-.73.27-5.79-1.72-6.79-2.63s-2.89-2.89-2.89-2.89l-.81.54s-2.17-2.71-1.9-3.34A3,3,0,0,1,121.92,150.49Z"/><path class="cls-27" d="M142.93,107.67s1.54,8.68,1.63,9.59,1.35,10.85.45,12.93-5.7,10.85-5.7,10.85-5.42,6.15-5.78,6.42-.09.9-.28,1.27-1.26.72-1.26.72-.27,1.17-.45,1.63-1.36-.09-3.17-.46-3.61-2.44-3.61-2.44a12.68,12.68,0,0,1,.54-1.81c.18-.27-.54-.18.27-1.62a10,10,0,0,1,1.45-2.08l7.77-10.76,1-2.54s-.46-4-.37-4.61.55-1.9.55-2.17-4-9-4.16-9.67-1.81-3.35-1.9-4.25,1.17-2.26,1.17-2.26,4.07-2.08,5.61-2.08,2-.09,3,.45,2.63,1.63,2.63,1.63Z"/><path class="cls-28" d="M136.42,128.4a30.78,30.78,0,0,1,3.07-.82c.82-.1.84.47-1.43,1.13"/><path class="cls-29" d="M136,108.31s.31,5.23,1.33,7.38a38.39,38.39,0,0,1,2.36,7.18c.51,2.15-.51,1.74-.41,2.36s1.23,1.53,1.23,1.53"/><path class="cls-30" d="M138.37,130a23,23,0,0,1-3,6.56c-2.25,3.49-6,7.49-6.15,8.31a3.94,3.94,0,0,0,.41,1.84s-1.64,0-1.74.62a6.86,6.86,0,0,1-.41,1.33"/><path class="cls-6" d="M147.09,74.4l.72,4.34c.09.54,1.54,5.42.91,9.13s-.91,12.21-.91,12.21l.36,10.58s-1.44.9-4.43-1.09-3.52-4-5.33-4-4.43,1.36-5.7,1.72-3.61,1.18-3.61,1.18,1.44-10.49,2.26-13.75,1.44-12.57,3.16-16.36,3.53-5.61,4.34-6.15a2.09,2.09,0,0,1,1.36-.45S145.64,72.32,147.09,74.4Z"/><path class="cls-31" d="M151,61.44s.93,2.59.73,3.39-.33,1.06-.2,1.39,1.13,1.92.79,2.26-.73.66-.73.66l-2.05,1.59-1,1.46-.86,1.53-6.44-3.78.4-.93s-1.33-4.18-.66-5.91,4.91-1.72,6.5-1.79A28.51,28.51,0,0,1,151,61.44Z"/><path class="cls-21" d="M147.36,59.44a5.69,5.69,0,0,1,4,.21c1.92.93,0,2.65-.47,2.72,0,0,0,1.93-.33,2.26l-.33.33a18.75,18.75,0,0,0-.13,3c.13.59.2.86.53,1s1.13-.46,1,.2a11.61,11.61,0,0,1-.33,1.26s.07,1.73,0,2.32-1.59.6-2.19.27-2.19-1.79-1.72-2.39,1.46-1.39,1.46-2.19-.33-3.25-1.2-3.19a1.15,1.15,0,0,0-1.19,1.2c-.07.66.13,1-.07,1.33s-.46.79-2,1.32-2.32.53-2.72-.06a18.41,18.41,0,0,1-1.39-6c0-1.93.2-2.39,2.58-3.59A4.23,4.23,0,0,1,147.36,59.44Z"/><path class="cls-32" d="M146.48,67.22s.27,1.46.87,1.72a.63.63,0,0,0,.86-.2"/><path class="cls-33" d="M138.86,72.23s.66-2.75,1.72-3,4.16,2,5.33,2.81a12.07,12.07,0,0,1,2.35,2.44l-.45,1.17s-2.53-2.44-3.88-2.8A44,44,0,0,0,138.86,72.23Z"/><path class="cls-6" d="M145.82,79.37a9.35,9.35,0,0,1-.72,1.81c-.45.81-1,2-1,2l.36,11.39,3,6.78-4.88.82s-4.61-7.78-4.7-8.68-2.35-12.12-2.35-12.75-.82-1.72,1.17-4.07"/><path class="cls-34" d="M134.34,82.9a20.24,20.24,0,0,0,2.08,2.44"/><path class="cls-35" d="M147.72,102.16s3.17,5.06,3.44,5.42a26,26,0,0,1,2,2.9,37.5,37.5,0,0,1,1,4.07c.09.54-.09,1.08-.63.81s-.45-1.9-.45-1.9l-.82-2.08a42.11,42.11,0,0,1,0,4.79c-.18.64-.81.18-.81-1.17a15.91,15.91,0,0,1,.09-2l-.54-1s-.45,2.63-.64,3.44-.81.9-.9.18a5.43,5.43,0,0,1,.27-1.63c0-.27-.36-2-.36-2s-.09,2.54-.63,2.81-.73-.27-.46-.91a2.25,2.25,0,0,0,.28-1.17c0-.36-.37-2.08-.37-2.08s-.18-2.17-.18-2.44-4.7-5.52-4.7-5.52Z"/><path class="cls-36" d="M147,99.72s2.08,2.08,1.81,2.53-4.89,1.26-5.7,1.08a2.07,2.07,0,0,1-1.54-1.26C141.48,101.61,145.37,99.35,147,99.72Z"/><path class="cls-37" d="M27.35,66.55s1.24,2.47,1.42,3a6.43,6.43,0,0,1,.25,2.1c-.06.43-1.17,1.17-1.17,1.17l6.17,5a25.68,25.68,0,0,0,1.79-3.52c.62-1.61,1.22-3.18,1.84-3.49s2-.24,2.36-1a11.84,11.84,0,0,0-.3-3.4,7.06,7.06,0,0,0-.5-1.48s.74-.62.62-1.18-.74-.68-1.24-.8a2,2,0,0,1-1.05-.43c-.24-.25-.12-.56-.8-1.42a4.19,4.19,0,0,0-2.1-1.18,8.1,8.1,0,0,0-2.9.25c-1.79.43-4.08,4.2-4.33,4.82A3.38,3.38,0,0,0,27.35,66.55Z"/><path class="cls-18" d="M36.88,62.67c.12.22.1.47,0,.54s-.35,0-.47-.27-.1-.47,0-.55S36.76,62.44,36.88,62.67Z"/><path class="cls-23" d="M35.55,62.11s.51-.83,1.07-.38"/><path class="cls-23" d="M39.07,65.77a2.81,2.81,0,0,1-2.52-.35"/><path class="cls-38" d="M27.41,65a3.38,3.38,0,0,0-.06,1.54s.61,1.22,1,2.14a2.49,2.49,0,0,0,.43-.43c.56-.72,1.92-1.84,2-2s.6-1.88.6-1.88a2.41,2.41,0,0,0,.64-.44c.28-.28.16-.44.12-.8S33.46,61.47,33.7,61s-.32-1-.32-1l-.08-.05a9.94,9.94,0,0,0-1.56.25C30,60.62,27.66,64.39,27.41,65Z"/><path class="cls-39" d="M32.32,64.46s-1.82-1.06-1.88.8,1,1.54,1.85,1.66a.72.72,0,0,0,.87-.68"/><path class="cls-21" d="M28,59.76s-.62-.49-1.54,1.05-.56,2-.56,2-.68.12-.86,1.23a2.14,2.14,0,0,0,1.35,2.47c1,.31,1,0,1.8-.86S28.46,63,30,61.8a8.54,8.54,0,0,1,3.89-1.67c1-.19,1.61-.62,1.3-1.36s-1.92-1.67-2.78-1.11a8.25,8.25,0,0,1-1.18.68S28.4,58.09,28,59.76Z"/><path class="cls-40" d="M24.82,151s0,.23,0,.58c0,1.09-.08,3.38-.13,3.6a5.2,5.2,0,0,0-1,2.24,14.56,14.56,0,0,0,0,3.24c.07.36-.15.22,3.6.72s8.94,1.15,10.6.65,1.44-1.51,1.15-1.87-2.31-.51-3.75-1.73-4.47-3.25-4.9-3.75-.5-.29-.72-.94-.51-1.87-.51-1.87Z"/><path class="cls-26" d="M35.27,158.47c-1.43-1.22-4.42-3.22-4.89-3.74-.67.78-1.9,2.05-2.75,2.15-1.22.14-3-1.08-3-1.08h-.29a3.43,3.43,0,0,0-.64,1.66,14.56,14.56,0,0,0,0,3.24c.07.36-.15.22,3.6.72s8.94,1.15,10.6.65,1.44-1.51,1.15-1.87S36.71,159.69,35.27,158.47Z"/><path class="cls-5" d="M37.87,162.07a1.84,1.84,0,0,0,1.27-.91A21.22,21.22,0,0,1,31,161a69.59,69.59,0,0,0-7.42-1.19,7.21,7.21,0,0,0,.08.9c.07.36-.15.22,3.6.72S36.21,162.57,37.87,162.07Z"/><path class="cls-41" d="M47.81,149.24a13.56,13.56,0,0,0,1.59,2.09c.43.29,3.89,1.87,5.26,1.59s4.25-1.37,4.18-.44-1.3,2.6-2.81,3.46-3.75,1.16-4.32,1.44-1.37.44-1.66.58.07.72.07.72l-2.74,1.23a9.36,9.36,0,0,1-2.09.43l-.14-1.08a20.82,20.82,0,0,1-.94-3.1c-.15-1-.43-2.81-.58-3.89a11.59,11.59,0,0,0-.43-2Z"/><path class="cls-26" d="M49.11,153.78a8.21,8.21,0,0,1-2.67.87,16.45,16.45,0,0,1-2.41.28c.07.46.13.89.18,1.23a20.82,20.82,0,0,0,.94,3.1l.14,1.08a9.36,9.36,0,0,0,2.09-.43l2.74-1.23s.14-.54.43-.68,1.42-.26,2-.54A28.83,28.83,0,0,0,56,155.94c1.51-.86,2.74-2.52,2.81-3.46s-2.81.15-4.18.44-4.83-1.3-5.26-1.59a2.79,2.79,0,0,0-.29,1.3Z"/><path class="cls-5" d="M58.84,152.49a14,14,0,0,1-6.39,4c-2,.62-5.32,2-7.29,2.88l.13.94a9.36,9.36,0,0,0,2.09-.43l2.74-1.23s.14-.54.43-.68,1.42-.26,2-.54A28.83,28.83,0,0,0,56,155.94,5.8,5.8,0,0,0,58.84,152.49Z"/><path class="cls-42" d="M24.46,104.62s-2.24,3.82-1.8,6.92a13.79,13.79,0,0,0,1.87,5.26l.72,11.9s-2.16,8.57-1.22,14.12a32.3,32.3,0,0,1,.29,9.52l5.55.22,2.23-16.15L34.05,130l.79-4.1,2.81,7.85,5.05,17.37,5.11-1.87-2.59-18.52s-2.38-11-2.6-11.9S40,108.51,40,108.51l-.5-1.75a10.35,10.35,0,0,0-3.11-2.28c-1.51-.58-3.09-.65-6.05-.36S24.46,104.62,24.46,104.62Z"/><path class="cls-43" d="M38.39,92.1s2.56-.51,3.3-.8a4,4,0,0,0,1-.51,9,9,0,0,0,.51,2.45l.34.51a10.34,10.34,0,0,1-2.27,2.16,18.47,18.47,0,0,1-2.44,1.25Z"/><path class="cls-44" d="M42.71,90.79l1.19-.74s1-1.47,1.59-1.59,5.06.17,5.06.17a4.93,4.93,0,0,1-.62.91A4.62,4.62,0,0,0,49.07,91a2.07,2.07,0,0,1-1,1.65,27.07,27.07,0,0,1-3.24,1.08,4.41,4.41,0,0,1-1.25,0A6.84,6.84,0,0,1,42.71,90.79Z"/><path class="cls-5" d="M49.47,88.08a39.16,39.16,0,0,1,3.67-2.77c.18,0,.21.12.38.55s-3.84,3.44-3.84,3.44Z"/><path class="cls-45" d="M43.72,90.66a6.7,6.7,0,0,1,.74-2,3.41,3.41,0,0,1,2.18-1,2.63,2.63,0,0,1,1.85.37s.69.23,0,.55a2,2,0,0,1-1.48,0,3.66,3.66,0,0,1-.65,1.81,2.73,2.73,0,0,1-1.34.55"/><path class="cls-46" d="M50.57,89s.19-1.58.65-1.76.79.46.6.92a3.12,3.12,0,0,1-.88,1C50.71,89.41,50.57,89,50.57,89Z"/><path class="cls-47" d="M50.52,90.09s-.9-.64-1.34-.93S47.94,88,48.49,88a2.26,2.26,0,0,1,1.39.33c.53.26,1.14.7,1.17,1.17S50.78,90,50.52,90.09Z"/><path class="cls-48" d="M50.52,90.09A11,11,0,0,1,49,89.42c-.76-.41-1.63-.55-1.78-.26s.12.78.47.93,1.48.52,1.92.64S50.67,90.7,50.52,90.09Z"/><path class="cls-49" d="M47.87,91.92l-.47-.67s-1.13,0-1.45-.4.7-.53,1.13-.59a5.72,5.72,0,0,1,1.55.29A7.72,7.72,0,0,1,49.12,92c0,.23-.56.57-.81.61s-.82.21-.82.21"/><path class="cls-6" d="M28.62,72s4.43,3.07,6.48,6.08,3.23,9,3.8,12.27.4,8.76.74,10.18.51,1.87.23,2.5a2.55,2.55,0,0,1-.57.85s.51,1.76.51,2a2.37,2.37,0,0,1-.28.8,17.07,17.07,0,0,0-4.55-2.1c-1.7-.29-4.43.28-7,.45a16.21,16.21,0,0,1-4.1,0c-.39-.11.91-2.1,1-2.38s-1.25-.18-1.31-1.48a21.93,21.93,0,0,1-.05-2.62c.05-1,.11-7.67.11-7.67s-.91-10.28-.45-12.1.17-3.47,1.53-4.6A19.15,19.15,0,0,1,28.62,72Z"/><path class="cls-6" d="M25.44,102.31s7-.79,8.25-.73,4.86,1.92,4.86,1.92"/><path class="cls-6" d="M28.77,97.51s3.11.17,2.32.62-3.17,1.36-3.17,1.36"/><path class="cls-50" d="M23.68,76.71,22.5,75.8a8.31,8.31,0,0,0-3-.73s-.68-2.09-1.13-2.32-2.15-.39-2.37.57A8,8,0,0,0,16.17,76s-2.26,3.11-2.6,3.67-1.25.34-1.08,1.87.45,4.46.57,5.43-.06,1.8.39,2.26a1.11,1.11,0,0,0,1,.34l.17.84s-.56-.11-.84,1,.17,3,.56,4.41a10.63,10.63,0,0,0,1.3,3.62c.74,1,1.41.73,1.41.73a18.23,18.23,0,0,0,3.68,1.64,7.06,7.06,0,0,0,4.8-1.07,6.36,6.36,0,0,0,2.26-3,12.31,12.31,0,0,0,1.13-4.07,7.79,7.79,0,0,0-.22-2.37,44.75,44.75,0,0,1-3-8A54.47,54.47,0,0,0,23.68,76.71Z"/><path class="cls-23" d="M13.79,80.61s1.3-.34,1.53.22,1.3,7.63,1,8.2-1.36.51-1.36.51"/><path class="cls-23" d="M15.21,90.5s1.13-.68,1.41.17,2.71,8.14,2.43,8.59a2.58,2.58,0,0,1-1.24.79"/><polyline class="cls-23" points="16.39 73.88 17.3 75.92 19.11 75.52"/><path class="cls-21" d="M20.18,101.41s.51,0,.45-1.41a6.68,6.68,0,0,0-.39-2.21l6-2.37a7.5,7.5,0,0,1,1,1.86,3.8,3.8,0,0,1-1,2.6,4.61,4.61,0,0,1-4.13,1.53A7,7,0,0,0,20.18,101.41Z"/><path class="cls-50" d="M21.93,75.86a17.23,17.23,0,0,1,4-2.83c2-.9,2.77-.9,3.45-.39s7.4,6.39,7.85,7.8a17.67,17.67,0,0,1,.62,3s-5.42-7.63-7.23-8.65S28,73.54,26.79,73.6s-3.95,3.33-3.95,3.33Z"/><path class="cls-51" d="M35.44,84.31a15,15,0,0,1-.34-2.89c.11-.57,1-1,1-1s1.08-.74,1.53-1,.68,0,.8.4a.93.93,0,0,1-.06.68,4.42,4.42,0,0,1,1.19,1.87c.18.91.52,1.59.12,2.39A12.62,12.62,0,0,1,37.6,87l-1-.28Z"/><path class="cls-6" d="M26.23,73.86s-2.44.79-2.9,2.56A123.86,123.86,0,0,0,21.69,91c0,2.9,1.19,3.53,1.93,3.64s7-2.33,9.43-3.75A23.28,23.28,0,0,0,37.6,87a5.09,5.09,0,0,0-.74-1.87,3,3,0,0,0-1.42-.86,17.57,17.57,0,0,1-3.53,1.88c-1.25.34-3.24.68-3.24.68l2.45-6.53s.91-2.56-.34-3.92"/><path class="cls-23" d="M24,90.05a5.08,5.08,0,0,1,1.36-1.81,9.3,9.3,0,0,1,2.62-1.48"/><line class="cls-23" x1="305.32" y1="162.22" x2="9.6" y2="162.22"/><path class="cls-6" d="M253.18,57.81s-3.69.94-4.16,2.35-2.28,11.7-2.28,11.7l-.94.23s-1.81,4.09-.08,6.44,2.51,2.28,4,.79a12.39,12.39,0,0,0,2.52-3.93c.07-.31-.08,7.85.15,8.48l.24.63s14.68-.87,15.7-1.26,1.18-.78.94-1.33,2-10.37,2-10.37.79,5.26.71,5.66-1.82,3.49-1.27,4.91a2.58,2.58,0,0,0,4,.82c1.34-1.18,1.73-5,1.73-5s-.47-12.56-1.1-14.91-3.61-4.64-3.61-4.64Z"/><path class="cls-52" d="M259.89,53.31a9.64,9.64,0,0,1,.2,1.73,5.29,5.29,0,0,1-1.93,2.62l-1.24,1s.3.94,4.16,1.79a8.48,8.48,0,0,0,6.83-1.74s.84-.69,0-3.46a31.23,31.23,0,0,0-2.82-6l-1.39-1.54a12.84,12.84,0,0,1-1.93,3.37A20.83,20.83,0,0,0,259.89,53.31Z"/><path class="cls-21" d="M257.09,50.74a7.51,7.51,0,0,0-1.62,2.12c-.5,1.12,1.12,1.87.87,2.37s-2.68.81-3.92,2.37,1.55,4.86,4.36,4.74-.19-2.87,1.81-4.62,2.23-2.28,1.3-4.41A4.47,4.47,0,0,0,257.09,50.74Z"/><path class="cls-53" d="M256.69,41a13.15,13.15,0,0,0-.9,4.59,10.67,10.67,0,0,0,.9,5.73c.61,1.2,1.36,2.56,3.24,2.33s3.69-2.48,4.07-3.54.37-4.22-.91-7.3S258.5,38,256.69,41Z"/><line class="cls-54" x1="257.07" y1="47.71" x2="257.82" y2="48.24"/><path class="cls-55" d="M257.45,49.37a3.88,3.88,0,0,0,3.08-1.51"/><path class="cls-56" d="M255.88,44.2s.5-.79,1.09-.3"/><path class="cls-57" d="M258.6,43.06s1-1.33,2.08-.44"/><ellipse class="cls-58" cx="260.01" cy="44.65" rx="0.52" ry="0.74"/><path class="cls-59" d="M257.09,45.69c0,.35-.2.64-.44.64s-.45-.29-.45-.64.2-.63.45-.63S257.09,45.34,257.09,45.69Z"/><path class="cls-21" d="M258.85,39.55a4.83,4.83,0,0,1,3,3.36c.84,2.78,1.73,8.67,3.41,10.94s3.32,4,1,7-3.17,5.84-1.34,8.17,5.89.79,7.82-1.54a4.65,4.65,0,0,0,.54-6c-1-1.88-.9-1.46,0-.91s2,.74,1.53-1.89-1.81-5.21-2.95-6.06a6.41,6.41,0,0,1-2.38-6.23,7.89,7.89,0,0,0-3.86-7.87c-2.67-1.73-7.62-.3-8.16.49l-.55.8s-1.29.69-1.24,1.68.8.64.8.64S257.12,39.89,258.85,39.55Z"/><path class="cls-60" d="M236.83,60.52s-.85-1.7-.56-2.27,1.84-1.79,2.12-1.37.14.61-.23.9a9.34,9.34,0,0,0-.85.75l.47,1.14Z"/><path class="cls-61" d="M237.56,65.11l2.51,3.06s3.53,8.08,4.16,9.1,1.73,2,3.06,1.34,1.1-2.59.55-3.77-3.77-4.71-4.4-5.65-1.25-2.2-1.25-2.2-.16-2.35-.24-3.22-3.3-4-3.37-4.24-1.42,1.1-1.42,1.1Z"/><polygon class="cls-21" points="235.46 52.11 239.57 62.88 243.4 62.97 239.24 51.59 235.46 52.11"/><path class="cls-62" d="M236.64,61.89s-.28-2,.48-2.46,3.26-1.27,3.49-1.09-.19.62-.61.81L238,60l.23.8"/><path class="cls-63" d="M237,64.07a4.33,4.33,0,0,1-.52-1.53,3.24,3.24,0,0,1,1.74-1.73c.57-.05,2.88-.4,2.93-.05s-1,.51-1.46.72a8.86,8.86,0,0,1-1.09.35L238,63l.45,1.07"/><path class="cls-26" d="M281.31,142.33l1.7,4.17s2.08,5.18,2,7,.78,2.39,1.47,2.47,2.17-1.78,2.63-3.94-.77-7.11-.77-7.73.54-3.55-.7-4.55a6.77,6.77,0,0,0-3-1.24Z"/><path class="cls-26" d="M281.31,142.33s2,1.24,3.7.47-.15-2.79-.15-2.79Z"/><path class="cls-26" d="M289.11,152c.46-2.16-.77-7.11-.77-7.73s.54-3.55-.7-4.55a4.7,4.7,0,0,0-.81-.53c-.13,1.19.58,3.53.89,5.08.39,1.94,1,5,.54,7.34a7.29,7.29,0,0,1-2.65,3.9,1.49,1.49,0,0,0,.87.43C287.18,156,288.65,154.15,289.11,152Z"/><path class="cls-64" d="M252.39,83.87s-1.6,7.08-.91,12.8,7.57,34.69,7.57,34.69l2.78,16.54,5.34-.47-.7-17.92-2.32-22s5.18,16.68,6.18,18.38,9.89,15.61,9.89,15.61a5,5,0,0,0,2.94-.69,4.28,4.28,0,0,0,1.47-2.32s-3.48-10.74-5.8-14.68-2.86-4-2.86-4a44,44,0,0,0,.78-4.79v-4.1c0-1.39-2.48-16.45-4.25-21a28.43,28.43,0,0,0-3.87-7.11Z"/><line class="cls-23" x1="260.13" y1="99.06" x2="263.46" y2="106.48"/><path class="cls-26" d="M262.53,149.13s-.08,4.17-.15,4.64A42.92,42.92,0,0,1,257,160c-.93.61-1.24.92-1.09,1.54s1.94.93,3.71.7,4.79-2.09,5.49-2.55,4.09-1.39,4.09-3.25-1.54-4.87-1.54-4.87l-.54-3.09Z"/><path class="cls-26" d="M268.27,153a3.73,3.73,0,0,1-1.41.29,35.45,35.45,0,0,1-3.71-.77c-.48-.09-.66.31-.73.68s0,.48,0,.56A42.92,42.92,0,0,1,257,160c-.93.61-1.24.92-1.09,1.54s1.94.93,3.71.7,4.79-2.09,5.49-2.55,4.09-1.39,4.09-3.25A10.55,10.55,0,0,0,268.27,153Z"/><path class="cls-26" d="M259.83,161.34a7.46,7.46,0,0,1-4-.2,1.06,1.06,0,0,0,0,.43c.16.62,1.94.93,3.71.7s4.79-2.09,5.49-2.55,4.09-1.39,4.09-3.25c0-.14,0-.28,0-.44-.75.29-1.54.61-2.14.91C265.47,157.71,261.6,160.72,259.83,161.34Z"/><path class="cls-65" d="M261.14,146.27s.31,3.48.77,3.56,6-.16,6.11-.85a7.6,7.6,0,0,0-.24-2.94C267.47,145.42,261.45,145.19,261.14,146.27Z"/><path class="cls-66" d="M278.76,139.71c-1.71-.34.85,2.7,1.85,3.32s3.55-.54,4.25-2.47.46-3.48-.08-3.71a.57.57,0,0,0-.77.15S283.08,140.56,278.76,139.71Z"/><path class="cls-67" d="M274.1,78.48s-4.44-3.06-5-4a10.5,10.5,0,0,0-1-1.52,25.32,25.32,0,0,0-.42-3.33,10.4,10.4,0,0,0-1.39-3.26c-.41-.42-2.43-1-2.36-.21s1.11.56,1.32.63a6.89,6.89,0,0,1,1,1.38,15.72,15.72,0,0,0-2.49.07,6.78,6.78,0,0,0-1.95,1.6c-.27.48,1.11,2.56,1.18,2.77a1.57,1.57,0,0,0,1,.9c.56.14.91-.55.91-.55a5,5,0,0,0,.76,1.94,2.33,2.33,0,0,0,1.32.55s3.05,4.93,3.67,6,1.81,2.43,3.12,1.11A3.53,3.53,0,0,0,274.1,78.48Z"/><path class="cls-68" d="M262.14,70.85s1.06-1.51,1.62-1.68a15,15,0,0,1,2.3-.22"/><path class="cls-69" d="M262.84,72.16a6,6,0,0,1,1.5-1.51,5.12,5.12,0,0,1,2.19-.13"/><path class="cls-70" d="M237,63.82s-.48.52-.24.81,1,0,1.84,0,1.84,0,1.75-.43-1.14-.61-1.56-.61A5.76,5.76,0,0,0,237,63.82Z"/></g></g></svg>