<svg xmlns="http://www.w3.org/2000/svg" xmlns:xlink="http://www.w3.org/1999/xlink" viewBox="0 0 391.99 348.57"><defs><style>.cls-1{fill:none;}.cls-2{isolation:isolate;}.cls-3{fill:#e8f0ff;}.cls-3,.cls-6{mix-blend-mode:multiply;}.cls-4{fill:url(#linear-gradient);}.cls-5{fill:#ccd3e0;}.cls-6{fill:#cdd2d6;}.cls-7{fill:#1d5c9c;}.cls-8{fill:#2372c1;}.cls-9{fill:#262626;}.cls-10{fill:url(#linear-gradient-2);}.cls-11{fill:url(#linear-gradient-3);}.cls-12{fill:#141414;}.cls-13{fill:url(#linear-gradient-4);}.cls-14{fill:url(#linear-gradient-5);}.cls-15{fill:url(#linear-gradient-6);}.cls-16{fill:url(#linear-gradient-7);}.cls-17{fill:url(#linear-gradient-8);}.cls-18{fill:url(#linear-gradient-9);}.cls-19{fill:url(#linear-gradient-10);}.cls-20{fill:url(#linear-gradient-11);}.cls-21{fill:url(#linear-gradient-12);}.cls-22{fill:url(#linear-gradient-13);}.cls-23{fill:url(#linear-gradient-14);}.cls-24{fill:url(#linear-gradient-15);}.cls-25{fill:url(#linear-gradient-16);}.cls-26{fill:url(#linear-gradient-17);}.cls-27{fill:url(#linear-gradient-18);}.cls-28{fill:url(#linear-gradient-19);}.cls-29{fill:url(#linear-gradient-20);}.cls-30{fill:url(#Áåçûìÿííûé_ãðàäèåíò_2);}.cls-31{fill:url(#linear-gradient-21);}.cls-32{fill:#e3e3e4;}.cls-33{fill:url(#linear-gradient-22);}.cls-34{fill:url(#linear-gradient-23);}.cls-35{fill:url(#linear-gradient-24);}.cls-36{fill:url(#linear-gradient-25);}.cls-37{fill:url(#linear-gradient-26);}.cls-38{fill:url(#linear-gradient-27);}.cls-39{fill:url(#linear-gradient-28);}.cls-40{fill:url(#linear-gradient-29);}.cls-41{fill:url(#linear-gradient-30);}.cls-42{fill:url(#linear-gradient-31);}.cls-43{fill:url(#linear-gradient-32);}.cls-44{fill:url(#linear-gradient-33);}.cls-45{fill:url(#linear-gradient-34);}.cls-46{fill:url(#linear-gradient-35);}.cls-47{fill:url(#linear-gradient-36);}.cls-48{fill:url(#linear-gradient-37);}.cls-49{fill:url(#linear-gradient-38);}.cls-50{fill:url(#linear-gradient-39);}.cls-51{fill:url(#linear-gradient-40);}.cls-52{fill:url(#Áåçûìÿííûé_ãðàäèåíò_2-2);}.cls-53{fill:url(#linear-gradient-41);}.cls-54{fill:#3279d2;}.cls-55{fill:#144270;}.cls-56{fill:#2067af;}.cls-57{fill:#4485d6;}.cls-58{fill:#1e2329;}.cls-59{fill:#14191f;}.cls-60{fill:#0c100f;}.cls-61{fill:#0b0e0f;mix-blend-mode:screen;}.cls-62{fill:#272e36;}.cls-63{fill:#c70c02;}.cls-64{fill:#272c32;}.cls-65{fill:#363b41;}.cls-66{fill:#aaccf7;}.cls-67{fill:#d9e7f7;}.cls-68{fill:#ffbd52;}.cls-69{fill:#313942;}.cls-70{fill:#3a434f;}.cls-71{fill:#fbfbfb;}.cls-72{fill:#959595;}.cls-73{fill:#002766;}.cls-74{fill:url(#linear-gradient-42);}.cls-75{fill:url(#linear-gradient-43);}.cls-76{fill:url(#linear-gradient-44);}.cls-77{fill:url(#linear-gradient-45);}.cls-78{fill:url(#linear-gradient-46);}.cls-79{fill:url(#linear-gradient-47);}.cls-80{fill:#f06056;}.cls-81{fill:#ffae94;}.cls-82{fill:url(#linear-gradient-48);}.cls-83{fill:url(#linear-gradient-49);}.cls-84{fill:#e13325;}.cls-85{fill:url(#linear-gradient-50);}.cls-86{fill:#ffba1e;}.cls-87{fill:url(#linear-gradient-51);}.cls-88{fill:url(#linear-gradient-52);}.cls-89{fill:url(#linear-gradient-53);}.cls-90{fill:#ffbf2e;}.cls-91{fill:url(#linear-gradient-54);}.cls-92{fill:#1c2134;}.cls-93{fill:url(#linear-gradient-55);}.cls-94{fill:url(#linear-gradient-56);}.cls-95{fill:url(#linear-gradient-57);}.cls-96{fill:#b3d1e4;}.cls-97{fill:url(#linear-gradient-58);}.cls-98{fill:url(#linear-gradient-59);}.cls-99{fill:#a2c7de;}.cls-100{fill:url(#linear-gradient-60);}.cls-101{fill:url(#linear-gradient-61);}.cls-102{fill:url(#linear-gradient-62);}.cls-103{fill:url(#linear-gradient-63);}.cls-104{fill:url(#linear-gradient-64);}.cls-105{fill:url(#linear-gradient-65);}.cls-106{fill:url(#linear-gradient-66);}.cls-107{fill:#819cca;}.cls-108{fill:#303446;}.cls-109{fill:#d7d8db;}.cls-110{fill:url(#linear-gradient-67);}.cls-111{fill:url(#linear-gradient-68);}.cls-112{fill:#553012;}.cls-113{fill:#ffa386;}.cls-114{fill:#adbedc;}.cls-115{fill:#9aafd4;}.cls-116{fill:#a7b9d9;}.cls-117{fill:#5ed660;}.cls-118{fill:#b8babf;}.cls-119{clip-path:url(#clip-path);}.cls-120{fill:#9c9c9c;}.cls-121{fill:#c7c7c7;}.cls-122{fill:#b5b5b5;}.cls-123{clip-path:url(#clip-path-2);}.cls-124{fill:#3b7019;}.cls-125{fill:#4c9626;}.cls-126{fill:#5ab629;}.cls-127{fill:#fff;}</style><linearGradient id="linear-gradient" y1="221.53" x2="391.99" y2="221.53" gradientUnits="userSpaceOnUse"><stop offset="0.52" stop-color="#676a78"/><stop offset="0.63" stop-color="#8b8e9e"/></linearGradient><linearGradient id="linear-gradient-2" x1="-15769.48" y1="272.24" x2="-15761" y2="257.55" gradientTransform="translate(15957.29)" gradientUnits="userSpaceOnUse"><stop offset="0" stop-color="#2a2a2a"/><stop offset="0.02" stop-color="#292929"/><stop offset="0.23" stop-color="#202020"/><stop offset="0.58" stop-color="#1e1e1e"/><stop offset="0.64" stop-color="#1d1d1d"/><stop offset="1" stop-color="#1a1a1a"/></linearGradient><linearGradient id="linear-gradient-3" x1="-15760.08" y1="276.68" x2="-15771.57" y2="256.78" gradientTransform="translate(15957.29)" gradientUnits="userSpaceOnUse"><stop offset="0.23" stop-color="#383838"/><stop offset="0.73" stop-color="#292929"/><stop offset="1" stop-color="#262626"/></linearGradient><linearGradient id="linear-gradient-4" x1="-15770.87" y1="276.95" x2="-15758.05" y2="254.74" gradientTransform="translate(15957.29)" gradientUnits="userSpaceOnUse"><stop offset="0" stop-color="#121212"/><stop offset="0.43" stop-color="#0d0d0d"/></linearGradient><linearGradient id="linear-gradient-5" x1="-15765.62" y1="279.85" x2="-15777.11" y2="259.96" xlink:href="#linear-gradient-3"/><linearGradient id="linear-gradient-6" x1="-15774.6" y1="278" x2="-15763.83" y2="259.33" xlink:href="#linear-gradient-2"/><linearGradient id="linear-gradient-7" x1="-15773.78" y1="277.16" x2="-15763.63" y2="259.57" gradientTransform="translate(15957.29)" gradientUnits="userSpaceOnUse"><stop offset="0.18" stop-color="#1a1a1a"/><stop offset="0.65" stop-color="#1e1e1e"/><stop offset="0.66" stop-color="#1e1e1e"/></linearGradient><linearGradient id="linear-gradient-8" x1="-15775.22" y1="278.76" x2="-15763.72" y2="258.85" gradientTransform="translate(15957.29)" gradientUnits="userSpaceOnUse"><stop offset="0.34" stop-color="#1f1f1f"/><stop offset="0.4" stop-color="#1e1e1e"/><stop offset="0.82" stop-color="#1a1a1a"/></linearGradient><linearGradient id="linear-gradient-9" x1="-4110.86" y1="264.77" x2="-4076.17" y2="264.77" gradientTransform="matrix(-1, 0, 0, 1, -3896.6, 0)" gradientUnits="userSpaceOnUse"><stop offset="0" stop-color="#181818"/><stop offset="0.27" stop-color="#262626"/><stop offset="0.77" stop-color="#2e2e2e"/></linearGradient><linearGradient id="linear-gradient-10" x1="-15775.69" y1="279.59" x2="-15763.25" y2="258.03" gradientTransform="translate(15957.29)" gradientUnits="userSpaceOnUse"><stop offset="0" stop-color="#161616"/><stop offset="0.3" stop-color="#1a1a1a"/><stop offset="0.79" stop-color="#1e1e1e"/><stop offset="0.8" stop-color="#1e1e1e"/></linearGradient><linearGradient id="linear-gradient-11" x1="-15775.28" y1="280.66" x2="-15760.74" y2="255.47" gradientTransform="translate(15957.29)" gradientUnits="userSpaceOnUse"><stop offset="0" stop-color="#141414"/><stop offset="0.44" stop-color="#1e1e1e"/><stop offset="0.78" stop-color="#202020"/><stop offset="0.98" stop-color="#292929"/><stop offset="1" stop-color="#2a2a2a"/></linearGradient><linearGradient id="linear-gradient-12" x1="-15763.73" y1="279.43" x2="-15775.76" y2="258.6" gradientTransform="translate(15957.29)" gradientUnits="userSpaceOnUse"><stop offset="0" stop-color="#d7d7d9"/><stop offset="0.19" stop-color="#e2e2e2"/><stop offset="0.21" stop-color="#dcdcdd"/><stop offset="0.29" stop-color="#ceced2"/><stop offset="0.38" stop-color="#c5c5cc"/><stop offset="0.53" stop-color="#c3c3ca"/><stop offset="0.87" stop-color="#b3b4be"/><stop offset="0.88" stop-color="#a5a7b3"/></linearGradient><linearGradient id="linear-gradient-13" x1="-15762.52" y1="278.72" x2="-15774.55" y2="257.89" gradientTransform="translate(15957.29)" gradientUnits="userSpaceOnUse"><stop offset="0" stop-color="#b3b3b5"/><stop offset="0.19" stop-color="#bebebe"/><stop offset="0.21" stop-color="#b9b9ba"/><stop offset="0.28" stop-color="#ababaf"/><stop offset="0.37" stop-color="#a2a2a8"/><stop offset="0.53" stop-color="#a0a0a6"/><stop offset="0.87" stop-color="#91929a"/><stop offset="0.88" stop-color="#84858f"/></linearGradient><linearGradient id="linear-gradient-14" x1="-15771.77" y1="265.82" x2="-15773.74" y2="262.41" gradientTransform="translate(15957.29)" gradientUnits="userSpaceOnUse"><stop offset="0.12" stop-color="#a5a7b3"/><stop offset="0.13" stop-color="#b3b4be"/><stop offset="0.47" stop-color="#c3c3ca"/><stop offset="0.57" stop-color="#e3e3e3"/><stop offset="0.58" stop-color="#e6e7e8"/><stop offset="0.63" stop-color="#eceff3"/><stop offset="0.67" stop-color="#eef2f7"/><stop offset="0.74" stop-color="#edf0f5"/><stop offset="0.78" stop-color="#e8eaec"/><stop offset="0.81" stop-color="#e2e2e2"/><stop offset="1" stop-color="#d7d7d9"/></linearGradient><linearGradient id="linear-gradient-15" x1="-15766.06" y1="263.96" x2="-15770.76" y2="255.83" xlink:href="#linear-gradient-13"/><linearGradient id="linear-gradient-16" x1="-15763.32" y1="277.23" x2="-15766.22" y2="272.2" xlink:href="#linear-gradient-13"/><linearGradient id="linear-gradient-17" x1="-15773.59" y1="268.37" x2="-15773.63" y2="268.3" xlink:href="#linear-gradient-13"/><linearGradient id="linear-gradient-18" x1="-15757.87" y1="275.54" x2="-15763.57" y2="265.67" xlink:href="#linear-gradient-13"/><linearGradient id="linear-gradient-19" x1="-15772.11" y1="272.5" x2="-15761.76" y2="262.15" gradientTransform="translate(15957.29)" gradientUnits="userSpaceOnUse"><stop offset="0.07" stop-color="#eef2f7"/><stop offset="0.08" stop-color="#eef2f7"/><stop offset="0.16" stop-color="#eef2f7"/><stop offset="0.69" stop-color="#c3c3ca"/><stop offset="0.88" stop-color="#b3b4be"/><stop offset="0.96" stop-color="#a5a7b3"/></linearGradient><linearGradient id="linear-gradient-20" x1="-15767.73" y1="268.79" x2="-15766.1" y2="265.98" xlink:href="#linear-gradient-13"/><linearGradient id="Áåçûìÿííûé_ãðàäèåíò_2" x1="-15767.24" y1="268.24" x2="-15766.09" y2="266.24" gradientTransform="translate(15957.29)" gradientUnits="userSpaceOnUse"><stop offset="0.04" stop-color="#a5a7b3"/><stop offset="0.12" stop-color="#b3b4be"/><stop offset="0.31" stop-color="#c3c3ca"/><stop offset="0.84" stop-color="#eef2f7"/><stop offset="0.92" stop-color="#eef2f7"/><stop offset="0.93" stop-color="#eef2f7"/></linearGradient><linearGradient id="linear-gradient-21" x1="-15758.63" y1="277.72" x2="-15771.72" y2="255.05" xlink:href="#linear-gradient-14"/><linearGradient id="linear-gradient-22" x1="-15887.18" y1="204.29" x2="-15878.7" y2="189.59" xlink:href="#linear-gradient-2"/><linearGradient id="linear-gradient-23" x1="-15877.78" y1="208.72" x2="-15889.27" y2="188.82" xlink:href="#linear-gradient-3"/><linearGradient id="linear-gradient-24" x1="-15888.57" y1="208.99" x2="-15875.75" y2="186.79" xlink:href="#linear-gradient-4"/><linearGradient id="linear-gradient-25" x1="-15883.32" y1="211.9" x2="-15894.81" y2="192" xlink:href="#linear-gradient-3"/><linearGradient id="linear-gradient-26" x1="-15892.31" y1="210.04" x2="-15881.53" y2="191.37" xlink:href="#linear-gradient-2"/><linearGradient id="linear-gradient-27" x1="-15891.49" y1="209.21" x2="-15881.33" y2="191.62" xlink:href="#linear-gradient-7"/><linearGradient id="linear-gradient-28" x1="-15892.92" y1="210.81" x2="-15881.43" y2="190.9" xlink:href="#linear-gradient-8"/><linearGradient id="linear-gradient-29" x1="-15868.15" y1="213.05" x2="-15888.2" y2="178.32" gradientTransform="translate(15957.29)" xlink:href="#linear-gradient-9"/><linearGradient id="linear-gradient-30" x1="-15893.4" y1="211.63" x2="-15880.95" y2="190.07" xlink:href="#linear-gradient-10"/><linearGradient id="linear-gradient-31" x1="-15892.98" y1="212.71" x2="-15878.44" y2="187.51" xlink:href="#linear-gradient-11"/><linearGradient id="linear-gradient-32" x1="-15881.44" y1="211.47" x2="-15893.46" y2="190.65" xlink:href="#linear-gradient-12"/><linearGradient id="linear-gradient-33" x1="-15880.22" y1="210.77" x2="-15892.25" y2="189.94" xlink:href="#linear-gradient-13"/><linearGradient id="linear-gradient-34" x1="-15889.47" y1="197.87" x2="-15891.44" y2="194.46" xlink:href="#linear-gradient-14"/><linearGradient id="linear-gradient-35" x1="-15883.77" y1="196.01" x2="-15888.46" y2="187.87" xlink:href="#linear-gradient-13"/><linearGradient id="linear-gradient-36" x1="-15881.02" y1="209.28" x2="-15883.93" y2="204.24" xlink:href="#linear-gradient-13"/><linearGradient id="linear-gradient-37" x1="-15891.29" y1="200.41" x2="-15891.33" y2="200.34" xlink:href="#linear-gradient-13"/><linearGradient id="linear-gradient-38" x1="-15875.57" y1="207.59" x2="-15881.27" y2="197.72" xlink:href="#linear-gradient-13"/><linearGradient id="linear-gradient-39" x1="-15889.81" y1="204.54" x2="-15879.46" y2="194.2" xlink:href="#linear-gradient-19"/><linearGradient id="linear-gradient-40" x1="-15885.43" y1="200.83" x2="-15883.81" y2="198.02" xlink:href="#linear-gradient-13"/><linearGradient id="Áåçûìÿííûé_ãðàäèåíò_2-2" x1="-15884.94" y1="200.28" x2="-15883.79" y2="198.28" xlink:href="#Áåçûìÿííûé_ãðàäèåíò_2"/><linearGradient id="linear-gradient-41" x1="-15876.33" y1="209.76" x2="-15889.42" y2="187.1" xlink:href="#linear-gradient-14"/><linearGradient id="linear-gradient-42" x1="-5553.17" y1="348.84" x2="-5549.4" y2="343.8" gradientTransform="matrix(-1, 0.03, 0.03, 1, -5215.57, 66.48)" gradientUnits="userSpaceOnUse"><stop offset="0.23" stop-color="#ff9574"/><stop offset="0.86" stop-color="#ffcab8"/></linearGradient><linearGradient id="linear-gradient-43" x1="-5575.22" y1="345.86" x2="-5567.09" y2="338.59" xlink:href="#linear-gradient-42"/><linearGradient id="linear-gradient-44" x1="-5545.86" y1="323.38" x2="-5560.78" y2="322.73" gradientTransform="matrix(-1, 0.03, 0.03, 1, -5215.57, 66.48)" gradientUnits="userSpaceOnUse"><stop offset="0.09" stop-color="#0196ff"/><stop offset="0.3" stop-color="#018ffc"/><stop offset="0.61" stop-color="#017af4"/><stop offset="0.99" stop-color="#0059e6"/><stop offset="1" stop-color="#0058e6"/></linearGradient><linearGradient id="linear-gradient-45" x1="-5565.61" y1="322.09" x2="-5575.05" y2="320.07" xlink:href="#linear-gradient-44"/><linearGradient id="linear-gradient-46" x1="-5583.15" y1="270.7" x2="-5575.45" y2="269.97" xlink:href="#linear-gradient-42"/><linearGradient id="linear-gradient-47" x1="-5581.31" y1="251.76" x2="-5573.67" y2="252.84" xlink:href="#linear-gradient-42"/><linearGradient id="linear-gradient-48" x1="-5555.06" y1="289.44" x2="-5570.28" y2="286.57" xlink:href="#linear-gradient-44"/><linearGradient id="linear-gradient-49" x1="-5544.22" y1="284.8" x2="-5563.77" y2="289.46" xlink:href="#linear-gradient-44"/><linearGradient id="linear-gradient-50" x1="-5566.73" y1="229.83" x2="-5550.81" y2="219.4" xlink:href="#linear-gradient-42"/><linearGradient id="linear-gradient-51" x1="-5566.45" y1="230.25" x2="-5550.54" y2="219.82" xlink:href="#linear-gradient-42"/><linearGradient id="linear-gradient-52" x1="-5531.78" y1="262.54" x2="-5536.97" y2="256.95" xlink:href="#linear-gradient-42"/><linearGradient id="linear-gradient-53" x1="-5551.38" y1="267.77" x2="-5545.31" y2="261.83" xlink:href="#linear-gradient-42"/><linearGradient id="linear-gradient-54" x1="-6334.16" y1="287.24" x2="-6327.58" y2="283.66" gradientTransform="matrix(-1, 0.05, 0.05, 1, -6070.67, 147.24)" xlink:href="#linear-gradient-42"/><linearGradient id="linear-gradient-55" x1="-6372.99" y1="352.71" x2="-6354.84" y2="355.76" gradientTransform="matrix(-1, 0.05, 0.05, 1, -6070.67, 147.24)" xlink:href="#linear-gradient-44"/><linearGradient id="linear-gradient-56" x1="-6375.5" y1="356.05" x2="-6338.19" y2="361.62" gradientTransform="matrix(-1, 0.05, 0.05, 1, -6070.67, 147.24)" xlink:href="#linear-gradient-44"/><linearGradient id="linear-gradient-57" x1="-6363.7" y1="285.17" x2="-6374.67" y2="282.64" gradientTransform="matrix(-1, 0.05, 0.05, 1, -6070.67, 147.24)" xlink:href="#linear-gradient-42"/><linearGradient id="linear-gradient-58" x1="-6368.12" y1="323.68" x2="-6349.96" y2="326.73" gradientTransform="matrix(-1, 0.05, 0.05, 1, -6070.67, 147.24)" xlink:href="#linear-gradient-44"/><linearGradient id="linear-gradient-59" x1="-6370.55" y1="322.92" x2="-6333.25" y2="328.49" gradientTransform="matrix(-1, 0.05, 0.05, 1, -6070.67, 147.24)" xlink:href="#linear-gradient-44"/><linearGradient id="linear-gradient-60" x1="-6368.52" y1="287.59" x2="-6351.74" y2="259.73" gradientTransform="matrix(-1, 0.05, 0.05, 1, -6070.67, 147.24)" xlink:href="#linear-gradient-44"/><linearGradient id="linear-gradient-61" x1="-6357.02" y1="294.51" x2="-6340.25" y2="266.66" gradientTransform="matrix(-1, 0.05, 0.05, 1, -6070.67, 147.24)" xlink:href="#linear-gradient-44"/><linearGradient id="linear-gradient-62" x1="-6366.33" y1="294.18" x2="-6328.93" y2="299.77" gradientTransform="matrix(-1, 0.05, 0.05, 1, -6070.67, 147.24)" xlink:href="#linear-gradient-44"/><linearGradient id="linear-gradient-63" x1="-6368.31" y1="258.33" x2="-6350.65" y2="260.54" gradientTransform="matrix(-1, 0.05, 0.05, 1, -6070.67, 147.24)" gradientUnits="userSpaceOnUse"><stop offset="0.14" stop-color="#ffcab8"/><stop offset="1" stop-color="#ff9574"/></linearGradient><linearGradient id="linear-gradient-64" x1="-6367.66" y1="253.67" x2="-6350" y2="255.88" xlink:href="#linear-gradient-63"/><linearGradient id="linear-gradient-65" x1="-6332.13" y1="296.97" x2="-6326.58" y2="297.19" gradientTransform="matrix(-1, 0.05, 0.05, 1, -6070.67, 147.24)" xlink:href="#linear-gradient-42"/><linearGradient id="linear-gradient-66" x1="-6341.42" y1="320.06" x2="-6328.17" y2="291.02" gradientTransform="matrix(-1, 0.05, 0.05, 1, -6070.67, 147.24)" xlink:href="#linear-gradient-42"/><linearGradient id="linear-gradient-67" x1="-6342.42" y1="319.6" x2="-6329.17" y2="290.57" gradientTransform="matrix(-1, 0.05, 0.05, 1, -6070.67, 147.24)" xlink:href="#linear-gradient-42"/><linearGradient id="linear-gradient-68" x1="-6362" y1="298.48" x2="-6373.39" y2="300.42" gradientTransform="matrix(-1, 0.05, 0.05, 1, -6070.67, 147.24)" xlink:href="#linear-gradient-42"/><clipPath id="clip-path"><path class="cls-1" d="M190.33,114.39l-6.77-3.94c-9.94-5.77-15.84-18.1-15.88-34.91l6.76,3.94C174.49,96.28,180.39,108.61,190.33,114.39Z"/></clipPath><clipPath id="clip-path-2"><path class="cls-1" d="M196.55,108.5l-3.39-2C184.29,101.37,179,90.36,179,75.33l3.38,2C182.43,92.33,187.67,103.34,196.55,108.5Z"/></clipPath></defs><g class="cls-2"><g id="Layer_1" data-name="Layer 1"><path class="cls-3" d="M209.89,343.85,8.17,227.39c-12.11-7-10.58-19.32,3.41-27.4l123.06-71.05c14-8.08,35.35-9,47.46-2L383.82,243.44c12.11,7,10.58,19.32-3.41,27.4L257.35,341.89C243.36,350,222,350.85,209.89,343.85Z"/><path class="cls-4" d="M392,226.59l-16.16-1.65L182.1,113.09c-12.11-7-33.47-6.11-47.46,2L11.58,186.11c-.84.48-1.63,1-2.38,1.49L0,186.66v15.17H0c.09,4.39,2.77,8.56,8.16,11.68L209.89,330c12.12,7,33.47,6.11,47.46-2L380.41,257C388,252.59,391.87,247,392,241.67h0Z"/><path class="cls-5" d="M209.89,314.82,8.17,198.36c-12.11-7-10.58-19.33,3.41-27.4L134.64,99.91c14-8.08,35.35-9,47.46-2L383.82,214.41c12.11,7,10.58,19.32-3.41,27.4l-123.06,71C243.36,320.93,222,321.82,209.89,314.82Z"/><path class="cls-6" d="M131.52,161.46l141.64,75.26c7.69,4.44,16.81,13.17,16.79,19.47,0,1.53.08,2.72-.49,3.57-4.89,7.25-50.18,33.4-62.74,36.23a35.49,35.49,0,0,1-6.71.59c-10.91,0-24.41-6.2-32.32-10.37l-131-75.65.22-.27s-8.3-8.11-7.22-11c3.76-10,48.51-38.07,65.89-40.24,5-.63,16,2.4,16,2.4Z"/><path class="cls-7" d="M238.52,172.7a5.65,5.65,0,0,0,.19,1.66s0,0,0,.07a1.17,1.17,0,0,0,.23.4,2.82,2.82,0,0,0,.3.25,5.44,5.44,0,0,0,2.28,1,4.1,4.1,0,0,0,1.11,0h0a.53.53,0,0,0,.21,0h0a3.57,3.57,0,0,0,1.23-.38l.29-.16h0l.3-.17h0a14.57,14.57,0,0,0,4.93-5.19,5.88,5.88,0,0,0,.32-.85,6.33,6.33,0,0,0,.21-1.07c0-.09,0-.19,0-.26a6.58,6.58,0,0,0,.05-.86c0-.23,0-.43,0-.63a2.33,2.33,0,0,0,0-.37A6.21,6.21,0,0,0,250,165v0a3.63,3.63,0,0,0-1-1.88,1.74,1.74,0,0,0-1.44-.4c-1.22.15-3,1.22-6,3.25a7.32,7.32,0,0,0-2.78,3.65.76.76,0,0,0,0,.11,3.42,3.42,0,0,0-.09.63c0,.28,0,.62,0,.95h0C238.52,171.74,238.51,172.23,238.52,172.7Z"/><path class="cls-8" d="M241,171.56v.4h0a.07.07,0,0,0,0,.09,6.37,6.37,0,0,0,.44,2.39h0a2.14,2.14,0,0,0,1,1.2,2.33,2.33,0,0,0,1.9-.11h0l.32-.15h0a11.33,11.33,0,0,0,4.93-5.19,5.88,5.88,0,0,0,.32-.85,5.09,5.09,0,0,0,.21-1v-.07c0-.09,0-.19,0-.26a6.58,6.58,0,0,0,.05-.86c0-.23,0-.43,0-.63a1.16,1.16,0,0,0,0-.33v0A4.92,4.92,0,0,0,250,165v0c-.19-.52-.45-.81-.72-.86a2,2,0,0,0-.59,0,9.66,9.66,0,0,0-4,1.95C243.17,167.32,241,168.76,241,171.56Z"/><path class="cls-9" d="M176.88,245.29c-1.56,2.67-3.61,5.42-3.62,10.12l.37,5.72,76-45.58-.93-5.7c0-4.7,3.28-8.94,4.84-11.61Z"/><path class="cls-10" d="M185.69,255.33c.48-1,1-2.05,1.45-3.07a10.91,10.91,0,0,0-.91,4.83c.11,7.23,5.21,15.87,11.4,19.3l-2.83-.12c-5.37-3-9.8-10.47-9.9-16.74A9.55,9.55,0,0,1,185.69,255.33Z"/><path class="cls-11" d="M194.77,274.4c-4.49-2.49-8.19-8.75-8.27-14,0-2.69.89-4.6,2.41-5.47l-.58.34c-1.52.87-2.45,2.77-2.41,5.47.08,5.24,3.78,11.5,8.26,14,2.18,1.2,4.14,1.3,5.58.48l.58-.34C198.91,275.69,196.94,275.6,194.77,274.4Z"/><path class="cls-12" d="M181.74,251.94l2.09-1.2c-2.33,1.34-3.76,4.26-3.7,8.41.12,8.06,5.81,17.68,12.71,21.5l-2.1,1.2c-6.89-3.82-12.58-13.44-12.7-21.5C178,256.2,179.4,253.28,181.74,251.94Z"/><path class="cls-13" d="M205.69,272.15a18.16,18.16,0,0,0-.19-2.44,22.09,22.09,0,0,0-.51-2.48c-.19-.72-.48-1.67-.74-2.37-.5-1.34-1-2.35-1-2.36-.17-.35-.39-.82-.58-1.15s-.43-.79-.63-1.13l-.68-1.09a24.08,24.08,0,0,0-1.51-2.09c-.25-.31-.57-.73-.84-1-.49-.54-1.18-1.25-1.7-1.76-.28-.28-.68-.61-1-.86s-.64-.51-.92-.72a17.92,17.92,0,0,0-2-1.31c-.38-.21-.9-.46-1.3-.64-.25-.12-.6-.24-.85-.34s-.59-.2-.84-.27c-.42-.1-1-.23-1.42-.29a4.39,4.39,0,0,0-.72-.07,10.09,10.09,0,0,0-1.1,0,7.27,7.27,0,0,0-1.56.25,6,6,0,0,0-.72.23c-.33.13-.75.34-1.06.5-2.33,1.34-3.76,4.26-3.7,8.41.13,8.06,5.81,17.68,12.71,21.5,3.34,1.85,6.36,2,8.56.73.27-.17.61-.4.86-.58a5.32,5.32,0,0,0,.45-.38,8.06,8.06,0,0,0,.87-.93c.11-.15.27-.35.37-.51.19-.31.44-.74.61-1.06a11.17,11.17,0,0,0,.54-1.35,12.9,12.9,0,0,0,.46-2.1c.05-.39.1-.91.12-1.3S205.7,272.46,205.69,272.15Zm-11.51,2.58h0c-4.48-2.48-8.18-8.74-8.26-14s3.5-7.48,8-5,8.19,8.74,8.26,14S198.67,277.21,194.18,274.73Z"/><path class="cls-14" d="M189.24,277.57c-4.48-2.49-8.18-8.75-8.26-14,0-2.69.88-4.6,2.41-5.47l-.61.35c-1.52.87-2.44,2.77-2.4,5.47.07,5.24,3.77,11.5,8.26,14h0c2.18,1.21,4.14,1.3,5.57.48l.6-.35C193.38,278.86,191.42,278.77,189.24,277.57Z"/><path class="cls-15" d="M198.48,271.52l-.09-.46a15.52,15.52,0,0,1,.32,2.91c.1,6.53-4.35,9.32-9.94,6.23h0c-5.6-3.1-10.21-10.9-10.3-17.43s4.35-9.32,9.94-6.23a16.36,16.36,0,0,1,2.8,2l-.35-.3a16.42,16.42,0,0,0-3-2.13c-5.93-3.28-10.66-.32-10.55,6.61s5,15.21,10.93,18.49,10.65.33,10.55-6.6A17.39,17.39,0,0,0,198.48,271.52Z"/><path class="cls-16" d="M188.77,280.2c-5.6-3.1-10.21-10.9-10.3-17.43s4.35-9.32,9.94-6.23,10.2,10.9,10.3,17.43S194.36,283.29,188.77,280.2Zm0-1.06c5.09,2.81,9.14.28,9.05-5.67s-4.28-13.05-9.37-15.87-9.15-.28-9.06,5.67,4.29,13.05,9.38,15.87Z"/><path class="cls-17" d="M198.91,271.83a1,1,0,0,1-.3-.14,1,1,0,0,0,.3.14,26.74,26.74,0,0,0-8.1-14.12.66.66,0,0,0,0,.47.66.66,0,0,1,0-.47,18,18,0,0,0-3.19-2.29c-6.32-3.5-11.36-.34-11.25,7.05s5.33,16.22,11.65,19.72,11.37.35,11.26-7A18.15,18.15,0,0,0,198.91,271.83Zm-10.64,9.38c-5.94-3.28-10.83-11.56-10.93-18.49s4.62-9.89,10.55-6.61a16.62,16.62,0,0,1,3,2.14h0c.28.25.64.58.89.84a20,20,0,0,1,1.46,1.61c.38.47.88,1.11,1.23,1.61s.89,1.36,1.24,2a26.09,26.09,0,0,1,1.55,3.18c.12.31.29.73.4,1s.25.75.35,1.07c.17.57.35,1.35.48,1.93h0a17.82,17.82,0,0,1,.34,3.12C198.92,281.54,194.2,284.49,188.27,281.21Z"/><path class="cls-18" d="M214.26,269.6c-.18-11.92-4.12-18.7-14.42-24.4-3.82-2.11-7.25-2.27-9.76-.82l-10.5,6.09c2.5-1.45,5.93-1.29,9.73.81,7.81,4.33,14.26,15.23,14.39,24.36a13.84,13.84,0,0,1-1.06,5.92,13.56,13.56,0,0,1-5-1.7l-7.87,4.48c3.77,2.09,7.18,2.26,9.67.84,2.64-1.49,7.92-4.52,10.55-6S214.33,274.33,214.26,269.6Z"/><path class="cls-19" d="M188,283.3c-6.85-3.79-12.5-13.35-12.62-21.36s5.34-11.42,12.19-7.63,12.5,13.36,12.62,21.36S194.89,287.09,188,283.3Zm0-2.7c5.57,3.09,10,.31,9.92-6.21s-4.7-14.29-10.27-17.37-10-.31-9.92,6.2,4.7,14.3,10.27,17.38Z"/><path class="cls-20" d="M188.59,284.46c-.32-.19-.74-.43-1.05-.63s-.88-.59-1.24-.85a25.25,25.25,0,0,1-2-1.69c-1-1-1.78-1.81-2-2.09-.85-1-1.45-1.8-1.81-2.29-.13-.18-.83-1.15-1.6-2.45-.5-.84-1-1.7-1.37-2.57a29.58,29.58,0,0,1-2-5.35,23.91,23.91,0,0,1-.55-2.69,22.75,22.75,0,0,1-.24-2.65,18.38,18.38,0,0,1,.1-2.49c0-.4.14-.94.21-1.33s.15-.65.22-.93.29-.9.43-1.28c.09-.23.23-.53.34-.75a7.26,7.26,0,0,1,.69-1.21c.25-.35.61-.8.89-1.13.15-.17.37-.38.53-.53a5.4,5.4,0,0,1,.52-.43,10.6,10.6,0,0,1,1-.65c2.5-1.45,5.92-1.29,9.73.81,7.81,4.33,14.26,15.23,14.39,24.36.07,4.72-1.55,8-4.22,9.55-.18.09-.41.22-.59.3s-.54.23-.77.32a12.4,12.4,0,0,1-1.33.35,8.42,8.42,0,0,1-1.11.14,10.41,10.41,0,0,1-1.25,0,7.53,7.53,0,0,1-.83-.08,13,13,0,0,1-1.62-.34c-.58-.18-1.35-.45-1.92-.68s-1-.5-1.47-.73a1.28,1.28,0,0,1-.55-1.16c6.85,3.79,12.31.38,12.19-7.63s-5.77-17.57-12.62-21.36-12.31-.37-12.19,7.63,5.77,17.57,12.62,21.36A1.28,1.28,0,0,0,188.59,284.46Z"/><path class="cls-21" d="M196.7,277.62c.11-.4.23-.8.34-1.19s.32-1,.44-1.57a10.05,10.05,0,0,1-1.6-.72c-4.71-2.62-8.58-9.18-8.65-14.64a9.46,9.46,0,0,1,.2-2.13,12,12,0,0,1-1.76-.36c-.32-.09-.64-.16-1-.24l-.39.23a4.36,4.36,0,0,0-.81.62l-.91.53c-1.55.9-2.5,2.84-2.46,5.58.06,5.41,3.89,11.89,8.56,14.49,2.29,1.28,4.35,1.38,5.85.5a3.57,3.57,0,0,0,.64-.46,3.86,3.86,0,0,0,1.21-.47Z"/><path class="cls-22" d="M197.27,274.78a8.94,8.94,0,0,1-1.39-.64c-4.71-2.62-8.58-9.18-8.65-14.64a9.78,9.78,0,0,1,.19-2.09A8.69,8.69,0,0,1,186,257l-1-.26c-1.52.91-2.44,2.83-2.41,5.55.07,5.4,3.9,11.88,8.56,14.48,2.29,1.28,4.36,1.38,5.86.5l.2-.13A21.13,21.13,0,0,0,197.27,274.78Z"/><path class="cls-23" d="M187.1,264.83a4.92,4.92,0,0,1-2.93-.77,8.16,8.16,0,0,1-1.55-1.11l-.68.39a8.16,8.16,0,0,0,1.55,1.11C184.91,265.24,186.5,265.6,187.1,264.83Z"/><path class="cls-24" d="M191,263.22c-1.43-.79-2.66-3.7-3.07-5.83a2.94,2.94,0,0,1-.72.19c.37,2.15,1.64,5.21,3.11,6a1.47,1.47,0,0,0,1.82-.24A1.44,1.44,0,0,1,191,263.22Z"/><path class="cls-25" d="M192.56,278.05l.68-.39c-.9-1.9-1.46-5.09-.7-6.19a.66.66,0,0,0-.21,0C190.93,271.9,191.52,275.84,192.56,278.05Z"/><path class="cls-26" d="M184,268.22l.15-.14a2.2,2.2,0,0,0-.82.53Z"/><path class="cls-27" d="M197.6,271.53c-1.49-.93-3.08-2.47-3.47-4a2.4,2.4,0,0,1,.92-2.61,2.49,2.49,0,0,0-1.59,3c.41,1.64,2.24,3.31,3.83,4.2l.37.19C197.63,272.06,197.61,271.8,197.6,271.53Z"/><path class="cls-28" d="M197.51,272.26l-.22-.12c-1.59-.89-3.42-2.56-3.83-4.2a2.53,2.53,0,0,1,1.75-3.07,9.19,9.19,0,0,0-.83-1.5,8.87,8.87,0,0,0-1.31-1.42c-.51,1.34-1.54,2.33-2.74,1.67-1.74-1-3.19-5.08-3.22-7.1a4.33,4.33,0,0,0-3.3,1c1.66,1.55,4,5.4,3.46,7-.38,1.19-2.19.84-3.78-.05a8.16,8.16,0,0,1-1.55-1.11,16.64,16.64,0,0,0,1.34,5.27,3.57,3.57,0,0,1,4.05-.29,3.66,3.66,0,0,1,1.18,1.05c1.42,2,.92,5.31-.08,6.37a13.31,13.31,0,0,0,1.66,1.22l0,0,.07,0,.06,0h0l.09.06h0l.1.05.1.06h0l.09.05h0l0,0,.09,0h0a9.09,9.09,0,0,0,1.66.64c-1-2.21-1.63-6.15-.23-6.55a1.57,1.57,0,0,1,1.16.25,12.83,12.83,0,0,1,4.08,4.76A27.42,27.42,0,0,0,197.51,272.26Z"/><path class="cls-29" d="M190.36,265.5c-.9-.51-1.62-.07-1.61,1a3.56,3.56,0,0,0,1.65,2.79c.9.5,1.62.06,1.61-1a3.61,3.61,0,0,0-1.65-2.79Z"/><path class="cls-30" d="M190.62,265.9c-.64-.36-1.16,0-1.15.69a2.56,2.56,0,0,0,1.18,2c.64.35,1.15,0,1.14-.7a2.55,2.55,0,0,0-1.17-2Z"/><path class="cls-31" d="M189,257.34c-2.52-1.4-4.79-1.51-6.44-.55l-.58.33c1.65-.95,3.92-.84,6.44.56,5.13,2.86,9.34,10,9.42,15.93,0,3-1,5.15-2.71,6.14l.58-.34c1.7-1,2.74-3.12,2.7-6.14C198.35,267.33,194.14,260.2,189,257.34Z"/><path class="cls-32" d="M197.85,273.61c.07,5.94-4,8.44-9.15,5.58s-9.34-10-9.42-15.92,4-8.45,9.15-5.59S197.77,267.67,197.85,273.61Zm-.85-.47c-.06-5.4-3.89-11.89-8.55-14.48s-8.39-.33-8.32,5.07,3.89,11.89,8.56,14.49,8.38.32,8.31-5.08Z"/><path class="cls-9" d="M59.18,177.33c-1.57,2.67-3.61,5.43-3.63,10.13l.38,4.29,70-44.31,2.07-6c0-4.7,3.28-8.94,4.84-11.61Z"/><path class="cls-33" d="M68,187.37l1.45-3.07a10.92,10.92,0,0,0-.91,4.84c.11,7.23,5.21,15.87,11.4,19.29l-2.84-.12c-5.37-3-9.8-10.46-9.89-16.74A9.41,9.41,0,0,1,68,187.37Z"/><path class="cls-34" d="M77.07,206.44c-4.49-2.48-8.19-8.74-8.27-14,0-2.7.89-4.6,2.41-5.47l-.58.33c-1.52.87-2.45,2.77-2.41,5.47.08,5.24,3.78,11.5,8.26,14,2.18,1.21,4.14,1.3,5.58.48l.58-.33C81.2,207.74,79.24,207.64,77.07,206.44Z"/><path class="cls-12" d="M64,184l2.09-1.21c-2.33,1.34-3.76,4.27-3.7,8.41.12,8.06,5.81,17.68,12.71,21.5l-2.1,1.2c-6.9-3.81-12.58-13.44-12.7-21.49C60.27,188.25,61.7,185.33,64,184Z"/><path class="cls-35" d="M88,204.19a18,18,0,0,0-.19-2.43,21.56,21.56,0,0,0-.51-2.48c-.19-.72-.49-1.67-.74-2.38-.5-1.34-1-2.35-1-2.36-.18-.34-.39-.81-.58-1.15l-.63-1.12c-.2-.34-.48-.77-.69-1.1s-1-1.52-1.5-2.09c-.25-.3-.57-.72-.84-1-.5-.55-1.18-1.25-1.7-1.77-.28-.27-.68-.61-1-.86s-.63-.5-.91-.72a19.91,19.91,0,0,0-2-1.3c-.38-.21-.91-.47-1.3-.65s-.6-.24-.85-.34-.59-.2-.84-.26c-.42-.11-1-.23-1.42-.3-.22,0-.51-.06-.73-.07s-.76,0-1.09,0a8,8,0,0,0-1.56.25c-.22.07-.51.15-.72.24s-.75.33-1.06.49c-2.33,1.34-3.76,4.27-3.7,8.41.12,8.06,5.81,17.68,12.71,21.5,3.34,1.85,6.36,2,8.56.73.27-.16.61-.39.86-.57l.45-.38a7.45,7.45,0,0,0,.86-.94,6.13,6.13,0,0,0,.38-.51c.19-.31.43-.73.6-1.06a8.84,8.84,0,0,0,.54-1.35,11.35,11.35,0,0,0,.47-2.1c0-.38.09-.9.12-1.29S88,204.5,88,204.19Zm-11.51,2.58h0c-4.48-2.48-8.18-8.74-8.26-14s3.49-7.48,8-5,8.18,8.74,8.26,14S81,209.26,76.48,206.77Z"/><path class="cls-36" d="M71.54,209.61c-4.49-2.48-8.19-8.74-8.26-14,0-2.7.88-4.6,2.4-5.47l-.6.34c-1.52.87-2.45,2.78-2.41,5.47.08,5.24,3.78,11.5,8.27,14h0c2.17,1.2,4.14,1.29,5.57.47l.6-.34C75.68,210.91,73.72,210.81,71.54,209.61Z"/><path class="cls-37" d="M80.78,203.56l-.09-.45A17.27,17.27,0,0,1,81,206c.1,6.54-4.36,9.32-10,6.23h0c-5.59-3.09-10.2-10.9-10.3-17.43s4.36-9.32,9.95-6.22a15.34,15.34,0,0,1,2.8,2l-.35-.31a16.72,16.72,0,0,0-3-2.12c-5.93-3.29-10.66-.33-10.55,6.6s5,15.21,10.92,18.5,10.66.32,10.56-6.61A17.49,17.49,0,0,0,80.78,203.56Z"/><path class="cls-38" d="M71.06,212.24c-5.59-3.09-10.2-10.9-10.3-17.43s4.36-9.32,9.95-6.22S80.91,199.48,81,206,76.65,215.33,71.06,212.24Zm0-1.06c5.09,2.82,9.14.28,9-5.67s-4.28-13-9.37-15.86-9.15-.28-9.06,5.66,4.29,13.06,9.38,15.87Z"/><path class="cls-39" d="M81.21,203.87a.7.7,0,0,1-.3-.14.7.7,0,0,0,.3.14,26.78,26.78,0,0,0-8.1-14.12.67.67,0,0,0,0,.47.67.67,0,0,1,0-.47,17.48,17.48,0,0,0-3.19-2.28c-6.32-3.5-11.36-.35-11.25,7S64,210.74,70.32,214.24s11.37.34,11.26-7.05A19.17,19.17,0,0,0,81.21,203.87Zm-10.65,9.39c-5.93-3.29-10.82-11.57-10.92-18.5s4.62-9.89,10.55-6.6a16.48,16.48,0,0,1,3,2.14h0c.27.24.64.57.89.84a18.4,18.4,0,0,1,1.46,1.61c.38.47.88,1.11,1.23,1.61s.89,1.36,1.24,2a26.88,26.88,0,0,1,1.55,3.18l.4,1c.11.32.25.75.34,1.07.18.57.35,1.34.49,1.93h0a18.6,18.6,0,0,1,.34,3.11C81.22,213.58,76.5,216.54,70.56,213.26Z"/><path class="cls-40" d="M96.56,201.65c-.18-11.93-4.12-18.71-14.43-24.41-3.81-2.11-7.25-2.26-9.75-.81l-10.5,6.09c2.5-1.45,5.92-1.3,9.73.81,7.81,4.32,14.26,15.23,14.39,24.36a13.84,13.84,0,0,1-1.06,5.92,13.6,13.6,0,0,1-5-1.71l-7.88,4.49c3.78,2.09,7.19,2.26,9.68.84,2.64-1.49,7.92-4.52,10.55-6S96.63,206.37,96.56,201.65Z"/><path class="cls-41" d="M70.34,215.35C63.49,211.56,57.84,202,57.72,194s5.33-11.42,12.19-7.63,12.5,13.35,12.62,21.36S77.19,219.14,70.34,215.35Zm0-2.7c5.57,3.08,10,.3,9.91-6.21S75.52,192.14,70,189.06s-10-.31-9.92,6.21,4.69,14.29,10.27,17.38Z"/><path class="cls-42" d="M70.89,216.5c-.32-.19-.75-.42-1-.62s-.88-.59-1.24-.86a25.25,25.25,0,0,1-2-1.69,26.57,26.57,0,0,1-2-2.09c-.85-1-1.45-1.79-1.81-2.29a28.14,28.14,0,0,1-1.6-2.45,28.8,28.8,0,0,1-1.37-2.57,29.56,29.56,0,0,1-2-5.34,26.3,26.3,0,0,1-.56-2.69,21.82,21.82,0,0,1-.23-2.65,18.6,18.6,0,0,1,.1-2.5c0-.4.13-.93.21-1.33s.15-.65.22-.92.29-.91.43-1.29.23-.52.33-.75a7.31,7.31,0,0,1,.7-1.21c.25-.35.61-.8.89-1.13.14-.17.37-.37.53-.53s.35-.31.51-.43.66-.46.95-.64c2.5-1.45,5.93-1.3,9.74.81,7.81,4.32,14.26,15.23,14.39,24.36.07,4.71-1.55,8-4.22,9.54l-.59.31c-.23.1-.54.23-.78.31a9.61,9.61,0,0,1-1.33.35,6.74,6.74,0,0,1-1.11.14c-.37,0-.87,0-1.25,0s-.58,0-.82-.08a14.55,14.55,0,0,1-1.62-.34c-.58-.18-1.35-.45-1.92-.69s-1-.5-1.47-.73a1.25,1.25,0,0,1-.55-1.15c6.85,3.79,12.31.37,12.19-7.63s-5.77-17.57-12.62-21.36S57.6,186,57.72,194s5.77,17.57,12.62,21.36A1.25,1.25,0,0,0,70.89,216.5Z"/><path class="cls-43" d="M79,209.66c.12-.39.24-.79.35-1.19s.32-1,.44-1.57a9.58,9.58,0,0,1-1.6-.71c-4.71-2.63-8.58-9.18-8.65-14.64a9.4,9.4,0,0,1,.2-2.13,13.1,13.1,0,0,1-1.76-.37l-1-.23-.39.23a4.3,4.3,0,0,0-.81.61l-.91.54c-1.55.9-2.5,2.83-2.47,5.58.07,5.4,3.9,11.89,8.56,14.48,2.3,1.28,4.36,1.38,5.86.51a3.63,3.63,0,0,0,.64-.47,4.1,4.1,0,0,0,1.21-.46Z"/><path class="cls-44" d="M79.57,206.83a10.64,10.64,0,0,1-1.39-.64c-4.71-2.63-8.58-9.18-8.65-14.64a9.72,9.72,0,0,1,.19-2.09,9.76,9.76,0,0,1-1.46-.38c-.32-.1-.64-.19-1-.27-1.52.92-2.44,2.84-2.41,5.55.07,5.4,3.9,11.89,8.56,14.48,2.29,1.28,4.36,1.38,5.86.51l.2-.13A21.2,21.2,0,0,0,79.57,206.83Z"/><path class="cls-45" d="M69.4,196.87a4.82,4.82,0,0,1-2.94-.77,8.88,8.88,0,0,1-1.54-1.1l-.68.39a8.13,8.13,0,0,0,1.55,1.1C67.21,197.28,68.8,197.65,69.4,196.87Z"/><path class="cls-46" d="M73.31,195.27c-1.43-.8-2.67-3.71-3.07-5.84a3,3,0,0,1-.72.2c.37,2.14,1.64,5.21,3.11,6a1.47,1.47,0,0,0,1.81-.23A1.45,1.45,0,0,1,73.31,195.27Z"/><path class="cls-47" d="M74.86,210.09l.68-.39c-.9-1.9-1.46-5.08-.71-6.19a.64.64,0,0,0-.2,0C73.23,203.94,73.82,207.89,74.86,210.09Z"/><path class="cls-48" d="M66.25,200.26l.15-.14a2.32,2.32,0,0,0-.83.53S66.25,200.26,66.25,200.26Z"/><path class="cls-49" d="M79.9,203.58c-1.5-.93-3.09-2.47-3.47-4a2.4,2.4,0,0,1,.92-2.61,2.51,2.51,0,0,0-1.6,3c.42,1.63,2.25,3.31,3.84,4.19a3.13,3.13,0,0,0,.36.19C79.93,204.11,79.91,203.84,79.9,203.58Z"/><path class="cls-50" d="M79.81,204.3l-.22-.12c-1.59-.88-3.42-2.56-3.84-4.19a2.54,2.54,0,0,1,1.76-3.07,8.93,8.93,0,0,0-.84-1.51,8.77,8.77,0,0,0-1.3-1.42c-.52,1.34-1.54,2.34-2.74,1.67-1.74-1-3.19-5.07-3.22-7.09a4.33,4.33,0,0,0-3.3,1c1.66,1.55,4,5.4,3.46,7-.38,1.19-2.19.84-3.78,0a8.13,8.13,0,0,1-1.55-1.1,16.56,16.56,0,0,0,1.33,5.26,3.7,3.7,0,0,1,5.23.76c1.43,2,.93,5.32-.07,6.38A13.49,13.49,0,0,0,72.39,209l0,0,.07,0,.06,0,0,0,.09,0h0l.1.06.09,0h0l.09,0,0,0,0,0,.09,0h0a8.18,8.18,0,0,0,1.66.64c-1-2.2-1.63-6.15-.23-6.55a1.58,1.58,0,0,1,1.16.26,12.76,12.76,0,0,1,4.08,4.76A27.55,27.55,0,0,0,79.81,204.3Z"/><path class="cls-51" d="M72.65,197.54c-.9-.5-1.61-.06-1.6,1a3.59,3.59,0,0,0,1.65,2.8c.9.5,1.62.06,1.6-1a3.56,3.56,0,0,0-1.65-2.8Z"/><path class="cls-52" d="M72.91,197.94c-.64-.35-1.15,0-1.14.7a2.53,2.53,0,0,0,1.18,2c.63.36,1.15,0,1.14-.69a2.56,2.56,0,0,0-1.18-2Z"/><path class="cls-53" d="M71.31,189.39c-2.52-1.41-4.79-1.51-6.44-.56l-.58.34c1.65-1,3.92-.85,6.44.55,5.13,2.86,9.34,10,9.41,15.93,0,3-1,5.15-2.7,6.14l.57-.33c1.71-1,2.75-3.12,2.71-6.14C80.65,199.38,76.43,192.25,71.31,189.39Z"/><path class="cls-32" d="M80.14,205.65c.08,5.94-4,8.45-9.14,5.59s-9.34-10-9.42-15.93,4-8.44,9.15-5.59S80.07,199.71,80.14,205.65Zm-.84-.47c-.06-5.4-3.9-11.88-8.56-14.48s-8.38-.32-8.32,5.08,3.9,11.89,8.56,14.48,8.39.33,8.32-5.08Z"/><path class="cls-8" d="M39.78,155v7.3L41,172.52,43.61,178l11.13,12.67v-4.4c0-6.29,2.53-10.47,6.47-11.91l-8.55-11.51-4.69-10L45.78,151l-3.51-4.15Z"/><path class="cls-54" d="M291,229v.31s0,.46,0,1.21l-.45,5.14c0,.61-.83,6.47-.84,6.56a1.77,1.77,0,0,1,0,.2c-.37,1.57-2.5,5.93-2.85,6.91a1.31,1.31,0,0,1-.05.15l0,.07-9.19,8L254.7,270.87l-18.06,6.76-15.19,3.13-13.89-1v-5.21c0-6.05-2.28-12.81-5.94-18.62a39.8,39.8,0,0,0-5.24-6.69,29.86,29.86,0,0,0-6.33-5c-3.49-2-6.75-2.73-9.5-2.29-4.86.78-8.1,5.19-8.11,12.33v6.21L89.86,212.78v-6.22c0-7.93-3.92-17.06-9.69-23.7a31.23,31.23,0,0,0-7.82-6.63A17.62,17.62,0,0,0,66.28,174a10.06,10.06,0,0,0-5.06.4c-2.56-3.46-7.4-10-8.56-11.51-1.55-2-4.5-9.53-4.68-10v0L45.78,151l-3.51-4.15s.12-1.42.22-2.89a25.29,25.29,0,0,0,.06-2.89c0-.18,0-.37,0-.55,0-.53,0-1,0-1.43s0-.66,0-.66l1.17-2.19.92-.93.64-.64,5.4-5.45,12.13-9,22.11-12.82L100.24,101l.37-.15,3.56-.91,1.11-.28H109l17.82,7.82L145.31,109a180.17,180.17,0,0,1,17,6.94c7,3.45,17.57,9.37,25.56,14.26s17.9,11.86,20.64,13.92,26.92,22.2,40.82,37.68c1.84,1.44,4.23,3,5.72,4.19,7.9,6.13,11.6,9.55,14.56,12.19s7.91,6.86,9.17,7.93h0l.3.26,3.45,3.48,4.7,6.26,1.7,6.83,1-1.23.07.17c.09.19.21.47.34.82a.08.08,0,0,0,0,0c.05.13-.69.72-.64.88.14.44,1.05.52,1.14,1.09,0,.18.05.36.06.54C291,226.61,291,228.29,291,229Z"/><path class="cls-8" d="M201.62,255.89c3.66,5.81,6,12.57,5.94,18.62v5.21l13.89,1,15.19-3.13,18.06-6.76,22.85-13.38,9.18-8a.25.25,0,0,0,0-.07c.22-.55,2.48-4.79,2.9-7.06a1.77,1.77,0,0,0,0-.2c0-.09,1.25-10.2,1.29-11.7,0-.75,0-1.21,0-1.21V229c0-.73-.08-2.55-.16-3.73,0-.18,0-.36-.06-.54a8.34,8.34,0,0,0-.51-2l-.41-1-1.33-.14.34,1.37-.43,2.75-.77,3.91-.46.62-.66-.08-3.08-1.36-.73-1.91.14-.89.91-2.41-1.33-.22-2,.56-7.87,6.23L251,242.76l-11.12,4.81-2.44,2-.1.78,3.14.74.64,2.25-2.78,5.84-4.28,1.49-10.76-.33-5.93-1.88-2-1.31-3-3-6.13,1Z"/><path class="cls-55" d="M200.42,251.22c-.95-.45-2.45-1.2-4-2a39.3,39.3,0,0,1,5.24,6.69c3.66,5.81,6,12.57,5.94,18.62v5.21l13.89,1,15.19-3.13,18.06-6.76,22.85-13.38,9.18-8a.25.25,0,0,0,0-.07,1.31,1.31,0,0,0,.05-.15c.35-1,2.48-5.33,2.85-6.91a1.77,1.77,0,0,0,0-.2l1.29-11.7c0-.75,0-1.21,0-1.21V229c0-.68,0-2.36-.16-3.73,0,0-2,9.43-3.17,11.67s-10.27,9.87-10.27,9.87l-22.34,12.51s-10.22,3.12-15.65,3.52-15.22,2.05-19.61.85c-2.84-.78-8.85-5.15-13.56-8.53A59.61,59.61,0,0,0,200.42,251.22Z"/><path class="cls-8" d="M200.42,251.22a59.61,59.61,0,0,1,5.85,3.91c4.71,3.38,10.72,7.75,13.56,8.53,4.39,1.2,14.18-.46,19.61-.85s15.65-3.52,15.65-3.52l22.34-12.51s9.16-7.64,10.27-9.87,3.17-11.67,3.17-11.67c.14,1.37.16,3,.16,3.73v.31s0,.46,0,1.21l-1.29,11.7a1.77,1.77,0,0,1,0,.2c0,.19-1.43,2.55-1.5,2.79l.07-2.4-.51-1.57-.82-.69-.69.32-8.31,7.46L256,260.6l-13.54,5.48-2.56,2.08-7.22,7.51-3.07,2.77h0l-8.13,2.32-13.89-1v-5.21c0-6.05-2.28-12.81-5.94-18.62a39.3,39.3,0,0,0-5.24-6.69C198,250,199.47,250.77,200.42,251.22Z"/><path class="cls-8" d="M83.93,185.23l-3.76-2.37c5.77,6.64,9.71,15.77,9.69,23.7v6.22l82.58,47.66v-6.22c0-7.13,2.09-14.78,4.56-16.17a9,9,0,0,1-4.78-1.61l-49.44-29.09Z"/><path class="cls-8" d="M48,152.87c.18.46,3.13,8,4.68,10,1.16,1.51,6,8,8.56,11.51a10.19,10.19,0,0,1,5.06-.4l-.37-.24c-3.62-2.46-12.78-12.68-12.78-12.68Z"/><path class="cls-56" d="M127.92,197.68s-.08-.77,1-.85,6.68,3.22,6.86,3.44a6,6,0,0,1,.91,2.45,9.55,9.55,0,0,1-.27,2.35c-.18.39-1.46.6-1.46.6a8.26,8.26,0,0,1-4.21-2A9,9,0,0,1,129,200Z"/><path class="cls-56" d="M84.47,172.6s-.08-.77,1-.85,6.69,3.22,6.87,3.43a6.1,6.1,0,0,1,.91,2.45A9.7,9.7,0,0,1,93,180c-.18.38-1.46.6-1.46.6a8.36,8.36,0,0,1-4.21-2,9,9,0,0,1-1.81-3.64Z"/><path class="cls-57" d="M42.51,140.51l10.62,9.23s22.05,11.68,28.36,15.09,28.6,17.2,40.18,24.63,55.42,36,63.82,41.21,18.18,14.51,18.18,14.51l1,1.54,32.65,3.63.1-.78,1.92-1.57s-7.68-4.48-9.89-5.08-15.5-7.35-15.5-7.35c-6.71-3.83-27-15.57-27-15.57l-4.3-1.05-3.32-1.63-14-22L153.77,179l-16.05-13.73-19.83-11.38-15.17-6.27L90,144.64l-24.13.22s-4.46-.76-6.07-1-16.15-7.68-16.15-7.68l-1.17,2.19S42.46,139.43,42.51,140.51Z"/><path class="cls-57" d="M205.42,241.77h-2.34L188.92,231l-1.4-8.6L187,220l7.91-2.32,13.9-5.75,11.42-5.59s14.34-8.8,17.14-10.88,7-5.35,7-5.35l5.24-5.51.44-.84.39-.33c9.42,7.26,16.06,12,19.15,14.75,3.5,3.12,9.46,8.17,9.48,8.19l2.66,5.11,2.1,9.79v2.29l-1.33-.21-1.94.56-7.88,6.23L251,242.76l-11.13,4.81-2.43,2-.12.78s-17.8-2.24-19.81-3.15Z"/><path class="cls-56" d="M280.54,223.91s-1.66-7.13-3.68-10.92-12.78-15.73-15.17-18.29-11.27-11.27-11.27-11.27l2.42,1.86c.44.33,11.51,11.33,14.17,14.05s8.89,9.9,10.6,13,3.81,11.33,3.81,11.33Z"/><polygon class="cls-58" points="229.58 278.44 232.65 275.67 239.87 268.16 242.43 266.08 255.97 260.6 277.9 248.3 286.21 240.84 286.9 240.52 287.72 241.21 288.23 242.78 288.19 245.21 286.74 249.51 277.56 257.48 254.7 270.87 236.65 277.64 229.58 278.44"/><polygon class="cls-59" points="234.32 276.94 241.54 269.43 244.1 267.35 257.64 261.87 279.56 249.57 287.87 242.11 287.99 242.06 287.72 241.21 286.9 240.52 286.21 240.84 277.9 248.3 255.97 260.6 242.43 266.08 239.87 268.16 232.65 275.67 229.58 278.44 233.09 278.04 234.32 276.94"/><path class="cls-60" d="M249.59,184.6S240.4,174.13,227,161.66c-13.09-12.21-15.77-14-16.17-13.88s-15.58,8.36-22.61,12.43-29.56,16.66-32,19.14v1.52s7.59,11.22,14.78,22.88,8.63,13,8.95,13.14a18.2,18.2,0,0,0,4.22,1.76,24.85,24.85,0,0,0,5.4.57l5.27-1.54,13.9-5.75,11.42-5.59,17.14-10.88,7-5.35Z"/><path class="cls-60" d="M90,143l-22.61.52-.55-3.24,1.59-3.07,11-8.68L100,116.32l17.08-6.44a42,42,0,0,1,12.56-1.58c6.22.34,14.66,1.37,14.66,1.37l1.16.62-15.42,7.24-21.59,12.53L92.11,140.89Z"/><path class="cls-8" d="M42.27,146.84,45.78,151,48,152.83c-.15-.27-2.51-4.47-5.47-8.88C42.4,145.42,42.27,146.84,42.27,146.84Z"/><path class="cls-56" d="M90,143s10.94,2.56,13.1,3.2,16.61,7.34,16.61,7.34l19.75,11.74,14.6,12.07,2.15,3.51,1.59-2.76-2.31-2.27L140,163.22,120.63,151.8l-17-7.17-12.31-2.91Z"/><path class="cls-56" d="M211.42,148a28.41,28.41,0,0,0-3.3-2.82c-2.13-1.6-24.74-16.38-31-20.08s-16.3-9.32-21.25-11.45a67.73,67.73,0,0,0-10.38-3.35l-.93.43s7.9,2.07,10.62,3.4,21.62,11.82,21.62,11.82,28.91,18.27,30.56,19.6l3,2.45Z"/><path class="cls-58" d="M246.19,183.43s-6.79,5.44-18.93,13.27a234.6,234.6,0,0,1-23.92,13.39S187.67,217,187,217s-4.91-.53-4.91-.53-11.42-18.57-15-23.6-8.54-12.44-8.54-12.44l1.28-1.36s13.7-7.64,20.48-11.71,20.33-12.12,20.65-12.28,9.67-5.67,9.67-5.67h1.92s15.73,14.26,32.58,31.67c1.28,1.52,1.28,1.78,1.28,1.78Z"/><path class="cls-61" d="M233.39,176.31l.12-2.1-1.4-4.26-7.69-8.64-12.68-11.86h-1.17s-9.35,5.52-9.67,5.67C200.8,155.18,233.39,176.31,233.39,176.31Z"/><path class="cls-62" d="M212.35,191.55l22.47-13,4.76-.89L243,179l2.06,2.11c1.28,1.52,1.28,1.78,1.28,1.78l-.16.53s-6.79,5.44-18.93,13.27a234.6,234.6,0,0,1-23.92,13.39S187.67,217,187,217s-4.91-.53-4.91-.53l-1.92-3.11L193,208.49l17.72-9.17Z"/><path class="cls-58" d="M68.42,139.32s0,1.71.48,2.08,15.39-1.11,20.39-.35c6.58-4.86,9.58-6.59,9.58-6.59l11.2-7,18.5-10.63L143.26,110a6.46,6.46,0,0,1-2.74,0,74.24,74.24,0,0,0-9-1.38c-3.95-.39-11,.72-13.77,1.38s-15.86,5.91-16.66,6.39-18.73,10.83-20,11.67S69,137.94,69,137.94Z"/><path class="cls-54" d="M127.34,198.44s5.83,3.08,6.15,3.8.16,1.23.72,1.75a8.74,8.74,0,0,0,2.23,1.08,8.26,8.26,0,0,0,.53-2.27,4.91,4.91,0,0,0-1.13-1.56c-.24-.12-6-3.56-7.26-3.88S127.34,198.44,127.34,198.44Z"/><path class="cls-54" d="M83.89,173.36s5.83,3.07,6.15,3.79.16,1.24.72,1.76A8.74,8.74,0,0,0,93,180a8.34,8.34,0,0,0,.53-2.28,4.91,4.91,0,0,0-1.13-1.56c-.24-.12-6-3.55-7.26-3.87S83.89,173.36,83.89,173.36Z"/><path class="cls-55" d="M169.79,257a1.4,1.4,0,0,1-.5-.09l-.06,0-47.52-28.2.3-4.72.46-4.49v-12.1l3.92-18.57,3.22-26.69,11.4,7.25L151.16,178l13.42,18.39,10.76,18.87.6,4.36.37,5,0,.06-3.77,11.82L171,255.34a1.9,1.9,0,0,1-.58,1.44A1,1,0,0,1,169.79,257Zm-.27-.68c.34.1.47,0,.51,0,.27-.2.32-.77.32-.95l1.55-18.91,3.76-11.83-.36-4.91-.59-4.27L164,196.73,150.7,178.42l-10.07-8.57-10.51-6.68L127,188.88l-3.92,18.53v12.07l-.45,4.51-.28,4.32Z"/><path class="cls-55" d="M122.32,229l-20.24-12.26-6.38-6.08s-4.47-8.83-5.31-10.51-2.81-5.26-2.83-5.3l-4-9.61-1.84-13.1.5-5.19.89-2.28L85.07,163l2-1.19,10.31-12.77,10,2.07,12,5,10.82,6.29,0,.21L127,188.88l-3.92,18.53v12.07Zm-19.83-12.75L121.76,228l.71-8.49V207.35l3.92-18.57,3.13-26-10.41-6.05-11.94-5-9.58-2L87.41,162.33l-2,1.2-1.81,1.59-.76,2-.47,5,1.83,13,3.9,9.47s2,3.62,2.82,5.29,4.93,9.74,5.29,10.45Z"/><path class="cls-60" d="M84.62,163.84l-3.93-2.5-1.6-3V153c0-.8,5.53-1.68,5.53-1.68l12.85-1.88L87.24,162.06Z"/><polygon class="cls-60" points="175.62 219.65 84.62 163.84 87.24 162.06 97.47 149.4 107.29 151.44 119.27 156.47 129.87 162.63 140.84 169.61 150.95 178.23 164.32 196.57 175.02 215.3 175.62 219.65"/><polygon class="cls-58" points="167.35 212.65 94.05 167.81 96.16 156.46 100.53 151.23 107.45 152.68 119.59 157.89 139.5 170.46 150.05 179.41 163.26 197.54 167.18 205.14 167.9 210.13 167.35 212.65"/><polygon class="cls-60" points="132.76 166.2 130.97 190.4 122.64 185.3 126.84 162.47 132.76 166.2"/><polygon class="cls-58" points="84.93 161.96 82.9 160.68 81.41 155.03 82.9 153.43 93.5 150.65 84.93 161.96"/><path class="cls-55" d="M120,105.75l-14.55-6-.08,0-1.24.13-3.56.91,4-.54.75.15,14.4,5.88,1.94,1.28-.66.33-4.74,1-17,6.19L78.19,127.85,65.78,138.16l-.53,2.91-.56.68-2.55,1.16-3.25-1c-12.66-7.23-12.82-7.24-12.91-7.25a5.16,5.16,0,0,0-.73,0l-.64.64h0c.5,0,1.07,0,1.24,0,.66.32,7.92,4.44,12.74,7.19l3.57,1.1,2.91-1.32.76-.93.51-2.84,12.18-10.11,21-12.74,16.87-6.15,4.76-1,1.77-.86Z"/><path class="cls-63" d="M42.27,146.84,45.78,151,48,152.84l2.77-1.4,2.39-1.7v-2.33l-6.73-4.87-3.9-3.46c0,.38,0,.9,0,1.43,0,.18,0,.37,0,.55a25.29,25.29,0,0,1-.06,2.89C42.4,145.42,42.27,146.84,42.27,146.84Z"/><path class="cls-54" d="M277.43,246.78l-22.34,12.51s-13.22,4.85-18.65,5.25-12.22.32-16.61-.88c-2.84-.78-8.85-5.15-13.56-8.53l6.13-1,3,3,2,1.31,5.93,1.88,10.76.33,5.13-1.29,1.92-.64v-5.4l-.64-2.25-3.14-.74.1-.78,2.44-2L251,242.76l21.67-12.62,7.87-6.23,2-.56,1.33.22-.74,2.31-.31,1,.73,1.91,3.08,1.36.66.08.46-.62.77-3.91.43-2.75-1-4,2,2.76.41,1a8.34,8.34,0,0,1,.51,2c0,.18.05.36.06.54a39.59,39.59,0,0,1-.87,5.25,34.35,34.35,0,0,1-2.3,6.42C286.59,239.14,277.43,246.78,277.43,246.78Z"/><path class="cls-54" d="M282.77,226.87s-6.55,5-7.27,5.69-23.56,13.89-23.56,13.89l-7.79,3-3.67,1.59-3.16-.73.12-.78,1.91-1.57.52-.43L251,242.76l21.66-12.62,7.88-6.23.88-.25,1.06-.31,1.33.21Z"/><path class="cls-55" d="M289.66,242.39c-.42,2.27-2.68,6.51-2.9,7.06a1.31,1.31,0,0,0,.05-.15C287.16,248.32,289.29,244,289.66,242.39Z"/><path class="cls-64" d="M242.19,259.22l-.06-2.57,0-1.22-.06-2.57.11-.18c1.31-2.24,1.71-2.39,2-2.44.5-.16,5.14-2,8-3.18L270,236.8l5.52-3.55,5.36-4.51,1.19,0,.45,0,.48.72,1.12,1.7,1.84,2.78v1.76L284.64,238l-6.49,6.12-5.41,3.68L255,258.08l-4,1.15-6.63,1.27Z"/><path class="cls-60" d="M285.18,234.22v1.35l-1.13,2-6.37,6-5.33,3.63L254.69,257.4l-3.93,1.12-6.33,1.21-1.52-.92,0-2.18,0-1.22-.05-2.36s1.2-2,1.52-2.1,8.16-3.23,8.16-3.23l17.85-10.29,5.59-3.59,5.19-4.36.91,0h.07l.27.42.68,1,.44.67.68,1Z"/><polygon class="cls-65" points="282.06 229.51 281.08 229.48 280.97 229.59 282.96 233.73 282.39 235.26 280.97 236.86 276.28 241.4 269.31 246.11 252.15 256.01 248.32 257.1 242.91 258.38 242.89 258.11 242.91 258.81 244.43 259.73 250.76 258.52 254.7 257.4 272.35 247.21 277.68 243.59 284.05 237.59 285.18 235.57 285.18 234.22 282.06 229.51"/><polygon class="cls-64" points="285.18 234.22 282.96 233.73 280.97 229.59 281.08 229.48 282.06 229.51 285.18 234.22"/><polygon class="cls-65" points="281.74 233.67 277.39 238.25 270.35 243.01 252.35 253.4 249.01 254.58 242.84 255.71 242.86 256.63 242.87 257 248.74 255.83 252.78 254.42 270.93 243.94 278.11 239.09 282.63 234.32 283.46 231.63 282.91 231.56 281.74 233.67"/><polygon class="cls-65" points="252.28 252.27 270.43 241.79 277.61 236.94 282.13 232.18 282.68 231.2 282.54 230.23 282 230.16 281.24 231.52 276.89 236.1 269.85 240.86 251.85 251.25 248.51 252.43 242.79 253.6 242.82 254.89 248.24 253.68 252.28 252.27"/><path class="cls-65" d="M247.74,251.54l4-1.41,18.15-10.48,7.18-4.85,4.52-4.77.13-.22-.21-.32h-.46l-2.2,1.85-2.5,2.63-7,4.76-18,10.39L248,250.29l-4.23,1.1a7.1,7.1,0,0,0-1.1,1.48Z"/><polygon class="cls-64" points="223.19 260.89 217.1 258.96 214.8 257.19 212 254.53 209.03 251.11 204.27 247.09 203.15 245.39 202.43 241.22 205.54 241.22 217.71 246.69 225.07 248.9 237.41 249.8 240.92 250.62 241.67 253.27 241.65 259.13 239.34 259.91 234.11 261.21 223.19 260.89"/><path class="cls-57" d="M239.87,247.57,232.61,244s-17.67-9-24.19-12.58S187,220,187,220l.56,2.39,1.4,8.6,14.16,10.78h2.34l12.09,5.44,7.46,2.23,12.35.91.12-.78Z"/><path class="cls-8" d="M239.87,247.57l-1.24,1s-3.24,0-51.66-28.59l33.87,18Z"/><polygon class="cls-66" points="203.08 241.77 203.67 245.18 204.68 246.73 209.42 250.72 212.4 254.15 215.16 256.77 217.36 258.46 223.29 260.34 234.05 260.66 239.18 259.38 241.1 258.74 241.12 253.34 240.48 251.09 237.32 250.35 224.97 249.44 217.51 247.21 205.42 241.77 203.08 241.77"/><path class="cls-67" d="M218.36,256.66l5.09,1.45h8.78l4-1.61,1.06-2.5v-3.26s-7.65.46-13.32-1-10.92-3.19-10.92-3.19l3.21,6.44Z"/><polygon class="cls-64" points="283.01 229.05 282.19 226.88 283.27 223.48 283.27 221.33 281.19 211.68 277.81 205.56 278.95 205.56 279.12 205.7 279.43 205.97 282.92 209.49 287.71 215.87 289.46 222.92 289.01 225.78 288.21 229.83 287.7 230.51 286.23 233.33 283.01 229.05"/><path class="cls-66" d="M283.82,221.27v2.3l-1.05,3.3.73,1.91,2.64,3.53,1.1-2.09.46-.62.77-3.91.43-2.75-1.7-6.83-4.7-6.27-3.45-3.47-.3-.26h0l3,5.37Z"/><path class="cls-68" d="M285.41,218a21.12,21.12,0,0,0-.65-3.48,38.35,38.35,0,0,0-2.58-4.41c-.11-.16-2.43-2.34-2.43-2.34l2,3.76Z"/><path class="cls-67" d="M285.34,217.63c-.47-2.08-2.13-5.72-4.2-7.24l-.06,0,.63,1.13,2.11,9.79v2.3l-1.05,3.3.73,1.91.37.51.5-.12,1.83-5.82S285.81,219.7,285.34,217.63Z"/><path class="cls-68" d="M206.59,243.43c-.65-.29-1.78.63-.59,2.61.13.23,4.77,3.34,4.9,3.54a49.05,49.05,0,0,0,4.44,5.19,7.62,7.62,0,0,0,3,1.89,68,68,0,0,0-2.32-7.37c-1.23-2.25-2.55-2.62-3-2.74C211.84,246.18,207.31,243.75,206.59,243.43Z"/><polygon class="cls-55" points="287.72 241.21 286.9 240.52 286.21 240.84 286.05 240.98 286.31 241.2 286.81 242.75 286.77 245.16 285.34 249.42 276.25 257.3 253.64 270.55 235.79 277.23 230.21 277.87 229.58 278.44 236.65 277.64 254.7 270.87 277.56 257.48 286.74 249.51 288.19 245.21 288.23 242.78 287.72 241.21"/><path class="cls-64" d="M283.46,231.63l-1.17,2.11-4.35,4.57-7,4.77-18,10.39L249,254.83l-6.2,1.13,0,1.22,6.42-1.29,4-1.4L271.48,244l7.18-4.85,4.52-4.77,1-1.73Z"/><polygon class="cls-64" points="248.79 253.75 252.83 252.34 270.98 241.86 278.15 237.01 282.68 232.25 283.23 231.27 283.02 230.96 282.54 230.23 281.79 231.59 277.44 236.17 270.4 240.93 252.4 251.32 248.54 252.68 242.79 253.85 242.82 255.07 248.79 253.75"/><path class="cls-64" d="M242.55,253.08l5.74-1.47,4-1.41,18.15-10.48,7.18-4.85,4.52-4.77.13-.23-.24-.36H282l-.75,0L276.94,234l-7,4.76-18,10.39L248,250.54l-4.56,1.16A13.35,13.35,0,0,0,242.55,253.08Z"/><path class="cls-55" d="M89.86,206.55v6.23l-1.21-.7v-5.53a25.47,25.47,0,0,0-.35-4.12c0-.27-.09-.55-.14-.83-.12-.58-.25-1.17-.4-1.75-.06-.26-.13-.5-.2-.75l-.09-.29c-.06-.24-.14-.48-.21-.72-.18-.56-.37-1.12-.58-1.68-.12-.34-.25-.68-.39-1l-.42-1c-.15-.33-.3-.66-.46-1s-.32-.67-.48-1c-.25-.49-.51-1-.78-1.45-.18-.32-.36-.64-.55-1-.29-.48-.58-.94-.88-1.4l-.3-.46c-.19-.28-.38-.56-.58-.83l-.1-.14-.6-.81h0c-.21-.27-.42-.54-.64-.8A34.83,34.83,0,0,0,78,182.69l-.76-.73-.39-.36c-.64-.58-1.3-1.12-2-1.63a25.52,25.52,0,0,0-2.48-1.66c-5-2.9-9.55-2.89-12.57-.51a6.57,6.57,0,0,0-.68.61l-.17.17a3.58,3.58,0,0,0-.26.29l-.2.24a9.64,9.64,0,0,0-1.07,1.66,7.5,7.5,0,0,0-.33.7,15.92,15.92,0,0,0-1.14,6.2v4.08l-1.2-.69v-4.79c0-11.14,7.92-15.64,17.63-10S89.9,195.41,89.86,206.55Z"/><path class="cls-8" d="M204.63,261.58c-.12-.34-.49,2.11-.63,1.78s-.27-.68-.42-1l-.45-1-.49-1c-.25-.49-.51-1-.78-1.46-.18-.32-.36-.64-.55-1s-.58-.94-.88-1.39l-.3-.47c-.19-.27-.38-.55-.58-.82a1.3,1.3,0,0,0-.1-.15l-.6-.81h0l-.64-.81a34.49,34.49,0,0,0-2.54-2.84c-.25-.25-.5-.5-.76-.73l-.38-.36c-.65-.58-1.31-1.13-2-1.64a25.4,25.4,0,0,0-2.48-1.65c-5-2.91-9.55-2.89-12.57-.51a6.57,6.57,0,0,0-.68.61c-.06,0-.11.11-.17.17a3.58,3.58,0,0,0-.26.29l-.2.24a9.55,9.55,0,0,0-1.07,1.65c-.12.23-.23.47-.33.71a15.87,15.87,0,0,0-1.14,6.19v3.87l-1.19-.47-2.31-1.46,1.91-5.3c0-12.61,7.05-20.46,18-14.12,6.91,4,13,12.34,16.53,21.13A2.22,2.22,0,0,1,204.63,261.58Z"/><path class="cls-55" d="M207.56,274.51v5.21l-1.21-.7v-4.51a26.51,26.51,0,0,0-.34-4.12l-.15-.83c-.12-.59-.25-1.17-.4-1.76-.06-.25-.13-.5-.2-.75,0-.09-.05-.19-.08-.29s-.14-.47-.22-.71c-.18-.56-.37-1.12-.58-1.69-.12-.33-.25-.67-.39-1s-.27-.68-.42-1l-.45-1-.49-1c-.25-.49-.51-1-.78-1.46-.18-.32-.36-.64-.55-1s-.58-.94-.88-1.39l-.3-.47c-.19-.27-.38-.55-.58-.82a1.3,1.3,0,0,0-.1-.15l-.6-.81h0l-.64-.81a34.49,34.49,0,0,0-2.54-2.84c-.25-.25-.5-.5-.76-.73l-.38-.36c-.65-.58-1.31-1.13-2-1.64a25.4,25.4,0,0,0-2.48-1.65c-5-2.91-9.55-2.89-12.57-.51a6.57,6.57,0,0,0-.68.61c-.06,0-.11.11-.17.17a3.58,3.58,0,0,0-.26.29l-.2.24a9.55,9.55,0,0,0-1.07,1.65c-.12.23-.23.47-.33.71a15.87,15.87,0,0,0-1.14,6.19v5.51l-1.19-.69v-6.21c0-11.15,7.92-15.64,17.62-10S207.6,263.36,207.56,274.51Z"/><path class="cls-69" d="M191.54,164.38l-2.5,1.44a43.56,43.56,0,0,0-4.12,2.71h0a1.58,1.58,0,0,0-.57,1.53l.31,1.46a.74.74,0,0,0,1,.62h0a42,42,0,0,0,4.24-2.13l2.5-1.45a43.57,43.57,0,0,0,4.13-2.7h0a1.63,1.63,0,0,0,.57-1.54l-.31-1.45a.74.74,0,0,0-1-.62h0A39.22,39.22,0,0,0,191.54,164.38Z"/><path class="cls-69" d="M192.09,166.23c0-.71-.18-2.68-.18-2.68l-2.49,0s.28,2.8.31,2.9c.14.45.75.95,1,.93C191.35,167.36,192.12,167,192.09,166.23Z"/><path class="cls-70" d="M191.7,163a1,1,0,0,1-.34,1.55,1.35,1.35,0,0,1-1.73-.35,1.05,1.05,0,0,1,.35-1.55A1.34,1.34,0,0,1,191.7,163Z"/><path class="cls-7" d="M169.47,214.1a5.08,5.08,0,0,0,1.88-.65c.55-.45.14-2.11-.8-2.7s-3.57.72-4,.5-3.11.9-3.11.9l.87,1.91Z"/><path class="cls-7" d="M164.17,207.17c2.48-.61,5,.2,5.34,3,.4,3.41-1.1,3.95-2,4.38a21.57,21.57,0,0,1-8.58,1.95c-4.28.05-4.81-2.24-4.81-3.77,0-.22,0-.2,0-.4.12-2.18.9-2.82,2.36-3.26C159.65,208.14,164.17,207.17,164.17,207.17Z"/><path class="cls-8" d="M168.53,208.59c-1.42-.44-4.36.13-7.26.76s-5.07.58-5.29,3.39.68,3.5,1.88,3.68a16.75,16.75,0,0,0,6.92-.83c3.43-1,3.91-1.56,4.45-2.51S170,209,168.53,208.59Z"/><path class="cls-61" d="M158.49,180.47l1.28-1.36s13.7-7.64,20.48-11.71l3.86-2.31,1-.46c12.84,11.66,16.38,19.65,30,39.31-7.2,4.12-11.85,6.15-11.85,6.15S187.67,217,187,217s-4.91-.53-4.91-.53-11.42-18.57-15-23.6S158.49,180.47,158.49,180.47Z"/><path class="cls-55" d="M237.6,250.67h-.28a103,103,0,0,1-12.4-.91,31.06,31.06,0,0,1-7.54-2.26l-12-5.41H203l-.09-.06-14.27-10.86,0-.13-1.39-8.6-.63-2.67,8.2-2.4,13.87-5.74,11.4-5.58c.12-.07,14.33-8.8,17.08-10.85s7-5.31,7-5.34l5.16-5.45.5-.89.59-.5.21.15c3.6,2.78,6.75,5.16,9.54,7.26,4.47,3.37,7.71,5.8,9.62,7.51,3.51,3.13,9.42,8.14,9.47,8.18l.08.1,2.69,5.19,2.11,9.85-.32,2.63-1.31-.21-1.81.52-7.84,6.19L251.16,243,240,247.84l-2.3,1.9Zm-34.41-9.22,2.36,0,12.09,5.43a29.91,29.91,0,0,0,7.38,2.22,101.26,101.26,0,0,0,12,.89l.09-.62,2.61-2.12,11.12-4.81,21.63-12.61,7.95-6.26,2-.58.8.13.23-1.86-2.09-9.7-2.61-5c-.59-.5-6.08-5.16-9.44-8.15-1.89-1.69-5.11-4.12-9.58-7.48-2.73-2.06-5.82-4.39-9.34-7.1l-.15.12-.46.86-5.23,5.51c-.08.07-4.31,3.33-7.07,5.39s-16.58,10.53-17.16,10.89l-11.45,5.61L195,218l-7.65,2.25.49,2.1,1.38,8.49Z"/><polygon class="cls-71" points="226.43 215.41 232.9 212.36 228.26 217.8 231.31 224.26 225.87 219.62 219.41 222.68 224.05 217.24 220.99 210.77 226.43 215.41"/><polygon class="cls-71" points="157.53 150.93 162.31 148.68 158.88 152.69 161.14 157.47 157.12 154.04 152.35 156.3 155.77 152.28 153.52 147.51 157.53 150.93"/><polygon class="cls-71" points="260.13 211.85 265.05 209.52 261.52 213.66 263.84 218.58 259.7 215.05 254.79 217.37 258.32 213.24 255.99 208.32 260.13 211.85"/><polygon class="cls-71" points="150.7 131.43 155.61 129.11 152.08 133.25 154.41 138.16 150.27 134.63 145.35 136.96 148.88 132.82 146.56 127.9 150.7 131.43"/><polygon class="cls-71" points="246.83 228.66 254.98 224.32 248.65 231.05 253 239.2 246.27 232.87 238.11 237.22 244.44 230.49 240.1 222.33 246.83 228.66"/><polygon class="cls-71" points="177.36 140.98 185.51 136.64 179.19 143.37 183.53 151.52 176.8 145.19 168.65 149.53 174.98 142.81 170.63 134.65 177.36 140.98"/><ellipse class="cls-72" cx="352.8" cy="225.93" rx="18.56" ry="8.18" transform="translate(-24.8 44.47) rotate(-6.97)"/><path class="cls-73" d="M334.84,224.63s-2.69-1.14-2.6-.46,0,1.2.32,1.55,4.45,3.47,6.63,3.21a4,4,0,0,0,3.36-2c.76-.95,1.44-1.83,1.91-1.85s2.73.34,4-.61a2.55,2.55,0,0,0,1.16-2.07l-2.81.53-5.38,2.45Z"/><path class="cls-73" d="M344.9,224.47s.77,1.26.88,1.53.28,2.74.29,3,.77.18,1.1.11.44-.35.44-.35a20.64,20.64,0,0,1,.65-4,7.48,7.48,0,0,0,.56-1.12A11,11,0,0,1,344.9,224.47Z"/><path class="cls-73" d="M340,223.16a6.91,6.91,0,0,0-3-.32c-1,.29-4.43.26-4.74.93s1.87,1.55,2.77,2.11,3.54,2.66,5.09,2.11,2.42-3.46,4.16-3.64,3.12.18,4.52-.73,1.26-4.9-.16-4.45S340,223.16,340,223.16Z"/><path class="cls-74" d="M348.58,215.66c-2.14.19-4.29.3-6.45.35,0,1.46-.38,3.66-4.77,6.76-1.41,1.09.74,2.16,2.06,1.79a.89.89,0,0,0,.33-.15c1.3-.83,1.73-2.06,4.89-3.38s4.51-.14,4.22-1.25A35.59,35.59,0,0,1,348.58,215.66Z"/><path class="cls-73" d="M356.29,223.77l-.32.38s-1.31,1,2.23,2.61a8,8,0,0,0,4.18.54,4.74,4.74,0,0,0,4.07-2.91c.95-1.66,1.78-1.91,1.78-1.91l2.09-1.72a4.31,4.31,0,0,0,.34-1.87c-.17-.61-2.64-.57-2.64-.57l-3.36,4.07Z"/><path class="cls-73" d="M370.7,226.22a1.24,1.24,0,0,1-.57.42,1,1,0,0,1-1.14-.36c-.16-.42-.38-3.18-.76-3.43s-1.11.31-1.11.31,1.06-3.66,2-4a1.32,1.32,0,0,1,1.5.58,6.36,6.36,0,0,0-.14,1.74C370.52,222.26,370.71,226,370.7,226.22Z"/><path class="cls-73" d="M360.86,220.67s-2.57,1.15-3.53,1.42a2,2,0,0,0-1.59,2.5c.12.86,3.27,1.56,4.78,1.89s3.58.35,4.91-2.5,2.52-4.87,3.49-5a7.18,7.18,0,0,1,1.74-.06s.06-3.32-1.9-2.85a23,23,0,0,0-3.09.93Z"/><path class="cls-75" d="M368.59,210.93c-2.25.23-4.48.51-6.7.86.46,2.19,1.62,6.52-1.64,8.9-2.72,1.53-.7,2.4.84,2.3a1.52,1.52,0,0,0,1.38-.94c.61-1.12,1.16-2.52,2.22-3.1,2.88-1.56,4.46-1.4,4.17-2.5A50.49,50.49,0,0,1,368.59,210.93Z"/><path class="cls-76" d="M347.69,177.91c0,.2,1.43,4.46,2.26,9.05a51.77,51.77,0,0,1,.52,15.12c-.64,5.2-1.22,13-1.39,14.25s-3.5,2.91-5.79,2.51-2.34-1.57-2.31-2.19-1.23-22.93-4.24-35.72C335.91,177.43,347.69,177.91,347.69,177.91Z"/><path class="cls-77" d="M360.62,174.6c2.92,4.57,6.13,9.75,7.35,16.68s1.09,21.35,1.29,23.25c.13,1.17-4.69,3.11-7,1.35l-1-4.57s-4.43-22.05-6.66-28.58S360.62,174.6,360.62,174.6Z"/><path class="cls-78" d="M371.36,130.82c.47,1.22.54.4,1.08,1.87a31.06,31.06,0,0,1,.85,9.92,67.31,67.31,0,0,0,.08,9.08,35.32,35.32,0,0,1,1.15,4.54c0,1-1.36,2.27-1.36,2.27a7.2,7.2,0,0,1-2.37.27,9.84,9.84,0,0,1-2.51-1.56.85.85,0,0,1-.57.48c-.44.11-.81-.54-.9-1s.25-2.95.18-3.65,1.65-1.85,1.84-2.62-1.59-9.4-2.79-16C365.8,133.1,371.36,130.82,371.36,130.82Z"/><path class="cls-79" d="M367.94,118.26c1.58,4.19,4.43,13.2,4.5,14.43s-5,2.95-6.06,2.19-3.43-10-3.91-11.42S367.94,118.26,367.94,118.26Z"/><path class="cls-80" d="M354.8,104.75a5.09,5.09,0,0,1,2.9-.84c1.87-.16,3.69.55,5.62,2.94s2.36,3.23,4.42,7.88c2.73,6.15,3.65,8.27,3.65,9.26,0,1.44-.11,4.37-5.85,5.15-2.93.4-3.59-3.79-3.59-3.79Z"/><path class="cls-81" d="M367.85,155.68c0-.05-.2-1.2.2-1.26a.64.64,0,0,1,.62.31,3,3,0,0,1,.58-.43c.21-.07.46.33.46.33s.41-.35.71-.26a4.22,4.22,0,0,1,.92.79s1.49-.09,1.27.57-.41,1.52-.41,1.52a6.14,6.14,0,0,1,.22,1.52,9.62,9.62,0,0,1-2.39-.27l-.92-.49s-.43-.23-.6-.3-.23-.5-.23-.5Z"/><path class="cls-82" d="M359.77,138.51c-.1.43,3.49,8.21,3.87,15.16s.93,23.06,1.37,27,.49,5.22.49,5.22-7.79,2-8.65,1.25-2.43-5.15-2.43-5.15-5.94-16.92-6.35-21.29-1-20.14.54-21.92S359.77,138.51,359.77,138.51Z"/><path class="cls-83" d="M353.18,140.35s2.87,9.2,1,15.14a17.7,17.7,0,0,1-5.79,8.75s-.77,15.81-1.31,19.14-8.6,2.39-9.32.89-4-14.58-4.94-18.19-.77-11.9.67-18.37,2-11.24,2-11.24Z"/><path class="cls-84" d="M359.94,140.79c-2.7,3.56-6.84,4.94-9.87,5.44-9,1.49-14.92-2.61-15.22-5.39-.18-1.7-.68-23.43.22-25.93s9.45-7.08,11.56-8.06a56,56,0,0,1,6.53-2.19s3.33-.79,5,0c2.71,1.31,4.71,3.56,5.18,9.14.44,5.16-1.55,13.23-1.86,16.5S359.94,140.79,359.94,140.79Z"/><path class="cls-85" d="M355.59,99c-.54.81-1.66,3.52-1.29,5.34s.76,2.49.61,2.94-1.37,2-5.2,2.35a10.12,10.12,0,0,1-4.24-.35,3.35,3.35,0,0,1-1.42-.76,32.89,32.89,0,0,0,.63-5c-.17-.74-2.75-.3-3.75-.61-1.77-.55-2.48-6-2.57-8.43s-.39-4.09.51-6.08a9,9,0,0,1,2.13-3l9.42,5.08Z"/><path class="cls-86" d="M341.06,97.44a22.1,22.1,0,0,1-1-3.29V92.53a19.43,19.43,0,0,1-1.14-2.85c-.2-.89,0-4.52,1.14-6a9,9,0,0,1,8-3.27,11.09,11.09,0,0,1,8.1,4.51c2.21,3.21,1.93,6.11,1.19,10.83-.34,2.14-.3,3.83-1.88,5.26a5.51,5.51,0,0,1-2.75,1.57s-3.18,1.06-5.56-.6c-1.48-1-2.14-4.41-2.14-4.41s-.45-2.42-2-2.76c-1.34-.29-1.47.21-1.66,1.31C341.25,96.55,341.06,97.44,341.06,97.44Z"/><path class="cls-80" d="M357.93,93.85c-.41-2.39-4-3.13-4.59-1.69s-1.2,4.22,1,5.8S357.93,93.85,357.93,93.85Z"/><path class="cls-87" d="M342,95.94c0-.46.57-.91,1.47-.23a2.13,2.13,0,0,1,.83,2.38c-.23.79-1.44,1.67-1.82,1.28s-.06-1.73-.13-1.92S342,95.94,342,95.94Z"/><path class="cls-88" d="M336.87,143.77c-.8.5,1.08,1.14-.2,1.44s-4.14-.22-6.5-3-7.67-10.3-7.82-10.34L318,131a38.19,38.19,0,0,1-2.93-3.32,34,34,0,0,1-1.42-3.52c0-.45,1,0,1,0s-.33-.43.27-.52a1,1,0,0,1,.9.3,1.08,1.08,0,0,1,1.07-.15c.68.22.91,1.28.91,1.28s.1-.81.64-.91,2.39,2.32,2.39,2.32,2.89,1.4,3.37,1.74S334,138,334.31,138.57,336.87,143.77,336.87,143.77Z"/><path class="cls-89" d="M341.55,135.31a60.71,60.71,0,0,1-1,7.15c-.5,1.57-3.1,3-4.6,2.75s-3.05-3.7-3.11-6.12c0-.83.55-5.71.67-6.23S341.55,135.31,341.55,135.31Z"/><path class="cls-80" d="M336.71,112.94a6,6,0,0,1,5.65,4.48c.76,2.37.67,8.13.64,10.75s-.58,8.86-.58,8.86c-1.38,2.88-10.17,2-10.25-2.09,0-1.74,1.06-17.33,1.56-18.84A5.21,5.21,0,0,1,336.71,112.94Z"/><path class="cls-90" d="M355,93c3.53-.79,6.11,4.83,4.71,8.57s-.92,12.94,6,11.49c-1.59,4-5.93,4.9-10.07,3.55s-7.31-8.6-4.34-13.22c.47-.74.88-1.44,1.24-2.11,1-1.94.32-4.7.68-6C353.81,93.14,355,93,355,93Z"/><path class="cls-72" d="M274.48,193.54c.84,5.94,10.28,9.52,21.1,8S314.49,194,313.65,188s-10.28-9.52-21.1-8S273.64,187.6,274.48,193.54Z"/><path class="cls-91" d="M267.12,102.7c1.7-5.43,2.23-8.2,3.46-11.31s5.94,2.06,6,3.55-4.75,12.13-6.39,13.56S267.12,102.7,267.12,102.7Z"/><path class="cls-92" d="M284.56,185.19a13.25,13.25,0,0,0,2.29,4.22c1.32,1.31,5.45,6,6,7.11a7.38,7.38,0,0,1,.45,3,6.26,6.26,0,0,1-5.16,1.65,6.56,6.56,0,0,1-5.44-3.52,16.51,16.51,0,0,0-3.12-3.42c-.81-.51-2.86-1.69-2.75-2.62s.12-3.87.54-4.91,3.58-1.92,3.58-1.92Z"/><path class="cls-92" d="M294.67,176.12c-.65.75-.35,2.38-.46,3.8a6.93,6.93,0,0,0,.05,2s.86,1.61,4.19,1.85c1.66.13,3.16,1.6,4.26,2.78a14,14,0,0,0,5.44,3.15,5.87,5.87,0,0,0,3.57-.35,2.49,2.49,0,0,0,1.3-1.87,4.48,4.48,0,0,0-.46-2.36,67,67,0,0,0-6.93-5.22c-1-.53-4.8-2.52-4.8-2.52Z"/><path class="cls-92" d="M295.17,180c-.22.09-1.25.41-1.48,1.1a8.52,8.52,0,0,0,0,2.48,6.49,6.49,0,0,0,4.22,1.74,5.49,5.49,0,0,1,2.16.49l3.24,2.71a13.6,13.6,0,0,0,6.37,2.6,3.8,3.8,0,0,0,3.61-2.36c.27-.9.29-2.08-.56-2.58C311.35,185.29,295.17,180,295.17,180Z"/><path class="cls-92" d="M292,197.81c.22.19,1.31.74,1.46,1.53a3.84,3.84,0,0,1,.12,1.37c-.06.19-1.33,1.58-4.65,1.74a8.35,8.35,0,0,1-6.29-3,29.76,29.76,0,0,0-2-2.59c-.13-.1-3.56-2.18-3.78-2.94a6,6,0,0,1,0-2.87C277.1,191,292,197.81,292,197.81Z"/><path class="cls-93" d="M303.51,154.68c-.11,5.82-.2,22.12-.16,23.67s-3.47,1.92-5.89,1.43a4.4,4.4,0,0,1-3.17-2.71s-1.43-16.07-1.89-19.46a25,25,0,0,1-.13-6Z"/><path class="cls-94" d="M287.71,158.45c-.59,8.6-.56,27.86-.93,29.73s-5,2.09-7.15,1.5a4.26,4.26,0,0,1-3.08-3.46c-.11-1-.63-18.95-.35-22.42a48,48,0,0,1,2.17-8.91Z"/><path class="cls-95" d="M306.06,85.41s2.82,11.46,3.24,13.09-2.17,2.75-3.37,2.85-2.59-1.28-2.59-1.28L300.6,87.69Z"/><path class="cls-96" d="M296,72.87c3.37-1.56,6.75,1.64,8.93,7.38,1.43,3.78,2,5.13,2.46,6.36s-3.58,3.07-6,2.41S296,72.87,296,72.87Z"/><path class="cls-97" d="M301.84,112.78s2,14.1,1.84,19.61.23,20.24-.17,22.29-6,2.06-7.79,1.5a4.68,4.68,0,0,1-3.4-4.09c-.27-2-1.39-16.37-1.55-21.35s-.83-10,2-13.17S301.84,112.78,301.84,112.78Z"/><path class="cls-98" d="M297.13,120c0,.76.82,8.66-.44,11.75s-4.9,2.46-4.9,2.46-3.24,22.33-4.26,24.77-5.17,2.13-6.77,1.78a4.14,4.14,0,0,1-3-3.46c-.17-1.55-.49-7.66-1.05-14.23a142.16,142.16,0,0,1,.17-17.87c.4-4,1.15-8.88,3.54-10.26S297.13,120,297.13,120Z"/><path class="cls-99" d="M286.2,74.32c-3.47.48-12.68,5.33-13.39,6.57s4.95,36,5.06,38.27,12.45,3.1,17.21,1.9,6.54-2.38,6.74-4.49-.27-11.36-.14-12,.25-9.66.43-15a37.68,37.68,0,0,0-.66-8.82c-.44-1.24-2.68-7.8-5.67-6.89a22.11,22.11,0,0,1-6.58.71Z"/><path class="cls-100" d="M292.13,74.47c4.06,1,4.71,6.07,5.13,9s.69,17,.85,17.61,2.84-.91,3.1-1.86-.38-12-1.14-17.58-3.6-7.34-4.74-7.82S292.13,74.47,292.13,74.47Z"/><path class="cls-101" d="M278.93,77.09c3.29-.12,9.11,4.85,10,18.48s.44,8.47.44,8.47-3.12,5.65-3.44,1.54-.23-6.73-.65-11.21-1.46-8.2-3.59-11.3-4.52-4.5-5.45-4.57A4.89,4.89,0,0,1,278.93,77.09Z"/><path class="cls-102" d="M274.8,98c1,3.21,6,7.12,8.26,5.1s1.65-4.51,2.43-6.41,12.31-5.34,15.15-8.39A10.74,10.74,0,0,1,302,92.9c0,1.64,0,8.91-.06,12.21s.36,11.14.54,12.65-5.35,3.5-8.85,4.4-8.2,1.66-11.26,1.27-4.41-2.16-4.72-3.46S274.8,98,274.8,98Z"/><path class="cls-103" d="M296.11,72.59c-.71,0-2.27,2.67-2.11,5s-.2,2.76-1.62,3.37-3.26.6-5.63-.68-4.39-4.13-4.14-4.72,1.88-3.26,2.2-4.74-1.36-6.61-1.24-7.75.88-2.88,4-3.12,7.54,6,7.54,6Z"/><path class="cls-96" d="M292.5,79.43s1-.37,1.25-1.08A4.61,4.61,0,0,0,294,77a6.45,6.45,0,0,1,.71,1.91,5.28,5.28,0,0,1-.3,3.21c-.55-.5-1.52-1.33-1.52-1.33Z"/><path class="cls-104" d="M287.81,63.84c0,.23-.73,5.91.15,7.59,1,2,6.72,4.78,7.36,4.92a5.87,5.87,0,0,0,2.84-1.18A38.68,38.68,0,0,0,300,67.56a41,41,0,0,0-.09-6.34c-.06-.57-.46-4.75-1.17-5.63s-4.52-2.38-7.26-1.67S287.81,63.84,287.81,63.84Z"/><path class="cls-96" d="M273.62,80.27c1.11-.19,5.55,1.74,6.2,7.25a56,56,0,0,1-.56,13.82c-.57,2-4.51,2.56-6.77,1.74s-4.08-2-4.2-4.32,2.7-15.2,3.5-16.67A3.88,3.88,0,0,1,273.62,80.27Z"/><path class="cls-105" d="M266.61,110.77a31.68,31.68,0,0,1-.5-3.7,20.76,20.76,0,0,1,1-4.37s2.9,3.78,3.06,5.28a24.83,24.83,0,0,1-.53,5s-1.93,2.92-2.26,1.89a4.28,4.28,0,0,0-.58-1.32Z"/><path class="cls-106" d="M267.37,112a1.38,1.38,0,0,1-1.6-.7c-.3-.64.35-1,1.12-1.15a7.29,7.29,0,0,1,1.38,0,6.25,6.25,0,0,1,1.39-.66c.25,0,.71.89.66,1.22s-.93,1-.93,1Z"/><path class="cls-107" d="M272.61,92.7c-.08-1.44,1.38-2.86,3.21-4s3.34-1.7,3.42-.26a2.32,2.32,0,0,1,0,.37h0l-1.21,2L276,92l-2,1.32L272.66,93h0A2.69,2.69,0,0,1,272.61,92.7Z"/><polygon class="cls-107" points="270.78 98.26 283.39 90.06 282.9 87.14 270.29 95.35 270.78 98.26"/><polygon class="cls-92" points="273.27 135.24 274.46 135.67 286.93 86.52 285.74 86.09 267.02 98.27 273.27 135.24"/><polygon class="cls-108" points="274.46 135.67 293.18 123.5 286.93 86.52 268.21 98.69 274.46 135.67"/><polygon class="cls-109" points="291.7 122.43 286.07 89.11 269.89 99.64 275.52 132.95 291.7 122.43"/><path class="cls-110" d="M269.33,111.92l1.14.24s1.3-.49,1.91-.63.65.89.45,1.19,1.41-.5,1.64-.48.19,1.05.12,1.15.55-.25.53.68a1.87,1.87,0,0,1-.74,1.43s-.07.79-.21,1.47-2.34,1.51-2.34,1.51a11.27,11.27,0,0,1-3-.42,2.1,2.1,0,0,1-.76-1.23l-.51-1.41a3.4,3.4,0,0,1-.26-1.38,7.12,7.12,0,0,0-.18-1.74l.42-1.6,1.25-.36.25-.12.27,1.58Z"/><path class="cls-111" d="M308.56,97.91s.32-.13.79.92a12.78,12.78,0,0,1,1.46,4.23c.07,1.5-1.05,8.65-.94,9.64a10.71,10.71,0,0,1-.27,2.68s1.35,1,1.1,2-2.48.48-2.48.48a3.7,3.7,0,0,1-2,2,31.56,31.56,0,0,1-5.16,1.17,1.23,1.23,0,0,1-1.16-.47,4.14,4.14,0,0,1-1.64,0c-.72-.18-.63-1.22-.63-1.22a5.07,5.07,0,0,1,.47-1.17c.28-.47,2.47-.85,3.23-1.5a36.59,36.59,0,0,1,3.5-2.43c.16,0-2.2-12.21-1.49-14.23A40.71,40.71,0,0,1,308.56,97.91Z"/><path class="cls-112" d="M298.91,56.43c-.14.28-1.66,1.39-7,2.2-.57.09-.57,1.74-.52,2.77a1.69,1.69,0,0,1-.5,1.32l-1.53,1.52-.2,2.46-1.32,0a2.54,2.54,0,0,0-1.36-2.77c-1.78-.87-2.23.69-1.9,1.48s.8,2.52.8,2.52l-.6,2.19s-1.54-2.86-2.43-4.94c-2.28-5.37-3.46-10.7,1.32-11.14,3.86-4.23,7.85-5,10.74-4.76s4.49,2.86,4.66,5.65a28.22,28.22,0,0,0,.39,3.23l-.34-1.21Z"/><path class="cls-113" d="M286.58,65.29c-.07-1.41-.09-2.17-1.69-1.87s-.92,2.3-.45,3.28,1.21,2.62,2.21,2.34S286.58,65.29,286.58,65.29Z"/><polygon class="cls-114" points="271.94 98.78 272.38 98.95 284.5 87.83 284.06 87.66 271.44 95.86 271.94 98.78"/><polygon class="cls-115" points="276.26 98.92 281.37 95.59 283 91.8 273.84 97.75 276.26 98.92"/><path class="cls-114" d="M278.09,92.28l.43.21s-.23.49-.39.5-.53-.56-.53-.56Z"/><path class="cls-114" d="M274.15,93.48a1.13,1.13,0,0,1,0-.32c-.08-1.45,1.38-2.87,3.21-4.06s3.34-1.7,3.41-.25a2.22,2.22,0,0,1,0,.36h0l-1.21,2-2,1.31-2,1.31-.72-.17-.08.12-.51-.26h0Z"/><path class="cls-116" d="M274.62,93.41c-.07-1.44,1.39-2.86,3.22-4s3.33-1.7,3.41-.26a2.32,2.32,0,0,1,0,.37h0l-1.21,2-2,1.31-2,1.31-1.33-.31h0A2.88,2.88,0,0,1,274.62,93.41Z"/><polygon class="cls-116" points="272.38 98.95 284.99 90.75 284.5 87.83 271.89 96.03 272.38 98.95"/><path class="cls-96" d="M283.64,73.63c-.12.23.74,2.36,2.52,4a9.62,9.62,0,0,0,6.34,1.85,6.74,6.74,0,0,1,.39,1.34l-.4,2.48a11.72,11.72,0,0,1-5.27-1,11.31,11.31,0,0,1-5.35-5.65,1.71,1.71,0,0,1-.05-.94s1.28-2.81,1.57-3.18.92-.21.92-.21Z"/><path class="cls-117" d="M283.37,101.14l-.54-3.2,2.61-1.69.54,3.19Zm0-3,.35,2.11,1.69-1.1-.36-2.11Z"/><path class="cls-117" d="M284.23,106.31l-.53-3.2,2.61-1.69.53,3.19Zm0-3,.36,2.11,1.68-1.1-.35-2.11Z"/><path class="cls-117" d="M285.1,111.48l-.54-3.2,2.61-1.69.54,3.2Zm0-3,.35,2.11,1.68-1.1-.35-2.11Z"/><path class="cls-117" d="M286,116.65l-.53-3.19,2.61-1.7.53,3.2Zm0-3,.35,2.11,1.69-1.1-.35-2.11Z"/><path class="cls-117" d="M286.83,121.82l-.54-3.19,2.61-1.7.54,3.2Zm0-2.95.35,2.11,1.68-1.1-.35-2.11Z"/><path class="cls-118" d="M274.55,105.1l6.64-4.31a1.05,1.05,0,0,0,.35-1h0c-.06-.36-.32-.53-.57-.36l-6.64,4.32a1,1,0,0,0-.35,1h0C274,105.11,274.3,105.27,274.55,105.1Z"/><path class="cls-118" d="M275.42,110.27l6.63-4.31a1,1,0,0,0,.35-1h0c-.06-.36-.31-.53-.57-.36L275.19,109a1,1,0,0,0-.35,1h0C274.9,110.28,275.16,110.44,275.42,110.27Z"/><path class="cls-118" d="M276.28,115.44l6.64-4.31a1.05,1.05,0,0,0,.35-1h0c-.06-.36-.32-.53-.57-.36l-6.64,4.32a1,1,0,0,0-.35,1h0C275.77,115.45,276,115.61,276.28,115.44Z"/><path class="cls-118" d="M277.15,120.61l6.63-4.31a1,1,0,0,0,.35-1h0c-.06-.36-.31-.52-.57-.36l-6.64,4.32a1,1,0,0,0-.35,1h0C276.63,120.62,276.89,120.78,277.15,120.61Z"/><path class="cls-118" d="M278,125.78l6.64-4.31a1.05,1.05,0,0,0,.35-1h0c-.06-.36-.32-.52-.58-.36l-6.63,4.32a1,1,0,0,0-.35,1h0C277.5,125.79,277.76,126,278,125.78Z"/><g class="cls-2"><g class="cls-2"><g class="cls-119"><g class="cls-2"><path class="cls-120" d="M190.33,114.39l-6.77-3.94c-9.94-5.77-15.84-18.1-15.88-34.91l6.76,3.94c.05,16.8,5.95,29.13,15.89,34.91Z"/></g></g></g><polygon class="cls-120" points="174.44 79.48 167.68 75.54 167.57 39.3 174.34 43.23 174.44 79.48"/><polygon class="cls-121" points="174.34 43.23 167.57 39.3 235.64 0 242.41 3.93 174.34 43.23"/><path class="cls-122" d="M242.41,3.93l.1,36.25c.07,25.07-12.91,55.25-33,76.66l-.91,1-.91.08c-20.11,1.77-33.22-13.35-33.29-38.42l-.1-36.25Z"/></g><g class="cls-2"><g class="cls-2"><g class="cls-123"><path class="cls-124" d="M196.55,108.5l-3.39-2C184.29,101.37,179,90.36,179,75.33l3.38,2c.05,15,5.29,26,14.17,31.2Z"/></g></g><polygon class="cls-124" points="182.38 77.3 179 75.33 178.91 45.74 182.3 47.71 182.38 77.3"/><polygon class="cls-125" points="182.3 47.71 178.91 45.74 235.39 13.13 238.78 15.1 182.3 47.71"/><path class="cls-126" d="M238.78,15.1l.08,29.59c.06,21.88-10.91,48-28.09,67-17.24.82-28.33-12.54-28.39-34.42l-.08-29.59Z"/></g><g class="cls-2"><path class="cls-125" d="M236.87,31.41,241.41,34l-.26-.13a4.64,4.64,0,0,0-4.2.57l-4.54-2.64a4.64,4.64,0,0,1,4.2-.57Z"/><path class="cls-125" d="M211.76,75l-4.54-2.64a1.13,1.13,0,0,0,1.05-.14A3.14,3.14,0,0,0,209.41,71L214,73.58a3.06,3.06,0,0,1-1.15,1.25A1.11,1.11,0,0,1,211.76,75Z"/><polygon class="cls-125" points="213.95 73.58 209.41 70.95 227.76 36.9 232.3 39.54 213.95 73.58"/><path class="cls-125" d="M232.3,39.54l-4.54-2.64a12.94,12.94,0,0,1,4.65-5.06L237,34.48A12.87,12.87,0,0,0,232.3,39.54Z"/><polygon class="cls-125" points="202.64 70.78 198.1 68.14 207.22 72.33 211.76 74.97 202.64 70.78"/><path class="cls-125" d="M194,86.19l-4.54-2.64c-2.33-1.36-2.45-5.64-.22-9.78a12.87,12.87,0,0,1,4.65-5.06,4.61,4.61,0,0,1,4.2-.57l4.54,2.63a4.64,4.64,0,0,0-4.2.57,12.9,12.9,0,0,0-4.65,5.07C191.56,80.55,191.68,84.83,194,86.19Z"/><path class="cls-127" d="M237,34.48a4.64,4.64,0,0,1,4.2-.57c2.58,1.19,2.79,5.63.48,9.93l-22.09,41a17.6,17.6,0,0,1-6.28,6.84c-2,1.17-4.07,1.51-5.7.77l-13.3-6.12c-2.57-1.18-2.78-5.62-.47-9.91a12.9,12.9,0,0,1,4.65-5.07,4.64,4.64,0,0,1,4.2-.57l9.12,4.2a1.11,1.11,0,0,0,1-.14A3.06,3.06,0,0,0,214,73.58l18.35-34A12.87,12.87,0,0,1,237,34.48Z"/></g></g></g></svg>