<svg xmlns="http://www.w3.org/2000/svg" xmlns:xlink="http://www.w3.org/1999/xlink" viewBox="0 0 320.92 230.4"><defs><style>.cls-1,.cls-26{isolation:isolate;}.cls-2{fill:#e8f0ff;mix-blend-mode:multiply;}.cls-3{fill:url(#linear-gradient);}.cls-4{fill:#ccd3e0;}.cls-5{fill:#bac1cc;}.cls-6{fill:#1a2e35;}.cls-10,.cls-11,.cls-13,.cls-20,.cls-21,.cls-7,.cls-8,.cls-9{fill:#fff;}.cls-25,.cls-7{opacity:0.4;}.cls-8{opacity:0.7;}.cls-14,.cls-9{opacity:0.1;}.cls-10,.cls-12,.cls-28{opacity:0.3;}.cls-11,.cls-16,.cls-24{opacity:0.5;}.cls-15{fill:#007cff;}.cls-17{opacity:0.9;}.cls-18,.cls-22,.cls-26{opacity:0.2;}.cls-19,.cls-21{opacity:0.6;}.cls-20{opacity:0.8;}.cls-23{fill:#ffc3bd;}.cls-27{fill:#ff847f;}</style><linearGradient id="linear-gradient" y1="123.87" x2="320.92" y2="123.87" gradientUnits="userSpaceOnUse"><stop offset="0.45" stop-color="#676a78"/><stop offset="0.55" stop-color="#8b8e9e"/></linearGradient></defs><g class="cls-1"><g id="Layer_1" data-name="Layer 1"><path class="cls-2" d="M147.18,49.83l-139,80.26c-12.11,7-10.58,19.32,3.41,27.4l114.7,66.22c14,8.08,35.35,9,47.46,2l139-80.26c12.12-7,10.58-19.32-3.41-27.4L194.64,51.8C180.65,43.72,159.3,42.84,147.18,49.83Z"/><path class="cls-3" d="M320.92,104.49l-10.54.28c-.34-.22-.68-.43-1-.63L194.64,37.92c-14-8.08-35.34-9-47.46-2L14.56,112.52,0,112.9v15.17H0c0,5.4,3.9,11.11,11.57,15.54l114.7,66.22c14,8.08,35.35,9,47.46,2l139-80.26c5.52-3.18,8.19-7.47,8.16-12h0Z"/><path class="cls-4" d="M147.18,20.8l-139,80.26c-12.11,7-10.58,19.32,3.41,27.4l114.7,66.22c14,8.08,35.35,9,47.46,2l139-80.26c12.12-7,10.58-19.32-3.41-27.4L194.64,22.77C180.65,14.69,159.3,13.81,147.18,20.8Z"/><ellipse id="_Path_" data-name="&lt;Path&gt;" class="cls-5" cx="154.38" cy="114.93" rx="129.41" ry="7.56"/><path class="cls-6" d="M145.08,55.74,283.49,66.07a6.53,6.53,0,0,0,7-6l2.08-27.86a9.67,9.67,0,0,0-.8-4.66l-5.32-12.14a11.94,11.94,0,0,0-10.05-7.11L215.68,3.74a40.86,40.86,0,0,0-25.6,6.69L174.64,20.69l-27.27,3.08a11.08,11.08,0,0,0-8.69,6.13L136,35.43a11.15,11.15,0,0,0-1.12,4.84v4.41A11.07,11.07,0,0,0,145.08,55.74Z"/><path class="cls-6" d="M290.46,60.27l-3.23-.18a21.15,21.15,0,0,0-40.58-2.28L182.11,54.2a21.16,21.16,0,0,0-41.53-2.33l-3.24-.18a11.17,11.17,0,0,0,2.81,2.45v0c.11.06.22.11.33.18l.5.26.55.26.61.24.51.17c.25.08.5.14.76.2a3,3,0,0,0,.43.1,10,10,0,0,0,1.24.17l37.14,2.77,63.3,4.72,38,2.84c.21,0,.42,0,.62,0h.21c.14,0,.27,0,.4,0l.24,0a2.25,2.25,0,0,0,.36-.06l.25-.06c.11,0,.22,0,.33-.09l.24-.08.32-.12.23-.1.32-.16.2-.11.34-.21.15-.1.07,0h0A6.52,6.52,0,0,0,290.46,60.27Z"/><path class="cls-7" d="M290.46,60.27l-3.23-.18a21.15,21.15,0,0,0-40.58-2.28L182.11,54.2a21.16,21.16,0,0,0-41.53-2.33l-3.24-.18a11.17,11.17,0,0,0,2.81,2.45v0c.11.06.22.11.33.18l.5.26.55.26.61.24.51.17c.25.08.5.14.76.2a3,3,0,0,0,.43.1,10,10,0,0,0,1.24.17l37.14,2.77,63.3,4.72,38,2.84c.21,0,.42,0,.62,0h.21c.14,0,.27,0,.4,0l.24,0a2.25,2.25,0,0,0,.36-.06l.25-.06c.11,0,.22,0,.33-.09l.24-.08.32-.12.23-.1.32-.16.2-.11.34-.21.15-.1.07,0h0A6.52,6.52,0,0,0,290.46,60.27Z"/><path class="cls-8" d="M155.23,25.32l.58-.62-8.22.93a9.17,9.17,0,0,0-7.23,5.1L138.74,34l4.12-1.14A26.57,26.57,0,0,0,155.23,25.32Z"/><path class="cls-8" d="M139.29,46c-.13,1.74-.92,3.11-1.76,3s-1.41-1.52-1.28-3.27.91-3.1,1.75-3S139.42,44.26,139.29,46Z"/><rect class="cls-9" x="271.43" y="32.17" width="6.82" height="6.82" rx="1.61" transform="translate(3.41 -20.35) rotate(4.27)"/><path class="cls-6" d="M258.21,14.14a8,8,0,0,0-6.5-4.33L215.43,7.1c-7.59-.57-10.7,1.5-17.52,6l-11.58,7.68a2.08,2.08,0,0,0,1.06,3.81l77.77,3.25Z"/><path class="cls-10" d="M258.21,14.14a8,8,0,0,0-6.5-4.33L215.43,7.1c-7.59-.57-10.7,1.5-17.52,6l-11.58,7.68a2.08,2.08,0,0,0,1.06,3.81l77.77,3.25Z"/><path class="cls-6" d="M291.76,27.52l-5.32-12.14a12.14,12.14,0,0,0-2-3.13h-.08L262.8,10.63l11.77,15a7.51,7.51,0,0,0,5.61,2.88l12.13.71A8.44,8.44,0,0,0,291.76,27.52Z"/><path class="cls-10" d="M291.76,27.52l-5.32-12.14a12.14,12.14,0,0,0-2-3.13h-.08L262.8,10.63l11.77,15a7.51,7.51,0,0,0,5.61,2.88l12.13.71A8.44,8.44,0,0,0,291.76,27.52Z"/><path class="cls-6" d="M179.82,20,202.12,5a41.16,41.16,0,0,0-12,5.42L174.64,20.69l2,.12A5.15,5.15,0,0,0,179.82,20Z"/><path class="cls-10" d="M179.82,20,202.12,5a41.16,41.16,0,0,0-12,5.42L174.64,20.69l2,.12A5.15,5.15,0,0,0,179.82,20Z"/><rect class="cls-8" x="213.32" y="29.31" width="8.6" height="1.95" rx="0.87" transform="translate(2.86 -16.11) rotate(4.27)"/><rect class="cls-8" x="256.9" y="31.15" width="8.6" height="1.95" rx="0.87" transform="translate(3.11 -19.34) rotate(4.27)"/><path class="cls-8" d="M287.92,33.8l3.9,8.31.74-9.93a8,8,0,0,0,0-.85l-2.81-.2A1.88,1.88,0,0,0,287.92,33.8Z"/><path class="cls-6" d="M214.58,3.68a18.58,18.58,0,0,1,8.83-1.36l17.25,1.53-.32,1.73,2.25.17.31-1.7,22.71,2A18.65,18.65,0,0,1,272.36,8l4,.3.66.07a20.89,20.89,0,0,0-11.24-4.52L223.61.08a21,21,0,0,0-13.54,3.47l-.27.19A42.3,42.3,0,0,1,214.58,3.68Z"/><path class="cls-11" d="M214.58,3.68a18.58,18.58,0,0,1,8.83-1.36l17.25,1.53-.32,1.73,2.25.17.31-1.7,22.71,2A18.65,18.65,0,0,1,272.36,8l4,.3.66.07a20.89,20.89,0,0,0-11.24-4.52L223.61.08a21,21,0,0,0-13.54,3.47l-.27.19A42.3,42.3,0,0,1,214.58,3.68Z"/><g class="cls-12"><path class="cls-13" d="M182.81,26.54q-.67,9-1.34,18.07a.45.45,0,0,0,.89.06l1.35-18.07a.45.45,0,0,0-.9-.06Z"/></g><g class="cls-12"><path class="cls-13" d="M224,28.86q-2.06,12.31-4.09,24.62c-.1.57.8.63.89.06q2.05-12.3,4.09-24.61c.1-.57-.8-.64-.89-.07Z"/></g><g class="cls-12"><path class="cls-13" d="M267.42,31.35q-.66,4.95-1.3,9.92c-.08.57.82.64.89.07q.66-5,1.3-9.93c.08-.57-.82-.63-.89-.06Z"/></g><path class="cls-9" d="M246.09,27.08l7.63-16.86a8,8,0,0,0-2-.41l-1.44-.11-7.79,17.23Z"/><g class="cls-14"><path class="cls-13" d="M223.21,26.13l4.11-9.1L228,8,215.43,7.1,214.22,7,205.91,25.4Z"/><path class="cls-13" d="M258.21,14.14a8,8,0,0,0-2.38-2.79l-7.16,15.84,16.49.69Z"/></g><polygon class="cls-6" points="222.19 26.08 227.47 26.3 230.8 8.25 225.55 7.85 222.19 26.08"/><circle class="cls-6" cx="161.12" cy="56.94" r="15.11" transform="translate(1.88 118.93) rotate(-40.73)"/><circle class="cls-11" cx="161.12" cy="56.94" r="9.44" transform="translate(25.86 161.37) rotate(-57.13)"/><g class="cls-12"><path d="M162.48,54.23h0a.77.77,0,0,0,.79,0l2.8-2a.77.77,0,0,0,.06-1.21,7.87,7.87,0,0,0-3.21-1.62.78.78,0,0,0-.94.77l.07,3.43A.76.76,0,0,0,162.48,54.23Z"/><path d="M160.17,54.06h0a.78.78,0,0,0,.52-.6l.57-3.38a.77.77,0,0,0-.81-.9A7.66,7.66,0,0,0,157,50.31a.76.76,0,0,0-.11,1.2l2.47,2.38A.75.75,0,0,0,160.17,54.06Z"/><path d="M158.41,55.58h0a.75.75,0,0,0-.06-.79l-2-2.8a.77.77,0,0,0-1.21-.06,7.75,7.75,0,0,0-1.62,3.21.77.77,0,0,0,.77.94l3.43-.07A.74.74,0,0,0,158.41,55.58Z"/><path d="M166.55,52.74l-2.38,2.47A.77.77,0,0,0,164,56h0a.75.75,0,0,0,.6.51l3.38.58a.78.78,0,0,0,.9-.82,7.58,7.58,0,0,0-1.13-3.41A.76.76,0,0,0,166.55,52.74Z"/><path d="M162.07,59.82h0a.77.77,0,0,0-.51.6L161,63.8a.78.78,0,0,0,.82.9,7.71,7.71,0,0,0,3.41-1.13.76.76,0,0,0,.12-1.2L162.85,60A.77.77,0,0,0,162.07,59.82Z"/><path d="M158.24,57.89h0a.78.78,0,0,0-.6-.52l-3.37-.57a.78.78,0,0,0-.91.81A7.92,7.92,0,0,0,154.49,61a.76.76,0,0,0,1.2.11l2.38-2.47A.75.75,0,0,0,158.24,57.89Z"/><path d="M163.83,58.3h0a.77.77,0,0,0,0,.79l2,2.79a.77.77,0,0,0,1.21.07,7.87,7.87,0,0,0,1.62-3.21.78.78,0,0,0-.77-.94l-3.43.06A.78.78,0,0,0,163.83,58.3Z"/><path d="M159.76,59.65h0a.77.77,0,0,0-.8.06l-2.79,2a.77.77,0,0,0-.07,1.21,7.75,7.75,0,0,0,3.21,1.62.77.77,0,0,0,.94-.77l-.06-3.42A.77.77,0,0,0,159.76,59.65Z"/></g><circle class="cls-6" cx="266.62" cy="64.81" r="15.11" transform="translate(22.3 189.68) rotate(-40.73)"/><circle class="cls-11" cx="266.62" cy="64.81" r="9.44" transform="translate(-6.75 88.32) rotate(-18.58)"/><g class="cls-12"><path d="M268,62.1h0a.77.77,0,0,0,.79-.05l2.8-2a.77.77,0,0,0,.06-1.21,7.81,7.81,0,0,0-3.21-1.62.77.77,0,0,0-.93.77l.06,3.43A.79.79,0,0,0,268,62.1Z"/><path d="M265.67,61.93h0a.78.78,0,0,0,.52-.6l.57-3.38a.76.76,0,0,0-.81-.9,7.58,7.58,0,0,0-3.41,1.13.76.76,0,0,0-.12,1.2l2.47,2.38A.77.77,0,0,0,265.67,61.93Z"/><path d="M263.91,63.45h0a.77.77,0,0,0-.05-.79l-2-2.8a.77.77,0,0,0-1.21-.06A7.75,7.75,0,0,0,259,63a.78.78,0,0,0,.77.94l3.43-.07A.77.77,0,0,0,263.91,63.45Z"/><path d="M272,60.61l-2.37,2.47a.78.78,0,0,0-.18.78h0a.74.74,0,0,0,.59.51l3.38.58a.77.77,0,0,0,.9-.82,7.69,7.69,0,0,0-1.12-3.41A.77.77,0,0,0,272,60.61Z"/><path d="M267.57,67.69h0a.78.78,0,0,0-.52.6l-.57,3.38a.76.76,0,0,0,.81.9,7.92,7.92,0,0,0,3.42-1.13.76.76,0,0,0,.11-1.2l-2.47-2.38A.75.75,0,0,0,267.57,67.69Z"/><path d="M263.74,65.76h0a.75.75,0,0,0-.59-.52l-3.38-.57a.77.77,0,0,0-.9.81A7.78,7.78,0,0,0,260,68.89a.77.77,0,0,0,1.21.11l2.38-2.47A.77.77,0,0,0,263.74,65.76Z"/><path d="M269.32,66.17h0a.77.77,0,0,0,.06.8l2,2.79a.77.77,0,0,0,1.21.07,7.75,7.75,0,0,0,1.62-3.21.77.77,0,0,0-.77-.94l-3.43.06A.78.78,0,0,0,269.32,66.17Z"/><path d="M265.26,67.52h0a.75.75,0,0,0-.79.06l-2.8,2a.77.77,0,0,0-.06,1.21,7.75,7.75,0,0,0,3.21,1.62.76.76,0,0,0,.93-.77l-.06-3.42A.78.78,0,0,0,265.26,67.52Z"/></g><path class="cls-15" d="M157.84,63.55l.53.24a.53.53,0,0,1,.22.78l-5.19,7.79-1.9-1,5.69-7.65A.54.54,0,0,1,157.84,63.55Z"/><path class="cls-15" d="M163.06,63.94l-.56.16a.53.53,0,0,0-.34.74l4,8.47,2-.69-4.49-8.42A.52.52,0,0,0,163.06,63.94Z"/><g class="cls-16"><path class="cls-13" d="M157.84,63.55l.53.24a.53.53,0,0,1,.22.78l-5.19,7.79-1.9-1,5.69-7.65A.54.54,0,0,1,157.84,63.55Z"/><path class="cls-13" d="M163.06,63.94l-.56.16a.53.53,0,0,0-.34.74l4,8.47,2-.69-4.49-8.42A.52.52,0,0,0,163.06,63.94Z"/></g><path class="cls-15" d="M263.66,71.45l.53.24a.53.53,0,0,1,.23.78l-5.2,7.78-1.9-1L263,71.61A.53.53,0,0,1,263.66,71.45Z"/><path class="cls-15" d="M268.88,71.84l-.56.15a.53.53,0,0,0-.34.74l4,8.47,2-.69L269.5,72.1A.54.54,0,0,0,268.88,71.84Z"/><g class="cls-16"><path class="cls-13" d="M263.66,71.45l.53.24a.53.53,0,0,1,.23.78l-5.2,7.78-1.9-1L263,71.61A.53.53,0,0,1,263.66,71.45Z"/><path class="cls-13" d="M268.88,71.84l-.56.15a.53.53,0,0,0-.34.74l4,8.47,2-.69L269.5,72.1A.54.54,0,0,0,268.88,71.84Z"/></g><rect class="cls-6" x="180.12" y="72.01" width="65.56" height="22.79"/><rect class="cls-10" x="180.12" y="72.01" width="65.56" height="22.79"/><polygon class="cls-6" points="106.31 78.07 106.31 66.75 62.89 66.75 62.89 94.81 122.48 94.81 122.48 78.07 106.31 78.07"/><polygon class="cls-10" points="106.31 78.07 106.31 66.75 62.89 66.75 62.89 94.81 122.48 94.81 122.48 78.07 106.31 78.07"/><circle class="cls-6" cx="220.06" cy="96.86" r="20.15"/><circle class="cls-11" cx="220.06" cy="96.86" r="11.77" transform="translate(-4.04 183.98) rotate(-45)"/><g class="cls-16"><path class="cls-13" d="M212.66,95.34a7.5,7.5,0,0,1,1.1-2.63,1,1,0,0,0-.06-1.18h0a1,1,0,0,0-1.58.08A9.57,9.57,0,0,0,210.74,95a1,1,0,0,0,1,1.18h0A1,1,0,0,0,212.66,95.34Z"/><path class="cls-13" d="M215.91,90.55a7.64,7.64,0,0,1,2.63-1.09,1,1,0,0,0,.79-.87h0a1,1,0,0,0-1.18-1,9.38,9.38,0,0,0-3.34,1.38,1,1,0,0,0-.08,1.58h0A1,1,0,0,0,215.91,90.55Z"/><path class="cls-13" d="M226.42,91.53h0a1,1,0,0,0,0,1.18,7.3,7.3,0,0,1,1.09,2.63,1,1,0,0,0,.87.79h0A1,1,0,0,0,229.39,95,9.59,9.59,0,0,0,228,91.61,1,1,0,0,0,226.42,91.53Z"/><path class="cls-13" d="M221.58,89.46a7.61,7.61,0,0,1,2.64,1.09,1,1,0,0,0,1.17,0h0a1,1,0,0,0-.08-1.58A9.38,9.38,0,0,0,222,87.54a1,1,0,0,0-1.18,1h0A1,1,0,0,0,221.58,89.46Z"/><path class="cls-13" d="M218.54,104.26a7.64,7.64,0,0,1-2.63-1.09,1,1,0,0,0-1.18,0h0a1,1,0,0,0,.08,1.58,9.38,9.38,0,0,0,3.34,1.38,1,1,0,0,0,1.18-1.05h0A1,1,0,0,0,218.54,104.26Z"/><path class="cls-13" d="M227.46,98.38a7.3,7.3,0,0,1-1.09,2.63,1,1,0,0,0,0,1.18h0a1,1,0,0,0,1.58-.08,9.59,9.59,0,0,0,1.39-3.34,1,1,0,0,0-1.06-1.18h0A1,1,0,0,0,227.46,98.38Z"/><path class="cls-13" d="M213.76,101a7.5,7.5,0,0,1-1.1-2.63,1,1,0,0,0-.87-.79h0a1,1,0,0,0-1,1.18,9.57,9.57,0,0,0,1.38,3.34,1,1,0,0,0,1.58.08h0A1,1,0,0,0,213.76,101Z"/><path class="cls-13" d="M224.22,103.17a7.61,7.61,0,0,1-2.64,1.09,1,1,0,0,0-.79.87h0a1,1,0,0,0,1.18,1.05,9.38,9.38,0,0,0,3.34-1.38,1,1,0,0,0,.08-1.58h0A1,1,0,0,0,224.22,103.17Z"/></g><path class="cls-15" d="M243.53,69.68H132.21V40.37L128,10.84H109.62V72l8.69,25.6H197.1c0-.25,0-.49,0-.73a23,23,0,0,1,46,0c0,.24,0,.48,0,.73h4.36L296,95.37V87.75Z"/><g class="cls-17"><rect class="cls-13" x="131.98" y="72.8" width="3.04" height="3.04"/><rect class="cls-13" x="135.02" y="75.74" width="3.04" height="3.04"/><rect class="cls-13" x="138.06" y="72.8" width="3.04" height="3.04"/><rect class="cls-13" x="141.11" y="75.74" width="3.04" height="3.04"/><rect class="cls-13" x="144.15" y="72.8" width="3.04" height="3.04"/><rect class="cls-13" x="147.19" y="75.74" width="3.04" height="3.04"/><rect class="cls-13" x="150.23" y="72.8" width="3.04" height="3.04"/><rect class="cls-13" x="153.28" y="75.74" width="3.04" height="3.04"/><rect class="cls-13" x="156.32" y="72.8" width="3.04" height="3.04"/><rect class="cls-13" x="159.36" y="75.74" width="3.04" height="3.04"/><rect class="cls-13" x="162.41" y="72.8" width="3.04" height="3.04"/><rect class="cls-13" x="165.45" y="75.74" width="3.04" height="3.04"/><rect class="cls-13" x="168.49" y="72.8" width="3.04" height="3.04"/><rect class="cls-13" x="171.54" y="75.74" width="3.04" height="3.04"/><rect class="cls-13" x="174.58" y="72.8" width="3.04" height="3.04"/><rect class="cls-13" x="177.62" y="75.74" width="3.04" height="3.04"/><rect class="cls-13" x="180.67" y="72.8" width="3.04" height="3.04"/><rect class="cls-13" x="183.71" y="75.74" width="3.04" height="3.04"/><rect class="cls-13" x="186.75" y="72.8" width="3.04" height="3.04"/><rect class="cls-13" x="189.8" y="75.74" width="3.04" height="3.04"/><rect class="cls-13" x="192.84" y="72.8" width="3.04" height="3.04"/><rect class="cls-13" x="195.88" y="75.74" width="3.04" height="3.04"/><rect class="cls-13" x="198.93" y="72.8" width="3.04" height="3.04"/><rect class="cls-13" x="233.92" y="72.8" width="3.04" height="3.04"/><rect class="cls-13" x="236.96" y="75.74" width="3.04" height="3.04"/><rect class="cls-13" x="240" y="72.8" width="3.04" height="3.04"/><rect class="cls-13" x="243.05" y="75.74" width="3.04" height="3.04"/><rect class="cls-13" x="246.09" y="72.8" width="3.04" height="3.04"/><rect class="cls-13" x="249.13" y="75.74" width="3.04" height="3.04"/></g><path class="cls-11" d="M154.46,81.69h6.37a1.71,1.71,0,0,1,1.71,1.71v6.07a1.71,1.71,0,0,1-1.71,1.71h-6.37a1.41,1.41,0,0,1-1.41-1.41V83.09a1.41,1.41,0,0,1,1.41-1.41Z"/><path class="cls-18" d="M160.92,86.43a1,1,0,1,0-1,1A1,1,0,0,0,160.92,86.43Z"/><circle class="cls-6" cx="90.17" cy="96.86" r="20.15"/><circle class="cls-11" cx="90.17" cy="96.86" r="11.77" transform="translate(-42.08 92.13) rotate(-45)"/><g class="cls-16"><path class="cls-13" d="M82.77,95.34a7.3,7.3,0,0,1,1.09-2.63,1,1,0,0,0,0-1.18h0a1,1,0,0,0-1.58.08A9.59,9.59,0,0,0,80.84,95a1,1,0,0,0,1.06,1.18h0A1,1,0,0,0,82.77,95.34Z"/><path class="cls-13" d="M86,90.55a7.48,7.48,0,0,1,2.63-1.09,1,1,0,0,0,.79-.87h0a1,1,0,0,0-1.18-1,9.38,9.38,0,0,0-3.34,1.38,1,1,0,0,0-.08,1.58h0A1,1,0,0,0,86,90.55Z"/><path class="cls-13" d="M96.53,91.53h0a1,1,0,0,0,0,1.18,7.48,7.48,0,0,1,1.09,2.63,1,1,0,0,0,.87.79h0a1,1,0,0,0,1-1.18,9.38,9.38,0,0,0-1.38-3.34A1,1,0,0,0,96.53,91.53Z"/><path class="cls-13" d="M91.69,89.46a7.64,7.64,0,0,1,2.63,1.09,1,1,0,0,0,1.18,0h0a1,1,0,0,0-.08-1.58,9.38,9.38,0,0,0-3.34-1.38,1,1,0,0,0-1.18,1h0A1,1,0,0,0,91.69,89.46Z"/><path class="cls-13" d="M88.65,104.26A7.48,7.48,0,0,1,86,103.17a1,1,0,0,0-1.18,0h0a1,1,0,0,0,.08,1.58,9.38,9.38,0,0,0,3.34,1.38,1,1,0,0,0,1.18-1.05h0A1,1,0,0,0,88.65,104.26Z"/><path class="cls-13" d="M97.57,98.38A7.48,7.48,0,0,1,96.48,101a1,1,0,0,0,0,1.18h0a1,1,0,0,0,1.58-.08,9.38,9.38,0,0,0,1.38-3.34,1,1,0,0,0-1-1.18h0A1,1,0,0,0,97.57,98.38Z"/><path class="cls-13" d="M83.86,101a7.3,7.3,0,0,1-1.09-2.63,1,1,0,0,0-.87-.79h0a1,1,0,0,0-1.06,1.18,9.59,9.59,0,0,0,1.39,3.34,1,1,0,0,0,1.58.08h0A1,1,0,0,0,83.86,101Z"/><path class="cls-13" d="M94.32,103.17a7.64,7.64,0,0,1-2.63,1.09,1,1,0,0,0-.79.87h0a1,1,0,0,0,1.18,1.05,9.38,9.38,0,0,0,3.34-1.38,1,1,0,0,0,.08-1.58h0A1,1,0,0,0,94.32,103.17Z"/></g><rect class="cls-6" x="38.97" y="46.36" width="1.22" height="6.46"/><rect class="cls-19" x="38.97" y="46.36" width="1.22" height="6.46"/><path class="cls-15" d="M71,80.22l7.64-5.9,7.59-1.52h21.4V17.22a6.37,6.37,0,0,0-6.37-6.38H63.72a10.86,10.86,0,0,0-10.26,7.29l-8.58,24.6A33.09,33.09,0,0,0,43,53.62V94.81H61Z"/><path class="cls-15" d="M43.06,60.7h.42a2.22,2.22,0,0,1,2.22,2.22v7.67a2.22,2.22,0,0,1-2.22,2.22h-.42a1.88,1.88,0,0,1-1.88-1.88V62.58A1.88,1.88,0,0,1,43.06,60.7Z"/><path class="cls-20" d="M43.06,60.7h.42a2.22,2.22,0,0,1,2.22,2.22v7.67a2.22,2.22,0,0,1-2.22,2.22h-.42a1.88,1.88,0,0,1-1.88-1.88V62.58A1.88,1.88,0,0,1,43.06,60.7Z"/><rect class="cls-6" x="92.59" y="55.4" width="2.37" height="8.28" rx="1.14"/><path class="cls-15" d="M43,56.17l-3.67-1.64a1.19,1.19,0,0,1-.7-1.09V52.5a1.18,1.18,0,0,1,1.18-1.18h3.73a1.31,1.31,0,0,1,1.31,1.31V55A1.32,1.32,0,0,1,43,56.17Z"/><path class="cls-6" d="M91.79,41.07h1.48a4,4,0,0,0,4-4V17.22a1.52,1.52,0,0,0-1.51-1.52h-32a6,6,0,0,0-5.67,4l-8.58,24.6c-.11.33-.22.7-.32,1.11a5,5,0,0,0,6.56,6l23.48-8.24A38.08,38.08,0,0,1,91.79,41.07Z"/><path class="cls-11" d="M91.79,41.07h1.48a4,4,0,0,0,4-4V17.22a1.52,1.52,0,0,0-1.51-1.52h-32a6,6,0,0,0-5.67,4l-8.58,24.6c-.11.33-.22.7-.32,1.11a5,5,0,0,0,6.56,6l23.48-8.24A38.08,38.08,0,0,1,91.79,41.07Z"/><path class="cls-15" d="M106.91,70H86.52A21.57,21.57,0,0,0,67.8,80.88L59.85,94.81h6.4l6.38-11.17a16,16,0,0,1,13.89-8.06h20.39a1.47,1.47,0,0,0,1.46-1.46V71.48A1.46,1.46,0,0,0,106.91,70Z"/><path class="cls-7" d="M106.91,70H86.52A21.57,21.57,0,0,0,67.8,80.88L59.85,94.81h6.4l6.38-11.17a16,16,0,0,1,13.89-8.06h20.39a1.47,1.47,0,0,0,1.46-1.46V71.48A1.46,1.46,0,0,0,106.91,70Z"/><rect class="cls-6" x="40.14" y="83.8" width="7.93" height="7.93" rx="1.34"/><rect class="cls-8" x="40.14" y="83.8" width="7.93" height="7.93" rx="1.34"/><path class="cls-6" d="M63.24,97.59H40.57a1.47,1.47,0,0,1-1.47-1.47V92.19a1.47,1.47,0,0,1,1.47-1.47H67.21a1,1,0,0,1,.85,1.51l-2.44,4A2.8,2.8,0,0,1,63.24,97.59Z"/><path class="cls-21" d="M63.24,97.59H40.57a1.47,1.47,0,0,1-1.47-1.47V92.19a1.47,1.47,0,0,1,1.47-1.47H67.21a1,1,0,0,1,.85,1.51l-2.44,4A2.8,2.8,0,0,1,63.24,97.59Z"/><path class="cls-6" d="M39.42,34.12h.15a1.22,1.22,0,0,1,1.22,1.22V46.8A1.22,1.22,0,0,1,39.57,48h-.15A2.45,2.45,0,0,1,37,45.56v-9a2.45,2.45,0,0,1,2.45-2.45Z"/><g class="cls-12"><path d="M48.47,53.1V82.9a.52.52,0,0,0,1,0V53.1a.52.52,0,0,0-1,0Z"/></g><g class="cls-12"><path d="M96.73,42.75V67.44a.52.52,0,0,0,1,0V42.75a.52.52,0,0,0-1,0Z"/></g><g class="cls-22"><polygon class="cls-13" points="72.22 15.7 68.9 15.7 55.86 51.4 59.67 50.06 72.22 15.7"/><polygon class="cls-13" points="84.94 15.7 74.84 15.7 62.67 49.01 74.25 44.94 84.94 15.7"/></g><polygon class="cls-23" points="136.78 109.17 138.41 115.09 141.06 115.09 140.07 108.44 136.78 109.17"/><path class="cls-6" d="M141.13,114.54l-3,.06a.29.29,0,0,0-.27.23l-.58,2.83a.47.47,0,0,0,.36.55h.1c1.25,0,2.36-.14,3.91-.16,1.84,0,1.38.19,3.54.18,1.3,0,1.51-1.48.95-1.55a6.15,6.15,0,0,1-4.26-1.91A1.07,1.07,0,0,0,141.13,114.54Z"/><polygon class="cls-18" points="140.81 113.42 140.07 108.44 136.78 109.17 138 113.61 140.81 113.42"/><path class="cls-6" d="M133.9,57.23l7.16,54.21-4,.39s-4.77-17.19-5.68-23c-.16-1-.47-3.2-.66-4.25-.22-1.21-.79-3.5-1.15-4.68-.7-2.24-2.61-9-2.61-9l-2.88-11.7Z"/><path class="cls-24" d="M125.78,61.93l-.49,2.25,1.64,6.67s.86,3.05,1.64,5.73c.35-11.52-1.55-14.65-1.55-14.65Z"/><polygon class="cls-15" points="136.16 110.68 136.69 112.7 141.56 112.17 141.44 110.03 136.16 110.68"/><polygon class="cls-23" points="121.3 108.89 121.99 114.99 124.62 115.02 124.67 108.68 121.3 108.89"/><polygon class="cls-18" points="124.67 108.68 121.3 108.89 121.84 113.66 124.63 113.64 124.67 108.68"/><path class="cls-6" d="M128.14,57.83l-3,54.3-4,.05s-1.62-17.76-1.47-23.7c0-1.06.1-3.23.1-4.3,0-1.23-.15-3.58-.3-4.8-.28-2.33-1.07-9.67-1.28-12-.27-3-.42-9.33-.42-9.33Z"/><polygon class="cls-15" points="120.31 110.47 120.66 112.54 125.55 112.47 125.77 110.33 120.31 110.47"/><path class="cls-6" d="M124.74,114.54l-3,.06a.28.28,0,0,0-.26.23l-.58,2.83a.47.47,0,0,0,.36.55h.1c1.25,0,2.36-.14,3.91-.16,1.84,0,1.37.19,3.53.18,1.3,0,1.51-1.48,1-1.55a6.15,6.15,0,0,1-4.26-1.91A1.08,1.08,0,0,0,124.74,114.54Z"/><path class="cls-23" d="M140.26,35.61l7.75-2,1.58-1.19a.76.76,0,0,1,.46-.16h1.16a.59.59,0,0,0,.23,0l.39-.12a.76.76,0,0,1,1,.87l-.27,1.44a.75.75,0,0,1-.63.61l-3.41.56-7.81,2.85Z"/><path class="cls-15" d="M130.09,33.26l9.43,1.85,2.63-.38.44,3.38-2.75.64-9.07.07S128.53,35.43,130.09,33.26Z"/><path class="cls-24" d="M130.09,33.26l9.43,1.85,2.63-.38.44,3.38-2.75.64-9.07.07S128.53,35.43,130.09,33.26Z"/><polygon class="cls-15" points="141.51 34.34 142.34 38.75 143.62 38.13 142.91 34.34 141.51 34.34"/><polygon class="cls-11" points="141.51 34.34 142.34 38.75 143.62 38.13 142.91 34.34 141.51 34.34"/><path class="cls-18" d="M131.12,34.83l-.67.41.38,1.31.57,2.26,4.67,0C132.32,38.52,131.12,34.83,131.12,34.83Z"/><polygon class="cls-15" points="122.48 43.1 128.66 42.4 128.19 33.56 119.44 34.96 122.48 43.1"/><polygon class="cls-25" points="122.48 43.1 128.66 42.4 128.19 33.56 119.44 34.96 122.48 43.1"/><path class="cls-15" d="M130.09,33.26l-4,.63a13.5,13.5,0,0,1-.35,5.89c-.73-2.26-3.66-4.22-5-5l-4.46.71,1.1,24.07a1.29,1.29,0,0,0,1.12,1.22c2.69.34,9.88.9,15.1-2a1.32,1.32,0,0,0,.67-1.2C134.07,53.59,133,35.47,130.09,33.26Z"/><path class="cls-11" d="M130.09,33.26l-4,.63a13.5,13.5,0,0,1-.35,5.89c-.73-2.26-3.66-4.22-5-5l-4.46.71,1.1,24.07a1.29,1.29,0,0,0,1.12,1.22c2.69.34,9.88.9,15.1-2a1.32,1.32,0,0,0,.67-1.2C134.07,53.59,133,35.47,130.09,33.26Z"/><path class="cls-20" d="M116.59,42.11l.12,2.54a46.72,46.72,0,0,0,16.09-2.77c-.15-1-.32-2-.5-2.85A45.24,45.24,0,0,1,116.59,42.11Z"/><path class="cls-18" d="M116.79,46.46c3-5,1.19-8,1.19-8l-.51.19-1,1.18Z"/><path class="cls-23" d="M121.76,35.17a4.23,4.23,0,0,0,3.14,1,1.41,1.41,0,0,0,1.2-1.7,2.88,2.88,0,0,1-1.3-2.88l-4.12-2.26C121.32,30.87,122.18,33.51,121.76,35.17Z"/><path class="cls-26" d="M122.36,30.29l2.44,1.33a6,6,0,0,0,.07,1,2.91,2.91,0,0,1-2.44-1.19C122.13,31,122.17,30.39,122.36,30.29Z"/><path class="cls-6" d="M124.39,26.64c-1.87-1-3-3.13-2.88-3.63s2.9-1.55,3.31-1.37c2,.86.94,3.61.94,3.61l.72.85Z"/><path class="cls-23" d="M119.44,26.85c.84,2.41,1.21,3.86,2.79,4.76a3.38,3.38,0,0,0,5-3.2c-.09-2.35-1.45-5.88-4.11-6.18a3.48,3.48,0,0,0-3.85,3A3.53,3.53,0,0,0,119.44,26.85Z"/><path class="cls-6" d="M119.42,28.61c-1.77-1.14-3.21-3.05-3-3.52a3.4,3.4,0,0,1,3.92-1.72c2,.82.6,4,.6,4l.65.91Z"/><path class="cls-23" d="M118.89,29.47a2.41,2.41,0,0,0,1.74.62c.84-.05,1-.87.53-1.53s-1.36-1.27-2.1-.9A1.08,1.08,0,0,0,118.89,29.47Z"/><path class="cls-6" d="M123.47,26.49c0,.2.2.33.33.29s.19-.22.14-.42-.21-.33-.34-.3S123.41,26.29,123.47,26.49Z"/><path class="cls-6" d="M125.72,25.86c0,.2.2.33.33.29s.19-.23.13-.42-.2-.34-.33-.3S125.66,25.66,125.72,25.86Z"/><path class="cls-27" d="M124.9,26.17a7.45,7.45,0,0,0,1.43,1.43,1.21,1.21,0,0,1-.9.45Z"/><path class="cls-6" d="M122.43,25.77h-.06a.14.14,0,0,1-.07-.16,1.21,1.21,0,0,1,.82-.75.12.12,0,0,1,.14.09.13.13,0,0,1-.09.15h0a.94.94,0,0,0-.64.6A.13.13,0,0,1,122.43,25.77Z"/><path class="cls-6" d="M126.34,24.71a.12.12,0,0,1-.11,0,1,1,0,0,0-.8-.35.12.12,0,0,1-.14-.1.12.12,0,0,1,.1-.14,1.24,1.24,0,0,1,1,.43.11.11,0,0,1,0,.16h0Z"/><path class="cls-6" d="M125.21,29.22a2.19,2.19,0,0,0,.36,0s.06,0,.05-.07h0s0-.05-.07-.05a1.7,1.7,0,0,1-1.48-.41.06.06,0,0,0-.09,0,.06.06,0,0,0,0,.09A1.8,1.8,0,0,0,125.21,29.22Z"/><path class="cls-15" d="M118.38,27.91s-2-1.37-2.14-2.71a5.78,5.78,0,0,1,2.24-4.6c1.52-1,4.61-1.9,7.3,1.61l-4.36,1.32-1.74,1.79Z"/><path class="cls-28" d="M118.38,27.91s-2-1.37-2.14-2.71a5.78,5.78,0,0,1,2.24-4.6c1.52-1,4.61-1.9,7.3,1.61l-4.36,1.32-1.74,1.79Z"/><path class="cls-15" d="M118.48,28.07s2-5.49,7.43-5.43c0,0,1.47-4-1.4-3.63S120,24.69,120,24.69,117.33,27.52,118.48,28.07Z"/><path class="cls-11" d="M118.48,28.07s2-5.49,7.43-5.43c0,0,1.47-4-1.4-3.63S120,24.69,120,24.69,117.33,27.52,118.48,28.07Z"/><path class="cls-20" d="M134.17,55.67c0-.83-.12-1.81-.2-2.89a44.86,44.86,0,0,1-16.82,1.65l.12,2.57A45.79,45.79,0,0,0,134.17,55.67Z"/><path class="cls-6" d="M119.25,46.23l6.86.81s-1.39,6.53.91,9.28l-5.44.06Z"/><path class="cls-8" d="M119.25,46.23l6.86.81s-1.39,6.53.91,9.28l-5.44.06Z"/><rect class="cls-6" x="117.8" y="46" width="8.06" height="11.03" rx="1.06" transform="translate(6.88 -13.93) rotate(6.74)"/><rect class="cls-11" x="117.8" y="46" width="8.06" height="11.03" rx="1.06" transform="translate(6.88 -13.93) rotate(6.74)"/><path class="cls-6" d="M122.71,45.58l.6-.68a.26.26,0,0,0-.16-.44l-1-.11a.26.26,0,0,0-.26.38l.43.8-1.73-.2-.1.86a.71.71,0,0,0,.62.79l2.42.28a.7.7,0,0,0,.78-.62l.1-.86Z"/><path class="cls-23" d="M112.09,48.22l5,3,3.12-.82a.89.89,0,0,1,.58.05h0a.87.87,0,0,1,.43,1.14l-.6,1.38a.87.87,0,0,1-.93.51l-3.11-.5-6.08-2.56Z"/><path class="cls-15" d="M116.29,35.46s-8.35,10.65-8.22,12.63,3.9,3.19,3.9,3.19l1.66-2.36-1.45-1.41s3.35-3.47,4.44-4.66C117.88,41.49,119.51,39.58,116.29,35.46Z"/><path class="cls-24" d="M116.29,35.46s-8.35,10.65-8.22,12.63,3.9,3.19,3.9,3.19l1.66-2.36-1.45-1.41s3.35-3.47,4.44-4.66C117.88,41.49,119.51,39.58,116.29,35.46Z"/><polygon class="cls-15" points="113.54 48.18 111.3 51.51 112.42 51.89 114.27 49.17 113.54 48.18"/><polygon class="cls-11" points="113.54 48.18 111.3 51.51 112.42 51.89 114.27 49.17 113.54 48.18"/><path class="cls-15" d="M128.52,60.54,126.47,40.4a.69.69,0,0,0-.69-.62L128,60.65Z"/></g></g></svg>