<svg xmlns="http://www.w3.org/2000/svg" xmlns:xlink="http://www.w3.org/1999/xlink" viewBox="0 0 320.92 214.32"><defs><style>.cls-1{isolation:isolate;}.cls-2{fill:#e8f0ff;mix-blend-mode:multiply;}.cls-3{fill:url(#linear-gradient);}.cls-4{fill:#ccd3e0;}.cls-5{opacity:0.2;}.cls-6{fill:#303030;}.cls-7{fill:#474747;}.cls-8{fill:#212121;}.cls-9{fill:#b5b5b5;}.cls-10{fill:#d6d6d6;}.cls-11{fill:#5c5c5c;}.cls-12{fill:#707070;}.cls-13{fill:#ad4800;}.cls-14{fill:#f0751f;}.cls-15{fill:#eb6200;}.cls-16{fill:#ff7c21;}.cls-17{fill:#ff7e33;}.cls-18{fill:#ff9142;}.cls-19{fill:#91481d;}.cls-20{fill:#b05723;}.cls-21{fill:#242424;}.cls-22{fill:#ff8c3b;}.cls-23{fill:#4d4d4d;}.cls-24{fill:#ff9952;}.cls-25{fill:#383838;}.cls-26{fill:#ffa400;}.cls-27{fill:#ffbb40;}.cls-28{fill:#b07200;}.cls-29{fill:#875800;}.cls-30{fill:#c98200;}.cls-31{fill:#ad2323;}.cls-32{fill:#fff;}.cls-33{fill:#1f6f94;}.cls-34{fill:#1b6282;}.cls-35{fill:#2992c4;}.cls-36{fill:#f33;}.cls-37{fill:#0f0f0f;}.cls-38{fill:#1f1f1f;}.cls-39{fill:#757575;}.cls-40{fill:#c2c2c2;}.cls-41{fill:#9e7d22;}.cls-42{fill:#dbae30;}.cls-43{fill:#333;}.cls-44{fill:#575757;}.cls-45{fill:#2b2b2b;}.cls-46{fill:#919191;}.cls-47{fill:#4f4f4f;}.cls-48{fill:#616161;}.cls-49{fill:#e0bc31;}.cls-50{fill:#171717;}.cls-51{fill:#262626;}.cls-52{fill:gray;}.cls-53{fill:#ababab;}.cls-54{fill:#636363;}.cls-55{fill:#ad7a1e;}.cls-56{fill:#917441;}.cls-57{fill:#787878;}.cls-58{fill:#ff4040;}.cls-59{fill:#404040;}.cls-60{fill:#2e2e2e;}.cls-61{fill:#121212;}.cls-62{fill:#1a1a1a;}.cls-63{fill:#916719;}.cls-64{fill:#422f0c;}.cls-65{fill:#292929;}.cls-66{fill:#1c1c1c;}.cls-67{fill:#454545;}.cls-68{fill:#c4a120;}.cls-69{fill:#e6c955;}.cls-70{fill:#f29c00;}.cls-71{fill:#e3a639;}.cls-72{fill:#ffbc45;}.cls-73{fill:#b37300;}.cls-74{fill:#b8b8b8;}.cls-75{fill:#182c57;}.cls-76{fill:#4176e8;}.cls-77{fill:#db6d2b;}.cls-78{fill:#ffb7a4;}.cls-79{fill:#543123;}.cls-80{fill:#e8973a;}.cls-81{opacity:0.15;}</style><linearGradient id="linear-gradient" y1="107.79" x2="320.92" y2="107.79" gradientUnits="userSpaceOnUse"><stop offset="0.45" stop-color="#676a78"/><stop offset="0.55" stop-color="#8b8e9e"/></linearGradient></defs><g class="cls-1"><g id="Layer_1" data-name="Layer 1"><path class="cls-2" d="M147.18,33.75,8.17,114c-12.11,7-10.58,19.32,3.41,27.4l114.7,66.22c14,8.08,35.35,9,47.46,2l139-80.26c12.12-7,10.58-19.32-3.41-27.4L194.64,35.72C180.65,27.64,159.3,26.76,147.18,33.75Z"/><path class="cls-3" d="M320.92,88.41l-10.54.27c-.34-.21-.68-.42-1-.62L194.64,21.83c-14-8.07-35.34-9-47.46-2L14.56,96.43,0,96.81V112H0c0,5.41,3.9,11.12,11.57,15.54l114.7,66.23c14,8.07,35.35,9,47.46,2l139-80.25c5.52-3.19,8.19-7.48,8.16-12h0Z"/><path class="cls-4" d="M147.18,4.72,8.17,85c-12.11,7-10.58,19.32,3.41,27.4l114.7,66.22c14,8.08,35.35,9,47.46,2l139-80.26c12.12-7,10.58-19.32-3.41-27.4L194.64,6.69C180.65-1.39,159.3-2.28,147.18,4.72Z"/><path class="cls-5" d="M97.25,54.79a7.2,7.2,0,0,1-6.55,0c-1.81-1-1.81-2.73,0-3.78a7.27,7.27,0,0,1,6.55,0C99.06,52.06,99.06,53.75,97.25,54.79Z"/><path class="cls-6" d="M92.57,47.94v2.7a.71.71,0,0,0,.41.57,2.18,2.18,0,0,0,2,0,.71.71,0,0,0,.41-.57v-2.7Z"/><path class="cls-7" d="M95,48.51a2.18,2.18,0,0,1-2,0,.6.6,0,0,1,0-1.14,2.18,2.18,0,0,1,2,0A.6.6,0,0,1,95,48.51Z"/><path class="cls-8" d="M90.86,41.47v6.41a1.56,1.56,0,0,0,.91,1.28,4.89,4.89,0,0,0,4.41,0,1.58,1.58,0,0,0,.91-1.28V41.47Z"/><path class="cls-7" d="M96.18,42.74a4.89,4.89,0,0,1-4.41,0,1.34,1.34,0,0,1,0-2.54,4.89,4.89,0,0,1,4.41,0A1.34,1.34,0,0,1,96.18,42.74Z"/><path class="cls-6" d="M89.73,40.82v1.23A2.12,2.12,0,0,0,91,43.78a6.65,6.65,0,0,0,6,0,2.11,2.11,0,0,0,1.24-1.73V40.82Z"/><path class="cls-7" d="M97,42.55a6.59,6.59,0,0,1-6,0c-1.66-.95-1.66-2.5,0-3.46a6.65,6.65,0,0,1,6,0C98.63,40.05,98.63,41.6,97,42.55Z"/><path class="cls-6" d="M89.73,39.18V40.4A2.11,2.11,0,0,0,91,42.13a6.59,6.59,0,0,0,6,0,2.1,2.1,0,0,0,1.24-1.73V39.18Z"/><ellipse class="cls-7" cx="93.97" cy="39.18" rx="4.24" ry="2.45"/><path class="cls-6" d="M89.73,36.55v2.18A2.12,2.12,0,0,0,91,40.46a6.65,6.65,0,0,0,6,0,2.11,2.11,0,0,0,1.24-1.73V36.55Z"/><path class="cls-7" d="M97,38.28a6.65,6.65,0,0,1-6,0c-1.66-1-1.66-2.51,0-3.47a6.65,6.65,0,0,1,6,0C98.63,35.77,98.63,37.32,97,38.28Z"/><path class="cls-9" d="M91.09,26.41v10a1.43,1.43,0,0,0,.84,1.18,4.51,4.51,0,0,0,4.08,0,1.42,1.42,0,0,0,.85-1.18v-10Z"/><path class="cls-10" d="M96,27.59a4.51,4.51,0,0,1-4.08,0,1.24,1.24,0,0,1,0-2.35,4.45,4.45,0,0,1,4.08,0A1.24,1.24,0,0,1,96,27.59Z"/><path class="cls-6" d="M92.57,25.36v.92a.69.69,0,0,0,.41.57,2.18,2.18,0,0,0,2,0,.69.69,0,0,0,.41-.57v-.92Z"/><path class="cls-7" d="M95,25.93a2.18,2.18,0,0,1-2,0,.6.6,0,0,1,0-1.14,2.18,2.18,0,0,1,2,0A.6.6,0,0,1,95,25.93Z"/><path class="cls-6" d="M93.48,22.94v2.34c0,.07,0,.14.15.2a.76.76,0,0,0,.69,0,.24.24,0,0,0,.14-.2V22.94Z"/><path class="cls-7" d="M94.32,23.14a.76.76,0,0,1-.69,0c-.19-.12-.19-.29,0-.4a.76.76,0,0,1,.69,0C94.51,22.85,94.51,23,94.32,23.14Z"/><path class="cls-5" d="M95.37,91.06a7.2,7.2,0,0,1-6.55,0c-1.81-1-1.81-2.73,0-3.78a7.27,7.27,0,0,1,6.55,0C97.18,88.33,97.18,90,95.37,91.06Z"/><path class="cls-6" d="M90.69,84.21v2.7a.71.71,0,0,0,.41.57,2.18,2.18,0,0,0,2,0,.71.71,0,0,0,.41-.57v-2.7Z"/><path class="cls-7" d="M93.09,84.78a2.18,2.18,0,0,1-2,0,.6.6,0,0,1,0-1.14,2.18,2.18,0,0,1,2,0A.6.6,0,0,1,93.09,84.78Z"/><path class="cls-8" d="M89,77.74v6.41a1.56,1.56,0,0,0,.91,1.28,4.89,4.89,0,0,0,4.41,0,1.58,1.58,0,0,0,.91-1.28V77.74Z"/><path class="cls-7" d="M94.3,79a4.89,4.89,0,0,1-4.41,0,1.34,1.34,0,0,1,0-2.54,4.89,4.89,0,0,1,4.41,0A1.34,1.34,0,0,1,94.3,79Z"/><path class="cls-6" d="M87.85,77.09v1.23a2.12,2.12,0,0,0,1.25,1.73,6.65,6.65,0,0,0,6,0,2.11,2.11,0,0,0,1.24-1.73V77.09Z"/><path class="cls-7" d="M95.09,78.82a6.59,6.59,0,0,1-6,0c-1.66-.95-1.66-2.5,0-3.46a6.65,6.65,0,0,1,6,0C96.75,76.32,96.75,77.87,95.09,78.82Z"/><path class="cls-6" d="M87.85,75.45v1.22A2.11,2.11,0,0,0,89.1,78.4a6.59,6.59,0,0,0,6,0,2.1,2.1,0,0,0,1.24-1.73V75.45Z"/><path class="cls-7" d="M95.09,77.18a6.65,6.65,0,0,1-6,0c-1.66-1-1.66-2.51,0-3.47a6.65,6.65,0,0,1,6,0C96.75,74.67,96.75,76.22,95.09,77.18Z"/><path class="cls-6" d="M87.85,72.82V75a2.12,2.12,0,0,0,1.25,1.73,6.65,6.65,0,0,0,6,0A2.11,2.11,0,0,0,96.33,75V72.82Z"/><path class="cls-7" d="M95.09,74.55a6.65,6.65,0,0,1-6,0c-1.66-1-1.66-2.51,0-3.47a6.65,6.65,0,0,1,6,0C96.75,72,96.75,73.59,95.09,74.55Z"/><path class="cls-9" d="M89.21,62.68v10a1.43,1.43,0,0,0,.84,1.18,4.53,4.53,0,0,0,4.09,0A1.43,1.43,0,0,0,95,72.7v-10Z"/><path class="cls-10" d="M94.14,63.86a4.53,4.53,0,0,1-4.09,0,1.24,1.24,0,0,1,0-2.35,4.47,4.47,0,0,1,4.09,0A1.24,1.24,0,0,1,94.14,63.86Z"/><path class="cls-6" d="M90.69,61.63v.92a.69.69,0,0,0,.41.57,2.18,2.18,0,0,0,2,0,.69.69,0,0,0,.41-.57v-.92Z"/><path class="cls-7" d="M93.09,62.2a2.18,2.18,0,0,1-2,0,.6.6,0,0,1,0-1.14,2.18,2.18,0,0,1,2,0A.6.6,0,0,1,93.09,62.2Z"/><path class="cls-6" d="M91.6,59.21v2.33a.23.23,0,0,0,.15.2.71.71,0,0,0,.69,0,.22.22,0,0,0,.14-.2V59.21Z"/><path class="cls-7" d="M92.44,59.4a.71.71,0,0,1-.69,0c-.19-.11-.19-.28,0-.39a.71.71,0,0,1,.69,0C92.63,59.12,92.63,59.29,92.44,59.4Z"/><path class="cls-5" d="M80.12,81.59a7.29,7.29,0,0,1-6.56,0c-1.8-1-1.8-2.74,0-3.79a7.29,7.29,0,0,1,6.56,0C81.93,78.85,81.93,80.54,80.12,81.59Z"/><path class="cls-6" d="M75.43,74.73v2.7a.69.69,0,0,0,.42.57,2.16,2.16,0,0,0,2,0,.69.69,0,0,0,.42-.57v-2.7Z"/><path class="cls-7" d="M77.83,75.31a2.22,2.22,0,0,1-2,0,.61.61,0,0,1,0-1.15,2.16,2.16,0,0,1,2,0A.61.61,0,0,1,77.83,75.31Z"/><path class="cls-8" d="M73.73,68.26v6.42A1.54,1.54,0,0,0,74.64,76,4.87,4.87,0,0,0,79,76,1.55,1.55,0,0,0,80,74.68V68.26Z"/><path class="cls-7" d="M79,69.53a4.81,4.81,0,0,1-4.4,0,1.34,1.34,0,0,1,0-2.54A4.87,4.87,0,0,1,79,67,1.34,1.34,0,0,1,79,69.53Z"/><path class="cls-6" d="M72.6,67.62v1.22a2.1,2.1,0,0,0,1.24,1.73,6.61,6.61,0,0,0,6,0,2.1,2.1,0,0,0,1.24-1.73V67.62Z"/><path class="cls-7" d="M79.84,69.35a6.67,6.67,0,0,1-6,0c-1.65-1-1.65-2.51,0-3.46a6.61,6.61,0,0,1,6,0C81.49,66.84,81.49,68.39,79.84,69.35Z"/><path class="cls-6" d="M72.6,66v1.22a2.08,2.08,0,0,0,1.24,1.73,6.61,6.61,0,0,0,6,0,2.08,2.08,0,0,0,1.24-1.73V66Z"/><path class="cls-7" d="M79.84,67.7a6.61,6.61,0,0,1-6,0c-1.65-1-1.65-2.51,0-3.46a6.61,6.61,0,0,1,6,0C81.49,65.19,81.49,66.74,79.84,67.7Z"/><path class="cls-6" d="M72.6,63.34v2.18a2.1,2.1,0,0,0,1.24,1.73,6.61,6.61,0,0,0,6,0,2.1,2.1,0,0,0,1.24-1.73V63.34Z"/><path class="cls-7" d="M79.84,65.07a6.61,6.61,0,0,1-6,0c-1.65-1-1.65-2.51,0-3.46a6.61,6.61,0,0,1,6,0C81.49,62.56,81.49,64.11,79.84,65.07Z"/><path class="cls-9" d="M74,53.21v10a1.44,1.44,0,0,0,.85,1.17,4.51,4.51,0,0,0,4.08,0,1.44,1.44,0,0,0,.85-1.17v-10Z"/><path class="cls-10" d="M78.88,54.38a4.45,4.45,0,0,1-4.08,0,1.24,1.24,0,0,1,0-2.35,4.51,4.51,0,0,1,4.08,0A1.24,1.24,0,0,1,78.88,54.38Z"/><path class="cls-6" d="M75.43,52.15v.92a.71.71,0,0,0,.42.58,2.22,2.22,0,0,0,2,0,.71.71,0,0,0,.42-.58v-.92Z"/><path class="cls-7" d="M77.83,52.73a2.22,2.22,0,0,1-2,0,.61.61,0,0,1,0-1.15,2.16,2.16,0,0,1,2,0A.61.61,0,0,1,77.83,52.73Z"/><path class="cls-6" d="M76.35,49.73v2.34a.26.26,0,0,0,.14.2.78.78,0,0,0,.7,0,.26.26,0,0,0,.14-.2V49.73Z"/><path class="cls-7" d="M77.19,49.93a.78.78,0,0,1-.7,0,.21.21,0,0,1,0-.4.78.78,0,0,1,.7,0A.21.21,0,0,1,77.19,49.93Z"/><path class="cls-5" d="M172.89,44.38l-55,31.71a6.62,6.62,0,0,1-6.55,0l-7-4a2.46,2.46,0,0,1,0-4.28l55-31.71a6.62,6.62,0,0,1,6.55,0l7.05,4A2.47,2.47,0,0,1,172.89,44.38Z"/><path class="cls-7" d="M173.91,15a1.22,1.22,0,0,1,.09.49A3.18,3.18,0,0,1,172.57,18a1.74,1.74,0,0,1-.48.17c.2.53.73.69,1.35.33A3.19,3.19,0,0,0,174.88,16C174.88,15.3,174.47,14.93,173.91,15Z"/><path class="cls-11" d="M171.21,19.05c.33.88,1.2,1.15,2.23.55a5.27,5.27,0,0,0,2.38-4.12c0-1.51-1.07-2.13-2.38-1.37a5.35,5.35,0,0,0-2.23,3.12Zm2.23-.54c-.79.46-1.43.09-1.43-.83a3.18,3.18,0,0,1,1.43-2.48c.79-.46,1.44-.09,1.44.83A3.19,3.19,0,0,1,173.44,18.51Z"/><path class="cls-7" d="M174.29,13.48l-.1-.06-.09-.05v0a1.73,1.73,0,0,0-1.53.22,5.21,5.21,0,0,0-2.23,3.12l-.09.36h0L168,18.36l.29,2.31,2.57-1.45.1.07h0l.79.45a1.29,1.29,0,0,1-.56-.7V17.23a5.35,5.35,0,0,1,2.23-3.12,1.69,1.69,0,0,1,1.68-.17Z"/><polygon class="cls-12" points="155.88 51.29 129.01 66.81 118.1 60.51 144.97 44.99 155.88 51.29"/><polygon class="cls-13" points="122.94 60.67 127.24 49.6 132.93 52.89 131.92 55.48 122.94 60.67"/><polygon class="cls-14" points="122.31 57.97 121.56 59.9 122.94 60.67 123.87 58.28 122.31 57.97"/><polygon class="cls-13" points="129.11 22.14 129.11 28.74 134.1 25.86 134.1 25.02 129.11 22.14"/><polygon class="cls-15" points="127.72 19.51 127.72 27.94 129.11 28.74 129.11 22.14 134.1 25.02 134.1 31.63 135.71 32.55 135.71 24.13 127.72 19.51"/><polygon class="cls-16" points="146.5 17.9 135.71 24.13 127.72 19.51 138.51 13.29 146.5 17.9"/><polygon class="cls-15" points="159.99 19.79 136.74 51.27 141.72 54.15 164.97 22.67 159.99 19.79"/><polygon class="cls-15" points="109.04 49.21 132.34 53.72 137.33 56.6 114.03 52.08 109.04 49.21"/><polygon class="cls-17" points="164.97 22.67 141.72 54.15 143.44 56.11 166.69 24.63 164.97 22.67"/><polygon class="cls-17" points="114.03 52.08 137.33 56.6 135.61 60.55 112.31 56.04 114.03 52.08"/><path class="cls-17" d="M164.52,15.55h0a1.51,1.51,0,0,0-.88-.24l-3,0-.73,2.15-20,.15,6.57,2.87,18.38-.11.73-2.18,3.79.15Z"/><polygon class="cls-7" points="162.08 21.82 112.68 50.34 114.15 51.97 162.37 24.13 162.08 21.82"/><path class="cls-18" d="M168.62,18.18l-3,0-.74,2.15-20,.15v4l18.59-.14-.73,2.15,3,0c1.58,0,3.48-1.86,4.26-4.12l0-.09C170.84,20,170.19,18.17,168.62,18.18Z"/><path class="cls-19" d="M168.49,22.32c-.37,1.1-1.29,2-2.06,2a.79.79,0,0,1-.77-.55h.13c.77,0,1.69-.91,2.07-2a2,2,0,0,0,.06-1.42C168.59,20.44,168.85,21.28,168.49,22.32Z"/><path class="cls-20" d="M167.86,21.77c-.38,1.1-1.3,2-2.07,2h-.13a2.17,2.17,0,0,1,.07-1.43c.37-1.11,1.3-2,2.06-2a.25.25,0,0,1,.13,0A2,2,0,0,1,167.86,21.77Z"/><path class="cls-16" d="M130,22.67,109.65,46.19l-1.24-.72-3,3.47c-1.57,1.81-2.21,4.38-1.43,5.75l0,.05a1.8,1.8,0,0,0,.51.55h0l.15.09,5.06,2.92,3.41-9.24,1,.58,20-23,0-1.59Z"/><path class="cls-7" d="M106.92,55.79a1.67,1.67,0,0,0-.76-1.31.54.54,0,0,0-.54,0h0l-5.12,3,1.09,1.85,5.12-3h0A.54.54,0,0,0,106.92,55.79Z"/><path class="cls-21" d="M101.8,58.75c0,.48-.34.68-.76.44a1.69,1.69,0,0,1-.76-1.32c0-.48.34-.67.76-.43A1.67,1.67,0,0,1,101.8,58.75Z"/><path class="cls-22" d="M110.38,51.82l3-3.47.74,1.29,20-23v4L115.52,52l.74,1.29-3,3.47c-1.57,1.81-3.48,2.18-4.26.81l0,0C108.17,56.2,108.81,53.63,110.38,51.82Z"/><path class="cls-19" d="M112.59,55.41c-.77.88-1.69,1.05-2.07.39a.52.52,0,0,1-.07-.15,1.8,1.8,0,0,0,1.5-.78,2.94,2.94,0,0,0,.77-2.63.73.73,0,0,1,.56.38A2.77,2.77,0,0,1,112.59,55.41Z"/><path class="cls-20" d="M112,54.87a1.8,1.8,0,0,1-1.5.78,2.89,2.89,0,0,1,.76-2.63,1.82,1.82,0,0,1,1.51-.78A2.94,2.94,0,0,1,112,54.87Z"/><polygon class="cls-22" points="146.5 26.33 135.71 32.55 135.71 24.13 146.5 17.9 146.5 26.33"/><polygon class="cls-22" points="152.19 51.87 130.01 64.68 135.02 51.8 147.18 44.78 152.19 51.87"/><polygon class="cls-15" points="126.58 47.02 124.56 52.21 126.11 52.51 127.02 50.17 132.76 53.48 128.64 63.91 130.01 64.68 135.02 51.8 126.58 47.02"/><path class="cls-19" d="M138.46,55.66a3.6,3.6,0,0,1-1.63,2.82c-.7.4-1.29.23-1.51-.35a1.27,1.27,0,0,0,.88-.2,3.55,3.55,0,0,0,1.62-2.81,1.37,1.37,0,0,0-.11-.6C138.16,54.58,138.46,55,138.46,55.66Z"/><path class="cls-20" d="M137.82,55.12a3.55,3.55,0,0,1-1.62,2.81,1.27,1.27,0,0,1-.88.2,1.48,1.48,0,0,1-.11-.59,3.58,3.58,0,0,1,1.62-2.81,1.35,1.35,0,0,1,.88-.21A1.37,1.37,0,0,1,137.82,55.12Z"/><path class="cls-19" d="M140.08,25.55a3.61,3.61,0,0,1-1.62,2.82c-.7.4-1.3.24-1.52-.35a1.21,1.21,0,0,0,.88-.19A3.57,3.57,0,0,0,139.45,25a1.42,1.42,0,0,0-.11-.61C139.79,24.49,140.08,24.9,140.08,25.55Z"/><path class="cls-20" d="M139.45,25a3.57,3.57,0,0,1-1.63,2.81,1.21,1.21,0,0,1-.88.19,1.44,1.44,0,0,1-.11-.59,3.59,3.59,0,0,1,1.63-2.81,1.3,1.3,0,0,1,.88-.21A1.42,1.42,0,0,1,139.45,25Z"/><path class="cls-19" d="M145.5,22.43a3.58,3.58,0,0,1-1.63,2.81c-.69.4-1.28.25-1.51-.33a1.28,1.28,0,0,0,.88-.21,3.58,3.58,0,0,0,1.62-2.81,1.51,1.51,0,0,0-.1-.6C145.2,21.36,145.5,21.77,145.5,22.43Z"/><path class="cls-20" d="M144.86,21.89a3.58,3.58,0,0,1-1.62,2.81,1.28,1.28,0,0,1-.88.21,1.58,1.58,0,0,1-.11-.61,3.61,3.61,0,0,1,1.62-2.81,1.3,1.3,0,0,1,.89-.2A1.51,1.51,0,0,1,144.86,21.89Z"/><path class="cls-19" d="M147.18,50.63a3.57,3.57,0,0,1-1.62,2.81c-.7.39-1.29.24-1.51-.33a1.33,1.33,0,0,0,.87-.22,3.54,3.54,0,0,0,1.63-2.81,1.52,1.52,0,0,0-.1-.59C146.89,49.56,147.18,50,147.18,50.63Z"/><path class="cls-20" d="M146.55,50.08a3.54,3.54,0,0,1-1.63,2.81,1.33,1.33,0,0,1-.87.22,1.41,1.41,0,0,1-.12-.61,3.58,3.58,0,0,1,1.63-2.81,1.31,1.31,0,0,1,.89-.2A1.52,1.52,0,0,1,146.55,50.08Z"/><polygon class="cls-23" points="155.88 52.41 129.01 67.92 129.01 66.81 155.88 51.29 155.88 52.41"/><polygon class="cls-24" points="164.86 20.36 159.88 17.48 160.61 15.33 165.6 18.21 164.86 20.36"/><polygon class="cls-16" points="135.02 51.8 126.58 47.02 138.82 39.95 147.18 44.78 135.02 51.8"/><polygon class="cls-25" points="129.01 67.92 118.1 61.63 118.1 60.51 129.01 66.81 129.01 67.92"/><polygon class="cls-5" points="198 77.83 163.37 57.85 186.04 44.79 220.67 64.76 198 77.83"/><polygon class="cls-26" points="218.22 64.89 198.15 76.48 198.15 48.82 218.22 37.23 218.22 64.89"/><polygon class="cls-27" points="185.61 18.4 165.53 29.99 198.15 48.82 218.22 37.23 185.61 18.4"/><polygon class="cls-28" points="200.26 29.58 199.32 30.12 197.91 29.33 182.58 38.18 181.64 37.65 197.91 28.26 200.26 29.58"/><polygon class="cls-29" points="199.32 30.12 183.99 38.96 182.58 38.18 197.91 29.33 199.32 30.12"/><polygon class="cls-30" points="198.15 76.48 165.53 57.66 165.53 29.99 198.15 48.82 198.15 76.48"/><polygon class="cls-29" points="195 71.23 195 72.35 168.68 57.16 168.68 40.95 169.72 41.55 169.72 56.63 195 71.23"/><polygon class="cls-28" points="195 56.14 195 71.23 169.72 56.63 169.72 41.55 195 56.14"/><ellipse class="cls-31" cx="193.1" cy="51.02" rx="1.58" ry="2.74" transform="matrix(0.87, -0.5, 0.5, 0.87, 0.36, 103.39)"/><path class="cls-32" d="M193.28,49.42v1.5l1.25.72V52l-1.25-.72v1.51l-.35-.2V51.1l-1.26-.72V50l1.26.73V49.21Z"/><path class="cls-33" d="M172.35,39c0,1.24-.87,1.74-1.94,1.12a4.27,4.27,0,0,1-1.94-3.35c0-1.24.87-1.74,1.94-1.12A4.29,4.29,0,0,1,172.35,39Z"/><path class="cls-32" d="M171.84,38.54v.39L169,37.28v-.39Z"/><path class="cls-26" d="M183.25,16.28a.59.59,0,0,0-.67,0h0l-2.3,1.33,2.05,1.27.25,9.19,2.27-1.32V17.2Z"/><path class="cls-30" d="M182.58,18.52l-1.6-.93c-.5-.29-.91-.05-.91.53v8.46L182.58,28Z"/><polygon class="cls-34" points="203.63 26.12 201.35 27.43 201.35 31.29 203.63 29.97 203.63 26.12"/><polygon class="cls-35" points="203.63 26.12 184.85 15.28 182.58 16.59 201.35 27.43 203.63 26.12"/><polygon class="cls-33" points="201.35 27.43 182.58 16.59 182.58 20.45 201.35 31.29 201.35 27.43"/><path class="cls-26" d="M205.23,29l-1.6-.93-2.28,1.32,2.51,11L206.14,39V30.54A2,2,0,0,0,205.23,29Z"/><path class="cls-30" d="M203,30.28l-1.61-.92v9.51l2.51,1.45V31.85A2,2,0,0,0,203,30.28Z"/><path class="cls-31" d="M194.5,41.29v2.37h0a1.44,1.44,0,0,0,.86,1.2,4.6,4.6,0,0,0,4.15,0,1.46,1.46,0,0,0,.86-1.2V41.29Z"/><path class="cls-36" d="M199.51,42.49a4.6,4.6,0,0,1-4.15,0,1.27,1.27,0,0,1,0-2.4,4.6,4.6,0,0,1,4.15,0A1.27,1.27,0,0,1,199.51,42.49Z"/><path class="cls-33" d="M170.41,27.52v2.37h0a1.46,1.46,0,0,0,.86,1.2,4.62,4.62,0,0,0,4.16,0,1.46,1.46,0,0,0,.86-1.2V27.52Z"/><path class="cls-35" d="M175.43,28.72a4.62,4.62,0,0,1-4.16,0,1.27,1.27,0,0,1,0-2.4,4.62,4.62,0,0,1,4.16,0A1.27,1.27,0,0,1,175.43,28.72Z"/><path class="cls-5" d="M113.79,120.58l30.72-17.68a1.33,1.33,0,0,0,0-2.32l-.66-.36a3.56,3.56,0,0,0-3.53,0l-30.72,17.68a1.33,1.33,0,0,0,0,2.32l.65.37A3.58,3.58,0,0,0,113.79,120.58Z"/><path class="cls-37" d="M142.93,99.68a1,1,0,0,1,.44-.76c.24-.14.44,0,.44.25a1,1,0,0,1-.44.76C143.13,100.08,142.93,100,142.93,99.68Z"/><path class="cls-37" d="M144,98.34a.62.62,0,0,0-.62.07l-1.32.77v1.24l-.71.42V98.77l1.32-.77a.62.62,0,0,1,.62-.07h0Z"/><path class="cls-38" d="M142,99.18v2.07l1.32-.77a2,2,0,0,0,.89-1.54v0c0-.57-.41-.8-.89-.51Zm.91.5a1,1,0,0,1,.44-.76c.24-.14.44,0,.44.25a1,1,0,0,1-.44.76C143.13,100.08,142.93,100,142.93,99.68Z"/><polygon class="cls-37" points="143.97 98.35 143.97 98.35 143.97 98.35 143.97 98.35"/><path class="cls-6" d="M129.29,104l9.39-5.48a2.69,2.69,0,0,1,3.67,1l0,.05a2.69,2.69,0,0,1-1,3.67L132,108.68Z"/><path class="cls-7" d="M132.57,107.44a4.22,4.22,0,0,0-1.93-3.31c-1.06-.61-1.92-.11-1.91,1.11a4.22,4.22,0,0,0,1.93,3.31C131.72,109.16,132.58,108.66,132.57,107.44Z"/><path class="cls-6" d="M127.59,105l1.21-.7a1.35,1.35,0,0,1,1.35.13,4.2,4.2,0,0,1,1.93,3.31,1.36,1.36,0,0,1-.55,1.25l-1.21.7Z"/><path class="cls-7" d="M130.88,108.43a4.26,4.26,0,0,0-1.93-3.32c-1.06-.6-1.92-.11-1.91,1.12a4.23,4.23,0,0,0,1.93,3.31C130,110.15,130.88,109.65,130.88,108.43Z"/><polygon class="cls-39" points="111.02 116.89 109.48 118.56 109.48 119.27 108.98 118.98 108.98 118.27 110.52 116.6 112.07 116.42 128.63 106.77 129.13 107.05 112.57 116.71 111.02 116.89"/><polygon class="cls-40" points="111.02 116.89 112.57 116.71 129.13 107.05 129.14 107.86 112.57 117.52 111.03 119.14 109.48 119.27 109.48 118.56 111.02 116.89"/><path class="cls-41" d="M140.19,101.33l.22-.13a.48.48,0,0,0,.17-.66h0a.48.48,0,0,0-.66-.18l-.22.13a.48.48,0,0,1,.66.17h0A.49.49,0,0,1,140.19,101.33Z"/><path class="cls-42" d="M134,105l6.23-3.63a.49.49,0,0,0,.18-.66h0a.48.48,0,0,0-.66-.17l-6.23,3.63a.48.48,0,0,0-.17.66h0A.48.48,0,0,0,134,105Z"/><path class="cls-41" d="M133.92,107.17l6.46-3.76a.94.94,0,0,0,.41-.72h0a.28.28,0,0,0-.13-.27.13.13,0,0,1,0,.06h0a.92.92,0,0,1-.41.73L133.8,107a.28.28,0,0,1-.29,0C133.54,107.22,133.72,107.29,133.92,107.17Z"/><path class="cls-42" d="M133.8,107l6.46-3.76a.92.92,0,0,0,.41-.73h0a.13.13,0,0,0,0-.06.29.29,0,0,0-.29,0l-6.45,3.76a1,1,0,0,0-.42.72V107A.28.28,0,0,0,133.8,107Z"/><path class="cls-41" d="M139,99.56q0-.14-.18-.24h0a.92.92,0,0,0-.84,0l-6.45,3.76c-.21.12-.23.31,0,.44a.29.29,0,0,1,.17-.24l6.45-3.76a.93.93,0,0,1,.83,0h0Z"/><path class="cls-42" d="M132.39,103.56l6.45-3.76a.32.32,0,0,0,.17-.24l-.06,0h0a.93.93,0,0,0-.83,0l-6.45,3.76a.29.29,0,0,0-.17.24.1.1,0,0,0,0,0h0A1,1,0,0,0,132.39,103.56Z"/><path class="cls-5" d="M141.27,116.38l19.33-11a1.05,1.05,0,0,0,0-1.83l-1-.58a3.09,3.09,0,0,0-3.06,0l-19.34,11a1.06,1.06,0,0,0,0,1.83l1,.57A3.11,3.11,0,0,0,141.27,116.38Z"/><path class="cls-37" d="M158.81,102.7a1,1,0,0,1,.44-.77c.24-.14.44,0,.44.26a1,1,0,0,1-.43.76C159,103.09,158.81,103,158.81,102.7Z"/><path class="cls-37" d="M159.84,101.36a.6.6,0,0,0-.62.07l-1.32.76v1.25l-.71.42v-2.08l1.32-.76a.62.62,0,0,1,.63-.07h0Z"/><path class="cls-38" d="M157.9,102.19v2.08l1.32-.77a2,2,0,0,0,.88-1.55v0c0-.56-.4-.79-.89-.5Zm.91.51a1,1,0,0,1,.44-.77c.24-.14.44,0,.44.26a1,1,0,0,1-.43.76C159,103.09,158.81,103,158.81,102.7Z"/><polygon class="cls-37" points="159.85 101.36 159.86 101.37 159.86 101.37 159.85 101.36"/><path class="cls-6" d="M147.18,105.84l7.38-4.3a2.68,2.68,0,0,1,3.67,1l0,0a2.67,2.67,0,0,1-1,3.67l-7.38,4.31Z"/><path class="cls-7" d="M150.47,109.29a4.26,4.26,0,0,0-1.93-3.32c-1.07-.6-1.92-.1-1.92,1.12a4.26,4.26,0,0,0,1.93,3.31C149.61,111,150.47,110.51,150.47,109.29Z"/><path class="cls-6" d="M145.49,106.83l1.2-.7a1.34,1.34,0,0,1,1.36.13,4.24,4.24,0,0,1,1.93,3.31,1.34,1.34,0,0,1-.56,1.24l-1.2.71Z"/><path class="cls-7" d="M148.77,110.27a4.23,4.23,0,0,0-1.93-3.31c-1.06-.61-1.92-.11-1.91,1.11a4.23,4.23,0,0,0,1.93,3.32C147.92,112,148.78,111.49,148.77,110.27Z"/><path class="cls-41" d="M156.08,104.35l.21-.13a.49.49,0,0,0,.18-.66h0a.48.48,0,0,0-.66-.17l-.21.13a.48.48,0,0,1,.66.17h0A.48.48,0,0,1,156.08,104.35Z"/><path class="cls-42" d="M151.85,106.81l4.23-2.46a.48.48,0,0,0,.17-.66h0a.48.48,0,0,0-.66-.17L151.36,106a.48.48,0,0,0-.17.66h0A.48.48,0,0,0,151.85,106.81Z"/><path class="cls-41" d="M151.82,109l4.44-2.59a.93.93,0,0,0,.42-.72h0q0-.21-.12-.27a.13.13,0,0,1,0,.06h0a.94.94,0,0,1-.42.73l-4.44,2.59a.33.33,0,0,1-.3,0C151.43,109.06,151.61,109.14,151.82,109Z"/><path class="cls-42" d="M151.7,108.82l4.44-2.59a.94.94,0,0,0,.42-.73h0a.13.13,0,0,0,0-.06.28.28,0,0,0-.29,0l-4.44,2.59a.93.93,0,0,0-.42.72h0v.07A.33.33,0,0,0,151.7,108.82Z"/><path class="cls-41" d="M154.89,102.58a.3.3,0,0,0-.17-.24h0a.92.92,0,0,0-.84,0l-4.44,2.59c-.21.12-.22.31-.05.44a.3.3,0,0,1,.17-.24l4.44-2.59a.92.92,0,0,1,.84,0h0Z"/><path class="cls-42" d="M150.28,105.41l4.44-2.59a.3.3,0,0,0,.17-.24l0,0h0a.92.92,0,0,0-.84,0l-4.44,2.59a.3.3,0,0,0-.17.24l.05,0h0A1,1,0,0,0,150.28,105.41Z"/><polygon class="cls-39" points="139.71 111.92 137.65 113.91 137.66 115.5 137.15 115.21 137.15 113.62 139.2 111.63 141.25 111.54 146.48 108.5 146.99 108.79 141.76 111.83 139.71 111.92"/><polygon class="cls-40" points="137.66 115.5 137.65 113.91 139.71 111.92 141.76 111.83 146.99 108.79 146.99 109.74 141.77 112.79 139.72 115.1 137.66 115.5"/><ellipse class="cls-5" cx="161.2" cy="80.48" rx="27.88" ry="16.1"/><ellipse class="cls-43" cx="161.11" cy="61.21" rx="14.21" ry="24.32" transform="translate(97.75 221.48) rotate(-89.23)"/><path class="cls-7" d="M144,89.45c9.51,5.63,24.9,5.75,34.39.29,4.63-2.68,7-6.19,7.09-9.74h0l0-18.47c0,3.59-2.41,7.16-7.1,9.87-9.48,5.47-24.88,5.34-34.38-.29-4.56-2.69-6.93-6.16-7.12-9.65h0l0,18.32h0C137,83.27,139.41,86.75,144,89.45Z"/><path class="cls-44" d="M144,71.94c9.5,5.63,24.9,5.76,34.38.29,4.63-2.67,7-6.18,7.1-9.73v-1c0,3.59-2.41,7.16-7.1,9.87-9.48,5.47-24.88,5.34-34.38-.29-4.56-2.69-6.93-6.16-7.12-9.65h0v.81S136.82,67.74,144,71.94Z"/><path class="cls-45" d="M143.94,77.93c9.5,5.62,24.9,5.75,34.38.28,4.64-2.67,7-6.18,7.1-9.73v-1c0,3.6-2.4,7.16-7.1,9.87-9.48,5.47-24.88,5.34-34.38-.28-4.56-2.7-6.92-6.17-7.12-9.65h0v.8S136.81,73.72,143.94,77.93Z"/><path class="cls-45" d="M144,84.11c9.5,5.63,24.9,5.76,34.38.29,4.64-2.68,7-6.19,7.1-9.74v-1c0,3.6-2.4,7.17-7.1,9.87-9.48,5.47-24.88,5.35-34.38-.28-4.56-2.7-6.93-6.16-7.12-9.65h0v.81S136.83,79.9,144,84.11Z"/><path class="cls-43" d="M143.1,74.92l4.35-.1L150.19,78l4.17-1.23,3.24,2.85,3.91-2.23L165.12,80l3.41-3.22,3.83,1.77,2.85-3.67,3.15.63,3.33-4.57,2.25-.71s1.11-4.11,1.33-5.28a8.21,8.21,0,0,0,.15-1.31h0v-.79a8.44,8.44,0,0,1-.25,1.93c-.25,1-1.24,4.8-1.24,4.8l-2.31.77-3.26,4.51-3.13-.63-2.91,3.68-3.71-1.79-3.39,3.22-3.7-2.59L157.7,79l-3.17-2.82-4.16,1.24-2.79-3.18-4.21.17-1.82-3.59L139,70.52l-1.12-4-1.05-1.11V66l.87.75L138.82,71l2.54.32Z"/><path class="cls-43" d="M143.12,81.38l4.35-.1,2.74,3.18,4.17-1.23,3.24,2.85,3.91-2.23,3.61,2.61,3.41-3.22L172.38,85l2.85-3.67,3.15.63,3.33-4.57,2.25-.71s1.11-4.11,1.33-5.28a8.21,8.21,0,0,0,.15-1.31h0v-.79a8.44,8.44,0,0,1-.25,1.93C185,72.25,184,76,184,76l-2.31.78-3.26,4.5-3.13-.63-2.91,3.68-3.71-1.79-3.39,3.22-3.7-2.59-3.83,2.23-3.17-2.82-4.16,1.24-2.79-3.18-4.21.17-1.82-3.59L139,77l-1.12-4-1-1.11v.62l.87.75,1.14,4.21,2.54.32Z"/><path class="cls-43" d="M143.13,87.78l4.35-.1,2.74,3.18,4.17-1.23,3.24,2.84,3.91-2.22,3.61,2.6,3.41-3.21,3.83,1.76,2.85-3.66,3.15.63,3.33-4.57,2.25-.71s1.11-4.11,1.33-5.28a8.35,8.35,0,0,0,.15-1.31h0v-.79a8.44,8.44,0,0,1-.25,1.93c-.25,1-1.24,4.8-1.24,4.8l-2.31.77-3.26,4.51-3.13-.63-2.91,3.68L168.65,89l-3.39,3.22-3.7-2.6-3.83,2.24L154.56,89l-4.16,1.24-2.79-3.18-4.21.17-1.82-3.59L139,83.38l-1.12-4-1.05-1.1v.62l.87.75,1.14,4.21,2.54.32Z"/><ellipse class="cls-38" cx="161.11" cy="61.21" rx="10.08" ry="17.25" transform="translate(97.75 221.48) rotate(-89.23)"/><ellipse class="cls-46" cx="161.11" cy="61.21" rx="8.8" ry="15.06" transform="translate(97.75 221.48) rotate(-89.23)"/><path class="cls-12" d="M157.35,63.38c-2.09-1.23-2.09-3.21,0-4.4a8.23,8.23,0,0,1,7.54.06c2.08,1.23,2.08,3.2,0,4.4A8.23,8.23,0,0,1,157.35,63.38Z"/><path class="cls-44" d="M160.12,61.78a.61.61,0,0,1,0-1.16,2.15,2.15,0,0,1,2,0,.61.61,0,0,1,0,1.16A2.18,2.18,0,0,1,160.12,61.78Z"/><path class="cls-47" d="M160.25,63.43a.38.38,0,0,1-.14-.28c0-.33.44-.58,1-.57s1,.26,1,.58a.36.36,0,0,1-.06.2,1.25,1.25,0,0,0-.86-.31A1.1,1.1,0,0,0,160.25,63.43Z"/><path class="cls-45" d="M160.25,63.43a1.1,1.1,0,0,1,.93-.38,1.25,1.25,0,0,1,.86.31,1.14,1.14,0,0,1-.94.38A1.21,1.21,0,0,1,160.25,63.43Z"/><path class="cls-47" d="M156.92,61.42a.41.41,0,0,1-.13-.28c0-.32.44-.58,1-.58s1,.27,1,.59a.36.36,0,0,1-.06.2,1.23,1.23,0,0,0-.86-.31A1.11,1.11,0,0,0,156.92,61.42Z"/><path class="cls-45" d="M156.92,61.42a1.11,1.11,0,0,1,.93-.38,1.23,1.23,0,0,1,.86.31,1.08,1.08,0,0,1-.93.37A1.2,1.2,0,0,1,156.92,61.42Z"/><path class="cls-47" d="M160.31,59.51a.37.37,0,0,1-.13-.29c0-.32.44-.57,1-.56s1,.26,1,.58a.32.32,0,0,1-.05.19,1.3,1.3,0,0,0-.86-.3A1.11,1.11,0,0,0,160.31,59.51Z"/><path class="cls-45" d="M160.31,59.51a1.11,1.11,0,0,1,.93-.38,1.3,1.3,0,0,1,.86.3,1.07,1.07,0,0,1-.94.38A1.2,1.2,0,0,1,160.31,59.51Z"/><path class="cls-47" d="M163.62,61.51a.39.39,0,0,1-.13-.28c0-.32.45-.58,1-.57s1,.27,1,.59a.35.35,0,0,1-.06.19,1.23,1.23,0,0,0-.87-.3A1.1,1.1,0,0,0,163.62,61.51Z"/><path class="cls-45" d="M163.62,61.51a1.1,1.1,0,0,1,.94-.37,1.23,1.23,0,0,1,.87.3,1.09,1.09,0,0,1-.94.38A1.28,1.28,0,0,1,163.62,61.51Z"/><path class="cls-44" d="M166.56,68.22c-.43-1,0-2.16,1.41-3a8.39,8.39,0,0,1,6.86-.3,8.57,8.57,0,0,1-.77.85,8.41,8.41,0,0,0-6,.6A2.92,2.92,0,0,0,166.56,68.22Z"/><path class="cls-45" d="M167.37,69.27a2.76,2.76,0,0,1-.81-1,2.92,2.92,0,0,1,1.52-1.8,8.41,8.41,0,0,1,6-.6,11.36,11.36,0,0,1-2.29,1.7A17.36,17.36,0,0,1,167.37,69.27Z"/><path class="cls-44" d="M146.16,62.12a5.71,5.71,0,0,1,1.45-4.93c2.28.48,3.81,1.83,3.57,3.29l0,.11a4.6,4.6,0,0,0-3.43-2.25A6,6,0,0,0,146.16,62.12Z"/><path class="cls-45" d="M146.51,63.25a5.44,5.44,0,0,1-.35-1.13,6,6,0,0,1,1.56-3.78,4.6,4.6,0,0,1,3.43,2.25C150.83,62,148.88,63.09,146.51,63.25Z"/><path class="cls-44" d="M150.47,67.34l-.46-.28a8.13,8.13,0,0,1,6.62-.8c2.1.64,3.2,2,2.91,3.25a4.18,4.18,0,0,0-2.81-2.09,8.61,8.61,0,0,0-5.67.26C150.86,67.57,150.66,67.46,150.47,67.34Z"/><path class="cls-45" d="M151.06,67.68a8.61,8.61,0,0,1,5.67-.26,4.18,4.18,0,0,1,2.81,2.09,3.52,3.52,0,0,1-.15.42A21.2,21.2,0,0,1,151.06,67.68Z"/><path class="cls-44" d="M155.18,54.25a3.26,3.26,0,0,1-.88-1,24.76,24.76,0,0,1,10.41-.61,2.13,2.13,0,0,1-.53,1.06A25.34,25.34,0,0,0,155.18,54.25Z"/><path class="cls-45" d="M155.18,54.25a25.34,25.34,0,0,1,9-.5,6,6,0,0,1-4.28,1.7A7.64,7.64,0,0,1,155.18,54.25Z"/><path class="cls-44" d="M169.3,58.05c-.51-1.22.27-2.5,2-3.24l.47.26c2.52,1.49,4,3.36,4.33,5.28a.91.91,0,0,1-.23,0,9.24,9.24,0,0,0-4-4.16l-.47-.26A3.28,3.28,0,0,0,169.3,58.05Z"/><path class="cls-45" d="M169.73,58.71a2.57,2.57,0,0,1-.43-.66A3.28,3.28,0,0,1,171.39,56l.47.26a9.24,9.24,0,0,1,4,4.16C173.45,60.73,170.88,60.06,169.73,58.71Z"/><path class="cls-5" d="M248.56,74.84l-23.83,13.8a6.84,6.84,0,0,1-6.82,0l-11.24-6.48a2.41,2.41,0,0,1,0-4.17l23.84-13.81a6.79,6.79,0,0,1,6.81,0l11.24,6.48A2.4,2.4,0,0,1,248.56,74.84Z"/><polygon class="cls-48" points="247.21 75.29 244.75 76.71 242.65 68.82 245.11 67.4 247.21 75.29"/><polygon class="cls-47" points="244.75 76.71 243.02 75.72 239.2 67.8 242.65 68.82 244.75 76.71"/><polygon class="cls-7" points="208.45 79.21 210.91 77.79 214.73 74.28 212.27 75.7 208.45 79.21"/><polygon class="cls-47" points="206.73 78.21 208.45 79.21 212.27 75.7 208.82 72.73 206.73 78.21"/><polygon class="cls-48" points="226.9 87.02 224.44 88.44 222.34 80.54 224.8 79.12 226.9 87.02"/><polygon class="cls-47" points="224.44 88.44 222.72 87.44 218.9 79.53 222.34 80.54 224.44 88.44"/><path class="cls-7" d="M223.25,64.44c-2.95-3.54-6.5-4.9-8.76-3.62h0l-6.14,3.55c2.27-1.21,5.78.15,8.69,3.66,3.61,4.34,4.95,10.32,3,13.36a3.86,3.86,0,0,1-1.19,1.19h0L225,79h0a3.7,3.7,0,0,0,1.24-1.22C228.2,74.77,226.86,68.78,223.25,64.44Z"/><path class="cls-7" d="M245,51.91c-3-3.55-6.49-4.9-8.76-3.62h0l-6.15,3.55c2.27-1.21,5.78.16,8.7,3.66,3.6,4.35,4.95,10.33,3,13.37A3.79,3.79,0,0,1,240.56,70h0l6.16-3.55h0A3.86,3.86,0,0,0,248,65.27C249.91,62.23,248.57,56.25,245,51.91Z"/><path class="cls-49" d="M238.8,55.46c-3-3.55-6.5-4.9-8.76-3.62l-9.36,5.41-6.14,3.55c2.27-1.21,5.78.15,8.69,3.66,3.61,4.34,5,10.32,3,13.36A3.72,3.72,0,0,1,225,79h0l15.52-9h0a3.79,3.79,0,0,0,1.24-1.22C243.75,65.78,242.41,59.8,238.8,55.46Z"/><ellipse class="cls-43" cx="213.49" cy="73.53" rx="6.07" ry="10.51" transform="translate(-8.16 116.6) rotate(-30)"/><path class="cls-50" d="M218.11,80.12c-1.54,2.18-4.92,1.34-7.63-1.92s-3.79-7.91-2.3-10.23a3,3,0,0,1,1-1l-.08.12c-1.5,2.33-.47,6.91,2.29,10.23C213.68,80,216.37,81.07,218.11,80.12Z"/><path class="cls-51" d="M218.19,80a1,1,0,0,0-.08.11c-1.74.95-4.43-.09-6.68-2.79-2.76-3.32-3.79-7.9-2.29-10.23l.08-.12c1.74-.94,4.44.1,6.68,2.79C218.66,73.1,219.68,77.68,218.19,80Z"/><polygon class="cls-52" points="245 49.89 239.63 52.99 239.63 47.67 245 44.57 245 49.89"/><polygon class="cls-53" points="238.73 40.95 233.37 44.05 239.63 47.67 245 44.57 238.73 40.95"/><polygon class="cls-54" points="239.63 52.99 233.37 49.37 233.37 44.05 239.63 47.67 239.63 52.99"/><path class="cls-55" d="M236.65,48.19c-.3-.37-.67-.51-.91-.38h0L233,49.42c.23-.13.6,0,.9.38a1.36,1.36,0,0,1,.31,1.39.68.68,0,0,1-.12.12h0l2.78-1.61h0a.33.33,0,0,0,.13-.13A1.33,1.33,0,0,0,236.65,48.19Z"/><path class="cls-56" d="M233.86,49.8a1.36,1.36,0,0,1,.31,1.39c-.2.31-.67.2-1-.25a1.36,1.36,0,0,1-.31-1.39C233,49.24,233.48,49.35,233.86,49.8Z"/><path class="cls-25" d="M224.54,49.66v3.85h0a2.58,2.58,0,0,0,1.53,2.13,8.21,8.21,0,0,0,7.4,0A2.62,2.62,0,0,0,235,53.51V49.66Z"/><path class="cls-57" d="M233.47,51.82a8.18,8.18,0,0,1-7.4,0c-2-1.18-2-3.09,0-4.27a8.18,8.18,0,0,1,7.4,0C235.52,48.73,235.52,50.64,233.47,51.82Z"/><path class="cls-32" d="M232.8,51.43a6.71,6.71,0,0,1-6.05,0c-1.67-1-1.67-2.53,0-3.49a6.65,6.65,0,0,1,6.05,0C234.47,48.9,234.47,50.47,232.8,51.43Z"/><path class="cls-58" d="M229.77,49.68l3-1.74a2.15,2.15,0,0,1,1.25,1.73Z"/><path class="cls-23" d="M226.69,51.46c-1.7-1-1.7-2.57,0-3.55a6.82,6.82,0,0,1,6.16,0c1.7,1,1.7,2.57,0,3.55A6.82,6.82,0,0,1,226.69,51.46ZM232.74,48a6.59,6.59,0,0,0-5.93,0c-1.64,1-1.64,2.48,0,3.43a6.59,6.59,0,0,0,5.93,0C234.38,50.45,234.38,48.92,232.74,48Z"/><path class="cls-59" d="M230,49.78l3.8.4-3.75-.53c0-.06-.1-.11-.22-.13s-.3,0-.33.13.06.17.21.19A.37.37,0,0,0,230,49.78Z"/><path class="cls-21" d="M229.74,49.76c-.07,0-.12,0-.11-.09a.16.16,0,0,1,.17-.07c.08,0,.13.06.11.1S229.82,49.77,229.74,49.76Z"/><polygon class="cls-60" points="232.34 48.26 232.21 48.19 232.61 47.96 232.74 48.03 232.34 48.26"/><rect class="cls-60" x="233.29" y="49.65" width="0.59" height="0.04"/><rect class="cls-60" x="229.74" y="51.72" width="0.07" height="0.32"/><polygon class="cls-60" points="226.21 49.66 226.21 49.7 225.66 49.7 225.66 49.66 226.21 49.66"/><rect class="cls-60" x="229.73" y="47.3" width="0.07" height="0.32"/><polygon class="cls-60" points="231.18 47.79 231.12 47.78 231.34 47.48 231.4 47.5 231.18 47.79"/><polygon class="cls-60" points="228.4 47.79 228.34 47.8 228.12 47.5 228.18 47.49 228.4 47.79"/><polygon class="cls-60" points="226.44 48.93 226.41 48.97 225.91 48.86 225.93 48.82 226.44 48.93"/><polygon class="cls-60" points="226.44 50.41 226.47 50.44 225.96 50.56 225.93 50.52 226.44 50.41"/><polygon class="cls-60" points="228.45 51.59 228.51 51.6 228.32 51.89 228.25 51.88 228.45 51.59"/><polygon class="cls-60" points="231.09 51.59 231.15 51.57 231.35 51.86 231.29 51.88 231.09 51.59"/><polygon class="cls-60" points="233.04 50.44 233.07 50.41 233.6 50.53 233.57 50.57 233.04 50.44"/><polygon class="cls-60" points="233.1 48.96 233.07 48.93 233.59 48.81 233.62 48.85 233.1 48.96"/><polygon class="cls-60" points="232.21 51.15 232.34 51.08 232.76 51.32 232.63 51.4 232.21 51.15"/><polygon class="cls-60" points="227.24 51.08 227.38 51.16 226.94 51.41 226.8 51.33 227.24 51.08"/><polygon class="cls-60" points="227.31 48.2 227.18 48.27 226.78 48.05 226.91 47.97 227.31 48.2"/><path class="cls-40" d="M248.71,60a13.67,13.67,0,0,0-.37-1.7l1.69-1a2.1,2.1,0,0,0,1.05-1.82V45.57a.41.41,0,0,0-.2-.35.38.38,0,0,0-.41,0L231.54,56.15a8.79,8.79,0,0,1-8.79,0l-4.1-2.36a3.7,3.7,0,0,1,0-6.4l18.61-10.75a2.06,2.06,0,0,1,3.09,1.78v3.46L238.7,41V38.42a.41.41,0,0,0-.61-.35L219.48,48.81a2.05,2.05,0,0,0,0,3.55l4.09,2.36a7.19,7.19,0,0,0,7.15,0l18.93-10.93a2.05,2.05,0,0,1,3.08,1.78v9.92a3.77,3.77,0,0,1-1.87,3.25Z"/><path class="cls-61" d="M243.5,49a1.28,1.28,0,0,0-.58-1,.4.4,0,0,0-.43,0h0l-11.77,6.79a7.19,7.19,0,0,1-7.15,0l-4.09-2.36a2.05,2.05,0,0,1,0-3.55L231,42.18h0a.43.43,0,0,0,.17-.38,1.28,1.28,0,0,0-.59-1,.41.41,0,0,0-.41,0l-11.5,6.64a3.7,3.7,0,0,0,0,6.4l4.1,2.36a8.79,8.79,0,0,0,8.79,0l11.79-6.81h0A.39.39,0,0,0,243.5,49Z"/><path class="cls-62" d="M216.55,90.05l-.67-1.15L249.1,69.69a3.93,3.93,0,0,0,0-6.81l-.3-.2a12.13,12.13,0,0,0,0-1.51l.92.57a5.25,5.25,0,0,1,0,9.09Z"/><path class="cls-55" d="M216.46,89.11c-.19-.22-.42-.31-.56-.23h0l-2.71,1.57c.14-.08.37,0,.55.23a.82.82,0,0,1,.19.86.16.16,0,0,1-.07.07h0L216.57,90h0a.18.18,0,0,0,.08-.07A.85.85,0,0,0,216.46,89.11Z"/><path class="cls-63" d="M213.74,90.68a.82.82,0,0,1,.19.86c-.12.19-.41.13-.64-.15a.82.82,0,0,1-.19-.86C213.22,90.34,213.51,90.41,213.74,90.68Z"/><path class="cls-64" d="M213.69,90.77a.61.61,0,0,1,.15.65c-.09.15-.32.1-.49-.11a.63.63,0,0,1-.15-.66C213.3,90.5,213.52,90.55,213.69,90.77Z"/><polygon class="cls-5" points="209.76 128.68 173.27 107.58 195.14 94.95 231.63 116.05 209.76 128.68"/><polygon class="cls-65" points="209.15 126.44 177.27 108.03 177.27 91.22 209.15 109.63 209.15 126.44"/><polygon class="cls-59" points="207.03 122.34 207.03 123.17 179.4 107.22 179.4 99.89 180.17 100.33 180.17 106.83 207.03 122.34"/><polygon class="cls-66" points="207.03 115.84 207.03 122.34 180.17 106.83 180.17 100.33 207.03 115.84"/><polygon class="cls-66" points="209.15 112.48 177.27 94.07 177.27 91.22 209.15 109.63 209.15 112.48"/><polygon class="cls-43" points="209.15 126.44 209.15 109.63 227.63 98.96 227.63 115.77 209.15 126.44"/><polygon class="cls-8" points="209.15 112.48 209.15 109.63 227.63 98.96 227.63 101.81 209.15 112.48"/><polygon class="cls-65" points="209.58 110.84 175.65 91.25 175.65 85.83 209.58 105.42 209.58 110.84"/><polygon class="cls-43" points="209.58 110.84 209.58 105.42 229.25 94.07 229.25 99.49 209.58 110.84"/><polygon class="cls-67" points="209.58 105.42 175.65 85.83 195.32 74.48 229.25 94.07 209.58 105.42"/><polygon class="cls-45" points="219.57 89.11 218.67 89.62 202.84 80.48 194.34 85.39 193.43 84.87 202.84 79.44 219.57 89.11"/><polygon class="cls-45" points="215.57 90 208.94 93.83 208.04 93.31 215.57 88.96 215.57 90"/><polygon class="cls-50" points="218.67 89.62 210.16 94.53 208.94 93.83 215.57 90 215.57 88.96 203.09 81.75 195.56 86.1 194.34 85.39 202.84 80.48 218.67 89.62"/><polygon class="cls-49" points="197.2 76.49 195.56 77.4 195.56 86.1 197.2 85.19 197.2 76.49"/><polygon class="cls-68" points="193.43 74.01 193.43 84.87 195.56 86.1 195.56 77.4 208.04 84.61 208.04 93.31 210.16 94.53 210.16 83.67 193.43 74.01"/><polygon class="cls-49" points="211.81 93.63 210.16 94.53 210.16 83.67 211.81 82.76 211.81 93.63"/><polygon class="cls-27" points="211.81 82.76 210.16 83.67 193.43 74.01 195.07 73.1 211.81 82.76"/><polygon class="cls-49" points="196.86 103.49 196.86 98.08 201.45 95.43 201.45 94.65 195.81 97.9 195.81 104.1 196.86 103.49"/><polygon class="cls-68" points="195.81 104.1 195.81 97.9 186.85 92.72 186.85 98.92 195.81 104.1"/><polygon class="cls-69" points="195.81 97.9 186.85 92.72 192.49 89.48 201.45 94.65 195.81 97.9"/><ellipse class="cls-5" cx="159.58" cy="123.28" rx="13.98" ry="8.07"/><path class="cls-30" d="M163.66,117.83c-1.91-1.75-6.21-1.77-8.14,0a1.83,1.83,0,0,0,0,2.92,4.94,4.94,0,0,0,.57.42,7.38,7.38,0,0,1,7,0,3.59,3.59,0,0,0,.58-.42A1.82,1.82,0,0,0,163.66,117.83Z"/><path class="cls-27" d="M154.47,114.49l-3.18-1.85-3.08,1.75,3.18,1.86-.17.17a4.72,4.72,0,0,0-1.07,1.54h-1.61l-2.9,0v2.51l4.51,0a3.4,3.4,0,0,0,.32.63,5,5,0,0,0,.9,1.1l-3.2,1.82.34.2,2.66,1.55.06,0,3.19-1.83c.29.11.59.2.89.29a15.47,15.47,0,0,0,2.09.44v2.6l4.34,0v-2.61a15.45,15.45,0,0,0,2.09-.41l.89-.28,3.18,1.86.05,0,2.68-1.53.34-.2-3.17-1.85a5,5,0,0,0,.91-1.09,4.21,4.21,0,0,0,.33-.63l4.5,0,0-2.51H169a4.54,4.54,0,0,0-1.05-1.55c-.06-.06-.11-.12-.17-.17l3.2-1.83L168,112.73l-3.2,1.82a14.83,14.83,0,0,0-3-.73l0-2.6-4.34,0,0,2.6A14.29,14.29,0,0,0,154.47,114.49Zm9.17,6.25a3.59,3.59,0,0,1-.58.42,7.38,7.38,0,0,1-7,0,4.94,4.94,0,0,1-.57-.42,1.83,1.83,0,0,1,0-2.92c1.93-1.72,6.23-1.7,8.14,0A1.82,1.82,0,0,1,163.64,120.74Z"/><polygon class="cls-26" points="148.16 124.01 151.22 125.8 151.2 129.55 148.14 127.76 148.16 124.01"/><polygon class="cls-30" points="154.41 123.97 154.39 127.73 151.2 129.55 151.22 125.8 154.41 123.97"/><rect class="cls-26" x="157.65" y="127.02" width="3.75" height="4.34" transform="translate(29.48 288.02) rotate(-89.69)"/><path class="cls-26" d="M157.39,124.7l0,3.75a14.18,14.18,0,0,1-3-.72l0-3.76A19.16,19.16,0,0,0,157.39,124.7Z"/><polygon class="cls-30" points="150.14 120.46 150.12 122.89 148.16 124.01 148.16 124.21 145.61 124.19 145.63 120.44 150.14 120.46"/><path class="cls-26" d="M150.14,120.46a5,5,0,0,0,1.22,1.73l-1.24.7Z"/><polygon class="cls-26" points="167.88 125.89 167.86 129.64 164.68 127.78 164.7 124.03 167.88 125.89"/><polygon class="cls-30" points="170.95 124.13 170.93 127.89 167.86 129.64 167.88 125.89 170.95 124.13"/><path class="cls-30" d="M164.7,124c0-.25,0,3.75,0,3.75a13.06,13.06,0,0,1-3,.7c0-.23,0-3.76,0-3.76A16.26,16.26,0,0,0,164.7,124Z"/><polygon class="cls-26" points="173.52 120.59 173.5 124.34 170.95 124.33 170.95 124.13 169 122.99 169.02 120.56 173.52 120.59"/><path class="cls-30" d="M169,120.56l0,2.43-1.22-.71A5.5,5.5,0,0,0,169,120.56Z"/><path class="cls-30" d="M171,114.51l0,3.57-2,0a4.9,4.9,0,0,0-1.22-1.72Z"/><path class="cls-30" d="M151.39,116.25a5.1,5.1,0,0,0-1.24,1.71h-2l0-3.56Z"/><ellipse class="cls-5" cx="116.27" cy="133.96" rx="13.82" ry="7.98"/><path class="cls-30" d="M120.3,128.57c-1.89-1.73-6.14-1.75-8,0a1.81,1.81,0,0,0,0,2.88,4.2,4.2,0,0,0,.57.42,7.3,7.3,0,0,1,6.9,0,3.93,3.93,0,0,0,.57-.41A1.81,1.81,0,0,0,120.3,128.57Z"/><path class="cls-27" d="M111.21,125.28l-3.14-1.84-3,1.73,3.14,1.84a1.37,1.37,0,0,0-.17.17,4.61,4.61,0,0,0-1.06,1.52h-4.45l0,2.47,4.46,0a4.48,4.48,0,0,0,.31.62,5.15,5.15,0,0,0,.89,1.08l-3.15,1.8.33.2,2.63,1.53.06,0,3.16-1.8.87.28a14.21,14.21,0,0,0,2.06.43v2.58l4.29,0v-2.57a14.05,14.05,0,0,0,2.07-.42q.45-.12.87-.27l3.14,1.84.06,0,2.65-1.51.34-.2L124.37,133a5,5,0,0,0,.9-1.08,4,4,0,0,0,.32-.61l4.46,0v-2.47l-2.86,0h-1.6a4.49,4.49,0,0,0-1-1.53l-.17-.17,3.16-1.8-3-1.77-3.16,1.8a14,14,0,0,0-2.94-.72V122l-4.28,0,0,2.57A14,14,0,0,0,111.21,125.28Zm9.07,6.17a3.93,3.93,0,0,1-.57.41,7.3,7.3,0,0,1-6.9,0,4.2,4.2,0,0,1-.57-.42,1.81,1.81,0,0,1,0-2.88c1.91-1.71,6.16-1.69,8,0A1.81,1.81,0,0,1,120.28,131.45Z"/><polygon class="cls-26" points="104.97 134.68 108 136.45 107.98 140.16 104.95 138.39 104.97 134.68"/><polygon class="cls-30" points="111.16 134.65 111.14 138.36 107.98 140.16 108 136.45 111.16 134.65"/><rect class="cls-26" x="114.36" y="137.66" width="3.71" height="4.29" transform="translate(-24.22 255.26) rotate(-89.69)"/><path class="cls-26" d="M114.09,135.36l0,3.72a14.43,14.43,0,0,1-2.93-.72l0-3.71A18.83,18.83,0,0,0,114.09,135.36Z"/><polygon class="cls-30" points="106.93 131.18 106.92 133.57 104.97 134.68 104.97 134.88 102.45 134.86 102.47 131.15 106.93 131.18"/><path class="cls-26" d="M106.93,131.18a4.9,4.9,0,0,0,1.2,1.7l-1.21.69Z"/><polygon class="cls-26" points="124.47 136.54 124.44 140.25 121.31 138.41 121.33 134.7 124.47 136.54"/><polygon class="cls-30" points="127.51 134.8 127.49 138.51 124.44 140.25 124.47 136.54 127.51 134.8"/><path class="cls-30" d="M121.32,134.7c0-.24,0,3.71,0,3.71a13,13,0,0,1-2.94.69c0-.22,0-3.71,0-3.71A15.81,15.81,0,0,0,121.32,134.7Z"/><polygon class="cls-26" points="130.05 131.3 130.03 135.01 127.5 135 127.51 134.8 125.58 133.68 125.59 131.28 130.05 131.3"/><path class="cls-30" d="M125.59,131.28v2.4l-1.21-.71A5.39,5.39,0,0,0,125.59,131.28Z"/><path class="cls-30" d="M127.56,125.3l0,3.52-1.94,0a4.93,4.93,0,0,0-1.2-1.7Z"/><path class="cls-30" d="M108.17,127a5.09,5.09,0,0,0-1.23,1.69H105l0-3.52Z"/><path class="cls-5" d="M114.07,107.72l21.09-12a3.05,3.05,0,0,0,0-5.31L130.88,88a9.54,9.54,0,0,0-9.4,0l-21.09,12a3.05,3.05,0,0,0,0,5.31l4.27,2.4A9.54,9.54,0,0,0,114.07,107.72Z"/><path class="cls-26" d="M134.91,91.62h0V89.1l-.42.25V87.92l.42-.24V85.1l-.42.24v-1.4l.42-.25v-2.6l-.42.24v-1.4l.42-.24V76.58a8.9,8.9,0,0,0-1.6-5.09L128.14,64,100.61,73v29.76h0c-.09,1.13.61,2.29,2.11,3.16l.1.06a11.42,11.42,0,0,0,10.28,0l19.66-11.36a3.62,3.62,0,0,0,2.13-3h0Z"/><path class="cls-27" d="M126.53,68.57l-13.41,7.74a11.42,11.42,0,0,1-10.28,0l-.1-.06c-2.84-1.64-2.84-4.3,0-5.93l13.42-7.74a11.33,11.33,0,0,1,10.27,0l.1.06C129.37,64.28,129.37,66.93,126.53,68.57Z"/><path class="cls-70" d="M112.85,70.37a8.3,8.3,0,0,1-7.49,0,2.64,2.64,0,0,1-1.55-2.17h0v4a2.64,2.64,0,0,0,1.55,2.16,8.3,8.3,0,0,0,7.49,0,2.64,2.64,0,0,0,1.55-2.16v-4A2.64,2.64,0,0,1,112.85,70.37Z"/><path class="cls-71" d="M112.85,70.37a8.3,8.3,0,0,1-7.49,0c-2.06-1.2-2.06-3.13,0-4.33a8.3,8.3,0,0,1,7.49,0C114.92,67.24,114.92,69.17,112.85,70.37Z"/><path class="cls-7" d="M103.08,66.21V69.5h0A3,3,0,0,0,104.85,72a9.41,9.41,0,0,0,8.52,0,3,3,0,0,0,1.76-2.46V66.21Z"/><path class="cls-48" d="M113.37,68.67a9.47,9.47,0,0,1-8.52,0c-2.36-1.36-2.36-3.57,0-4.92a9.41,9.41,0,0,1,8.52,0C115.72,65.1,115.72,67.31,113.37,68.67Z"/><path class="cls-47" d="M114.48,66.47a2.86,2.86,0,0,0-1.56-1.94,8.47,8.47,0,0,0-7.63,0,2.86,2.86,0,0,0-1.56,1.94A2.55,2.55,0,0,1,105.29,64a8.41,8.41,0,0,1,7.63,0A2.52,2.52,0,0,1,114.48,66.47Z"/><path class="cls-52" d="M114.48,66.47a2.82,2.82,0,0,1-1.56,1.94,8.47,8.47,0,0,1-7.63,0,2.82,2.82,0,0,1-1.56-1.94,2.86,2.86,0,0,1,1.56-1.94,8.47,8.47,0,0,1,7.63,0A2.86,2.86,0,0,1,114.48,66.47Z"/><path class="cls-72" d="M134.91,81.09v.65l-2.81,1.62c-.42.24-.77.1-.85-.32a.66.66,0,0,0,.45-.11l2.79-1.6v-.49Z"/><path class="cls-73" d="M134.49,79.93v1.4l-2.79,1.6a.66.66,0,0,1-.45.11,1,1,0,0,1,0-.19v0a1.92,1.92,0,0,1,.87-1.5Z"/><path class="cls-72" d="M134.91,85.1v.64l-2.81,1.62c-.42.25-.77.1-.85-.31a.66.66,0,0,0,.45-.11l2.79-1.6v-.49Z"/><path class="cls-73" d="M134.49,83.94v1.4l-2.79,1.6a.66.66,0,0,1-.45.11,1.11,1.11,0,0,1,0-.19v0a1.92,1.92,0,0,1,.87-1.5Z"/><path class="cls-72" d="M134.91,89.1v.65l-2.81,1.62c-.42.25-.77.1-.85-.31a.72.72,0,0,0,.45-.11l2.79-1.6v-.49Z"/><path class="cls-73" d="M134.49,87.92v1.43L131.7,91a.72.72,0,0,1-.45.11,1.11,1.11,0,0,1,0-.19v0a2,2,0,0,1,.87-1.55Z"/><path class="cls-74" d="M127.9,95.06l-13.91,8c-.64.37-1.16.07-1.16-.67V84.79a2.57,2.57,0,0,1,1.16-2l4.68-2.7c5.74-3.31,10.39-.63,10.39,6v7A2.57,2.57,0,0,1,127.9,95.06Z"/><path class="cls-32" d="M124.11,85.27a10.16,10.16,0,0,1-4.59,8c-2.54,1.46-4.59.27-4.59-2.66a10.14,10.14,0,0,1,4.59-7.95C122.06,81.16,124.11,82.34,124.11,85.27Z"/><path class="cls-75" d="M119.52,84.15s-3.93,8.92,0,6.65S119.52,84.15,119.52,84.15Z"/><path class="cls-76" d="M121,87.68a.86.86,0,0,1-.17.72c-.13.09-.26-.09-.3-.4a.91.91,0,0,1,.18-.72C120.85,87.19,121,87.37,121,87.68Z"/><path class="cls-27" d="M124.71,73v.73a2.26,2.26,0,0,1-1,1.76l-10.17,5.87c-.45.26-.83.14-1-.25a.86.86,0,0,0,.57-.13l10.17-5.87a2.23,2.23,0,0,0,1-1.76v-.72a1.11,1.11,0,0,0,0-.34C124.53,72.36,124.71,72.61,124.71,73Z"/><path class="cls-73" d="M124.31,72.65v.72a2.23,2.23,0,0,1-1,1.76L113.13,81a.86.86,0,0,1-.57.13,1.11,1.11,0,0,1,0-.34v-.72a2.22,2.22,0,0,1,1-1.76l10.17-5.88a.77.77,0,0,1,.56-.12A1.11,1.11,0,0,1,124.31,72.65Z"/><polygon class="cls-77" points="126.94 93.29 116.36 99.4 116.36 97.28 126.94 91.16 126.94 93.29"/><ellipse class="cls-5" cx="251.76" cy="106.11" rx="14.04" ry="8.1"/><path class="cls-30" d="M255.85,100.64c-1.91-1.76-6.23-1.78-8.17,0a1.84,1.84,0,0,0,0,2.93,4,4,0,0,0,.57.42,7.46,7.46,0,0,1,7,0,4.75,4.75,0,0,0,.58-.42A1.83,1.83,0,0,0,255.85,100.64Z"/><path class="cls-27" d="M246.62,97.29l-3.19-1.87-3.09,1.77,3.19,1.86-.17.17a4.61,4.61,0,0,0-1.07,1.55h-1.62l-2.91,0v2.52l4.52,0a4.65,4.65,0,0,0,.32.63,5.41,5.41,0,0,0,.91,1.11l-3.21,1.83.34.2,2.67,1.56.06,0,3.21-1.83c.29.11.59.2.89.29a15.47,15.47,0,0,0,2.09.44v2.61l4.35,0v-2.62a14.46,14.46,0,0,0,2.1-.42c.3-.08.6-.17.89-.27l3.19,1.86.05,0,2.69-1.53.35-.2L260,105.1a5.13,5.13,0,0,0,.92-1.09,4.05,4.05,0,0,0,.32-.62l4.53,0V100.9l-2.9,0h-1.62a4.57,4.57,0,0,0-1.06-1.55l-.17-.18,3.21-1.83-3.07-1.8L257,97.35a13.67,13.67,0,0,0-3-.73V94l-4.35,0,0,2.61A14.49,14.49,0,0,0,246.62,97.29Zm9.22,6.27a4.75,4.75,0,0,1-.58.42,7.4,7.4,0,0,1-7,0,4,4,0,0,1-.57-.42,1.84,1.84,0,0,1,0-2.93c1.94-1.73,6.26-1.71,8.17,0A1.83,1.83,0,0,1,255.84,103.56Z"/><polygon class="cls-26" points="240.29 106.84 243.36 108.64 243.34 112.41 240.27 110.62 240.29 106.84"/><polygon class="cls-30" points="246.57 106.81 246.55 110.58 243.34 112.41 243.36 108.64 246.57 106.81"/><rect class="cls-26" x="249.82" y="109.87" width="3.77" height="4.36" transform="translate(138.3 363.15) rotate(-89.69)"/><path class="cls-26" d="M249.55,107.54l0,3.77a14.6,14.6,0,0,1-3-.73l0-3.77A18.89,18.89,0,0,0,249.55,107.54Z"/><polygon class="cls-30" points="242.27 103.28 242.26 105.72 240.29 106.84 240.29 107.04 237.72 107.03 237.75 103.26 242.27 103.28"/><path class="cls-26" d="M242.27,103.28A5.05,5.05,0,0,0,243.5,105l-1.24.7Z"/><polygon class="cls-26" points="260.09 108.73 260.07 112.5 256.88 110.64 256.9 106.87 260.09 108.73"/><polygon class="cls-30" points="263.18 106.97 263.16 110.74 260.07 112.5 260.09 108.73 263.18 106.97"/><path class="cls-30" d="M256.9,106.87c0-.25,0,3.77,0,3.77a13.53,13.53,0,0,1-3,.69c0-.22,0-3.77,0-3.77A16.47,16.47,0,0,0,256.9,106.87Z"/><polygon class="cls-26" points="265.76 103.41 265.74 107.18 263.18 107.17 263.18 106.97 261.22 105.82 261.23 103.39 265.76 103.41"/><path class="cls-30" d="M261.23,103.39v2.43L260,105.1A5.38,5.38,0,0,0,261.23,103.39Z"/><path class="cls-30" d="M263.23,97.31l0,3.58-2,0A5,5,0,0,0,260,99.14Z"/><path class="cls-30" d="M243.53,99.05a5.19,5.19,0,0,0-1.24,1.72h-2l0-3.57Z"/><path class="cls-5" d="M242.69,128.85a12.44,12.44,0,0,1-11.27,0c-3.12-1.8-3.12-4.71,0-6.51a12.44,12.44,0,0,1,11.27,0C245.81,124.14,245.81,127.05,242.69,128.85Z"/><path class="cls-30" d="M239.38,122.49a4,4,0,0,0-4.64,0,1,1,0,0,0,0,1.66,2,2,0,0,0,.33.24,4.22,4.22,0,0,1,4,0,2.75,2.75,0,0,0,.33-.23A1,1,0,0,0,239.38,122.49Z"/><path class="cls-27" d="M234.14,120.58l-1.82-1.06-1.75,1,1.81,1.06a.47.47,0,0,1-.1.1,2.74,2.74,0,0,0-.61.88H229.1V124l2.58,0a2,2,0,0,0,.18.36,3.16,3.16,0,0,0,.51.62l-1.82,1,.19.11,1.52.89,0,0,1.83-1,.5.16a7.61,7.61,0,0,0,1.19.25v1.49h2.48v-1.48a8.09,8.09,0,0,0,1.19-.24l.5-.16,1.82,1.06,0,0,1.53-.87.19-.11L241.73,125a2.68,2.68,0,0,0,.52-.62,3,3,0,0,0,.19-.35H245v-1.43h-2.57a2.59,2.59,0,0,0-.6-.89l-.09-.1,1.82-1-1.74-1-1.83,1a8.35,8.35,0,0,0-1.69-.41v-1.48l-2.48,0v1.49A7.71,7.71,0,0,0,234.14,120.58Zm5.23,3.57a2.75,2.75,0,0,1-.33.23,4.16,4.16,0,0,1-4,0,2,2,0,0,1-.33-.24,1,1,0,0,1,0-1.66,4,4,0,0,1,4.64,0A1,1,0,0,1,239.37,124.15Z"/><polygon class="cls-26" points="230.54 126.01 232.28 127.03 232.27 129.17 230.53 128.15 230.54 126.01"/><polygon class="cls-30" points="234.11 125.99 234.09 128.13 232.27 129.17 232.28 127.03 234.11 125.99"/><rect class="cls-26" x="235.95" y="127.73" width="2.14" height="2.47" transform="translate(106.78 365.29) rotate(-89.69)"/><path class="cls-26" d="M235.8,126.4v2.15a8.49,8.49,0,0,1-1.7-.42l0-2.14A10.19,10.19,0,0,0,235.8,126.4Z"/><polygon class="cls-30" points="231.67 123.99 231.66 125.37 230.54 126.01 230.54 126.12 229.08 126.11 229.09 123.97 231.67 123.99"/><path class="cls-26" d="M231.67,124a2.74,2.74,0,0,0,.69,1l-.7.4Z"/><polygon class="cls-26" points="241.79 127.08 241.77 129.22 239.96 128.16 239.97 126.02 241.79 127.08"/><polygon class="cls-30" points="243.54 126.08 243.53 128.22 241.77 129.22 241.79 127.08 243.54 126.08"/><path class="cls-30" d="M240,126c0-.14,0,2.14,0,2.14a7.68,7.68,0,0,1-1.7.4l0-2.14A9.27,9.27,0,0,0,240,126Z"/><polygon class="cls-26" points="245.01 124.06 245 126.2 243.54 126.19 243.54 126.08 242.43 125.43 242.44 124.05 245.01 124.06"/><path class="cls-30" d="M242.44,124.05v1.38l-.7-.41A3.17,3.17,0,0,0,242.44,124.05Z"/><path class="cls-30" d="M243.57,120.59v2h-1.12a2.82,2.82,0,0,0-.69-1Z"/><path class="cls-30" d="M232.38,121.58a3,3,0,0,0-.71,1h-1.11v-2Z"/><ellipse class="cls-5" cx="191.17" cy="136.38" rx="9.9" ry="5.71"/><path class="cls-30" d="M194.05,132.52a5,5,0,0,0-5.76,0,1.29,1.29,0,0,0,0,2.06,2.55,2.55,0,0,0,.41.3,5.21,5.21,0,0,1,4.94,0,2.55,2.55,0,0,0,.41-.3A1.29,1.29,0,0,0,194.05,132.52Z"/><path class="cls-27" d="M187.54,130.16l-2.25-1.31-2.17,1.24,2.25,1.31a1.59,1.59,0,0,0-.13.13,3.35,3.35,0,0,0-.75,1.08H181.3v1.77l3.19,0a3.61,3.61,0,0,0,.22.44,4.14,4.14,0,0,0,.64.78l-2.26,1.29.24.14,1.88,1.1,0,0,2.27-1.29a6.45,6.45,0,0,0,.62.21,11.76,11.76,0,0,0,1.48.31v1.84l3.07,0V137.4a10.2,10.2,0,0,0,1.48-.29,6.6,6.6,0,0,0,.63-.2l2.25,1.32,0,0,1.89-1.09.25-.13L197,135.67a3.24,3.24,0,0,0,.64-.77,2.7,2.7,0,0,0,.24-.44l3.19,0V132.7h-3.2a3.1,3.1,0,0,0-.74-1.1l-.12-.12,2.26-1.29-2.16-1.27-2.26,1.29a10.17,10.17,0,0,0-2.11-.51v-1.85h-3.07v1.84A10.3,10.3,0,0,0,187.54,130.16Zm6.5,4.42a2.55,2.55,0,0,1-.41.3,5.21,5.21,0,0,1-4.94,0,2.55,2.55,0,0,1-.41-.3,1.29,1.29,0,0,1,0-2.06,5,5,0,0,1,5.76,0A1.29,1.29,0,0,1,194,134.58Z"/><polygon class="cls-26" points="183.08 136.9 185.24 138.16 185.23 140.82 183.06 139.56 183.08 136.9"/><polygon class="cls-30" points="187.51 136.88 187.49 139.53 185.23 140.82 185.24 138.16 187.51 136.88"/><rect class="cls-26" x="189.8" y="139.03" width="2.66" height="3.07" transform="translate(49.52 330.93) rotate(-89.69)"/><path class="cls-26" d="M189.61,137.39v2.66a10.1,10.1,0,0,1-2.11-.52l0-2.66A13.35,13.35,0,0,0,189.61,137.39Z"/><polygon class="cls-30" points="184.48 134.39 184.47 136.11 183.08 136.9 183.08 137.04 181.27 137.03 181.29 134.37 184.48 134.39"/><path class="cls-26" d="M184.48,134.39a3.51,3.51,0,0,0,.86,1.22l-.87.5Z"/><polygon class="cls-26" points="197.04 138.23 197.02 140.89 194.78 139.57 194.79 136.91 197.04 138.23"/><polygon class="cls-30" points="199.22 136.99 199.2 139.64 197.02 140.89 197.04 138.23 199.22 136.99"/><path class="cls-30" d="M194.79,136.91c0-.17,0,2.66,0,2.66a9,9,0,0,1-2.11.49c0-.15,0-2.66,0-2.66A11,11,0,0,0,194.79,136.91Z"/><polygon class="cls-26" points="201.04 134.48 201.02 137.14 199.22 137.13 199.22 136.99 197.84 136.18 197.84 134.46 201.04 134.48"/><path class="cls-30" d="M197.85,134.46v1.72l-.87-.51A3.8,3.8,0,0,0,197.85,134.46Z"/><path class="cls-30" d="M199.25,130.18v2.52h-1.39a3.38,3.38,0,0,0-.86-1.22Z"/><path class="cls-30" d="M185.37,131.4a3.69,3.69,0,0,0-.88,1.21H183.1l0-2.52Z"/><path class="cls-5" d="M86.68,124.41a10,10,0,0,0-9,0c-2.49,1.44-2.49,3.78,0,5.21a10,10,0,0,0,9,0C89.17,128.19,89.17,125.85,86.68,124.41Z"/><path class="cls-78" d="M82.17,100.73s.93.34,1.06.24a4.5,4.5,0,0,0,1-2.4l-2,.76Z"/><path class="cls-79" d="M79.68,124.35c-1,0-.83,1.53-.83,1.53a.89.89,0,0,0,.87,1c1.07.06.9-1.13.9-1.13S80.64,124.35,79.68,124.35Z"/><path class="cls-79" d="M84,127.11c-.06.18-1.62,0-1.62,0l.1,1.32a3.58,3.58,0,0,0,2.54.7c1.46-.14,1.94-.39,2-1S85.39,127.82,84,127.11Z"/><path class="cls-78" d="M78.09,102.09a14.7,14.7,0,0,0-1.62,2.84c.14.71,1.57,1.89,1.94,2.91,0,.28-.24.64-.19.88s.43.89.64,1,.85-.14,1-.42a2,2,0,0,0-.25-.53,3.29,3.29,0,0,0,0-.6c-.05-.17-.18-.19-.34-.35-.27-.41-.93-2.43-1.48-2.92a6.28,6.28,0,0,1,1.1-.86C79.54,103.59,79,101.65,78.09,102.09Z"/><path class="cls-80" d="M76.84,103.71a1.62,1.62,0,0,0,1.49,1,5.43,5.43,0,0,1,1.37-1.29c.14,0,.77-2.83.4-3C79,100.06,76.74,103.55,76.84,103.71Z"/><path class="cls-15" d="M78.74,110.33c-.17,2.23-.25,2.48-.15,15a1.77,1.77,0,0,0,2.23.23l.42-9.85.89,11.57c0,.59,1.17.57,1.17.57s1.31,0,1.31-.5c0,0,.16-14.58-.18-16.08Z"/><path class="cls-81" d="M81.11,114.13l.13,1.61-.42,9.85a1.12,1.12,0,0,1-.6.26Z"/><path class="cls-81" d="M81.94,114.48c.14-.25-2.83-1.71-2.83-1.71S81.8,114.74,81.94,114.48Z"/><path class="cls-27" d="M84.07,102.7c-.1-.14-1.4-1.19-1.4-1.19l-1.22-.7a8.43,8.43,0,0,0-1.41-.38,1.45,1.45,0,0,0-1.12,1.47c0,.34-.09,5.89-.09,5.89s2.59,2,4.15,2,1.49-.91,1.49-.91S84.46,103,84.07,102.7Z"/><path class="cls-80" d="M81.11,101.77a2,2,0,0,0,1.53.22c.19-.07.32-.14.35-.22-.39-.75-2.1-1.12-2.1-1.12C80.48,100.87,80.64,101.49,81.11,101.77Z"/><path class="cls-15" d="M83,109c-1.34,0-4.12-2.08-4.12-2.08,0,1.76-.14,4.41-.14,4.41a10.92,10.92,0,0,0,5.87,1.62s-.12-3.23-.1-5.25A1.4,1.4,0,0,1,83,109Z"/><polygon class="cls-15" points="79.26 107.39 79.86 104.88 81.35 105.74 81.79 108.86 79.26 107.39"/><path class="cls-15" d="M80.78,106.23s.13-3.07,2.67-4.1a1.94,1.94,0,0,1,.58.51c-.06,0-2.55.5-2.76,4.15Z"/><path class="cls-15" d="M80.57,106.44s-1.32-4.83,0-5.9a.75.75,0,0,0-.56-.11c-1.29.78,0,6,0,6Z"/><path class="cls-78" d="M80.79,99.9a4.69,4.69,0,0,1,.06,1.26c.31.87,1.77.76,2,.53a4.85,4.85,0,0,1,0-1A18.57,18.57,0,0,0,80.79,99.9Z"/><path class="cls-78" d="M84.1,102.82h0l-.11.06a1.23,1.23,0,0,0-.72.75l0,.12a3.6,3.6,0,0,0,.05,1.87,26.1,26.1,0,0,1,2.22,3.07c-.46.24-.69,1.09-1.55,2-.19.3-.52.5-.49.68a.27.27,0,0,0,.17.22l-.07.32c.1.4.22.41.43.65a1.24,1.24,0,0,0,1.08-.47c0-.19-.3-.85-.31-1.24,0,0,2.2-1.78,2.18-2.14s-2.24-5.53-2.78-5.9A.08.08,0,0,0,84.1,102.82Z"/><path class="cls-80" d="M84.1,102.82h0l-.11.06a1.23,1.23,0,0,0-.72.75l0,.12a3.6,3.6,0,0,0,.05,1.87,17.17,17.17,0,0,1,1.26,2,1.32,1.32,0,0,0,2-.39s-1.79-4.06-2.33-4.43A.08.08,0,0,0,84.1,102.82Z"/><path class="cls-45" d="M83.42,96.39c-.74-.84-3.58.32-3.21,1.87.1.62.38,1.12.52,2.21,0,0,.2.46,1.39.58.08-.36.17-1.14.92-1.35,0-.16.4-.42.42-.44l.13.38.15-.13,0-.41a1.64,1.64,0,0,0,.7-.94A1.32,1.32,0,0,0,83.42,96.39Z"/><path class="cls-78" d="M83,99.33c-.23.29.13.88.35.68s.08-.81.08-.81S83.24,99,83,99.33Z"/></g></g></svg>