<svg xmlns="http://www.w3.org/2000/svg" xmlns:xlink="http://www.w3.org/1999/xlink" viewBox="0 0 325.44 255.31"><defs><style>.cls-1{isolation:isolate;}.cls-2{fill:#e8f0ff;mix-blend-mode:multiply;}.cls-3{fill:url(#linear-gradient);}.cls-4{fill:#ccd3e0;}.cls-5{fill:url(#linear-gradient-2);}.cls-6{opacity:0.4;}.cls-7{fill:url(#linear-gradient-3);}.cls-8{fill:#375a64;}.cls-9{fill:url(#linear-gradient-4);}.cls-10{opacity:0.2;}.cls-11{fill:#ececec;}.cls-12{fill:url(#linear-gradient-5);}.cls-13{fill:#fff;}.cls-14{fill:#1a2e35;}.cls-15{fill:#fafafa;}.cls-16{fill:#e1e1e1;}.cls-17{fill:#a2c7de;}.cls-18{fill:#ff4f5b;}.cls-19{fill:#ffc19d;}.cls-20{fill:url(#linear-gradient-6);}.cls-21{opacity:0.6;}.cls-22{fill:url(#linear-gradient-7);}.cls-23{fill:#ff9c6a;}.cls-24{opacity:0.3;}.cls-25{fill:#bf654e;}.cls-26{fill:#c78976;}.cls-27{fill:url(#linear-gradient-8);}.cls-28{fill:url(#linear-gradient-9);}.cls-29{fill:url(#linear-gradient-10);}.cls-30{fill:url(#linear-gradient-11);}.cls-31{fill:url(#linear-gradient-12);}</style><linearGradient id="linear-gradient" x1="4.52" y1="148.78" x2="325.44" y2="148.78" gradientUnits="userSpaceOnUse"><stop offset="0.45" stop-color="#676a78"/><stop offset="0.55" stop-color="#8b8e9e"/></linearGradient><linearGradient id="linear-gradient-2" x1="32.05" y1="100.74" x2="294.84" y2="100.74" gradientUnits="userSpaceOnUse"><stop offset="0.09" stop-color="#0196ff"/><stop offset="0.3" stop-color="#018ffc"/><stop offset="0.61" stop-color="#017af4"/><stop offset="0.99" stop-color="#0059e6"/><stop offset="1" stop-color="#0058e6"/></linearGradient><linearGradient id="linear-gradient-3" x1="0" y1="74.58" x2="312.13" y2="74.58" xlink:href="#linear-gradient-2"/><linearGradient id="linear-gradient-4" x1="295.75" y1="87.59" x2="312.13" y2="87.59" xlink:href="#linear-gradient-2"/><linearGradient id="linear-gradient-5" x1="294.84" y1="87.59" x2="313.05" y2="87.59" xlink:href="#linear-gradient-2"/><linearGradient id="linear-gradient-6" x1="290.63" y1="137.68" x2="304.51" y2="137.68" xlink:href="#linear-gradient-2"/><linearGradient id="linear-gradient-7" x1="256.93" y1="141.21" x2="271.98" y2="141.21" xlink:href="#linear-gradient-2"/><linearGradient id="linear-gradient-8" x1="217.36" y1="139.9" x2="233.3" y2="139.9" xlink:href="#linear-gradient-2"/><linearGradient id="linear-gradient-9" x1="209.11" y1="140.52" x2="225.1" y2="140.52" xlink:href="#linear-gradient-2"/><linearGradient id="linear-gradient-10" x1="219.58" y1="40.19" x2="240.57" y2="40.19" xlink:href="#linear-gradient-2"/><linearGradient id="linear-gradient-11" x1="200.59" y1="48.74" x2="229.2" y2="48.74" xlink:href="#linear-gradient-2"/><linearGradient id="linear-gradient-12" x1="198.39" y1="42.18" x2="232.45" y2="42.18" xlink:href="#linear-gradient-2"/></defs><g class="cls-1"><g id="Layer_1" data-name="Layer 1"><path class="cls-2" d="M151.7,74.74,12.69,155C.58,162,2.11,174.32,16.1,182.4l114.7,66.22c14,8.08,35.35,9,47.46,2l139-80.26c12.12-7,10.58-19.32-3.41-27.4L199.16,76.71C185.17,68.63,163.82,67.75,151.7,74.74Z"/><path class="cls-3" d="M325.44,129.4l-10.54.27c-.34-.21-.68-.42-1-.62L199.16,62.82c-14-8.07-35.34-9-47.46-2L19.08,137.42l-14.56.39V153h0c0,5.41,3.9,11.12,11.57,15.54l114.7,66.23c14,8.07,35.35,9,47.46,2l139-80.25c5.52-3.19,8.19-7.48,8.16-12h0Z"/><path class="cls-4" d="M151.7,45.71,12.69,126c-12.11,7-10.58,19.32,3.41,27.4l114.7,66.22c14,8.08,35.35,9,47.46,2l139-80.26c12.12-7,10.58-19.32-3.41-27.4L199.16,47.68C185.17,39.6,163.82,38.71,151.7,45.71Z"/><rect class="cls-5" x="32.05" y="82.97" width="262.79" height="35.52"/><g class="cls-6"><rect x="32.05" y="82.97" width="262.79" height="35.52"/></g><path class="cls-7" d="M305.91,80A21.78,21.78,0,0,0,288,65.84L229,58.9,207.46,43.53A88.25,88.25,0,0,0,156.17,27.1h-140a2.42,2.42,0,0,0-.95,4.64L25.3,36.06a19.37,19.37,0,0,0-1,2l-5.7,13.22a25.72,25.72,0,0,0-2.11,10.19,5.77,5.77,0,0,0-5.77,5.77v23l-6,2.67A8,8,0,0,0,0,100.2v6a9.76,9.76,0,0,0,7.84,9.56l31.65,6.33V119.2A30.56,30.56,0,0,1,70.05,88.64h0A30.56,30.56,0,0,1,100.6,119.2v2.86H227.78V119.2a30.56,30.56,0,0,1,30.55-30.56h0a30.56,30.56,0,0,1,30.56,30.56v2.86H304.5a7.63,7.63,0,0,0,7.63-7.64V97Z"/><path class="cls-8" d="M24.29,38l-5.7,13.22a25.72,25.72,0,0,0-2.11,10.19h7.87L32.05,39,25.3,36.06A19.37,19.37,0,0,0,24.29,38Z"/><path class="cls-9" d="M305.91,80a22,22,0,0,0-1.79-3.72h-8.37l7.57,17.57,8.81,5.09V97Z"/><g class="cls-10"><path d="M305.91,80a22,22,0,0,0-1.79-3.72h-8.37l7.57,17.57,8.81,5.09V97Z"/></g><path class="cls-11" d="M11.32,82.46h4.33a12.17,12.17,0,0,0,6.93-2.16l7.22-5a4.72,4.72,0,0,0,2-3.88h0a4.73,4.73,0,0,0-4.72-4.72H11.33a.69.69,0,0,0-.69.69l0,14.39A.69.69,0,0,0,11.32,82.46Z"/><path class="cls-12" d="M312.59,98.13l-2.52-1.46h1.54a.91.91,0,1,0,0-1.82h-4.69l-1.59-.91h5.36a.91.91,0,0,0,0-1.82h-7.11l-.4-.92h6.45a.91.91,0,1,0,0-1.82H302.4l-.39-.91h6.72a.92.92,0,0,0,0-1.83h-7.51l-.39-.91h6.85a.91.91,0,1,0,0-1.82H300l-.39-.91h7a.92.92,0,0,0,0-1.83h-7.78l-.39-.91h7.19a.91.91,0,1,0,0-1.82h-8l-.54-1.27h7a.91.91,0,1,0,0-1.82h-8.37a.9.9,0,0,0-.83,1.27l2.5,5.82h0l1.18,2.73h0l1.18,2.73h0L301,90.64h0l1.18,2.73h0l.35.81a.88.88,0,0,0,.38.43l8.81,5.09a.91.91,0,0,0,1.24-.34A.9.9,0,0,0,312.59,98.13Z"/><g class="cls-10"><path class="cls-13" d="M312.59,98.13l-2.52-1.46h1.54a.91.91,0,1,0,0-1.82h-4.69l-1.59-.91h5.36a.91.91,0,0,0,0-1.82h-7.11l-.4-.92h6.45a.91.91,0,1,0,0-1.82H302.4l-.39-.91h6.72a.92.92,0,0,0,0-1.83h-7.51l-.39-.91h6.85a.91.91,0,1,0,0-1.82H300l-.39-.91h7a.92.92,0,0,0,0-1.83h-7.78l-.39-.91h7.19a.91.91,0,1,0,0-1.82h-8l-.54-1.27h7a.91.91,0,1,0,0-1.82h-8.37a.9.9,0,0,0-.83,1.27l2.5,5.82h0l1.18,2.73h0l1.18,2.73h0L301,90.64h0l1.18,2.73h0l.35.81a.88.88,0,0,0,.38.43l8.81,5.09a.91.91,0,0,0,1.24-.34A.9.9,0,0,0,312.59,98.13Z"/></g><circle class="cls-14" cx="70.73" cy="120.46" r="26.63" transform="translate(-1.79 1.07) rotate(-0.86)"/><path class="cls-14" d="M44.11,120v.07a26.63,26.63,0,1,0,53.25.77v-.07Z"/><path class="cls-15" d="M52,120.19a18.7,18.7,0,1,0,19-18.42A18.7,18.7,0,0,0,52,120.19Z"/><path class="cls-16" d="M71,101.77a18.69,18.69,0,0,0-19,18.42l37.39.54A18.7,18.7,0,0,0,71,101.77Z"/><path class="cls-14" d="M59.35,120.3A11.39,11.39,0,1,0,70.9,109.07,11.38,11.38,0,0,0,59.35,120.3Z"/><circle class="cls-14" cx="258.46" cy="120.46" r="26.63" transform="translate(-9.57 23.13) rotate(-5.03)"/><path class="cls-14" d="M231.84,120a.15.15,0,0,0,0,.07,26.63,26.63,0,0,0,53.25.77v-.07Z"/><path class="cls-15" d="M239.76,120.19a18.7,18.7,0,1,0,19-18.42A18.7,18.7,0,0,0,239.76,120.19Z"/><path class="cls-16" d="M258.73,101.77a18.7,18.7,0,0,0-19,18.42l37.39.54A18.69,18.69,0,0,0,258.73,101.77Z"/><path class="cls-14" d="M247.07,120.3a11.39,11.39,0,1,0,11.55-11.23A11.38,11.38,0,0,0,247.07,120.3Z"/><path class="cls-8" d="M229,58.9,207.46,43.53a88.3,88.3,0,0,0-20.07-10.71h-7.1l43.08,28.63Z"/><path class="cls-15" d="M292.54,74.58H303a25.67,25.67,0,0,0-5.38-5.29C295.23,68.53,292.31,71.53,292.54,74.58Z"/><path class="cls-14" d="M79.22,62.27H217.75L178.21,35a16.88,16.88,0,0,0-10-3.27H82.33S51.48,31,44.71,40.26Z"/><path class="cls-8" d="M69.22,62.34c-.51,0-1,0-1.51-.05a24.28,24.28,0,0,1-17.48-9l-5.66-7a4.62,4.62,0,0,1,1.9-7.2l4.87-2.15a52.17,52.17,0,0,1,18.11-3.45H85.57L80.41,62.34Zm22.46,0,5.15-28.91H144.3V62.34Zm67,0-5.55-28.91h16.41a11.67,11.67,0,0,1,7,2.32l35.57,26.59Z"/><path class="cls-14" d="M153.05,114.94a.79.79,0,0,1,0-.14v-1.94c0-1.36,0-3.3,0-5.68.06-4.81.14-11.43.22-18.74.06-3.66.11-7.14.15-10.31,0-1.59.05-3.09.08-4.5a24.56,24.56,0,0,0-.14-3.91,26.94,26.94,0,0,0-1.28-5.5c-.22-.63-.41-1.12-.54-1.45l-.15-.37,0-.13s0,0,.07.12l.18.37c.14.32.34.8.58,1.43a26.76,26.76,0,0,1,1.36,5.51,24.64,24.64,0,0,1,.17,3.93c0,1.41,0,2.92-.05,4.5,0,3.17-.09,6.66-.14,10.32-.11,7.3-.21,13.92-.29,18.73-.05,2.38-.09,4.32-.11,5.68,0,.65,0,1.17,0,1.54l0,.4A.79.79,0,0,1,153.05,114.94Z"/><path class="cls-14" d="M213.17,64.35l.11.08.31.24.23.18.24.25a7,7,0,0,1,.56.67,18,18,0,0,1,2.4,5c.37,1.11.72,2.34,1,3.68.16.67.3,1.37.43,2.09a10.42,10.42,0,0,1,.17,2.25c0,3.09-.1,6.47-.19,10-.18,7.11-.4,13.55-.57,18.2-.09,2.32-.16,4.2-.21,5.52,0,.64-.06,1.14-.07,1.5l0,.39c0,.09,0,.13,0,.13V114c0-.36,0-.87,0-1.5,0-1.32.09-3.2.14-5.52.13-4.68.31-11.1.5-18.21.09-3.55.19-6.94.2-10a10.15,10.15,0,0,0-.15-2.22c-.13-.71-.26-1.41-.41-2.08-.3-1.33-.64-2.56-1-3.66a18.29,18.29,0,0,0-2.32-5A8.86,8.86,0,0,0,213.17,64.35Z"/><path class="cls-17" d="M217.74,63.41h0a4.76,4.76,0,0,0-2.42-4.15l-6.24-3.5a11.87,11.87,0,0,0-5.82-1.52h0a11.9,11.9,0,0,0-3.71.59A6.74,6.74,0,0,0,195,61h0a6.87,6.87,0,0,0,6.86,7.13H213A4.76,4.76,0,0,0,217.74,63.41Z"/><path class="cls-14" d="M217.74,63.41s0,.21-.07.61a4.8,4.8,0,0,1-.54,1.62,4.9,4.9,0,0,1-1.92,1.89,4.69,4.69,0,0,1-1.6.5c-.59.07-1.24,0-1.92,0l-9.51,0a7.34,7.34,0,0,1-2.65-.44,6.8,6.8,0,0,1-2.35-1.49,6.67,6.67,0,0,1-1.59-2.41,7,7,0,0,1-.42-2.94,6.75,6.75,0,0,1,2.81-5,7.08,7.08,0,0,1,2.58-1.09,11.9,11.9,0,0,1,2.69-.32,11.71,11.71,0,0,1,4.88,1.05c.72.32,1.38.72,2,1.07l1.86,1,3.19,1.77a4.81,4.81,0,0,1,2.47,3.51c0,.39,0,.6.06.6a2.82,2.82,0,0,0,0-.61,4.52,4.52,0,0,0-.51-1.67,4.81,4.81,0,0,0-1.93-2l-3.17-1.81-1.85-1.05c-.65-.36-1.3-.77-2-1.1a11.91,11.91,0,0,0-7.74-.78,7.43,7.43,0,0,0-2.67,1.12,7,7,0,0,0-2.94,5.19,7.24,7.24,0,0,0,.44,3.07A6.93,6.93,0,0,0,197,66.31a7.07,7.07,0,0,0,2.45,1.55,7.54,7.54,0,0,0,2.75.44l9.51,0a17.56,17.56,0,0,0,1.94,0,5,5,0,0,0,1.66-.55,4.87,4.87,0,0,0,1.93-2,4.56,4.56,0,0,0,.51-1.68A2.82,2.82,0,0,0,217.74,63.41Z"/><path class="cls-13" d="M200.52,56.86s.17-.22.54-.52a3.74,3.74,0,0,1,1.84-.74,8,8,0,0,1,3,.32,23.36,23.36,0,0,1,3.5,1.19,22.85,22.85,0,0,1,5.7,3.55c1.32,1.11,2,1.93,2.06,1.89a2.73,2.73,0,0,0-.47-.59,16.44,16.44,0,0,0-1.46-1.46,20.86,20.86,0,0,0-5.71-3.65,21.87,21.87,0,0,0-3.56-1.19,8.07,8.07,0,0,0-3-.26,3.58,3.58,0,0,0-1.89.86,2.37,2.37,0,0,0-.37.43C200.54,56.8,200.51,56.86,200.52,56.86Z"/><path class="cls-14" d="M109.52,121.28s0-.11,0-.33,0-.55,0-1,.07-.95.07-1.57,0-1.33,0-2.13-.15-1.7-.23-2.67c0-.49-.15-1-.23-1.51s-.16-1.07-.3-1.63a41.27,41.27,0,0,0-2.38-7.36,40,40,0,0,0-4.8-8.05A38,38,0,0,0,94,87.56a36.17,36.17,0,0,0-10.58-5.34,42.07,42.07,0,0,0-12.59-1.9,43.75,43.75,0,0,0-12.59,2,39.58,39.58,0,0,0-10.65,5.23,43.34,43.34,0,0,0-8,7.17,47.06,47.06,0,0,0-5.42,7.66,51,51,0,0,0-3.22,7c-.2.53-.35,1.06-.52,1.57s-.34,1-.46,1.46c-.23.94-.49,1.8-.65,2.59l-.42,2.1c-.11.6-.17,1.13-.23,1.54l-.14,1a2.92,2.92,0,0,1-.06.32l0-.32.12-1c.06-.42.11-1,.21-1.56l.4-2.1c.16-.79.4-1.65.63-2.61.12-.47.3-1,.45-1.46s.31-1,.51-1.58a51.47,51.47,0,0,1,3.2-7.08,47.7,47.7,0,0,1,5.41-7.71,43.47,43.47,0,0,1,8-7.22,39.26,39.26,0,0,1,10.7-5.27,43.5,43.5,0,0,1,12.66-2A41.9,41.9,0,0,1,83.51,82a36.35,36.35,0,0,1,10.64,5.38A37.62,37.62,0,0,1,101.84,95a39.74,39.74,0,0,1,4.79,8.1,40.16,40.16,0,0,1,2.36,7.41c.14.55.19,1.11.29,1.63s.18,1,.22,1.52c.08,1,.19,1.87.21,2.67s0,1.52,0,2.14-.08,1.15-.1,1.57l-.08,1Z"/><path class="cls-14" d="M82.27,81.73a.68.68,0,0,1-.13-.18L81.79,81c-.29-.48-.71-1.17-1.2-2S79.53,77,79,75.79a5.86,5.86,0,0,1-.33-1,1.51,1.51,0,0,1,0-.56c0-.18.1-.35.16-.53.22-.69.49-1.39.78-2.1,1.14-2.85,2.29-5.38,3.12-7.21.42-.92.76-1.66,1-2.16l.28-.58a.93.93,0,0,1,.12-.2s0,.08-.07.22l-.25.6c-.23.55-.55,1.29-.94,2.18-.79,1.85-1.91,4.39-3,7.24-.28.71-.55,1.41-.78,2.08a2.42,2.42,0,0,0-.18,1,6.05,6.05,0,0,0,.3.94c.51,1.22,1.08,2.28,1.54,3.16s.85,1.57,1.13,2.1l.31.57C82.25,81.66,82.28,81.73,82.27,81.73Z"/><path class="cls-14" d="M43.74,90.65c0,.07-7.45.09-16.65,0s-16.64-.13-16.64-.2,7.45-.08,16.65,0S43.74,90.59,43.74,90.65Z"/><path class="cls-14" d="M217.56,114.52c0,.07-24.18.12-54,.12s-54-.06-54-.12,24.18-.12,54-.12S217.56,114.45,217.56,114.52Z"/><path class="cls-14" d="M312.12,114.81c0,.07-3.7.12-8.27.12s-8.27-.05-8.27-.12,3.7-.12,8.27-.12S312.12,114.74,312.12,114.81Z"/><path class="cls-14" d="M291.67,71.16h-.18l-.51,0L289,71c-1.73-.15-4.23-.38-7.32-.68-6.18-.62-14.7-1.59-24.08-2.9s-17.85-2.72-24-3.82c-3.06-.55-5.52-1-7.23-1.36l-2-.39-.51-.11-.17,0,.18,0,.51.08,2,.35,7.24,1.28c6.11,1.06,14.58,2.44,24,3.76s17.9,2.3,24.07,3l7.31.75,2,.21.52.06Z"/><path class="cls-14" d="M171.31,74.07s.13,0,.37-.06a2.53,2.53,0,0,0,2-1.7,2.63,2.63,0,0,0,.13-1,2.56,2.56,0,0,0-.29-1.12,2.49,2.49,0,0,0-2.17-1.32H160.91A2.44,2.44,0,0,0,158.47,71a2.69,2.69,0,0,0,.3,1.66,2.49,2.49,0,0,0,1.2,1.07,3.73,3.73,0,0,0,1.56.19h4.31l4,0,1.09,0,.38,0a1.67,1.67,0,0,1-.38,0l-1.09,0-4,0h-4.31c-.26,0-.52,0-.81,0a2.66,2.66,0,0,1-2.16-1.35,3,3,0,0,1-.33-1.8,2.66,2.66,0,0,1,.86-1.7,2.73,2.73,0,0,1,1.82-.71h7.26l3.18,0A2.67,2.67,0,0,1,174,71.27a3,3,0,0,1-.16,1.09,2.58,2.58,0,0,1-1.08,1.34,2.43,2.43,0,0,1-1,.36A1.56,1.56,0,0,1,171.31,74.07Z"/><path class="cls-13" d="M170.42,68a33.24,33.24,0,0,1-4.12.13,33.34,33.34,0,0,1-4.13-.13,37.42,37.42,0,0,1,4.13-.12A37.31,37.31,0,0,1,170.42,68Z"/><path class="cls-14" d="M102.83,74.49l.37,0a2.54,2.54,0,0,0,1-.4,2.49,2.49,0,0,0,1-1.31,2.83,2.83,0,0,0,.13-1,2.57,2.57,0,0,0-.3-1.12,2.47,2.47,0,0,0-2.16-1.32H92.43a2.48,2.48,0,0,0-1.65.64A2.46,2.46,0,0,0,90,71.46a2.74,2.74,0,0,0,.3,1.66,2.44,2.44,0,0,0,1.2,1.07,3.78,3.78,0,0,0,1.57.19H94.6l2.76,0,4,0,1.09,0,.38,0a1.88,1.88,0,0,1-.38,0l-1.09,0-4,0h-4.3c-.27,0-.53,0-.82,0a2.7,2.7,0,0,1-.83-.19,2.66,2.66,0,0,1-1.32-1.16,3,3,0,0,1-.34-1.8,2.71,2.71,0,0,1,.86-1.69A2.63,2.63,0,0,1,92.43,69H99.7l3.17,0a2.68,2.68,0,0,1,2.32,1.44,2.62,2.62,0,0,1,.29,1.2,2.92,2.92,0,0,1-.15,1.08,2.59,2.59,0,0,1-1.09,1.34,2.43,2.43,0,0,1-1,.37A1.83,1.83,0,0,1,102.83,74.49Z"/><path class="cls-13" d="M101.94,68.46a37.31,37.31,0,0,1-4.12.12,37.16,37.16,0,0,1-4.12-.12,33.11,33.11,0,0,1,4.12-.13A33.24,33.24,0,0,1,101.94,68.46Z"/><path class="cls-14" d="M296,122.14s0-.11,0-.33v-1c0-.42,0-.95,0-1.56s-.09-1.33-.15-2.13-.22-1.68-.34-2.65c-.07-.49-.19-1-.29-1.5s-.21-1.06-.36-1.61a44,44,0,0,0-2.57-7.29,41.73,41.73,0,0,0-4.9-8,39.61,39.61,0,0,0-7.67-7.49,36.66,36.66,0,0,0-10.54-5.39,40.6,40.6,0,0,0-25.11,0,36.6,36.6,0,0,0-10.53,5.39,39.11,39.11,0,0,0-7.68,7.49,42.25,42.25,0,0,0-4.9,8,44,44,0,0,0-2.57,7.29c-.15.55-.24,1.09-.35,1.61s-.23,1-.3,1.5c-.12,1-.27,1.85-.34,2.64l-.15,2.13c0,.62,0,1.14,0,1.57v1c0,.22,0,.33,0,.33s0-.11,0-.33,0-.55,0-1,0-.95,0-1.57.08-1.33.12-2.13.21-1.69.33-2.66c.06-.49.19-1,.28-1.51s.2-1.06.35-1.62a43.78,43.78,0,0,1,2.55-7.32,41.16,41.16,0,0,1,4.89-8,39.53,39.53,0,0,1,7.71-7.55A36.8,36.8,0,0,1,244,83a40.88,40.88,0,0,1,25.26,0,36.83,36.83,0,0,1,10.59,5.45,38.88,38.88,0,0,1,7.7,7.54,41.76,41.76,0,0,1,4.89,8,43.56,43.56,0,0,1,2.55,7.33c.15.55.24,1.1.35,1.62s.22,1,.28,1.5c.12,1,.27,1.86.33,2.66s.09,1.51.12,2.13,0,1.15,0,1.57l0,1C296,122,296,122.14,296,122.14Z"/><path class="cls-14" d="M93.84,31.71H82l-28.47-.09-15.68-.08c-4.82,0-9.16,0-12.8-.22a63.21,63.21,0,0,1-8.58-1c-1-.19-1.77-.37-2.29-.5l-.59-.16c-.14,0-.2-.05-.2-.06l.2,0,.6.13c.52.12,1.3.28,2.3.46a65.62,65.62,0,0,0,8.57.9c3.63.19,8,.14,12.79.17l15.68.06L82,31.57l8.63.08,2.35,0h.61Z"/><path class="cls-15" d="M126.7,44c0,.06-5,2.76-11.27,6s-11.35,5.88-11.38,5.82,5-2.76,11.27-6S126.67,43.92,126.7,44Z"/><path class="cls-15" d="M137.26,41.86A1.16,1.16,0,0,1,137,42l-.71.39-2.66,1.39c-2.24,1.18-5.34,2.81-8.73,4.66s-6.44,3.55-8.64,4.8l-2.62,1.48-.71.39c-.16.09-.25.13-.26.12l.24-.16.69-.43c.6-.38,1.48-.9,2.57-1.55,2.18-1.28,5.22-3,8.62-4.87s6.5-3.45,8.76-4.59c1.13-.57,2.05-1,2.69-1.32L137,42A1.63,1.63,0,0,1,137.26,41.86Z"/><path class="cls-15" d="M183.08,45.71l-.2.11-.58.26-2.15,1c-1.82.81-4.32,2-7.05,3.27s-5.18,2.57-6.95,3.49l-2.09,1.08-.57.29-.21.09a.88.88,0,0,1,.19-.13l.55-.33c.48-.28,1.18-.68,2-1.16,1.75-.95,4.19-2.23,6.92-3.55s5.25-2.44,7.09-3.21c.92-.39,1.66-.69,2.18-.89l.6-.23C183,45.72,183.07,45.7,183.08,45.71Z"/><path class="cls-15" d="M176.48,45.06a10.37,10.37,0,0,1-1.32.68c-.82.4-1.95,1-3.17,1.65s-2.3,1.35-3.08,1.84a11,11,0,0,1-1.27.76,8.77,8.77,0,0,1,1.18-.91c.75-.52,1.82-1.21,3.05-1.9s2.38-1.23,3.22-1.6A7.78,7.78,0,0,1,176.48,45.06Z"/><path class="cls-15" d="M73,44.8c0,.06-3.31,1.4-7.46,3S58.05,50.63,58,50.57s3.31-1.41,7.46-3S73,44.74,73,44.8Z"/><path class="cls-15" d="M68.74,43.41c0,.06-2.86,1.17-6.44,2.48s-6.5,2.31-6.52,2.25,2.86-1.17,6.44-2.48S68.71,43.35,68.74,43.41Z"/><path class="cls-15" d="M264.1,79.86a2.17,2.17,0,0,1-.38,0l-1.08-.11-.78-.08c-.28,0-.6,0-.93-.06-.67,0-1.43-.1-2.27-.09h-1.32c-.46,0-.94,0-1.44.05-1,0-2,.14-3.15.24a51,51,0,0,0-7.1,1.37,50.38,50.38,0,0,0-6.81,2.45c-1,.48-2,.92-2.83,1.41-.44.24-.87.45-1.26.69l-1.13.68c-.73.42-1.35.87-1.91,1.24l-.77.52-.63.47-.87.65a1.28,1.28,0,0,1-.32.21l.29-.25.85-.68.61-.49.76-.54c.56-.38,1.17-.84,1.9-1.27l1.13-.7c.39-.25.82-.46,1.25-.71.86-.5,1.83-.94,2.84-1.43a44.67,44.67,0,0,1,14-3.84c1.11-.1,2.17-.21,3.17-.22.49,0,1,0,1.43,0l1.33,0c.85,0,1.61.08,2.28.13l.93.07.78.11,1.08.15A2.09,2.09,0,0,1,264.1,79.86Z"/><path class="cls-15" d="M72,78.62a1,1,0,0,1-.3,0h-.86c-.37,0-.83,0-1.36,0s-1.13,0-1.79.11l-1,.1L65.56,79c-.77.09-1.59.26-2.46.41a47.78,47.78,0,0,0-5.53,1.44c-1.93.63-3.72,1.35-5.33,2.06s-3,1.45-4.18,2.1c-.58.31-1.1.62-1.56.89s-.84.5-1.16.7l-.73.44a1,1,0,0,1-.27.14l.24-.18.71-.48c.31-.21.69-.47,1.14-.74s1-.6,1.55-.92c1.15-.67,2.57-1.41,4.17-2.15a51.55,51.55,0,0,1,5.35-2.09,47.54,47.54,0,0,1,5.56-1.43c.87-.15,1.69-.3,2.48-.38l1.12-.14,1-.08c.66-.06,1.27-.06,1.8-.07a12.24,12.24,0,0,1,1.36,0l.86,0A1.25,1.25,0,0,1,72,78.62Z"/><rect class="cls-16" x="98.41" y="35.02" width="41.55" height="25.72" transform="translate(-1.87 4.96) rotate(-2.37)"/><path class="cls-14" d="M98.74,61.83,97.66,35.67l42-1.73,1.08,26.16Zm-.6-25.72,1,25.24,41.05-1.7-1.05-25.23Z"/><path class="cls-18" d="M102.81,43.62l1.88-.07,0,1.35-1.88.08L103,48.9l-1.46.06-.39-9.5,3.85-.15.06,1.35-2.4.1Z"/><path class="cls-18" d="M105.71,41.56a2.09,2.09,0,0,1,2.11-2.48c1.43-.06,2.25.78,2.31,2.3l.21,4.94a2.22,2.22,0,1,1-4.43.18Zm1.66,5c0,.68.33.93.8.91s.74-.29.71-1l-.21-5.13c0-.68-.33-.92-.79-.9s-.75.29-.72,1Z"/><path class="cls-18" d="M114.42,48.43a3,3,0,0,1-.18-1.16l-.07-1.49c0-.89-.34-1.2-1-1.17l-.5,0,.16,3.87-1.46.06-.39-9.5,2.2-.09c1.51-.06,2.18.63,2.25,2.09l0,.75a1.91,1.91,0,0,1-.88,2c.74.28,1,1,1,2l.06,1.46a2.91,2.91,0,0,0,.21,1.15Zm-1.93-8.07.12,2.91.57,0c.54,0,.86-.28.83-1l0-.94c0-.68-.26-1-.78-.94Z"/><path class="cls-18" d="M120.31,38.56c1.42-.05,2.18.78,2.24,2.3l0,.3-1.38.06,0-.39c0-.68-.3-.93-.76-.91s-.72.29-.69,1c.08,2,2.94,2.2,3,4.91.06,1.52-.64,2.42-2.07,2.48s-2.21-.78-2.27-2.3l0-.58,1.38-.06,0,.68c0,.68.33.91.79.89s.75-.27.72-.95c-.08-2-2.94-2.21-3.06-4.92C118.2,39.52,118.89,38.62,120.31,38.56Z"/><path class="cls-18" d="M128.41,47.85l-1.47.06-.32-1.71-1.79.07L124.65,48l-1.33.05,1.09-9.56,2.13-.08ZM125,45l1.4-.06-.9-4.77Z"/><path class="cls-18" d="M128.7,38.33l1.45-.06.34,8.14,2.4-.1.05,1.36-3.85.16Z"/><path class="cls-18" d="M134.81,42.08l2-.08.06,1.36-2,.08.11,2.78,2.52-.1.05,1.36-4,.16-.39-9.5,4-.16.06,1.35-2.52.11Z"/><rect class="cls-15" x="101.26" y="51.04" width="36.41" height="5.95" rx="2.6" transform="translate(-2.13 4.98) rotate(-2.37)"/><path class="cls-14" d="M108.34,56.3a.87.87,0,0,1,.08-.14,3,3,0,0,1,.29-.34,2.66,2.66,0,0,1,1.48-.69,2.47,2.47,0,0,1,1.15.13,1.36,1.36,0,0,1,.88,1,1.53,1.53,0,0,1-.48,1.39,1.84,1.84,0,0,1-1.54.36,2.31,2.31,0,0,1-1.33-.84,3.32,3.32,0,0,1-.62-1.32,3.58,3.58,0,0,1,.31-2.41,3.46,3.46,0,0,1,1.08-1.23A4.26,4.26,0,0,1,110,52c.09,0,.14-.06.15,0s-.18.12-.48.35a3.61,3.61,0,0,0-1,1.24,3.48,3.48,0,0,0-.24,2.28,3.07,3.07,0,0,0,.59,1.22,2.09,2.09,0,0,0,1.19.76,1.59,1.59,0,0,0,1.33-.31A1.3,1.3,0,0,0,112,56.3a1.13,1.13,0,0,0-.74-.85,2.17,2.17,0,0,0-1.05-.15,2.72,2.72,0,0,0-1.44.6C108.48,56.13,108.36,56.32,108.34,56.3Z"/><path class="cls-14" d="M113.61,57.18s.17.07.5.11a2,2,0,0,0,1.28-.34,1.65,1.65,0,0,0,.58-.69,1.52,1.52,0,0,0,.08-1,1.19,1.19,0,0,0-.75-.78,2,2,0,0,0-1.22,0,5.63,5.63,0,0,0-1.09.48l-.13-.2a2,2,0,0,0,.85-1.72.84.84,0,0,0-.35-.69.81.81,0,0,0-.68,0,3.56,3.56,0,0,0-1.23.84,1.11,1.11,0,0,1,.24-.34,2.75,2.75,0,0,1,.93-.65,1.06,1.06,0,0,1,.83-.06,1,1,0,0,1,.46.85,2.17,2.17,0,0,1-.91,1.92l-.13-.2a5.62,5.62,0,0,1,1.14-.5,2.14,2.14,0,0,1,1.37,0,1.38,1.38,0,0,1,.88.93,1.75,1.75,0,0,1-.1,1.16,1.93,1.93,0,0,1-.67.76,1.82,1.82,0,0,1-1.77.16C113.64,57.22,113.61,57.19,113.61,57.18Z"/><path class="cls-14" d="M118.21,56.78a7.37,7.37,0,0,1-.08-1.29c0-.8,0-1.9,0-3.12v-.71h.24a6.38,6.38,0,0,1-.75,2.55,3,3,0,0,1-.63.87s.21-.35.49-.94a7.06,7.06,0,0,0,.65-2.5h.24v.71c0,1.22,0,2.32,0,3.12A7.88,7.88,0,0,1,118.21,56.78Z"/><path class="cls-14" d="M119.6,54.59a5.86,5.86,0,0,1,.5-3.23,10.62,10.62,0,0,1-.24,1.62A10.43,10.43,0,0,1,119.6,54.59Z"/><path class="cls-14" d="M121.62,54.35a2.84,2.84,0,0,1-1.12.16,2.56,2.56,0,0,1-1.12-.07,2.62,2.62,0,0,1,1.11-.17A2.74,2.74,0,0,1,121.62,54.35Z"/><path class="cls-14" d="M121.78,57.7a3.24,3.24,0,0,1-.18-.93,22.27,22.27,0,0,1-.14-2.3,20.36,20.36,0,0,1,.12-2.3,3.8,3.8,0,0,1,.17-.94c.07,0-.06,1.46,0,3.24S121.85,57.69,121.78,57.7Z"/><path class="cls-14" d="M123.57,56.2a1.8,1.8,0,0,1,.46,0,2.76,2.76,0,0,0,1.2-.15,1.32,1.32,0,0,0,.61-.52.79.79,0,0,0,0-.84,1.15,1.15,0,0,0-.8-.53,2.55,2.55,0,0,0-1.12.1l-.17,0-1.11.3,1-.52a5.28,5.28,0,0,0,.94-.62l.39-.36a1.2,1.2,0,0,0,.29-.38.29.29,0,0,0-.08-.34.52.52,0,0,0-.36-.16,2.07,2.07,0,0,0-.79.09,2.53,2.53,0,0,0-1,.59c-.2.2-.29.33-.3.32a1,1,0,0,1,.24-.38,2.37,2.37,0,0,1,1-.69,2.16,2.16,0,0,1,.87-.13.8.8,0,0,1,.48.21.54.54,0,0,1,.14.57,1.54,1.54,0,0,1-.33.46,5,5,0,0,1-.41.38,4.77,4.77,0,0,1-1,.65l-.09-.22.18,0a2.79,2.79,0,0,1,1.22-.09,1.36,1.36,0,0,1,1,.66,1,1,0,0,1-.08,1,1.53,1.53,0,0,1-.71.57,2.69,2.69,0,0,1-1.28.09A1.41,1.41,0,0,1,123.57,56.2Z"/><path class="cls-14" d="M128.37,58.49a7.43,7.43,0,0,1,.16-1.41c.13-.87.33-2.06.56-3.38.12-.65.23-1.28.34-1.85,0-.15,0-.27,0-.29s-.2,0-.32,0l-.72.06a9.29,9.29,0,0,1-1.42.07,9.1,9.1,0,0,1,1.4-.24l.71-.09a.78.78,0,0,1,.47,0,.34.34,0,0,1,.13.27,1.52,1.52,0,0,1,0,.23c-.1.58-.21,1.21-.32,1.86-.23,1.32-.46,2.51-.63,3.37A9.33,9.33,0,0,1,128.37,58.49Z"/><path class="cls-14" d="M131.3,54.65a16.11,16.11,0,0,1-4,.31,8.78,8.78,0,0,1,2-.27A8.16,8.16,0,0,1,131.3,54.65Z"/><path class="cls-14" d="M135.64,55.3a7.29,7.29,0,0,1-1.16.41c-.73.24-1.77.55-3,.9l-.29.09.17-.26.87-1.41.65-1a8.8,8.8,0,0,0,.56-1,.92.92,0,0,0,0-.88.79.79,0,0,0-.67-.33,1.45,1.45,0,0,0-1,.56c-.2.22-.3.36-.31.35s0-.17.24-.41a2.09,2.09,0,0,1,.39-.41,1.32,1.32,0,0,1,.72-.26.93.93,0,0,1,.85.4,1.1,1.1,0,0,1,0,1.07,7,7,0,0,1-.56,1l-.64,1-.89,1.41-.13-.18c1.2-.34,2.25-.62,3-.82A8.9,8.9,0,0,1,135.64,55.3Z"/><path class="cls-14" d="M104.06,53a.84.84,0,0,0-.83.67,3.56,3.56,0,0,0,1.53,3.08s.54.12.77-.26l0-.05-.36-.84-.5.17s-.89-.9-.68-1.51c0,0,.36-.32.4-.29S104.06,53,104.06,53Z"/><path class="cls-14" d="M105.7,55.41a2.38,2.38,0,0,0-.09-1c-.23-.52-.72-.69-.69-.75s.14,0,.34.06a1.17,1.17,0,0,1,.57.59,1.2,1.2,0,0,1,.06.82C105.83,55.33,105.73,55.43,105.7,55.41Z"/><path class="cls-14" d="M106.35,55.91a3.46,3.46,0,0,1,.12-.52,1.93,1.93,0,0,0-.15-1.19,2,2,0,0,0-.84-.85c-.28-.15-.48-.18-.48-.22s.22-.05.55.07a1.82,1.82,0,0,1,1,.9,1.86,1.86,0,0,1,.1,1.33C106.53,55.77,106.37,55.92,106.35,55.91Z"/><rect class="cls-15" x="99.29" y="33.43" width="2.79" height="4.1"/><rect class="cls-15" x="135.86" y="33.29" width="2.79" height="1.96"/><path class="cls-19" d="M236.78,49.93a.67.67,0,0,1,.09-.21l1.61.31a24,24,0,0,1,2.67-.25c.11.09,2.85,2.8,2.94,2.78s3.83.39,3.83.39l.09,4.66-3.36,0-2.87-4.14-4.54-2.53A.89.89,0,0,1,236.78,49.93Z"/><path class="cls-17" d="M269,77.57l5.69,33.08a10.71,10.71,0,0,0,2.19,4.85l14,17.4,5.7-4.67-10.55-21-1.45-29.57Z"/><path class="cls-17" d="M272.76,77.55l-1,32.45a74.08,74.08,0,0,1,1.39,9.79c0,3.23-1.5,17.28-1.5,17.28l-6,.07-4.28-25-1.75-34.48Z"/><path class="cls-8" d="M274.17,107.37c-.07,0-1.08-6.37-2.26-14.24s-2.09-14.28-2-14.29,1.08,6.37,2.26,14.25S274.24,107.36,274.17,107.37Z"/><path class="cls-20" d="M296.63,128.23l.18.24,3.42,4.6,4.28,3-5.95,11-6.37-.09s.48-1.52,3.56-2.27l.29-6.11-5.41-6.11"/><g class="cls-21"><polygon class="cls-13" points="304.5 136.09 298.56 147.14 292.19 147.05 292.92 146.11 298.1 145.89 303.6 135.45 304.5 136.09"/></g><path class="cls-14" d="M295.83,142c0,.07.41-.13.91-.11s.85.23.9.16-.3-.43-.9-.44S295.77,141.93,295.83,142Z"/><path class="cls-14" d="M296,140.47c.06,0,.35-.33.86-.42s.91.15,1,.08,0-.13-.23-.23a1.18,1.18,0,0,0-.78-.12,1.1,1.1,0,0,0-.68.39C296,140.32,295.92,140.45,296,140.47Z"/><path class="cls-14" d="M295.94,138.52c.07,0,.29-.33.73-.47s.85,0,.88-.07-.06-.12-.24-.19a1.11,1.11,0,0,0-.73,0,1.13,1.13,0,0,0-.57.45C295.91,138.39,295.9,138.51,295.94,138.52Z"/><path class="cls-14" d="M294.25,137c.08,0,.26-.33.66-.58s.8-.29.8-.37-.47-.18-.95.13S294.18,137,294.25,137Z"/><path class="cls-14" d="M293.44,135.67s.25-.23.57-.66l.55-.76a2,2,0,0,0,.3-.51.52.52,0,0,0,0-.38.39.39,0,0,0-.38-.21,1.26,1.26,0,0,0-.6.3,2.32,2.32,0,0,0-.39.44,2.21,2.21,0,0,0-.35.91c-.07.56.11.89.14.87a7.56,7.56,0,0,1,.06-.83,2.26,2.26,0,0,1,.36-.8,2.14,2.14,0,0,1,.36-.38,1,1,0,0,1,.44-.23.13.13,0,0,1,.12.06.22.22,0,0,1,0,.18,1.81,1.81,0,0,1-.25.44l-.5.79A2.76,2.76,0,0,0,293.44,135.67Z"/><path class="cls-14" d="M293.21,135.86s0-.34-.33-.73a1.61,1.61,0,0,0-1.88-.37.28.28,0,0,0-.1.23.3.3,0,0,0,.07.2,1.1,1.1,0,0,0,.23.21,2.85,2.85,0,0,0,1.28.51,1.23,1.23,0,0,0,.78-.07s-.3,0-.75-.13a3,3,0,0,1-.75-.28,2.42,2.42,0,0,1-.4-.25.59.59,0,0,1-.16-.15c0-.06,0,0,0-.06a.7.7,0,0,1,.19-.06,1,1,0,0,1,.24,0,1.68,1.68,0,0,1,.45,0,1.63,1.63,0,0,1,.68.36A4.37,4.37,0,0,1,293.21,135.86Z"/><g class="cls-21"><path class="cls-13" d="M299.43,135.83a.74.74,0,0,0,.74.76.75.75,0,0,0,.77-.74.77.77,0,0,0-.75-.77A.76.76,0,0,0,299.43,135.83Z"/></g><path class="cls-22" d="M272,135.2l0,12.06-15,.19c.07-1.44,8.43-4.37,8.43-4.37l-.18-8.1Z"/><g class="cls-21"><path class="cls-13" d="M269.37,142.32a.61.61,0,0,1,.43.7.59.59,0,0,1-.68.43.64.64,0,0,1-.45-.73.6.6,0,0,1,.76-.38"/></g><g class="cls-21"><path class="cls-13" d="M272,147.26l-.06-1.22-14.37.64s-.67.3-.59.77Z"/></g><path class="cls-14" d="M265.14,143.21c0,.08.37.11.73.34s.56.54.63.51-.05-.46-.5-.73S265.12,143.15,265.14,143.21Z"/><path class="cls-14" d="M263.18,143.92c0,.07.3.19.55.5s.33.63.4.63.12-.42-.2-.79S263.18,143.85,263.18,143.92Z"/><path class="cls-14" d="M262.34,145.75c.06,0,.16-.36,0-.76s-.54-.55-.57-.49.18.27.34.6S262.26,145.74,262.34,145.75Z"/><path class="cls-14" d="M265.23,141.2c0,.07.36,0,.78,0s.74.15.78.08-.28-.32-.77-.34S265.19,141.14,265.23,141.2Z"/><path class="cls-14" d="M264.94,139.4a1.45,1.45,0,0,0,.75,0,3.37,3.37,0,0,0,.79-.25l.43-.24a.83.83,0,0,0,.22-.18.33.33,0,0,0,0-.39.42.42,0,0,0-.32-.16,1.27,1.27,0,0,0-.29,0,2.29,2.29,0,0,0-.46.17,2.51,2.51,0,0,0-.69.46c-.34.33-.46.6-.43.62s.2-.21.55-.48a2.74,2.74,0,0,1,.66-.39l.43-.14c.16,0,.3,0,.34,0s0,0,0,.08a.43.43,0,0,1-.16.13,3.66,3.66,0,0,1-1.12.52A6,6,0,0,0,264.94,139.4Z"/><path class="cls-14" d="M265,139.51a1.27,1.27,0,0,0,.19-.73,2.38,2.38,0,0,0-.12-.83,2.16,2.16,0,0,0-.19-.45.62.62,0,0,0-.49-.37.33.33,0,0,0-.31.21.77.77,0,0,0-.07.28,1.67,1.67,0,0,0,0,.5,1.81,1.81,0,0,0,.33.78c.3.38.61.47.61.44s-.23-.17-.46-.55a1.7,1.7,0,0,1-.24-.7,1.55,1.55,0,0,1,0-.43c0-.16.08-.29.14-.28s.21.12.27.25a2.42,2.42,0,0,1,.19.4,2.89,2.89,0,0,1,.16.75C265.07,139.22,265,139.5,265,139.51Z"/><path class="cls-15" d="M239.33,57.06c0,.06-.28,0-.53-.17s-.35-.42-.3-.46.23.11.45.27S239.35,57,239.33,57.06Z"/><path class="cls-15" d="M238.9,57.82c-.07,0-.11-.24-.1-.53s.09-.53.15-.53.11.25.1.54S239,57.82,238.9,57.82Z"/><path class="cls-23" d="M247.53,46.86c-.07,0-.31-2.62-.31-2.62s1,.21,1.14.89.32,1.27.32,1.27l2.41.68,2.54-.8-1,1.65s-1.37.21-1.48.21S247.53,46.86,247.53,46.86Z"/><path class="cls-19" d="M255.74,50l-5.6-.53s-4.24-2.57-4.72-2.89a.42.42,0,0,1-.19-.29.53.53,0,0,1,.71-.55l5,1.74a1.06,1.06,0,0,0,.9-.11l2.09-1.25s-.86-.81-1.4-1.44a1,1,0,0,1-.15-1.21c.67.09,4.09,2.6,4.09,2.6l1.42,1.09Z"/><path class="cls-23" d="M248.65,46.44l.75-2.19s.67.08.6.92-.05,1.55-.05,1.55l1.12.45-2.43-.67"/><path class="cls-17" d="M245.72,52.49l11.66-1,7.34-10.91L268.19,49l-4,6a7.63,7.63,0,0,1-6.68,3.41l-11.81-.47Z"/><path class="cls-14" d="M275.7,9.92c.13,1.68,2.41,2.61,2.45,4.29a20,20,0,0,1-.47,2.11,9.13,9.13,0,0,0,.73,2.8,5.09,5.09,0,0,1-2.21,5.19,8.62,8.62,0,0,1-5.76,1.23"/><path class="cls-14" d="M262.15,10a3.48,3.48,0,0,1-1,2.44,4.79,4.79,0,0,0-1.31,2.33c-.17,1.6,1.45,3,1.19,4.59-.14.85-.81,1.56-.9,2.41a3,3,0,0,0,1,2.22c.57.61,1.2.49,1.71,1.15A6.91,6.91,0,0,0,264.93,27c1.78.89,3.82-.57,4.65-.85"/><path class="cls-14" d="M276.08,10.87c0-.82-.79-1.42-1.56-1.69a11.39,11.39,0,0,1-2.33-.78,10.58,10.58,0,0,1-1.57-1.5,5,5,0,0,0-8.39,2.65,3.3,3.3,0,0,0,.95,3.29c1.1.86,2.68.59,4,.26s2.9-.67,4.07.09a5.87,5.87,0,0,1,1.58,1.94,3.6,3.6,0,0,0,1.81,1.68c.81.24,1.87-.27,1.87-1.12"/><path class="cls-19" d="M273,10.79l-7.34-1.57c-2.33-.16-3.78,2.77-3.84,5.11A41.43,41.43,0,0,0,262.1,22c.77,3.87,3.77,4.26,3.77,4.26s.2,4.75.28,6.63l8.22-.19-.14-20.6A1.38,1.38,0,0,0,273,10.79Z"/><path class="cls-14" d="M262.4,17.13c.06.06.43-.24,1-.25s.94.23,1,.16,0-.14-.22-.26a1.31,1.31,0,0,0-.8-.21,1.24,1.24,0,0,0-.77.28C262.42,17,262.37,17.1,262.4,17.13Z"/><path class="cls-14" d="M267.82,17.05c.06.06.43-.23,1-.25s.94.23,1,.16,0-.14-.22-.26a1.31,1.31,0,0,0-.8-.21,1.24,1.24,0,0,0-.77.28C267.84,16.9,267.79,17,267.82,17.05Z"/><path class="cls-14" d="M265.91,20.3a3.44,3.44,0,0,0-.88-.13c-.14,0-.27,0-.29-.12a.66.66,0,0,1,.07-.41l.37-1.06a17.9,17.9,0,0,0,.81-2.77,18.1,18.1,0,0,0-1,2.69c-.12.38-.24.73-.35,1.07a.76.76,0,0,0-.05.54.33.33,0,0,0,.23.19.72.72,0,0,0,.24,0A3.51,3.51,0,0,0,265.91,20.3Z"/><path class="cls-23" d="M265.87,26.3a7.68,7.68,0,0,0,5.07-1.21,5,5,0,0,1-5,2.45Z"/><path class="cls-18" d="M266.19,21.58a1,1,0,0,1,.85-.39.85.85,0,0,1,.62.31.56.56,0,0,1,.07.64.66.66,0,0,1-.7.2,2,2,0,0,1-.7-.38.81.81,0,0,1-.16-.16.18.18,0,0,1,0-.2"/><path class="cls-14" d="M267.51,20.61c-.09,0-.07.58-.56,1s-1.1.4-1.1.48.14.11.4.1a1.43,1.43,0,0,0,.93-.36,1.27,1.27,0,0,0,.42-.85C267.62,20.75,267.55,20.6,267.51,20.61Z"/><path class="cls-14" d="M267.7,14.68c.06.14.59.05,1.23.11s1.15.2,1.23.07-.06-.2-.27-.33a2.1,2.1,0,0,0-1.87-.14C267.79,14.49,267.68,14.61,267.7,14.68Z"/><path class="cls-14" d="M262.52,14.39c.1.12.46,0,.91,0s.82.05.9-.08,0-.18-.19-.29a1.26,1.26,0,0,0-.75-.18,1.19,1.19,0,0,0-.72.28C262.52,14.21,262.47,14.33,262.52,14.39Z"/><path class="cls-14" d="M275,24.13c-1.07.26-1.18-.28-2-1a3.54,3.54,0,0,1-1.2-2.93c.09-1,.57-1.95.2-2.85-.49-1.18-2.18-1.48-2.67-2.66-.29-.68-.09-1.5-.41-2.17a2.59,2.59,0,0,0-1.65-1.18,6.54,6.54,0,0,1-1.94-.76,1.49,1.49,0,0,1-.61-1.81,36.5,36.5,0,0,1,8.59,1.74,3.21,3.21,0,0,1,1.72,1,3.33,3.33,0,0,1,.43,2.07c0,3.51-.05,7-.08,10.52"/><path class="cls-14" d="M277.16,16.09a3,3,0,0,1,5.61-1.25,4.22,4.22,0,0,1,0,3.56,3.77,3.77,0,0,1-3.19,2.6,3.45,3.45,0,0,1-3-2.46,10.18,10.18,0,0,1-.23-4.08"/><path class="cls-8" d="M278.13,21.4a.9.9,0,0,0,.19-.24,1.77,1.77,0,0,0,.26-.79,3.56,3.56,0,0,0-.08-1.23c-.1-.45-.27-.93-.4-1.43a3.48,3.48,0,0,1-.14-1.44c.06-.44.25-.81.32-1.16a1.42,1.42,0,0,0,0-.83c-.06-.19-.15-.27-.16-.26a1.36,1.36,0,0,1,.1.27,1.56,1.56,0,0,1,0,.79,9.11,9.11,0,0,0-.37,1.17,3.54,3.54,0,0,0,.13,1.5c.14.52.31,1,.42,1.43a3.9,3.9,0,0,1,.11,1.18A2.52,2.52,0,0,1,278.13,21.4Z"/><path class="cls-8" d="M278,16.72a2,2,0,0,0,.62.56,3.44,3.44,0,0,0,3.85-.08,2,2,0,0,0,.6-.59s-.24.22-.66.48a3.71,3.71,0,0,1-1.85.57,3.59,3.59,0,0,1-1.88-.49C278.25,16.92,278,16.69,278,16.72Z"/><path class="cls-8" d="M278.22,17.32a1.7,1.7,0,0,0,.35.6,4.35,4.35,0,0,0,2.89,1.59,1.67,1.67,0,0,0,.7,0,5.21,5.21,0,0,0-.68-.09,4.92,4.92,0,0,1-1.54-.54,5.09,5.09,0,0,1-1.28-1C278.38,17.53,278.24,17.3,278.22,17.32Z"/><path class="cls-8" d="M277.45,22.73l0-.05.1-.16a2.11,2.11,0,0,0,.23-.69,2.39,2.39,0,0,0-.11-1.15,2.18,2.18,0,0,0-.95-1.18,5.21,5.21,0,0,1-1.49-1,1.19,1.19,0,0,1-.25-.9,5.4,5.4,0,0,1,.3-1,2.9,2.9,0,0,0-.14-2.32,2.52,2.52,0,0,0-.83-1,3.12,3.12,0,0,0-1.21-.45c-.43-.08-.85-.12-1.25-.22a2.55,2.55,0,0,1-1.05-.53,1.73,1.73,0,0,1-.49-1,8.38,8.38,0,0,0-.23-1.13A3.92,3.92,0,0,0,269,8.15a3.15,3.15,0,0,0-1.69-.76,2.51,2.51,0,0,0-1.5.29,2.39,2.39,0,0,0-.84.79,2.23,2.23,0,0,0-.28.67.94.94,0,0,0,0,.25,2.23,2.23,0,0,1,.36-.88,2.28,2.28,0,0,1,.83-.75,2.38,2.38,0,0,1,1.44-.25,3,3,0,0,1,1.6.75A3.73,3.73,0,0,1,270,10a9.08,9.08,0,0,1,.22,1.11,1.84,1.84,0,0,0,.53,1.09,2.58,2.58,0,0,0,1.13.57c.41.11.84.15,1.26.23a2.84,2.84,0,0,1,1.15.42,2.41,2.41,0,0,1,.77.88,2.74,2.74,0,0,1,.14,2.2,5.57,5.57,0,0,0-.3,1.06,1.3,1.3,0,0,0,.29,1,5.22,5.22,0,0,0,1.53,1,2.09,2.09,0,0,1,.93,1.11,2.37,2.37,0,0,1,.13,1.11A2.75,2.75,0,0,1,277.45,22.73Z"/><path class="cls-8" d="M276.76,11.86a.3.3,0,0,0,0-.18.84.84,0,0,0-.15-.51,1.29,1.29,0,0,0-.67-.51,2.12,2.12,0,0,0-1.12,0c-.41.1-.82.28-1.28.38a1.73,1.73,0,0,1-1.42-.16,3.09,3.09,0,0,1-.89-1.37,6,6,0,0,0-1-1.57,5.39,5.39,0,0,0-3-1.79,3,3,0,0,0-1.55.1,2.41,2.41,0,0,0-1.11.78,1.82,1.82,0,0,0-.39,1,1.71,1.71,0,0,0,.16.83,1.36,1.36,0,0,0,.31.43c.09.09.15.12.15.11a1.74,1.74,0,0,1-.4-.57,1.73,1.73,0,0,1,.26-1.77,2.33,2.33,0,0,1,1.07-.73,3,3,0,0,1,1.48-.08,5.32,5.32,0,0,1,2.92,1.75,6,6,0,0,1,.94,1.53,3.25,3.25,0,0,0,.95,1.43,1.58,1.58,0,0,0,.78.26,2.69,2.69,0,0,0,.76-.09c.48-.12.89-.3,1.28-.4a1.93,1.93,0,0,1,1.06,0,1.26,1.26,0,0,1,.65.46.93.93,0,0,1,.17.47C276.77,11.8,276.75,11.86,276.76,11.86Z"/><path class="cls-17" d="M285.83,77.63c.47-11.61-3.84-19.56-4.61-23s.08-10-.08-13.49c-.11-2.31-.31-6-1.77-8.52a19.76,19.76,0,0,0-4.69-4.81l-8.22,3.65s-3.15,7.85-4.68,11.61,3.28,10.16,3.28,10.16-5.49,15.37-5.49,24.43Z"/><path class="cls-8" d="M298.52,60.63l-9.71-16.35s-5.42.95-7.86,2.79-7.33,6.06-7.33,6.06l6.59,18.31a3.21,3.21,0,0,0,3.67,2.06H284c1.76-.37,9.5-5.59,13.6-8.41A3.33,3.33,0,0,0,298.52,60.63Z"/><path class="cls-17" d="M274.68,27.78l-.38-2.31s-9.16,3.53-9,4,.79,2.92.79,2.92Z"/><path class="cls-14" d="M285.83,45.08a50.22,50.22,0,0,0-5.23-10c-2.31-3.28-5.31-5.81-7.26-5.16,0,0,1.72.32,3.62,2.88,2.42,3.27,5.72,13.48,5.72,13.48Z"/><path class="cls-14" d="M269.23,35.41a1,1,0,0,1,0-.32c0-.21.08-.51.15-.87a7.38,7.38,0,0,1,1.05-2.72,3.73,3.73,0,0,1,2.42-1.59,2.29,2.29,0,0,1,.89,0,.86.86,0,0,1,.31.11,3.72,3.72,0,0,0-1.18,0,3.79,3.79,0,0,0-2.28,1.56,7.87,7.87,0,0,0-1.08,2.65A10.77,10.77,0,0,1,269.23,35.41Z"/><path class="cls-14" d="M270.65,31.24a11.85,11.85,0,0,0-2.32,5.87c-.26,2.13.49,5,.81,7.12l.25-4.68s-.1-1.43-.06-2.77a10.16,10.16,0,0,1,.43-2.57Z"/><path class="cls-14" d="M278.05,40.67a2.83,2.83,0,0,1,.37-.8c.22-.43.4-.78.45-.76a1.8,1.8,0,0,1-.29.85C278.35,40.39,278.09,40.71,278.05,40.67Z"/><path class="cls-14" d="M266.06,31.53a2.79,2.79,0,0,0,1.32-.15,16.63,16.63,0,0,0,2.75-1.73,25.28,25.28,0,0,1,2.88-1.6c.38-.18.69-.31.91-.4a1.73,1.73,0,0,1,.35-.11,12.51,12.51,0,0,1-1.2.63,31.67,31.67,0,0,0-2.84,1.64c-.53.34-1,.69-1.49,1a5.43,5.43,0,0,1-1.32.69,2.38,2.38,0,0,1-1,.11A.75.75,0,0,1,266.06,31.53Z"/><path class="cls-14" d="M266.13,32.41a2.09,2.09,0,0,1-.08.25l-.26.69c-.24.63-.58,1.49-1,2.54s-.93,2.35-1.5,3.75c-.28.71-.58,1.45-.89,2.22-.15.38-.32.77-.47,1.17a5.64,5.64,0,0,0-.28,1.23,9.61,9.61,0,0,0,1,4.74c.62,1.38,1.31,2.57,1.78,3.62a12.28,12.28,0,0,1,.91,2.58,5.19,5.19,0,0,1,.12.74.74.74,0,0,1,0,.26s-.06-.36-.22-1a14,14,0,0,0-1-2.52c-.49-1-1.19-2.22-1.83-3.61a9.69,9.69,0,0,1-1-4.85,5.23,5.23,0,0,1,.3-1.3c.15-.4.32-.78.47-1.17.32-.76.62-1.5.91-2.21l1.54-3.73c.44-1,.8-1.89,1.07-2.51l.3-.68C266.08,32.48,266.12,32.4,266.13,32.41Z"/><g class="cls-24"><path d="M264.8,57.61S267.46,63.8,275,62.1h0s1.52,13.69,8.65,11.45a3.15,3.15,0,0,1-3.29-1.83L275,56.83Z"/></g><path class="cls-17" d="M270.23,34.53l-1.45,15.41L258.16,46.6,255,50.93s17.32,14.54,20.48,6C278.75,48,278,37.84,278,37.84a10.89,10.89,0,0,0-2.39-5.22A3.19,3.19,0,0,0,270.23,34.53Z"/><path class="cls-14" d="M269.65,36.13v.25l0,.72-.15,2.78c-.15,2.41-.35,5.86-.6,10.07v.12l-.12,0-10.62-3.32.13-.05L255.18,51l0-.17c1.4,1.13,3,2.17,4.59,3.23,1,.68,2.06,1.36,3.05,2a28.42,28.42,0,0,0,3,1.89A14.79,14.79,0,0,0,269,59.35a7.17,7.17,0,0,0,3.21.19,4.08,4.08,0,0,0,3.26-2.84c.17-.46.32-.93.46-1.38a36.65,36.65,0,0,0,1.32-5.13,60.2,60.2,0,0,0,.7-7.66c0-.9.09-1.6.12-2.09l0-.54c0-.13,0-.19,0-.19a.58.58,0,0,1,0,.19l0,.54c0,.49,0,1.2-.07,2.09a58.17,58.17,0,0,1-.63,7.68,38,38,0,0,1-1.3,5.17c-.14.46-.29.92-.46,1.39a4.51,4.51,0,0,1-.7,1.36,5,5,0,0,1-2.7,1.63,7.34,7.34,0,0,1-3.32-.19,15.3,15.3,0,0,1-3.21-1.32,30.51,30.51,0,0,1-3-1.9c-1-.69-2-1.36-3.05-2.05-1.6-1.06-3.18-2.11-4.6-3.24l-.09-.07.06-.09,3.09-4.37.05-.07.08,0,10.61,3.36-.13.08c.29-4.2.52-7.65.68-10.06.09-1.19.15-2.12.2-2.77l.06-.72A1.53,1.53,0,0,1,269.65,36.13Z"/><path class="cls-14" d="M263.78,57.06s0,0,0,.1l-.1.29-.38,1.13c-.3,1-.74,2.43-1.17,4.26a119.61,119.61,0,0,0-2.42,14.8l-.12-.13h5.09l21.17,0-.07.07c.05-1.57.07-2.82.07-3.67,0-.42,0-.75,0-1a2,2,0,0,1,0-.33,2.13,2.13,0,0,1,.05.33c0,.22,0,.55.05,1,0,.85,0,2.1,0,3.67v.07h-.07l-21.17,0h-5.22v-.13A111.92,111.92,0,0,1,262,62.8c.45-1.83.92-3.27,1.24-4.25l.42-1.11.12-.29Z"/><g class="cls-24"><path d="M278.05,40.63s.75,8.14.41,8.42l-1.12.93S278,41.57,278.05,40.63Z"/></g><path class="cls-25" d="M248.57,35.28l3.68,2a1,1,0,0,1-1.45.46c-1.06-.47-3-1.64-3-1.64l-1.46.59-1.12-1.35Z"/><path class="cls-26" d="M241,42.55a3.68,3.68,0,0,0,3.44-.33c1.67-1.14,1.79-1.52,2.49-1.73.5-.15,2.84-.47,3.75-.69a.53.53,0,0,0,.23-.93,5.81,5.81,0,0,0-1.59-.33,6.68,6.68,0,0,0-1.45.15,3.79,3.79,0,0,1-2.08-.43l0-.59,2.32-.41a9.54,9.54,0,0,0,2.57,1.44,3,3,0,0,0,1.53-.21v-.13L249,36l-3.08-.53-.94-.16L237,40.06l2.07,3.66Z"/><rect class="cls-8" x="249.3" y="40.33" width="2.79" height="4.08" rx="0.81" transform="translate(-3.19 55.96) rotate(-12.66)"/><path class="cls-14" d="M249.92,38.61s.14-.06.37,0a1.11,1.11,0,0,1,.74.49,1.17,1.17,0,0,1,.14.88c0,.22-.14.34-.17.32s0-.14,0-.34a1.39,1.39,0,0,0-.17-.73,1.12,1.12,0,0,0-.59-.45C250.05,38.68,249.92,38.65,249.92,38.61Z"/><path class="cls-14" d="M250.24,40.7s-.3.24-.73.06a.62.62,0,0,1-.33-.46c0-.14,0-.22,0-.22s.1.33.39.46S250.23,40.63,250.24,40.7Z"/><path class="cls-14" d="M251.65,44.25a.52.52,0,0,0,.1-.12.57.57,0,0,0,0-.44c-.13-.51-.26-1-.39-1.5s-.25-1-.37-1.51a.45.45,0,0,0-.25-.35.39.39,0,0,0-.17,0,.19.19,0,0,1,.18,0c.12,0,.25.16.3.36.11.38.25.91.4,1.5s.28,1.12.37,1.51a.65.65,0,0,1-.06.48C251.72,44.24,251.65,44.26,251.65,44.25Z"/><path class="cls-14" d="M251.25,41.54a4.54,4.54,0,0,1-1,.33,5.16,5.16,0,0,1-1,.24,6.81,6.81,0,0,1,1-.33A6.43,6.43,0,0,1,251.25,41.54Z"/><path class="cls-14" d="M251.54,42.77a4.41,4.41,0,0,1-.95.33,5.18,5.18,0,0,1-1,.23,5.66,5.66,0,0,1,.95-.32A5.34,5.34,0,0,1,251.54,42.77Z"/><path class="cls-16" d="M251.9,44.19a.59.59,0,0,0,.17-.59c-.09-.4-.68-2.82-.68-2.82l.35-.1.61,2.69S252.46,44.06,251.9,44.19Z"/><path class="cls-27" d="M226.84,133.88,225.51,142s7.89,3.39,7.79,4.92l-15.94-1.31,1.55-12.78Z"/><path class="cls-11" d="M220.69,140.71a.67.67,0,0,0-.55.69.64.64,0,0,0,.68.54.69.69,0,0,0,.57-.73.64.64,0,0,0-.76-.48"/><path class="cls-11" d="M217.36,145.63l.16-1.27,15.06,1.53s.82.6.75,1.09Z"/><path class="cls-14" d="M225.78,142c0,.08-.41.07-.82.27s-.66.5-.72.46.1-.47.61-.71S225.81,141.9,225.78,142Z"/><path class="cls-14" d="M227.36,142.87c0,.08-.35.17-.65.46s-.43.64-.5.62-.07-.46.31-.81S227.37,142.8,227.36,142.87Z"/><path class="cls-14" d="M228.05,145c-.07,0-.13-.4.12-.8s.64-.52.67-.45-.23.27-.44.6S228.13,145,228.05,145Z"/><path class="cls-14" d="M225.88,140.08c0,.07-.39-.08-.83-.11s-.8.07-.83,0,.33-.31.85-.27S225.92,140,225.88,140.08Z"/><path class="cls-14" d="M226.11,138.44a1.51,1.51,0,0,1-.79-.11,3.43,3.43,0,0,1-.8-.36c-.14-.09-.29-.19-.43-.3a.91.91,0,0,1-.22-.22.35.35,0,0,1,0-.41.42.42,0,0,1,.36-.14,1.19,1.19,0,0,1,.3.08,2.93,2.93,0,0,1,.47.23,2.62,2.62,0,0,1,.67.58c.33.38.42.69.39.7s-.19-.24-.53-.57a3,3,0,0,0-.66-.49,2.55,2.55,0,0,0-.44-.2c-.16-.07-.3-.08-.35,0s0,0,0,.1a1.2,1.2,0,0,0,.16.16l.39.29a4.41,4.41,0,0,0,.73.39C225.82,138.33,226.12,138.39,226.11,138.44Z"/><path class="cls-14" d="M226,138.53a1.27,1.27,0,0,1-.12-.79,2.87,2.87,0,0,1,.22-.86,2.75,2.75,0,0,1,.27-.46.64.64,0,0,1,.55-.33.37.37,0,0,1,.31.26.83.83,0,0,1,0,.3,1.9,1.9,0,0,1-.06.54,2,2,0,0,1-.45.78c-.36.37-.69.42-.7.39s.27-.15.56-.52a1.73,1.73,0,0,0,.34-.72,1.38,1.38,0,0,0,0-.46c0-.17,0-.31-.12-.3s-.23.1-.31.22a2.5,2.5,0,0,0-.25.41,2.64,2.64,0,0,0-.25.77C226,138.23,226,138.53,226,138.53Z"/><path class="cls-28" d="M217.62,134.46l-.67,8.22s8.13,2.76,8.15,4.29l-16,0,.53-12.86Z"/><path class="cls-11" d="M212,141.76a.65.65,0,0,0-.48.73.62.62,0,0,0,.71.48.67.67,0,0,0,.51-.77.65.65,0,0,0-.8-.42"/><path class="cls-11" d="M209.11,146.93l0-1.29,15.14.34s.86.53.83,1Z"/><path class="cls-14" d="M217.21,142.61c0,.08-.4.1-.79.33s-.62.55-.69.52.07-.48.55-.75S217.23,142.54,217.21,142.61Z"/><path class="cls-14" d="M218.86,143.38c0,.08-.33.2-.61.52s-.38.66-.46.65-.1-.45.25-.84S218.86,143.31,218.86,143.38Z"/><path class="cls-14" d="M219.72,145.44c-.08,0-.17-.39.05-.8s.6-.58.63-.51-.21.29-.38.63S219.79,145.43,219.72,145.44Z"/><path class="cls-14" d="M217.16,140.72c0,.07-.39-.05-.84,0s-.79.13-.83.06.31-.33.83-.34S217.2,140.66,217.16,140.72Z"/><path class="cls-14" d="M217.26,139.06a1.49,1.49,0,0,1-.8,0,3.31,3.31,0,0,1-.82-.3,3.47,3.47,0,0,1-.45-.26,1.33,1.33,0,0,1-.24-.2.34.34,0,0,1,0-.42.43.43,0,0,1,.35-.16,1.25,1.25,0,0,1,.3,0,2.65,2.65,0,0,1,.49.2,2.56,2.56,0,0,1,.71.52c.36.36.47.65.44.67s-.2-.23-.57-.53a3.16,3.16,0,0,0-.69-.44,2.75,2.75,0,0,0-.46-.16c-.16-.05-.31-.06-.35,0s0,0,0,.09a.65.65,0,0,0,.17.15,3.93,3.93,0,0,0,.41.26,4.61,4.61,0,0,0,.76.33A5,5,0,0,1,217.26,139.06Z"/><path class="cls-14" d="M217.16,139.17a1.31,1.31,0,0,1-.18-.79,2.7,2.7,0,0,1,.15-.87,2.27,2.27,0,0,1,.23-.47.67.67,0,0,1,.53-.39.41.41,0,0,1,.32.24,1.28,1.28,0,0,1,.07.3,1.61,1.61,0,0,1,0,.54,1.7,1.7,0,0,1-.38.81c-.33.4-.66.48-.66.45s.25-.18.51-.56a1.91,1.91,0,0,0,.29-.74,1.48,1.48,0,0,0,0-.47c0-.17-.07-.31-.13-.29s-.22.11-.3.25a2.82,2.82,0,0,0-.22.42,2.91,2.91,0,0,0-.19.79C217.13,138.86,217.2,139.16,217.16,139.17Z"/><path class="cls-26" d="M210.28,27.21l9,1.86c.07-1-.21-7.41-.21-7.41a4.37,4.37,0,0,0,3.75-4.15c.09-3.64-.41-12-.41-12h0A12.7,12.7,0,0,0,209.7,6.9l-.55.41Z"/><path class="cls-25" d="M219.11,21.66a8.85,8.85,0,0,1-4.73-1.47,4.55,4.55,0,0,0,4.76,2.36Z"/><path class="cls-26" d="M209.55,11.09c-.06,0-2.49-.78-2.45,1.72a1.87,1.87,0,0,0,2.54,1.86C209.64,14.6,209.55,11.09,209.55,11.09Z"/><path class="cls-25" d="M208.86,13.74s0,0-.12.06a.42.42,0,0,1-.32,0,1.1,1.1,0,0,1-.51-1,1.37,1.37,0,0,1,.11-.62.48.48,0,0,1,.32-.34.23.23,0,0,1,.26.11.87.87,0,0,1,0,.13s.05-.05,0-.15a.24.24,0,0,0-.1-.15.32.32,0,0,0-.24-.06.6.6,0,0,0-.45.39,1.56,1.56,0,0,0-.14.7,1.12,1.12,0,0,0,.65,1.06.45.45,0,0,0,.4-.07C208.86,13.8,208.87,13.74,208.86,13.74Z"/><path class="cls-14" d="M221.62,11.44a.51.51,0,0,1-.5.52.49.49,0,0,1-.53-.48.51.51,0,0,1,.5-.51A.49.49,0,0,1,221.62,11.44Z"/><path class="cls-14" d="M221.68,10.61c-.06.06-.45-.23-1-.24s-1,.27-1,.2,0-.16.22-.28a1.46,1.46,0,0,1,.83-.25,1.37,1.37,0,0,1,.81.28C221.66,10.45,221.71,10.58,221.68,10.61Z"/><path class="cls-14" d="M216.18,11.36a.51.51,0,0,1-.51.52.5.5,0,0,1-.53-.48.52.52,0,0,1,.51-.51A.5.5,0,0,1,216.18,11.36Z"/><path class="cls-14" d="M216.18,10.63c-.07.07-.46-.23-1-.24s-1,.27-1,.2,0-.15.22-.28a1.37,1.37,0,0,1,.83-.24,1.33,1.33,0,0,1,.8.27C216.15,10.48,216.21,10.6,216.18,10.63Z"/><path class="cls-14" d="M218.15,14.81a3.56,3.56,0,0,1,.91-.15c.14,0,.28,0,.3-.14a.66.66,0,0,0-.09-.42l-.4-1.1a18,18,0,0,1-.91-2.86,20.24,20.24,0,0,1,1.14,2.78c.13.39.26.76.38,1.11a.75.75,0,0,1,.07.56.37.37,0,0,1-.24.2.72.72,0,0,1-.24,0A3.36,3.36,0,0,1,218.15,14.81Z"/><path class="cls-14" d="M216.49,15.17c.1,0,.09.61.6,1s1.16.38,1.17.46-.15.12-.42.12a1.49,1.49,0,0,1-1-.35,1.36,1.36,0,0,1-.46-.88C216.38,15.32,216.45,15.17,216.49,15.17Z"/><path class="cls-14" d="M216.35,8.44c0,.15-.61.07-1.27.14s-1.19.24-1.28.1.06-.21.28-.35A2.16,2.16,0,0,1,215,8a2.25,2.25,0,0,1,1,.13C216.26,8.24,216.38,8.37,216.35,8.44Z"/><path class="cls-14" d="M221.5,9c-.1.13-.48,0-.95,0s-.86.07-.94-.06,0-.2.19-.31a1.34,1.34,0,0,1,.78-.2,1.22,1.22,0,0,1,.75.27C221.49,8.79,221.54,8.92,221.5,9Z"/><path class="cls-14" d="M224.25,3.22A1.34,1.34,0,0,0,223.78,2a1,1,0,0,0-1.24.07A1.11,1.11,0,0,0,221.6.72c-.59,0-1.11.39-1.68.54a2.65,2.65,0,0,1-1.7-.22c-.54-.22-1-.53-1.58-.74a4.66,4.66,0,0,0-6,2.65,2.06,2.06,0,0,0-2.2.8,3.43,3.43,0,0,0-.56,2.38,7.7,7.7,0,0,0,.4,1.64.66.66,0,0,0,0,.14c0,2,.2,4.36,1,4.39,1.49,0,1.18-2.77,1.18-2.77,1.84-.68,1.2-3.43,1.66-3.84s1.43-1.36,5.23.65a7.36,7.36,0,0,0,4.54.56l.09,0h.06a3.61,3.61,0,0,0,1-.4,2,2,0,0,0,.83-.89,1.06,1.06,0,0,0-.2-1.14A2.28,2.28,0,0,0,224.25,3.22Z"/><path class="cls-26" d="M232.41,48.85l6,2.55,1.85,0a2.07,2.07,0,0,1,1.44.63l2.51,2.51.23,2.88-1.91,1.44s-.7.07-.45-.73l-1.14.71h-1.22l-1.19-.17-1.07-1.43s-.21-.52.81-.23l1,.76,1-1-1.89-1.46-3-.17a1.09,1.09,0,0,1-.74-.36l-.9-1L232,53.52Z"/><path class="cls-25" d="M242.73,54.7a8,8,0,0,1,.34,2,1.47,1.47,0,0,1,0,.83,1.51,1.51,0,0,1-.49.47c-.31.19-.43.36-.46.35s.07-.25.35-.49a1.5,1.5,0,0,0,.4-.43,1.48,1.48,0,0,0,0-.7A8.9,8.9,0,0,1,242.73,54.7Z"/><path class="cls-25" d="M239.6,58.81a6.47,6.47,0,0,1,1.22-1.15.76.76,0,0,0,.2-.53c0-.19,0-.37,0-.52,0-.31,0-.5.06-.5s.08.18.11.5a4.84,4.84,0,0,1,0,.54,2.38,2.38,0,0,1,0,.34.73.73,0,0,1-.2.34A5.47,5.47,0,0,1,239.6,58.81Z"/><path class="cls-25" d="M241,58.87a3.67,3.67,0,0,1,.85-.66h0c-.05.06,0,0,0,0V58.1l0-.2,0-.43a8.08,8.08,0,0,1,.19-1.88,7.25,7.25,0,0,1,0,1.9l0,.44,0,.2,0,.1v.05s0,0-.05.11h0C241.39,58.72,241,58.92,241,58.87Z"/><path class="cls-19" d="M235.23,55s-.13.68.27.88a1,1,0,0,0,.86,0s-.19,1,1.2.74c0,0-.1.65.84.45,0,0,0,1,.86.75a1.27,1.27,0,0,0,1-1s0-1.19-.77-1.12c0,0,.44-.78-.41-.91a.82.82,0,0,0-1,.57s.16-.49-.43-.61a.86.86,0,0,0-.88.38S235.87,54.08,235.23,55Z"/><path class="cls-23" d="M236.78,55.09c.05,0,0,.22-.1.44s-.26.35-.32.32,0-.23.1-.44S236.72,55.05,236.78,55.09Z"/><path class="cls-23" d="M238.11,55.21c.06,0,.13.36,0,.77s-.48.62-.52.57.15-.3.29-.66S238,55.21,238.11,55.21Z"/><path class="cls-23" d="M239.44,55.69c.06,0,0,.43-.32.83s-.69.56-.72.51.26-.3.53-.66S239.37,55.67,239.44,55.69Z"/><path class="cls-17" d="M231.8,99.85c-.45-5.31-6.43-35-6.43-35l-7,1.85h0l-13.64-2.6-1.15,8.75a13.44,13.44,0,0,0,1.42,8l2.3,24.25,1.09,36.47,11.26-.32,0-1.9,7.26.71S232.26,105.16,231.8,99.85ZM220.32,105l-.1-1.94.13.59Z"/><path class="cls-8" d="M205,81.17s0,.11,0,.31l.09.89c.08.79.2,1.95.35,3.44.29,3,.72,7.34,1.24,12.75.7,5.39.73,11.9,1,19.16s.49,15.29.76,23.81l-.12-.12,7.45-.21,3.8-.11-.11.12c.17-9,.34-17.43.5-25.12.07-3.84.15-7.49.22-10.9.06-1.7,0-3.34,0-4.92s0-3.1-.06-4.54C220.08,90,220,85.3,220,82.07c0-1.6,0-2.84,0-3.69v-1c0-.22,0-.33,0-.33s0,.11,0,.32l0,1c0,.85,0,2.09.07,3.69.06,3.23.14,7.88.24,13.66,0,1.44,0,3,.07,4.54s.08,3.22,0,4.93c-.06,3.4-.13,7-.2,10.89-.14,7.7-.3,16.18-.47,25.12v.12h-.11l-3.8.11-7.46.21h-.12v-.12c-.26-8.51-.51-16.54-.73-23.8s-.26-13.77-.94-19.16c-.49-5.41-.89-9.75-1.17-12.75-.13-1.5-.23-2.66-.3-3.45l-.07-.89C205,81.28,205,81.17,205,81.17Z"/><path class="cls-29" d="M220,25.94s4.25,1.77,4.72,4.49c.15.88,2.66,13,2.66,13l9.59-4.23,3.65,5.14L225.08,54.44h0l-5.5-3.64Z"/><path class="cls-14" d="M223.44,32.26a.68.68,0,0,1,.05.24l.07.7.18,2.58c.14,2.21.32,5.19.53,8.5s.41,6.29.55,8.49c.08,1.07.14,1.94.19,2.58l0,.7a.84.84,0,0,1,0,.25,1.43,1.43,0,0,1-.05-.25l-.09-.69c-.07-.61-.16-1.49-.26-2.57-.2-2.17-.42-5.18-.62-8.5s-.36-6.33-.46-8.5c0-1.07-.08-1.94-.11-2.58l0-.7A.81.81,0,0,1,223.44,32.26Z"/><path class="cls-30" d="M220,25.94,219,23.11l-1.2,4.06-8.22-4.91-1.46,2.52-6.46,3.4c-.68,1.21-1.11,12.18-1.11,12.18,0,.59,3.72,16.08,3.72,16.08l-2.4,18.44,21.35.31.18-7.72,1.46,7.74L229.2,74l-3.87-19.07L219.89,25.6"/><path class="cls-31" d="M201.7,28.18h0C198,31.37,197.94,35.32,199,39.3l3.28,10.76a8.13,8.13,0,0,0,8.7,6.07l21.28-1.79.23-5.9L211.56,46.3Z"/><path class="cls-14" d="M201.7,28.18a.45.45,0,0,1-.08.08l-.26.24-.42.39a6.57,6.57,0,0,0-.52.59c-.1.12-.21.23-.31.37l-.28.44a2.9,2.9,0,0,0-.3.49l-.28.56a9.18,9.18,0,0,0-.75,2.85,12.15,12.15,0,0,0,.2,3.65,19.36,19.36,0,0,0,.58,2c.22.69.45,1.41.68,2.15.94,3,2,6.3,3.13,9.93h0a6.18,6.18,0,0,0,3.44,3.44,10.41,10.41,0,0,0,5.31.57h0l12.78-1.08,7.58-.64-.11.12q.12-3,.24-5.91l.1.12-20.89-2.16h-.05l0-.05c-1.42-4.2-2.58-7.6-3.38-10l-.91-2.72c-.1-.3-.17-.54-.23-.7s-.07-.25-.07-.25,0,.08.1.24l.25.7.95,2.7c.82,2.35,2,5.75,3.45,9.94l-.07-.06,20.9,2.1h.1v.11c-.08,1.92-.15,3.89-.23,5.91v.1h-.1l-7.58.64-12.78,1.07h0a10.7,10.7,0,0,1-5.44-.59A6.4,6.4,0,0,1,202.89,52h0c-1.13-3.64-2.17-7-3.1-10l-.66-2.15a18.25,18.25,0,0,1-.57-2,12.11,12.11,0,0,1-.19-3.7,9.28,9.28,0,0,1,.8-2.87l.28-.57c.09-.18.21-.33.31-.49l.29-.44.31-.36c.21-.22.37-.44.54-.58l.44-.38.27-.23Z"/><path class="cls-14" d="M206.15,31.28a10,10,0,0,1-1-.45,6.17,6.17,0,0,0-2.42-.6,4.19,4.19,0,0,0-2.37.67,9.38,9.38,0,0,0-.79.68,2,2,0,0,1,.69-.82,4,4,0,0,1,2.47-.78,5.54,5.54,0,0,1,2.49.7A3.21,3.21,0,0,1,206.15,31.28Z"/><polygon class="cls-13" points="208.67 23.9 220.16 47.11 222.17 47.29 219.95 25.94 219.04 23.11 217.82 26.96 209.58 21.56 208.67 23.9"/><path class="cls-14" d="M221.49,47.32a4.31,4.31,0,0,1-.22-.79c-.12-.51-.28-1.25-.47-2.17-.38-1.83-.87-4.38-1.38-7.19s-.94-5.37-1.23-7.22c-.14-.92-.24-1.68-.31-2.2s-.09-.81-.08-.81a4.34,4.34,0,0,1,.17.8l.39,2.18c.34,1.88.8,4.41,1.3,7.21s1,5.32,1.31,7.2l.39,2.18A6.25,6.25,0,0,1,221.49,47.32Z"/><path class="cls-14" d="M217.82,27l-.06.06a.67.67,0,0,0-.15.17,2.68,2.68,0,0,0-.36.79,11.84,11.84,0,0,0-.34,3.09v.24l-.19-.16c-.73-.63-1.58-1.34-2.48-2.08-1.62-1.34-3.07-2.57-4.06-3.54-.49-.47-.88-.88-1.14-1.16a2.35,2.35,0,0,1-.37-.47,2.82,2.82,0,0,1,.44.4c.28.27.68.65,1.19,1.11,1,.93,2.48,2.14,4.1,3.47.9.75,1.74,1.46,2.47,2.11l-.18.08a10.45,10.45,0,0,1,.44-3.13,2.32,2.32,0,0,1,.43-.8.54.54,0,0,1,.18-.15S217.82,27,217.82,27Z"/><path class="cls-14" d="M220,25.94a3.63,3.63,0,0,1,0,1c-.06.6-.2,1.43-.32,2.34v.08l-.07.58-.16-.56a7.6,7.6,0,0,0-.8-2.12.63.63,0,0,0-.51-.32c-.15,0-.24.05-.25,0s.06-.08.24-.12a.71.71,0,0,1,.66.3,6.72,6.72,0,0,1,.89,2.16l-.24,0v-.08c.12-.92.29-1.74.39-2.33A4.18,4.18,0,0,1,220,25.94Z"/><path class="cls-14" d="M208.45,61.25s.06,0,.19,0l.59-.1,2.24-.31,7.71-1,.16,0,0,.16c-.21,1.05-.42,2.16-.65,3.3v.09h-.12c-4.52.4-8.55.73-11.09.93h-.12l0-.11c.33-.9.6-1.62.79-2.15l.21-.56c0-.12.08-.19.09-.18s0,.08-.06.21l-.18.58-.71,2.15-.08-.1c2.55-.25,6.57-.62,11.09-1h0l-.11.09c.22-1.14.44-2.25.65-3.29l.13.14-7.67.92-2.26.25-.61.06Z"/><path class="cls-14" d="M220.24,47.19s-.05,0-.14-.11l-.4-.35-1.46-1.33-5-4.63,0,0v0c-.34-1-.71-2.12-1.1-3.26C211,34.1,210,31.05,209.28,28.8l-.84-2.63-.22-.72a.88.88,0,0,1-.06-.26,1.47,1.47,0,0,1,.11.24l.26.71c.22.65.53,1.53.91,2.61.77,2.24,1.8,5.28,2.94,8.64l1.09,3.25,0,0,4.9,4.69,1.41,1.38.37.38C220.21,47.14,220.25,47.18,220.24,47.19Z"/><path class="cls-14" d="M211.49,46.2s-.69.7-1.29,1.71-.85,2-.92,1.94a5.18,5.18,0,0,1,2.21-3.65Z"/><path class="cls-14" d="M222.68,55.18c.07,0,.32,3,.56,6.69s.39,6.69.32,6.7-.32-3-.56-6.69S222.61,55.19,222.68,55.18Z"/><g class="cls-24"><path d="M203.47,52.93s1,5.86,4.69,5.42,13.89-3.18,13.89-3.18l-11.11,1S205.82,56.78,203.47,52.93Z"/></g><g class="cls-24"><polyline points="223.83 38.91 223.9 39.2 225.87 47.76 224.36 47.61"/></g></g></g></svg>