<svg width="24" height="24" viewBox="0 0 24 24" fill="none" xmlns="http://www.w3.org/2000/svg">
<path d="M12.7175 19.6L12.1177 18.7645C11.7935 19.0498 11.486 19.3667 11.186 19.6772C10.5839 20.3005 10.5394 20.3813 9.56895 20.3795C8.71632 20.3779 7.88361 20.225 7.15432 19.7645C6.45544 19.3232 6.8119 18.4962 6.92391 17.8531L7.39948 15.367C7.44924 15.0423 7.45057 14.7236 7.47279 14.3971L7.51777 13.643C7.52534 13.5339 7.54592 13.4267 7.55018 13.3171L7.55682 12.7031C7.57147 12.1329 7.58286 11.9571 7.46827 11.3763L4.82935 17.4492C4.55921 18.0759 4.43883 18.5055 3.64479 18.684L3.47129 18.709C2.82265 18.7664 2.09105 18.5011 1.5113 18.2335C0.575676 17.8016 0.774852 17.4387 1.16778 16.5767L5.59573 6.39382C5.84529 5.78906 6.02496 5.20568 6.82925 5.14162C7.01197 5.12707 7.1959 5.14284 7.37886 5.13422C8.27344 5.0921 9.04036 4.57017 9.66268 3.96387C10.0048 3.63054 9.87132 3.61408 10.4359 3.60351L13.529 3.6026C14.124 3.60145 13.9638 3.61221 14.3959 4.01714C15.0004 4.58365 15.7118 5.08345 16.5644 5.12613C16.8674 5.14127 17.1853 5.09076 17.4727 5.20249C17.9639 5.39346 18.1541 5.76764 18.3356 6.22523L22.5533 15.9438C22.6441 16.1216 22.7096 16.318 22.7898 16.5014L23.0201 17.0237C23.1046 17.2307 23.1776 17.4468 23.1154 17.6728C22.937 18.3213 21.1508 18.7335 20.5786 18.7065C20.4979 18.7027 20.4115 18.7034 20.3334 18.6806L20.2383 18.654C19.5028 18.4229 19.3356 17.8809 19.063 17.2395L16.6299 11.6016C16.6013 11.534 16.5775 11.4617 16.5436 11.3967C16.3735 11.9036 16.4222 12.3865 16.4416 12.9023L16.4598 13.5234C16.4654 13.6068 16.4827 13.689 16.487 13.7729L16.4987 14.3555C16.5082 14.5394 16.528 14.8514 16.5505 15.0267L16.9422 17.1944C16.9863 17.4069 17.0158 17.6245 17.0628 17.8359L17.2085 18.6035C17.2418 18.7734 17.307 18.9866 17.2686 19.1602L17.2656 19.1733C17.0681 20.1649 15.1832 20.3787 14.3985 20.3797C13.5371 20.3809 13.238 20.2486 12.7175 19.6ZM12.617 4.32239L10.6312 4.34245C10.7004 4.48837 10.7437 4.6669 10.7914 4.82226L10.9285 5.24707C10.9666 5.36053 10.9978 5.47849 11.0401 5.58984L11.504 6.99541C11.5367 7.07927 11.5598 7.16866 11.59 7.2539L11.7896 7.83398C11.8048 7.87507 11.8128 7.92009 11.8302 7.95996L11.8834 8.13281C11.9897 8.418 11.9578 8.59512 12.0885 8.19562L12.9498 5.57226C13.0864 5.16152 13.1974 4.72125 13.3849 4.33116C13.1342 4.30329 12.8692 4.32136 12.617 4.32239ZM14.0117 4.64648L13.0787 7.43555L12.3147 10.0078L11.9994 11.3145C11.8392 11.9983 11.8477 12.2516 11.8474 12.9511L11.8478 15.5243C11.8481 15.9777 11.8658 16.4749 12.0195 16.9083L12.3903 17.8447C12.6398 18.369 13.0436 18.8783 13.4327 19.3041C13.8179 19.7256 13.9477 19.6522 14.5301 19.6483C14.7769 19.6467 15.026 19.6291 15.2696 19.5861C15.6528 19.5185 16.2881 19.3587 16.5655 19.052C16.5588 18.8905 16.511 18.7377 16.4798 18.5801L15.8588 15.2418C15.8262 15.0352 15.8096 14.8073 15.8059 14.5976L15.7163 12.9734L15.71 12.3906C15.7093 11.7001 15.7818 11.3672 15.9961 10.69L16.115 10.3403C16.1718 10.1795 16.2331 9.98285 16.4285 9.94994L16.4562 9.94554C16.7288 9.90438 16.813 10.1808 16.8872 10.3828L17.0065 10.6726L17.9674 12.8885C17.9944 12.9508 18.0277 13.0124 18.0493 13.0767L19.9804 17.5552C20.0324 17.68 20.1308 17.7884 20.2442 17.8602L20.2606 17.871C20.7436 18.1849 21.9678 17.722 22.4187 17.4479C22.3549 17.252 22.2638 17.0643 22.1811 16.8758L17.739 6.64509C17.5362 6.1568 17.5386 5.86064 16.9337 5.86176L16.5583 5.86097C15.9184 5.84287 15.2227 5.55283 14.7038 5.1993C14.6151 5.13886 14.0353 4.65068 14.0117 4.64648ZM9.97967 4.65354C9.13111 5.41432 8.25957 5.87674 7.11143 5.86575C6.86361 5.86336 6.64498 5.85656 6.49318 6.09961L3.70524 12.4833L1.69146 17.1592C1.65534 17.2424 1.59632 17.3419 1.57987 17.4289C1.94189 17.7163 2.97425 18.0416 3.3795 17.9946L3.56 17.9547C3.98696 17.8487 4.10689 17.3283 4.25686 16.982L7.0129 10.6141L7.1611 10.266C7.24282 10.0683 7.36709 9.83775 7.64492 9.96806C7.74762 10.0162 7.78967 10.0989 7.82454 10.2008L8.17479 11.3073C8.25851 11.5646 8.27895 11.8762 8.28575 12.1465L8.27876 12.9795L8.19418 14.2078C8.17826 14.5623 8.17763 14.9169 8.13197 15.2695C8.06126 15.816 7.93953 16.3558 7.83242 16.8958L7.48104 18.7171C7.4472 18.8983 7.37466 19.0354 7.54672 19.1531C8.12832 19.5508 8.86561 19.6481 9.55339 19.6494C10.2104 19.6507 10.1721 19.6881 10.5946 19.2524L11.299 18.5364C11.434 18.4015 11.5723 18.2415 11.7324 18.1371C11.2753 17.1829 11.1304 16.4641 11.1299 15.434L11.1302 13.0847C11.1305 12.5522 11.1262 12.0445 11.2204 11.5196L11.5914 9.93164C11.6498 9.69443 11.6675 9.64631 11.5845 9.42342L10.0876 4.98433C10.0502 4.87441 10.0212 4.76194 9.97967 4.65354Z" fill="#034C8C"/>
<path d="M12.6571 13.8664L12.5377 13.8629C12.3471 13.8395 12.1655 13.6228 12.2046 13.4275L12.2079 13.4124C12.2447 13.2422 12.3752 13.1617 12.5392 13.1276C13.0464 13.1044 13.1476 13.7264 12.6571 13.8664Z" fill="#034C8C"/>
<path d="M12.6609 15.3677C12.4806 15.3846 12.2881 15.3169 12.235 15.1237L12.2311 15.1087C12.2081 15.0299 12.2018 14.963 12.2281 14.8836L12.2521 14.8211C12.3135 14.7053 12.4211 14.6591 12.5401 14.6264C13.0334 14.5982 13.1537 15.2304 12.6609 15.3677Z" fill="#034C8C"/>
</svg>
