<svg width="24" height="24" viewBox="0 0 24 24" fill="none" xmlns="http://www.w3.org/2000/svg">
<path d="M14.8646 21.0454C14.5818 20.7735 14.4686 20.2868 14.3153 20.1866C14.0159 19.9912 13.6913 20.2367 13.4298 20.3699C12.6081 20.7887 11.5971 20.8625 10.7571 20.4415C10.5 20.3126 10.1563 20.0589 9.85552 20.1283L9.83883 20.1324C9.60607 20.1879 9.5688 20.3174 9.49341 20.5207C9.28711 21.0771 8.78616 21.4131 8.19506 21.412C7.14492 21.4099 6.44824 20.407 6.21211 19.4815L5.50934 19.3829C4.99073 19.2663 3.0225 18.6421 3.16345 17.8878L4.98928 10.1825L6.13683 4.69659C6.14974 4.60481 6.14859 4.5113 6.1698 4.42078C6.32212 3.77095 6.86123 3.22172 7.53942 3.15401C7.68314 3.13966 7.83197 3.16251 7.97555 3.15054C8.05151 3.14421 8.24993 2.63609 8.88412 2.58284C9.27926 2.50849 9.66623 2.75133 9.88451 3.06298C10.2562 3.5936 10.7527 3.71173 11.3361 3.82266L11.3594 3.82739C11.5904 3.86951 12.2743 3.85948 12.5237 3.83941C12.9968 3.80137 13.5187 3.63326 13.8876 3.32859C14.0882 3.16303 14.1728 2.91726 14.3936 2.77012C14.633 2.61066 14.9461 2.53784 15.2306 2.59669L15.3275 2.61855C15.5489 2.68364 15.832 2.8504 15.9452 3.06019C16.0214 3.2014 16.134 3.14826 16.2767 3.15026C16.9036 3.159 17.5288 3.55983 17.7495 4.15657C17.7877 4.25991 17.8002 4.36031 17.8278 4.46503L19.4487 12.0549C19.4848 12.3091 19.5872 12.5627 19.6335 12.8182L20.3391 15.7685C20.3424 15.7884 20.3458 15.8055 20.3522 15.8248L20.7214 17.3636C20.7871 17.7337 20.9007 17.9151 20.7037 18.2672C20.2066 19.1552 19.3714 19.6705 18.3505 19.7668C18.1381 19.7869 17.9225 19.7816 17.7093 19.7884C17.678 19.8295 17.6642 19.8868 17.6435 19.9343C17.2825 20.7622 16.9738 21.0674 16.1773 21.3797L16.1565 21.3875C15.742 21.517 15.1791 21.3262 14.8646 21.0454ZM14.9824 3.34158L14.9636 3.34807C14.8105 3.40172 14.7582 3.51869 14.6603 3.63902C13.987 4.46651 12.933 4.63092 11.9365 4.6297C11.0022 4.62853 10.0182 4.43273 9.3904 3.68198C9.31446 3.59116 9.24 3.45194 9.14252 3.38766C8.95985 3.26716 8.54583 3.40884 8.6763 3.76589C8.73265 3.92001 8.81984 4.08368 8.9082 4.22248C9.1958 4.7149 9.76043 5.14097 10.3179 5.29132C10.6767 5.38807 11.0692 5.35404 11.4387 5.3542L12.2778 5.3539C12.4482 5.35369 12.6221 5.36069 12.7919 5.34614C13.7705 5.26209 15.1162 4.71049 15.3644 3.64573C15.4055 3.46957 15.1207 3.33143 14.9824 3.34158ZM16.0915 3.93162C15.5708 5.1547 14.6804 5.7652 13.4207 6.0326L12.9026 6.11845C12.7898 6.13898 12.6677 6.13099 12.5533 6.1313L11.9684 6.13198C12.0258 6.51565 12.1302 6.91137 12.26 7.27732L12.3536 7.54685L13.1268 9.18748C13.6731 10.16 14.3651 11.0902 15.0888 11.9361C15.2394 12.1121 15.373 12.3113 15.5353 12.4749L15.6748 10.6994L15.9355 9.28709C16.0544 8.52935 16.0777 7.76939 16.0807 7.00469C16.0818 6.72581 16.045 6.38766 16.3896 6.29444C16.5585 6.24876 16.7038 6.33506 16.7918 6.47459L16.8031 6.49198C16.8634 6.58809 16.851 6.68306 16.851 6.79151L16.8394 7.96439C16.8353 8.05008 16.819 8.13295 16.8127 8.21784L16.6868 9.41058C16.5944 10.0736 16.4315 10.7175 16.3613 11.3847L16.3148 11.9894L16.2997 12.9692C16.2996 13.138 16.2859 13.3206 16.3095 13.4874L16.3173 13.4954C16.69 13.8851 17.1701 14.7066 17.3605 15.1834L17.5966 15.785C17.7329 16.1134 17.8349 16.5005 17.8889 16.8499L17.9484 17.3639C17.9693 17.5224 17.9601 17.6934 17.961 17.8537L17.9484 18.5291C17.9393 18.6871 17.9271 18.8511 17.8972 19.0069C18.0521 19.0026 18.2141 19.0065 18.3677 18.9869C19.0298 18.9025 19.7786 18.4988 20.049 17.8523L18.0534 9.39042L17.1257 4.93357C17.075 4.58496 17.0486 4.27561 16.7177 4.06563L16.634 4.02124C16.4734 3.94282 16.2675 3.93595 16.0915 3.93162ZM7.71855 3.94191C7.40904 3.98156 7.12608 4.08937 6.98309 4.38279L6.97268 4.40388C6.89398 4.5653 6.89864 4.75237 6.87101 4.92628L6.22205 8.15037L5.80413 10.028L3.94706 17.8649C4.34728 18.2719 5.54351 18.6333 6.07402 18.6788C6.02813 18.2442 6.02276 17.7115 6.05756 17.275C6.15823 16.0125 6.70216 15.0422 7.1437 13.8901C7.52037 12.9073 7.67034 11.7897 7.54474 10.7466C7.48228 10.2277 7.34545 9.71883 7.27856 9.19919L7.20989 8.53725C7.20129 8.44922 7.18233 8.36219 7.17764 8.27353L7.13852 6.85427C7.13735 6.61662 7.13147 6.423 7.39547 6.31559L7.41012 6.30921C7.70187 6.18684 7.90835 6.47133 7.91011 6.75621L7.91634 7.67754C7.91888 7.81404 7.94496 7.94032 7.95288 8.07328L7.9736 8.54294C8.02177 9.09928 8.12707 9.64732 8.23261 10.1943C8.4701 11.425 8.35259 12.7017 7.95272 13.8872C7.66772 14.7322 7.21608 15.5104 6.99255 16.3786C6.83545 16.989 6.71466 18.2186 6.86571 18.8476C7.01932 19.4873 7.1478 20.2514 7.83766 20.5657C8.16656 20.7155 8.59688 20.6615 8.75416 20.2969C8.79431 20.2038 8.823 20.1067 8.86777 20.0152C9.09907 19.542 9.58013 19.2925 10.0966 19.3548C10.4163 19.3934 10.7046 19.5443 10.9861 19.6945C11.518 19.9783 12.2089 20.0427 12.7748 19.8123C13.0115 19.716 13.2268 19.5744 13.4629 19.4819C14.205 19.1756 14.8829 19.3751 15.1968 20.146L15.3041 20.3807C15.3619 20.4879 15.496 20.5899 15.6143 20.6208L15.6558 20.629C16.6307 20.8032 17.0311 19.5005 17.1529 18.7762C17.3997 17.3083 16.8826 15.5795 16.0258 14.3968L14.5342 12.507C13.1595 10.7939 11.4649 8.40516 11.199 6.14149C10.8473 6.11112 10.6311 6.15129 10.2712 6.06595L10.431 6.76826C10.4736 6.93591 10.5134 7.10878 10.5723 7.27146L11.0078 8.41851C11.6918 9.99192 12.651 11.3691 13.71 12.7121L15.4765 14.9559C15.5676 15.0823 15.6457 15.2243 15.5725 15.3808C15.39 15.771 15.033 15.6572 14.8162 15.3634L12.2365 12.0313L11.8519 11.5031C10.7613 9.91516 9.91467 8.15637 9.52809 6.26365C9.38916 5.58333 9.561 5.87182 9.04535 5.49021C8.58912 5.15257 8.16089 4.6451 7.98513 4.09788L7.94168 3.93801C7.8698 3.93834 7.78917 3.93145 7.71855 3.94191Z" fill="#034C8C"/>
</svg>
