<svg width="24" height="24" viewBox="0 0 24 24" fill="none" xmlns="http://www.w3.org/2000/svg">
<path d="M16.3801 18.9432C16.3602 19.0259 16.3519 19.1116 16.3361 19.1952L15.8989 21.4766C15.7921 22.0264 15.7812 22.1142 15.17 22.1145L8.95794 22.1148C8.37589 22.1145 8.1924 22.2093 8.05592 21.5217L7.45262 18.1714C7.40994 17.9101 7.30461 17.6509 7.27866 17.3897L7.1832 16.6318C7.1379 16.0679 7.1809 15.5028 7.23045 14.9413L7.28342 14.5333C7.42986 13.5491 7.80493 12.5652 8.27926 11.6977L8.63731 11.0624C8.7571 10.8522 8.90562 10.6081 8.95714 10.3702C9.06362 9.87854 8.84098 8.41013 8.58348 7.91014C8.47489 7.6993 8.30968 7.5215 8.19769 7.3097C7.95983 6.85979 7.90847 6.42615 7.90686 5.92203L7.8897 4.18552C7.87283 3.83492 7.78156 3.64787 7.63473 3.32724C7.5504 3.14309 7.49382 2.948 7.42269 2.75879C7.3009 2.43488 7.04515 2.08475 7.4923 1.88857L8.80095 1.88346C9.51148 1.88535 10.0457 2.41313 10.0755 3.1093C10.0791 3.19198 10.0629 3.78343 10.0923 3.81062C10.1177 3.83413 10.2549 3.85428 10.2937 3.86504C10.797 4.00452 11.294 4.25263 11.6684 4.62034C11.7757 4.72576 11.8765 4.85705 11.9929 4.95027C12.6507 4.24091 13.0448 4.0707 13.9084 3.80478C13.9084 3.07156 13.8584 2.29144 14.6956 1.97162C15.0706 1.82837 15.4673 1.88348 15.861 1.8834L16.2663 1.88398C16.4738 1.88497 16.6058 1.90591 16.6962 2.12226L16.7106 2.15715C16.7731 2.31373 16.6379 2.55134 16.5858 2.70008L16.2148 3.64086C16.1199 3.87041 16.1051 4.04054 16.097 4.28783L16.0902 5.74306C16.0899 6.39352 16.0933 6.96824 15.6876 7.52366C15.4349 7.86962 15.3772 7.89988 15.2712 8.30895L15.1131 9.06231C14.8907 10.3371 14.9829 10.3876 15.5958 11.4796C15.8317 11.8998 16.181 12.5632 16.3194 13.0326L16.4615 13.5031C16.7104 14.1284 16.8161 15.3032 16.8162 15.9522L16.8102 16.5346C16.7798 17.0388 16.6617 17.5051 16.5542 17.9947L16.3801 18.9432ZM8.0968 2.6146L8.20761 2.90612C8.27009 3.11274 8.39065 3.30188 8.4519 3.50963L8.48895 3.64585C8.58748 4.11835 8.57546 4.34122 8.57614 4.82659L8.57703 5.82535C8.57696 6.16095 8.59557 6.40965 8.67303 6.73114C8.76596 7.11695 9.11375 7.3719 9.24823 7.73302L9.57805 9.12404C9.60183 9.20478 9.60535 9.29799 9.61362 9.38181L14.3663 9.38518C14.3829 9.31449 14.3843 9.2428 14.3979 9.17188L14.5578 8.42731C14.6821 7.84663 14.7339 7.6553 15.1057 7.16816C15.4396 6.73058 15.434 6.20258 15.4316 5.68053V4.6303C15.4318 4.31239 15.4375 4.07251 15.4807 3.75957C15.5161 3.50241 15.6561 3.27716 15.739 3.03502L15.8247 2.7658C15.8387 2.7162 15.8445 2.66033 15.8682 2.61465L15.2325 2.61486C14.8896 2.61589 14.8026 2.63173 14.6102 2.95988C14.548 3.06596 14.577 3.28742 14.5772 3.41103L14.5774 4.0152C14.5766 4.43771 14.4586 4.43183 14.0478 4.4997C13.4268 4.60231 12.8833 5.0027 12.4732 5.46324L12.2944 5.66991C11.9877 6.03186 11.853 5.83513 11.5935 5.54713C11.1519 5.05702 10.6597 4.64408 10.0019 4.50071C9.64576 4.42309 9.43367 4.47896 9.42776 3.99929L9.42565 3.53176C9.42451 2.90591 9.37379 2.61498 8.71761 2.61446L8.0968 2.6146ZM9.67573 10.1159C9.64458 10.4708 9.60418 10.5693 9.52262 10.8788L14.3935 10.8838L14.5454 10.8864C14.3705 10.5061 14.385 10.4875 14.3443 10.1143L9.67573 10.1159ZM10.5059 11.5998C9.07107 13.1808 8.71329 15.3168 9.07407 17.3589L9.72385 20.8475C9.75783 21.0196 9.77169 21.2079 9.83077 21.3732C9.8719 21.398 10.5574 21.383 10.6627 21.383L13.5058 21.3827L14.1158 21.3839C14.1455 21.3117 14.1488 21.2231 14.1645 21.1464L14.9447 17.168C15.0253 16.7531 15.0529 16.3605 15.052 15.9401C15.0493 14.709 14.7266 13.3524 14.0268 12.3199C13.9689 12.2345 13.528 11.6218 13.4765 11.6157C13.4156 11.6085 13.3469 11.6151 13.2849 11.615L11.3284 11.615C11.0606 11.615 10.7698 11.6378 10.5059 11.5998ZM9.1119 11.615C8.45002 12.7492 8.08341 13.6233 7.90615 14.9589L7.83158 15.593C7.80003 16.036 7.82054 16.8827 7.9366 17.3233L8.08292 17.8871C8.11587 18.0413 8.12883 18.2068 8.15042 18.3635L8.65177 21.1229C8.66848 21.2096 8.66973 21.2978 8.69956 21.3813L9.13794 21.3811L9.13472 21.3436L8.47503 17.7751C8.32754 16.9839 8.28699 16.5822 8.29337 15.7775L8.33515 15.0233C8.34617 14.9164 8.35215 14.8085 8.37148 14.7027L8.51363 13.9671C8.68836 13.2532 9.12755 12.1999 9.6121 11.6148L9.1119 11.615ZM14.3722 11.615C14.7222 12.1124 15.1157 12.8111 15.2923 13.4061L15.3929 13.7291C15.5518 14.2479 15.656 14.7979 15.6898 15.3397L15.704 16.0099C15.7043 16.3857 15.6929 16.7458 15.6384 17.1184L14.9542 20.5546L14.8162 21.3754C14.9498 21.3856 15.0994 21.3977 15.2326 21.3844L15.2447 21.3473L15.949 17.6426C15.9779 17.5309 16.0167 17.421 16.0421 17.3085C16.4052 15.6941 15.9727 13.6003 15.1948 12.1515C15.0999 11.9746 14.9973 11.7887 14.885 11.622C14.8362 11.607 14.7678 11.6151 14.7163 11.615L14.3722 11.615Z" fill="#034C8C"/>
</svg>
