<svg width="24" height="24" viewBox="0 0 24 24" fill="none" xmlns="http://www.w3.org/2000/svg">
<path d="M9.54393 24C9.42175 23.9555 9.27747 23.9482 9.15011 23.9161C7.87842 23.5941 7.11199 22.5504 6.99794 21.252C6.98554 21.1107 6.98782 20.9652 6.98254 20.8233C6.51963 20.7405 6.32995 20.8478 6.33323 20.3005C6.33564 19.9028 6.35296 19.5111 6.38871 19.1149L6.60271 17.3965L6.76558 15.6944L6.76856 10.3846L6.7214 9.86074C6.65484 9.03103 6.58249 8.17329 6.32894 7.3758C6.28992 7.25311 6.23648 7.13009 6.20507 7.00582C6.13699 6.73638 6.40474 6.40226 6.67802 6.60141L6.69128 6.61139C7.20044 6.98684 7.40798 10.2015 7.43737 10.807L7.4395 11.0918C7.44405 11.188 7.45844 11.2811 7.4594 11.3783L7.46153 13.9996C7.46116 14.1138 7.4531 14.2289 7.46514 14.3426L10.1624 15.0727C10.2609 15.1082 10.3262 15.1671 10.3671 15.2644L10.3731 15.2808C10.4374 15.445 10.3138 15.6822 10.1318 15.7058L10.1196 15.7072C9.8793 15.7441 8.76806 15.3657 8.46689 15.2834L7.67657 15.0719C7.60214 15.0518 7.52533 15.0476 7.45202 15.0236L6.98592 20.1779C7.02867 20.203 7.09884 20.2052 7.14897 20.2136L9.39888 20.6831C9.99105 20.8018 10.557 20.9264 11.0922 20.5234C11.5463 20.1815 11.6568 19.7244 11.6542 19.1944L11.6478 11.2847C11.5909 10.2603 11.1389 9.01455 10.7387 8.08852L9.3967 5.35397C9.33714 5.22909 9.25497 5.08833 9.27431 4.94552C9.31488 4.6455 9.67577 4.56148 9.83512 4.81146L10.5111 6.11498C10.5446 6.1767 10.5762 6.23159 10.6185 6.28814C10.6698 6.05564 10.6485 5.7923 10.6519 5.55485C10.6542 5.38835 10.6796 5.22417 10.6847 5.0577C10.6934 4.77262 10.6782 4.48423 10.7148 4.20117C10.7268 4.10902 10.7051 4.1408 10.6176 4.11337C10.034 3.93035 9.60058 3.51337 9.2272 3.04195C8.65382 3.28148 8.02375 3.44522 7.41135 3.54771L6.18208 3.73854C5.53279 3.84492 4.99317 3.8452 4.90129 4.67955L4.73934 5.77495C4.72544 5.844 4.72713 5.91846 4.70231 5.98486C4.56625 6.34887 4.04582 6.18874 4.07332 5.8358C4.09007 5.62062 4.14239 5.41012 4.17119 5.1967C4.28191 4.37667 4.27942 3.63204 5.20748 3.24284C5.56715 3.09199 5.93812 3.09745 6.31685 3.03708C7.08672 2.91436 7.84476 2.80587 8.58691 2.55555C8.95603 2.43105 9.19778 2.35695 9.34659 1.94236L9.35378 1.92188C9.43994 1.68332 9.43188 1.45367 9.43253 1.20506C9.43497 0.250934 10.4221 0.0898784 11.1925 0.0365093C11.3181 0.0278086 11.4465 0.0276218 11.5701 0.00258841L11.5825 0H12.4655C12.6444 0.0316781 12.8251 0.0273588 13.0056 0.0396914C13.6011 0.080363 14.3865 0.280207 14.5493 0.947948C14.6279 1.27022 14.5179 1.6098 14.6441 1.92593C14.8206 2.36845 15.0631 2.44552 15.5037 2.58705C16.2398 2.82354 16.9946 2.92999 17.7579 3.04448C18.4785 3.15258 19.1328 3.18005 19.5463 3.91406L19.6475 4.11734C19.6688 4.16841 19.6842 4.21847 19.6992 4.27148L19.7055 4.28965C19.7534 4.43766 19.7634 4.61105 19.7776 4.76545L19.8325 5.19141C19.8667 5.41432 19.92 5.64436 19.9324 5.86964C19.9518 6.22109 19.3536 6.2632 19.2781 5.88867C19.2497 5.74791 19.2367 5.59666 19.217 5.45384L19.1392 4.94212C19.0846 4.53633 19.0692 4.24111 18.7211 3.9765L18.6028 3.90429C18.3609 3.77009 18.0404 3.77276 17.7719 3.72959L15.9558 3.41304C15.7373 3.36436 15.5208 3.30802 15.3093 3.23442L14.778 3.04718C14.4996 3.48389 13.8868 3.96136 13.4067 4.10405C13.3782 4.11251 13.288 4.11602 13.2883 4.14982L13.302 4.48645C13.3051 4.74762 13.3562 6.16029 13.3891 6.21652C13.4232 6.19526 13.4365 6.15298 13.4544 6.11719L13.7407 5.54093L14.4053 4.39462C14.7168 3.89848 15.0971 4.3282 15.026 4.5758C14.9945 4.68565 14.9221 4.8012 14.8675 4.90188L14.2209 6.08217C13.6793 7.13438 13.1788 8.21236 12.7977 9.33398L12.5857 10.0437C12.3054 11.037 12.3394 11.597 12.3366 12.621L12.3361 18.9039C12.3363 19.2808 12.3059 19.678 12.4846 20.0242C12.7291 20.4978 13.3327 20.8567 13.8754 20.8107C14.0167 20.7987 14.1697 20.7613 14.3093 20.734L16.7133 20.2353C16.8032 20.2144 16.9426 20.2099 17.0208 20.1687L16.5486 15.061L14.6601 15.6072C14.5745 15.6359 14.4825 15.6725 14.3939 15.6878C14.0447 15.7482 13.8777 15.2555 14.1476 15.0678C14.2484 14.9978 14.3981 14.9737 14.5162 14.9408L16.3557 14.4042C16.4038 14.3914 16.4987 14.3764 16.5337 14.344L16.5405 11.1504C16.545 11.0263 16.5794 10.9076 16.5869 10.7835L16.6841 9.22852C16.7289 8.77427 16.9391 6.95212 17.2615 6.63572C17.4652 6.43568 17.7098 6.59463 17.7788 6.82031L17.7854 6.83845C17.8107 6.93373 17.5279 7.86084 17.4929 8.05664L17.2748 10.0371C17.2579 10.3087 17.2323 10.6129 17.2216 10.8814L17.2218 15.4753C17.2253 15.5635 17.245 15.6505 17.2487 15.7389L17.2542 16.0301C17.2585 16.095 17.2761 16.1582 17.2815 16.2234L17.3487 16.9794C17.4745 17.9062 17.636 18.8237 17.6486 19.7625C17.6527 20.0629 17.7515 20.6982 17.368 20.7941C17.1266 20.8545 17.0767 20.6964 17.0627 20.9571L17.0475 21.1662C16.932 22.5216 16.1274 23.6475 14.7744 23.928C14.6406 23.9559 14.4921 23.9595 14.3633 24H14.0559C13.9933 23.974 13.9166 23.9681 13.8496 23.9564L13.5232 23.8873C12.8687 23.7211 12.4544 23.4199 12.0106 22.9434C11.9894 22.942 11.972 22.9746 11.9585 22.9906C11.5347 23.4928 10.9324 23.7907 10.2949 23.9283C10.1504 23.9595 9.99042 23.9562 9.85157 24H9.54393ZM11.751 0.71873C11.2965 0.721538 10.6171 0.694723 10.2155 0.941522C10.3286 1.0807 10.4787 1.19513 10.6122 1.31507L11.4095 2.02002C11.6059 2.1915 11.7928 2.40532 12.0093 2.55105L12.168 2.41226L13.5676 1.14042C13.6379 1.07867 13.7177 1.02105 13.7707 0.943359L13.7854 0.922034C13.327 0.644752 12.2682 0.717558 11.751 0.71873ZM10.0803 1.74023C10.0513 2.02632 9.93058 2.32642 9.75686 2.55525C9.7019 2.62765 9.83432 2.7356 9.88096 2.7923C10.1236 3.08721 10.5322 3.43123 10.91 3.53311L11.0671 3.42265L11.5076 3.02958L10.284 1.91276C10.2257 1.8541 10.1641 1.77641 10.0905 1.73862L10.0803 1.74023ZM13.907 1.73012L12.6192 2.91518C12.5826 2.94923 12.5347 2.98113 12.5043 3.02032L12.9737 3.44845C13.0063 3.47454 13.0418 3.50986 13.0812 3.52416C13.5779 3.34587 13.958 3.03656 14.2596 2.59791C14.0834 2.29479 13.9948 2.08049 13.907 1.73012ZM12.0069 3.48734L11.3785 4.04325L11.3349 5.46316C11.3277 5.58166 11.3054 5.69932 11.2999 5.81836L11.2318 7.21901C11.2098 7.58852 11.2944 7.66709 11.4269 8.01056L11.6899 8.70785C11.7476 8.84991 11.9675 9.60178 12.0063 9.62906L12.6266 7.90055C12.6774 7.77933 12.7488 7.64473 12.774 7.51648C12.7954 7.40796 12.7473 6.51787 12.7282 6.43488C12.7069 6.34298 12.7097 6.23967 12.7081 6.14548L12.6283 4.35117C12.62 4.18823 12.6827 4.056 12.5358 3.96148L12.5246 3.9547C12.3476 3.84527 12.1804 3.62149 12.0069 3.48734ZM12.3474 20.8679C12.3189 21.095 12.334 21.3351 12.3345 21.5638L12.3361 21.9492C12.3368 22.0677 12.3279 22.1779 12.3742 22.2891L12.3801 22.3058C12.4237 22.421 12.5033 22.5127 12.586 22.6015C13.4437 23.523 15.0659 23.5366 15.8618 22.5271L15.9604 22.3958C16.2303 21.9545 16.3414 21.5165 16.4102 21.0067C16.2184 21.0267 16.0266 21.0762 15.8383 21.118L14.8675 21.3254C14.0876 21.4883 13.2503 21.637 12.5743 21.082L12.3474 20.8679ZM11.6276 20.9121C11.227 21.446 10.2276 21.5312 9.6266 21.4161L7.62935 20.9995C7.64901 21.2318 7.6691 21.5284 7.75406 21.7491L7.83138 21.9689C7.88341 22.1251 7.97294 22.2749 8.06118 22.4131C8.32258 22.8194 8.77797 23.14 9.25164 23.2433L9.42304 23.2693C10.1483 23.3993 11.4177 23.0073 11.6156 22.2255C11.6467 22.1023 11.6944 21.0513 11.6455 20.9129L11.6276 20.9121Z" fill="#034C8C"/>
</svg>
