<svg width="24" height="24" viewBox="0 0 24 24" fill="none" xmlns="http://www.w3.org/2000/svg">
<path d="M14.3487 22.1377L9.01002 22.1489C7.89189 22.1493 6.79227 21.9928 5.78669 21.464C5.67625 21.9551 5.38902 21.9613 4.92941 21.9606C4.09602 21.9595 3.25509 21.7946 2.47173 21.5161C1.2972 21.0986 1.57452 20.8377 1.77875 19.8281L2.85705 13.9101L3.65308 8.04921C3.69121 7.72045 3.70867 7.38656 3.76942 7.06115C3.99934 5.8293 4.84696 4.73751 5.98717 4.21284C6.25703 4.08867 6.54494 3.99785 6.8283 3.90979L7.85306 3.55975C8.2986 3.40692 8.10639 3.51579 8.39688 3.2239C8.78345 2.8354 9.23404 2.52668 9.5001 2.03244C9.5616 1.9182 9.63423 1.87697 9.75374 1.84174C9.96438 1.83106 10.1692 1.87495 10.3773 1.88027L12.5767 1.9168C12.6941 1.91491 12.8086 1.89727 12.9251 1.8928L13.6539 1.87288C13.8122 1.8644 13.966 1.84187 14.126 1.83906C14.489 1.83269 14.4416 1.98233 14.6382 2.24954C14.7836 2.44708 14.9505 2.62615 15.1304 2.79236C15.3175 2.9651 15.5748 3.13111 15.7036 3.35151C15.7913 3.50142 16.1695 3.57154 16.3313 3.62573L17.2432 3.93644C17.6205 4.06202 17.9983 4.1643 18.3428 4.37116C19.1893 4.87936 19.9129 5.74704 20.1476 6.7222L20.2061 6.95566C20.2667 7.15043 20.2725 7.37411 20.2962 7.57612L20.8349 11.7187C20.8509 11.8158 20.8548 11.9146 20.8729 12.0117L21.1344 13.8789C21.1399 13.9346 21.1557 13.9859 21.1653 14.0406L21.8898 18.0761L22.3518 20.517C22.4445 21.1602 21.652 21.4383 21.1573 21.6101C20.4719 21.848 19.7215 21.9666 18.9967 21.9593C18.6824 21.9561 18.2438 21.9766 18.172 21.5718C18.1641 21.5272 18.1637 21.461 18.1421 21.4226C17.2321 21.9707 16.3341 22.1347 15.3026 22.1364L14.3487 22.1377ZM10.0324 2.45695C10.0931 2.6287 10.1949 2.79318 10.2823 2.95289C10.633 3.59372 11.4936 4.98276 12.0592 5.47753C12.3731 5.13112 12.6374 4.7681 12.8933 4.37723L13.9416 2.46916L10.0324 2.45695ZM14.4165 2.90212C14.3204 3.06255 14.2449 3.23885 14.1631 3.40715L13.8044 4.08295C13.6136 4.40943 13.4099 4.74208 13.1909 5.05094L12.6535 5.78193C12.7881 5.89802 12.9476 5.9711 13.1065 6.04729L13.6129 6.27743L13.8888 6.39082C14.4993 5.80917 15.0231 4.51832 15.2427 3.70432L14.4165 2.90212ZM9.56315 2.92427C9.31255 3.20604 9.04628 3.47716 8.74879 3.70997C8.75685 3.74822 8.76555 3.78126 8.77977 3.81771L8.95661 4.38454C9.00984 4.58004 9.12175 4.76674 9.20193 4.9515C9.41259 5.43682 9.75109 6.01715 10.1383 6.39105L10.4961 6.23006L11.4281 5.74352C11.3933 5.67501 11.3354 5.61375 11.2866 5.55452L10.3989 4.33645L9.89523 3.48801C9.78873 3.29538 9.69733 3.09998 9.56315 2.92427ZM8.21268 4.07095L8.1981 4.07927C7.94479 4.22165 7.62531 4.28114 7.35027 4.3769L6.86041 4.54675C5.71082 4.91641 4.80965 5.58855 4.45375 6.81159C4.31875 7.27554 4.29927 7.746 4.23873 8.22241L3.67616 12.471L3.3997 14.311L2.30088 20.2418C2.27134 20.3939 2.25012 20.5534 2.20611 20.7019C2.45589 20.959 3.63121 21.219 3.97082 21.2771C4.17006 21.3112 5.02314 21.4094 5.20959 21.3462C5.29413 21.2234 5.29094 21.0118 5.31081 20.8677L5.52611 19.2238L5.66821 17.47L5.68656 16.6217C5.68947 16.5218 5.71309 16.4255 5.71532 16.3246L5.7156 12.1054C5.71298 11.9939 5.68792 11.8826 5.68579 11.7692L5.67606 10.628C5.6657 10.3821 5.63303 10.1727 5.63123 9.90764L5.62872 9.22465C5.62865 9.12998 5.61189 8.99322 5.64006 8.90418C5.73939 8.59026 6.19166 8.63606 6.21283 9.057C6.21691 9.13839 6.2233 9.22019 6.22129 9.30171L6.23106 9.87389C6.23531 10.1127 6.27348 10.3377 6.27648 10.5761L6.28171 11.4689C6.28485 11.5828 6.30911 11.6943 6.31192 11.8086L6.31225 16.5952C6.30974 16.7134 6.28811 16.828 6.28434 16.9453L6.21775 18.4073L5.94072 20.7792C5.91205 21.0604 7.50468 21.4072 7.76066 21.4593C7.98166 21.5043 8.26736 21.5236 8.49285 21.5254L11.6807 21.5327L11.6812 6.71041C11.6812 6.59081 11.6951 6.45138 11.674 6.33473L10.5108 6.89179C10.145 7.05138 10.0434 7.11511 9.73272 6.83756C9.28539 6.438 8.90493 5.80347 8.65984 5.26753L8.21268 4.07095ZM15.7737 4.07222C15.5683 4.75272 14.7806 6.73183 14.0381 7.01036L14.023 7.01632C13.8455 7.0818 13.7194 6.96827 13.5683 6.89993L12.3975 6.37532C12.37 6.36154 12.3295 6.33154 12.3002 6.3281L12.3044 21.5265L14.4531 21.5259C14.8499 21.5257 15.2562 21.5454 15.6517 21.5214C16.3219 21.4806 16.9147 21.337 17.5295 21.0623C17.7091 20.9821 17.9239 20.8945 18.0666 20.7563L17.6962 16.5952C17.6656 16.3952 17.6823 16.1703 17.6822 15.9676L17.6852 12.3105C17.688 12.2296 17.7101 12.1491 17.7138 12.0672L17.7207 10.7872L17.7646 9.37917C17.7666 9.15096 17.7183 8.76351 18.0285 8.70785C18.3699 8.64658 18.3682 8.93332 18.3663 9.16263L18.3593 10.9128C18.3555 11.0036 18.3353 11.0924 18.3307 11.1829L18.2844 12.4856L18.2842 15.7778C18.2859 15.8685 18.3024 15.9575 18.3043 16.0482L18.3318 17.4115L18.6089 20.3144L18.6793 20.7597C18.7057 20.9586 18.7098 21.1635 18.7409 21.3612C19.6151 21.4163 21.1043 21.1594 21.7586 20.6183L20.5445 13.9954L19.7452 7.98042C19.6144 6.73167 19.3547 5.8549 18.2826 5.05235C17.9013 4.76693 17.4813 4.6376 17.0342 4.4943L15.9436 4.12915C15.8879 4.11129 15.8311 4.0825 15.7737 4.07222Z" fill="#034C8C"/>
</svg>
