<svg width="24" height="24" viewBox="0 0 24 24" fill="none" xmlns="http://www.w3.org/2000/svg">
<path d="M6.76342 18.1413L6.70888 18.1513C6.40598 18.2069 6.24775 17.9927 6.2462 17.7177L6.24173 17.3794C6.22513 17.116 6.14976 16.8455 6.08282 16.5909C5.76897 16.5267 5.49977 16.2965 5.41434 15.9825C5.34208 15.717 5.39359 15.4348 5.33289 15.1695L5.26839 15.1445C4.96391 15.0206 4.75816 14.789 4.63223 14.4867L3.3366 11.1236C3.19218 10.7448 3.01012 10.3923 3.00977 9.97968C3.00888 8.8894 4.0042 8.06967 5.06097 8.36292C5.18252 8.39665 5.29776 8.45048 5.41267 8.50167C5.47959 7.04086 6.4717 5.97274 7.95112 5.82872C8.00648 5.81259 8.09952 5.82468 8.15835 5.8244C9.4048 5.81871 10.4702 6.59969 10.9027 7.76147C11.033 8.11134 11.0296 8.48871 11.0696 8.8533L11.4446 13.517C11.4515 13.5937 11.4687 13.6685 11.472 13.7458L11.4757 15.1842C11.4596 15.5249 11.3421 15.3288 11.472 15.7146L11.4848 15.7556C11.5625 15.9416 11.6188 16.1312 11.6861 16.3204C11.9258 16.994 11.9222 17.1624 11.235 17.3151L7.81152 17.9826L6.76342 18.1413ZM8.08659 6.42665C7.87872 6.44456 7.67109 6.46865 7.4706 6.52889C6.40563 6.84886 5.77877 7.99544 6.04178 9.07415L6.0467 9.09482C6.07649 9.20988 6.19759 9.4469 6.25384 9.57572L7.08684 11.6617C7.23972 12.0149 6.78702 12.2797 6.59671 11.9529C6.47725 11.7478 6.39712 11.4988 6.30569 11.2789L5.83141 10.1252C5.69798 9.77854 5.61348 9.34797 5.29091 9.12C5.0759 8.96803 4.7984 8.86202 4.53166 8.90791C4.0919 8.98354 3.64326 9.30588 3.60363 9.78494L3.60189 9.80414C3.58326 10.0342 3.60391 10.1928 3.68073 10.406L4.4039 12.2593L4.87968 13.4881C4.89355 13.5334 4.91427 13.5777 4.92984 13.6228L5.13379 14.156C5.31276 14.5947 5.35773 14.6061 5.78896 14.5432L7.86904 14.2425L10.3551 13.8076C10.522 13.7759 10.7101 13.7664 10.8708 13.7125C10.8379 13.4781 10.8418 13.243 10.8241 13.0076L10.5107 9.18726C10.4844 8.77268 10.4752 8.34738 10.343 7.95002C10.0281 7.00319 9.07263 6.39269 8.08659 6.42665ZM10.8801 14.326L6.19045 15.0928C5.83173 15.151 5.91878 15.0692 5.94648 15.3989L5.9736 15.7169C5.98345 15.8214 5.98537 15.8465 6.06102 15.9259C6.39813 16.1651 7.33195 15.9595 7.71344 15.9042L9.80404 15.547L10.4612 15.3702C10.5914 15.3287 10.7287 15.2845 10.8493 15.2192L10.8932 15.1913C10.8806 14.9942 10.9212 14.4695 10.8891 14.3269L10.8801 14.326ZM10.8905 15.8494C10.2153 16.0981 9.50713 16.2166 8.80068 16.3388L6.89758 16.6174C6.82959 16.6255 6.75227 16.6216 6.68669 16.6358C6.73581 16.8698 6.80186 17.1101 6.82002 17.3494C6.82776 17.4514 6.78754 17.6096 6.96362 17.516L11.217 16.7126L11.0255 16.1896C10.9895 16.0829 10.9703 15.9533 10.9159 15.8555L10.8905 15.8494Z" fill="#034C8C"/>
<path d="M17.6052 18.0848L17.5822 18.098C17.4477 18.1756 17.3208 18.1527 17.1709 18.1393L15.6762 17.9807L14.9885 17.8588L12.592 17.2844C12.1361 17.148 12.1204 16.9601 12.2497 16.5177C12.3255 16.2583 12.4044 16.0012 12.5019 15.7489C12.5671 15.5803 12.6135 15.6023 12.5615 15.4269C12.4813 15.1561 12.5126 14.884 12.5156 14.6056L12.5221 13.7368C12.5263 13.6601 12.5412 13.5856 12.5483 13.5094L12.6689 11.7538L12.885 9.21375C12.9115 8.81691 12.9143 8.41566 13.0065 8.02659C13.2965 6.80217 14.3566 5.94635 15.6034 5.82886C15.7864 5.81822 15.9822 5.8132 16.1629 5.84585L16.3537 5.87229C17.5221 6.08766 18.4633 7.06573 18.5811 8.25223C18.5898 8.33967 18.5915 8.42163 18.6073 8.5092C19.5217 8.03027 20.5441 8.45665 20.9074 9.42762C21.1378 10.0438 20.8457 10.6493 20.6269 11.2147L19.5478 13.9921C19.4084 14.3533 19.3113 14.7727 18.9696 15.0007L18.6771 15.1804C18.6447 15.1964 18.6452 15.2883 18.6439 15.3221C18.6212 15.8984 18.6678 16.4673 17.9221 16.5868C17.8595 16.8853 17.7871 17.1929 17.7598 17.4971C17.7379 17.7416 17.8019 17.8941 17.6052 18.0848ZM15.7352 6.42684C14.638 6.51333 13.8079 7.11984 13.5531 8.24417C13.5112 8.42899 13.51 8.62981 13.4948 8.81824L13.2048 12.6297C13.1781 12.9919 13.129 13.3536 13.1183 13.7169C13.2554 13.7574 13.4031 13.7738 13.5438 13.7987L18.2111 14.5448C18.7699 14.6392 18.7341 14.4715 18.9146 14.004L19.6643 12.0909L20.1637 10.8006C20.2455 10.5876 20.3516 10.3684 20.3872 10.1415C20.5665 8.99792 18.9977 8.40459 18.4373 9.42684C18.3883 9.51624 18.3548 9.61847 18.3168 9.71304L17.5784 11.5604C17.5216 11.6905 17.4809 11.8517 17.4064 11.9706C17.2201 12.2674 16.7974 12.0348 16.8985 11.7056C17.0107 11.3405 17.1843 10.98 17.3283 10.6257L17.818 9.39152C17.9753 9.01231 18.0007 9.04146 18.0013 8.57881C18.003 7.33254 16.9856 6.35738 15.7352 6.42684ZM13.0918 14.3244L13.0798 15.1692C13.3866 15.4882 17.3329 16.2886 17.9775 15.9277C18.0729 15.8586 18.0687 15.3086 18.0968 15.134L13.0918 14.3244ZM13.1073 15.8644L12.7917 16.7239C13.2257 16.8769 13.6756 16.9821 14.1243 17.0812L15.1467 17.2961L17.0482 17.5387L17.1659 17.5436L17.3203 16.614C16.5788 16.599 15.8232 16.4643 15.0953 16.3368L13.757 16.0579C13.5383 16.0017 13.3178 15.9471 13.1073 15.8644Z" fill="#034C8C"/>
</svg>
