<svg width="24" height="24" viewBox="0 0 24 24" fill="none" xmlns="http://www.w3.org/2000/svg">
<path d="M12.7838 15.1957L12.01 10.9878C11.9498 11.1121 11.9417 11.2421 11.9197 11.376L10.6168 18.2462L9.89835 21.8204C9.78238 22.4365 9.69145 23.0227 8.9342 23.1952C8.60945 23.2692 8.29516 23.2413 7.96361 23.2408C7.24966 23.2399 6.6632 23.2301 6.3397 22.4064C6.29664 22.2967 6.29355 22.1957 6.28642 22.0806L6.23629 20.9221C6.2316 20.7882 6.20601 20.6586 6.1994 20.5255L6.18735 19.841L6.09843 18.406L6.08912 17.5877C6.08631 17.4617 6.06374 17.3394 6.05868 17.2149L6.00402 16.0373L5.99519 15.0104C5.99148 14.8746 5.96359 14.7436 5.95895 14.6079L5.95155 13.8945C5.94627 13.7571 5.92084 13.6207 5.91737 13.4839L5.8528 10.7931C5.851 10.6906 5.82897 10.5915 5.82611 10.4904L5.82227 7.79624C5.84444 7.31263 5.89694 6.83075 5.96552 6.35167L6.6958 1.53697C6.73802 1.20675 6.6828 0.897976 7.0581 0.763867L16.5918 0.758356C16.7326 0.758361 16.9246 0.718717 17.0474 0.800713L17.0619 0.810585C17.2288 0.923504 17.2347 1.03532 17.2572 1.21885L17.3664 1.99229C17.3784 2.06375 17.3796 2.13767 17.3905 2.20909L17.5122 2.993C17.534 3.15866 17.55 3.32788 17.5786 3.49229L17.9321 5.75699C18.0281 6.38626 18.1453 7.01216 18.1902 7.64846C18.2281 8.18624 18.2078 8.73458 18.2073 9.27355L18.2026 11.1773C18.2001 11.2736 18.1806 11.3659 18.1759 11.461L18.1721 11.9177L18.1167 13.3259C18.1124 13.4077 18.0952 13.4874 18.0938 13.5698L18.0855 14.1316C18.08 14.3167 18.0491 14.4928 18.0406 14.6778L18.0257 15.2649C18.0236 15.3562 18.0046 15.4442 18.0006 15.5347L17.9313 17.1068C17.9263 17.207 17.9062 17.3059 17.9013 17.4062L17.8018 19.8139L17.7092 21.3021C17.6982 21.6121 17.7225 21.9399 17.6646 22.2464C17.5309 22.9541 16.9204 23.241 16.2678 23.2409L15.7391 23.2409C15.5598 23.2408 15.3567 23.2586 15.1804 23.2346C14.3573 23.1224 14.2474 22.5588 14.1035 21.838L12.7838 15.1957ZM7.42513 1.49207L7.25992 2.6248L9.47085 2.88683C9.51857 2.89295 9.56345 2.89431 9.60548 2.91967C9.63559 2.77356 9.62001 2.59459 9.62041 2.44454L9.6242 1.49482L7.42513 1.49207ZM10.3269 1.49092C10.2924 1.84975 10.3126 2.22559 10.312 2.58742L10.3116 2.87075C10.3116 2.91317 10.3057 2.96237 10.3159 3.00317L13.6651 3.00472L13.6605 1.49155L10.3269 1.49092ZM14.3779 1.49182L14.367 2.49353C14.3723 2.95925 14.2673 2.91791 14.6947 2.87153L15.8233 2.73542C16.0298 2.70915 16.2481 2.69734 16.4516 2.65827C16.5289 2.64636 16.6296 2.64514 16.7019 2.6195C16.6938 2.4736 16.6235 1.61838 16.5767 1.49312L14.3779 1.49182ZM16.7412 3.37951L15.4391 3.56103C15.4971 3.73874 15.9082 4.11573 16.0509 4.21824C16.3505 4.39203 16.6652 4.53348 17.0215 4.51011L16.8566 3.3695L16.7412 3.37951ZM7.14566 3.4326L7.00403 4.34671C6.99599 4.39482 6.9772 4.44882 6.97863 4.49703C7.43008 4.57168 7.88167 4.49042 8.25962 4.22767C8.48099 4.04132 8.62091 3.85325 8.73201 3.58431L7.14566 3.4326ZM14.6741 3.63878L13.4877 3.72217L13.4886 6.81388C13.4879 7.60344 13.3156 8.34348 12.5417 8.75753C12.4952 8.78244 12.4395 8.7991 12.3965 8.82863L14.8777 22.0899C14.8987 22.1661 14.9035 22.2162 14.9429 22.2887L14.9501 22.3023C15.0034 22.4007 15.1161 22.4773 15.223 22.5071L15.2324 22.5095L16.1354 22.508C16.43 22.5076 16.6595 22.5592 16.8793 22.3255C17.108 22.0823 17.054 21.6311 17.0726 21.3229C17.1081 20.7349 17.1476 20.1592 17.1655 19.5672C17.1694 19.4392 17.1976 19.3167 17.2034 19.1896L17.2168 18.5037L17.2993 17.1724L17.311 16.2884C17.3157 16.1571 17.3409 16.0285 17.3463 15.8979L17.443 13.295L17.449 12.2671C17.4504 11.822 17.4941 11.3829 17.4949 10.9367L17.4953 8.4609C17.4952 8.04341 17.4954 7.69658 17.4486 7.28331L17.223 5.86918C17.0519 4.99421 17.3243 5.33359 16.5012 5.17672C15.7392 5.0315 14.9899 4.35974 14.6994 3.63683L14.6741 3.63878ZM9.48787 3.66882C9.14127 4.81386 8.00207 5.37864 6.86141 5.22779L6.61314 6.75887C6.50296 7.48569 6.50226 8.17628 6.50249 8.90806L6.50685 10.5493C6.51032 10.6462 6.53427 10.7422 6.53901 10.8399L6.61157 13.0196C6.61464 13.1083 6.63501 13.195 6.64061 13.2835C6.65216 13.4657 6.65793 13.6755 6.66658 13.863L6.71048 15.4592C6.71509 15.543 6.72941 15.6254 6.73258 15.7097L6.74713 16.6299C6.75126 16.7389 6.77711 16.8408 6.7833 16.9491L6.79827 17.7247C6.80242 17.8243 6.82441 17.9243 6.82938 18.0235C6.84548 18.345 6.80022 18.6958 6.86814 19.0114C6.89284 19.1263 6.88096 19.2604 6.88185 19.3778L6.89249 19.8465C6.89526 19.9556 6.91933 20.0607 6.92601 20.1681L6.96576 21.1313C6.97984 21.4374 6.96311 21.7573 7.00134 22.0607L7.00298 22.076C7.03213 22.3374 7.25097 22.5073 7.49936 22.5084L8.68455 22.5082C9.18653 22.4693 9.20331 21.7024 9.2789 21.3294L11.1055 11.9032L11.5931 9.04112C11.6437 8.76371 11.634 8.50138 11.6341 8.21945L11.6297 3.74134L9.48787 3.66882ZM12.3646 3.74021L12.366 8.0075L12.5577 7.76959C12.6576 7.59608 12.7492 7.41901 12.7562 7.21735L12.7596 3.74289L12.3646 3.74021Z" fill="#034C8C"/>
<path d="M12.0665 2.62441C11.5739 2.64647 11.4532 2.07739 11.9219 1.88862C12.1139 1.87165 12.2654 1.93537 12.342 2.12001L12.3569 2.15756C12.4097 2.36691 12.2649 2.56922 12.0665 2.62441Z" fill="#034C8C"/>
</svg>
