<svg width="24" height="24" viewBox="0 0 24 24" fill="none" xmlns="http://www.w3.org/2000/svg">
<path d="M15.0166 19.6079C14.1095 20.3447 13.0349 20.349 11.9433 20.3471C11.1079 20.3455 10.1919 20.3269 9.4398 19.9166C8.83786 19.5883 8.35334 19.0568 8.35209 18.3474L8.34954 17.6206C8.34628 17.4623 8.26559 17.4386 8.17702 17.3175C7.65115 16.5987 7.54688 15.1774 7.51193 14.2735L7.50323 13.637L7.3995 11.9746C7.34032 12.2232 7.23959 12.467 7.17159 12.7149C7.02907 13.2345 6.89501 13.9594 7.0069 14.4792C7.03411 14.6056 7.02169 14.7417 7.0388 14.8711L7.15793 16.1383C7.19259 16.7351 7.18366 17.5126 6.93368 18.0462C6.90666 18.1039 6.87248 18.1435 6.87 18.211L6.87272 20.0039C6.87323 20.3479 6.77299 20.3805 6.44072 20.3809L5.03018 20.3814C4.45678 20.3813 4.37855 20.4272 4.3777 19.7598L4.37555 18.1728C4.37119 17.7313 4.16262 17.2687 4.09411 16.8145C4.05253 16.539 4.00289 16.111 3.98981 15.8262L3.98438 13.8217C3.99293 11.8068 4.68778 9.86662 5.48831 8.04494C5.92402 7.05347 6.3214 6.62315 7.2852 6.21872L8.97059 5.59641C8.9464 5.27083 8.9632 4.93399 8.96332 4.60725L8.96384 4.21451C8.96402 4.14588 8.95762 4.05537 8.98212 3.99082L8.98706 3.97856C9.10366 3.67106 9.64828 3.61669 9.92674 3.60293C10.5573 3.56562 10.9793 3.90136 11.3452 4.35933L11.9925 5.23033L12.5741 4.46018C13.0456 3.8546 13.4563 3.56848 14.2204 3.60949C14.4853 3.62372 14.8286 3.65625 14.9863 3.89916L14.9962 3.91495C15.0647 4.02098 15.0325 4.23518 15.0326 4.36024L15.033 5.19736C15.033 5.49361 14.9376 5.56643 15.1848 5.64684L16.4176 6.0933C17.6562 6.54914 18.078 7.06709 18.58 8.19928L18.8436 8.81841C18.9961 9.21096 19.1796 9.59805 19.3008 10.002L19.5368 10.7344C19.6506 11.194 19.7809 11.6478 19.8536 12.1174L19.9477 12.7792C19.9779 13.0395 19.9845 13.2982 20.0004 13.5586L20.0259 14.7346C20.0259 15.5457 20.005 16.6484 19.7874 17.427C19.6234 18.0142 19.6192 17.965 19.6189 18.5798L19.6195 19.9732C19.6198 20.044 19.6285 20.1276 19.6025 20.1941L19.5961 20.209C19.5643 20.2846 19.4942 20.3755 19.4054 20.3804C19.0833 20.3984 18.7502 20.3812 18.4271 20.3812L17.7012 20.3811C17.4281 20.3806 17.1205 20.4104 17.1199 20.0584L17.1195 18.3316C17.1194 18.0338 16.9362 17.7656 16.8864 17.4024C16.7789 16.6185 16.8342 15.8329 16.9339 15.0528L16.9819 14.6368C17.0556 14.0503 17.0238 13.4802 16.8752 12.9045L16.593 11.963C16.5341 12.4063 16.5402 12.8438 16.5266 13.2895L16.488 14.4082C16.4837 14.5128 16.4646 14.6148 16.457 14.7188L16.3649 15.7058C16.2853 16.2605 16.1964 16.8186 15.8524 17.2792L15.7065 17.4617C15.6254 17.5579 15.6469 17.5929 15.6466 17.72L15.6456 18.2617C15.6443 18.8431 15.4867 19.2185 15.0166 19.6079ZM9.70952 4.25543L9.60098 4.26956C9.57914 4.31177 9.59536 5.53556 9.5951 5.68877C9.63462 5.73764 9.67976 5.75517 9.72874 5.79206C10.8115 6.60736 12.7735 6.5636 13.9386 6.00272C14.4063 5.77755 14.4101 5.80376 14.4109 5.37019L14.411 4.64653L14.4104 4.26907C14.3165 4.25175 14.2195 4.25487 14.1243 4.25405C13.4842 4.24847 13.3266 4.49742 12.9481 5.00203L12.3724 5.79192C12.3183 5.86387 12.2818 5.95697 12.2172 6.01919C11.8996 6.32517 11.6637 5.8609 11.5126 5.64349L11.1445 5.14458C10.8616 4.75573 10.5749 4.25304 10.0273 4.25379L9.70952 4.25543ZM9.18909 6.19341L8.17364 6.56892C7.12294 6.92269 6.59463 7.134 6.11498 8.20317C5.09189 10.4838 4.59541 11.9878 4.59267 14.463L4.62954 15.9946C4.65368 16.3451 4.70222 16.6927 4.76871 17.037C4.81835 17.294 4.90598 17.5228 4.95865 17.7759C4.97454 17.8523 4.97055 17.922 5.00023 17.9962L6.28753 17.9885C6.53974 17.3485 6.57495 16.3912 6.50974 15.6903L6.38752 14.6379C6.27666 13.5106 6.52116 12.3905 6.9757 11.3601L7.1276 11.0292C7.2217 10.8307 7.34559 10.5763 7.611 10.6718L7.62499 10.6766C7.70824 10.7067 7.77197 10.783 7.80469 10.8633L7.89267 11.2042C8.06367 11.7846 8.08723 12.8142 8.11477 13.418C8.11931 13.5182 8.14052 13.6167 8.14331 13.7168L8.15271 14.5679C8.17083 14.9994 8.24477 15.5635 8.32298 15.9846C8.57344 17.3327 9.15431 17.4338 10.3273 17.5457L10.5695 17.5776C10.6863 17.5893 10.8046 17.5861 10.9215 17.5943L12.7487 17.6277C12.8373 17.6241 12.9226 17.6062 13.0101 17.5999L14.0084 17.5061C14.2027 17.4827 14.4172 17.4717 14.6061 17.4196C15.5659 17.1553 15.6957 16.1254 15.7905 15.2799C15.8175 15.0384 15.8454 14.792 15.8511 14.5493L15.9459 12.2156L16.0415 11.4934L16.1216 11.1125C16.1575 10.9617 16.1842 10.8015 16.324 10.7096C16.7433 10.4338 16.988 11.2625 17.0921 11.5247C17.1499 11.6701 17.2153 11.8203 17.2541 11.9719L17.3954 12.4534C17.3993 12.4711 17.4045 12.486 17.4104 12.5029L17.5017 12.8448C17.7104 13.4844 17.636 14.3672 17.5718 15.0202L17.5278 15.3908C17.487 15.7693 17.4713 16.0253 17.4712 16.4163C17.4712 16.9143 17.4728 17.5075 17.692 17.9707C17.7559 18.0117 18.8526 17.9845 19.0043 17.9953C19.0564 17.5421 19.2449 17.1034 19.3053 16.6114L19.4073 15.3223L19.3766 13.5169C19.2844 12.048 18.9888 10.917 18.4551 9.53285L18.0679 8.61351C17.4071 7.10196 17.0855 7.0009 15.6077 6.48637L14.808 6.18112C14.3899 6.56016 13.7795 6.79807 13.2288 6.92072C13.0537 6.95969 13.0296 6.90162 13.0211 7.07887L13.0179 9.47292C13.0178 9.53637 13.0262 9.61062 13.014 9.67216C12.9554 9.96656 12.4905 9.97652 12.4275 9.65862C12.4152 9.59693 12.4214 9.52441 12.4213 9.46148L12.4208 7.27052C12.4207 7.20096 12.4273 7.1242 12.4164 7.05551L11.7743 7.0598C11.7141 7.05801 11.6355 7.0646 11.578 7.047L11.5772 10.0075C11.577 10.1427 11.6176 10.3554 11.5399 10.4734L11.5298 10.4893C11.3772 10.7235 11.0009 10.665 10.9791 10.381C10.9577 10.1002 10.9772 9.80351 10.9772 9.52101L10.9769 7.25339C10.9763 6.83311 10.9945 6.98062 10.5545 6.86423C10.1105 6.74679 9.69598 6.54834 9.32955 6.27281C9.27928 6.23501 9.25437 6.18703 9.18909 6.19341ZM8.96386 17.9307C8.82806 19.6178 10.6434 19.6974 11.8688 19.7114C12.7773 19.7217 14.0046 19.7282 14.6931 19.0529C15.0363 18.6972 15.041 18.4008 15.0343 17.9367C14.5022 18.1087 14.1876 18.1411 13.6377 18.1937L12.8083 18.2632L11.4034 18.2631L10.5709 18.2206C10.1461 18.1928 9.32562 18.1066 8.96386 17.9307ZM4.99348 18.6112L4.99402 19.7576L6.25158 19.7588L6.24408 18.9522C6.24401 18.8461 6.25894 18.7121 6.23897 18.6093L4.99348 18.6112ZM17.7414 18.6085C17.728 18.7165 17.7354 18.8222 17.7327 18.9275L17.732 19.7676L18.9665 19.7573C19.013 19.7103 18.9943 19.5348 18.9942 19.4743L18.9937 18.6105L17.7414 18.6085Z" fill="#034C8C"/>
</svg>
