<svg width="24" height="24" viewBox="0 0 24 24" fill="none" xmlns="http://www.w3.org/2000/svg">
<path d="M11.8332 21.4242L10.6211 21.3656C10.2647 21.3647 9.9872 21.3895 9.63618 21.445C8.75301 21.5847 7.00471 21.313 6.82853 20.2852C6.80966 20.1751 6.82945 20.0792 6.83922 19.9706L7.31177 14.4316C7.21977 14.5196 7.14735 14.6232 7.06931 14.7232L5.21624 16.9181C5.00003 17.1791 4.71379 17.6477 4.30234 17.5033L4.19554 17.4608C3.98097 17.3608 3.77877 17.2336 3.57072 17.121C3.22134 16.9319 2.72231 16.7795 2.57695 16.3668L2.57006 16.3466C2.45289 16.0137 2.67466 15.6927 2.82177 15.4102L3.35477 14.4266C3.85523 13.53 4.37439 12.6403 4.95454 11.7926C5.67763 10.7362 6.49759 9.69492 7.75743 9.26625C8.17984 9.12253 8.57554 9.05473 9.00351 8.88689C8.34723 7.71816 8.33411 6.11056 8.95987 4.92914C9.06281 4.73484 9.05643 4.69894 9.12801 4.49677C9.42688 3.65269 9.93808 3.26077 10.7033 2.9198C11.096 2.74484 11.4605 2.56373 11.8983 2.53629C12.7586 2.42135 14.1193 3.28088 14.5579 3.99309C14.6285 4.10773 14.676 4.23256 14.7419 4.34885C14.8111 4.47073 14.9216 4.57481 14.9946 4.69924C15.7103 5.92006 15.6175 7.61878 15.06 8.87184C15.2884 8.97309 15.5243 9.08053 15.764 9.15185C15.9117 9.19582 16.0665 9.20009 16.2099 9.26039C17.0624 9.61898 17.9116 10.2555 18.466 10.9962L19.1481 11.9824L20.6803 14.5456C20.8688 14.8783 21.4468 15.6951 21.4648 16.0456C21.4915 16.5655 21.1764 16.729 20.7873 16.9164L19.954 17.35C19.5196 17.5917 19.3125 17.6025 19.0105 17.2139L17.59 15.6612L16.804 14.731C16.7674 14.6849 16.7343 14.6332 16.6915 14.5926L17.1513 20.0462C17.1467 21.0679 16.0725 21.3729 15.2244 21.4534L14.9091 21.4676C14.4198 21.4976 13.9142 21.4993 13.4239 21.483L11.8332 21.4242ZM11.9031 3.27413C11.6696 3.29691 11.4813 3.39455 11.2679 3.48087C10.4854 3.79756 9.89493 4.10288 9.73574 5.04436C9.72241 5.1233 9.70755 5.21381 9.71582 5.29378L9.72093 5.33163C9.89917 6.7077 11.3885 7.35797 11.9193 8.55274C11.977 8.68275 12.0118 8.82724 12.1008 8.93871C12.3026 8.09646 12.7407 7.62635 13.2992 7.03111C13.8605 6.43287 14.6213 5.46436 14.1044 4.61149C13.7369 4.00521 13.4282 3.83041 12.8309 3.54035C12.5239 3.39124 12.2516 3.25737 11.9031 3.27413ZM9.26847 6.2768C9.17383 6.90038 9.20931 7.52536 9.4382 8.1169L9.48248 8.22846C9.68078 8.67485 9.94068 9.12762 10.4185 9.31966C10.6732 9.42209 10.9534 9.46301 11.1936 9.3078C11.28 9.22702 11.3112 9.17412 11.3364 9.05674C11.0495 8.08202 9.73457 7.38277 9.26847 6.2768ZM14.7363 6.29316C14.5553 6.60312 14.383 6.89571 14.1549 7.17549C13.7807 7.6343 12.683 8.55579 12.8565 9.23946L12.8746 9.30028C12.8903 9.35004 12.917 9.38034 12.9527 9.4174C13.1143 9.50897 13.247 9.4875 13.4255 9.43765L13.4705 9.42555C14.4306 9.17827 14.7669 7.63015 14.7666 6.79671C14.7665 6.66696 14.7744 6.5302 14.7498 6.40247L14.7363 6.29316ZM14.6402 9.47674C14.1281 9.9918 13.2117 10.5117 12.5432 10.0024C12.4785 9.95306 12.4196 9.89011 12.3621 9.83238L12.3641 20.7223L14.1272 20.7303C14.682 20.7316 16.1193 20.7539 16.3947 20.2572C16.5603 19.9587 16.4011 19.235 16.3716 18.9024L15.911 13.8809C15.8897 13.6672 15.9495 13.465 15.8241 13.2781L15.7113 13.1041C15.117 12.1282 14.9241 10.8834 15.4357 9.82744L14.6402 9.47674ZM9.37666 9.54495L9.07391 9.64486C9.02144 9.66387 8.96603 9.69335 8.91166 9.70416C9.03114 10.1229 9.1267 10.2316 9.12461 10.7374C9.12114 11.5754 8.73241 12.5357 8.22276 13.2051C8.14595 13.306 8.1213 13.3032 8.11586 13.4372L8.05891 14.3031C8.05197 14.4487 8.02937 14.5916 8.01501 14.7364L7.92363 15.8262L7.5543 20.1867C7.91983 20.7395 9.12145 20.7772 9.70059 20.6866C10.1914 20.6265 11.1503 20.5747 11.6337 20.6504L11.6156 10.0796C11.0268 10.3678 9.87721 10.028 9.44268 9.57872C9.41941 9.55463 9.41184 9.53937 9.37666 9.54495ZM8.09814 9.90368C7.14081 10.2126 6.3253 11.086 5.77171 11.8836L5.03163 13.0113L3.87013 14.9842L3.70534 15.3244L4.37659 15.7273L4.95433 16.0657L6.62671 14.1181L7.67378 12.7199C8.14598 12.048 8.63807 10.9414 8.31222 10.1116L8.30526 10.0929C8.26991 10.0003 8.20991 9.89618 8.09814 9.90368ZM16.1123 10.0214C15.8384 10.6078 15.7743 11.3841 15.9889 11.9903L16.0701 12.2122C16.1755 12.486 16.3277 12.7352 16.478 12.9856L16.8065 13.5245C17.291 14.2386 17.874 14.8955 18.4527 15.5332L18.7711 15.8815C18.829 15.9421 18.8946 16.02 18.9688 16.0602L19.6452 15.6873L20.2893 15.3238C20.2374 15.2111 20.1696 15.1089 20.1094 15.0007L18.445 12.2461L18.0295 11.6236C17.6146 11.0572 17.1105 10.5592 16.4924 10.2188C16.3685 10.1505 16.233 10.0933 16.1123 10.0214ZM20.6537 15.9668L19.4435 16.6662C19.4605 16.6906 19.4873 16.7452 19.5179 16.7462L19.5412 16.7418L20.5639 16.1942C20.7016 16.127 20.7938 16.1294 20.6635 15.9702L20.6537 15.9668ZM3.36719 15.9715L3.27808 16.1085C3.66555 16.31 4.03406 16.572 4.43484 16.744C4.53674 16.6078 4.42509 16.6169 4.25995 16.5173L3.59934 16.12C3.52424 16.0721 3.4367 16.0254 3.36719 15.9715Z" fill="#034C8C"/>
</svg>
