<svg width="24" height="24" viewBox="0 0 24 24" fill="none" xmlns="http://www.w3.org/2000/svg">
<path d="M6.19302 22.9032C6.13058 23.0189 6.06711 23.1476 5.96403 23.2324C5.69966 23.4499 5.36968 23.1821 5.42898 22.8775C5.45556 22.7409 5.56239 22.6054 5.62145 22.4785C5.71789 22.2712 5.79282 22.0485 5.84364 21.8258L5.03907 21.6618C4.95261 21.973 4.74664 22.3051 4.53983 22.5505C4.31832 22.8134 3.91185 22.6956 3.91016 22.3485C3.90941 22.1923 4.05264 22.0357 4.13436 21.909C4.55401 21.2584 4.43657 20.4722 4.45665 19.7386C4.48264 18.7889 4.57525 17.5935 4.83948 16.6994C5.45415 14.6195 7.1315 13.2663 8.59834 11.7887L11.5025 8.81249L12.4711 7.92208C12.6911 7.73104 12.9309 7.54638 13.1359 7.3401C12.8636 7.24289 12.5517 7.22866 12.2681 7.16341C11.4939 6.98528 10.7127 6.68788 10.0652 6.22141C8.49099 5.08727 8.40039 3.19071 9.77392 1.79624C9.99468 1.57212 10.2426 1.39087 10.4852 1.19275C10.6518 1.05668 10.8004 0.893955 10.982 0.777002C11.4378 0.483369 12.0011 0.413587 12.5296 0.370183L13.363 0.326172L14.0951 0.328159C14.4255 0.331368 14.6867 0.362477 15.0105 0.386741L15.4101 0.436164C16.8815 0.627191 18.8958 1.33553 19.4386 2.87714L19.5868 3.33653L19.6494 3.68214C19.8281 4.67835 19.3205 5.53038 18.7384 6.27991C18.179 7.00021 17.5379 7.65862 16.8827 8.29157L13.9036 11.0839L11.8854 12.8799L10.2952 14.5002C9.0381 15.8753 8.485 16.6506 8.38604 18.5334L8.34573 19.6721C8.3005 20.9284 8.19864 22.0016 7.66349 23.1606C7.60414 23.2891 7.55891 23.4407 7.43624 23.5232C7.16293 23.7072 6.83146 23.4002 6.89532 23.1842L6.90041 23.1682C7.01164 22.799 7.23191 22.4448 7.35278 22.0252L6.56357 21.9174C6.46846 22.2678 6.34979 22.5761 6.19302 22.9032ZM13.1653 1.03308L12.2883 1.1079C11.9702 1.14594 11.6351 1.20168 11.3589 1.37598C10.8128 1.72055 10.5629 2.59263 11.04 3.0907C11.9788 2.73963 12.6978 2.54866 13.7273 2.49712L14.269 2.49304C15.2921 2.49274 16.3997 2.5957 17.2348 3.24914C17.3054 3.30433 17.3661 3.36077 17.4025 3.44477L17.4102 3.46096C17.4532 3.55319 17.4553 3.67272 17.4205 3.76893L17.4041 3.80957C17.3196 4.0177 17.1762 4.20492 17.0486 4.38885C16.2798 5.49782 15.2167 6.34061 14.2446 7.25934C13.8385 7.64308 13.821 7.4489 13.7145 8.01304C13.6568 8.31855 13.6491 8.54467 13.6068 8.8334C13.589 9.30426 13.6026 9.81035 13.693 10.2751C13.9072 10.1011 14.1039 9.90042 14.3081 9.71444L15.4894 8.63212C16.2023 7.96239 16.9242 7.30537 17.5744 6.57271C18.3055 5.74896 19.095 4.80403 18.938 3.62725C18.7116 1.93033 16.602 1.27048 15.1576 1.10944L14.4656 1.03986L13.1653 1.03308ZM10.0837 2.47956C9.60071 3.12049 9.29551 4.00415 9.67004 4.76753C10.3229 6.09829 12.4878 6.65048 13.8294 6.65833C13.8676 6.63189 13.9052 6.60693 13.9379 6.57367L14.3039 6.23643L15.1211 5.49264C15.1757 5.44014 15.2781 5.36224 15.3105 5.29565L14.2914 5.23242C13.1608 5.11673 12.0497 4.89164 11.1262 4.17677C10.5878 3.75998 10.1062 3.19528 10.0837 2.47956ZM14.1521 3.19117C13.2797 3.22593 12.4051 3.33056 11.5783 3.62123C12.1112 4.10071 12.8446 4.29839 13.5325 4.42401L14.2501 4.52695L15.9598 4.62241L16.6607 3.68189C15.79 3.24506 15.1345 3.18656 14.1521 3.19117ZM12.9032 8.49337C12.774 8.58649 12.6645 8.70201 12.5494 8.81137L11.7934 9.55392C11.7631 9.58537 11.727 9.6153 11.7083 9.65479L11.7119 9.67581C11.7887 10.1455 11.7643 10.7628 11.7166 11.2348L11.5774 12.1831L11.7107 12.0765L13.1218 10.8251C12.911 10.2249 12.865 9.52101 12.8795 8.8882L12.9032 8.49337ZM10.9681 10.3565C10.7851 10.5305 10.6232 10.7305 10.4572 10.9181L9.20068 12.2357C8.91922 12.5138 8.93638 12.4777 8.80991 12.8557C8.5896 13.5141 8.24176 15.0887 8.38588 15.7888C8.55116 15.4936 8.75957 15.2232 8.96741 14.9586L10.3179 13.4293C10.4648 13.2802 10.5701 13.1989 10.6188 12.9925L10.6743 12.7667C10.8765 11.9404 10.9634 11.2062 10.9681 10.3565ZM7.86573 13.4908C7.68041 13.6551 7.52474 13.8493 7.35435 14.0281C6.38823 15.0423 5.47384 16.3301 5.33031 17.7669L5.77337 17.8205L7.73804 18.0665C7.76073 18.0314 7.8661 17.1398 7.83716 17.0081C7.64589 16.1373 7.58807 15.3313 7.70003 14.4442L7.86573 13.4908ZM5.24673 18.4748C5.19791 18.5845 5.16357 19.3742 5.15818 19.6033L5.13587 20.9941L7.50467 21.3557C7.5137 21.3391 7.51637 21.3352 7.51623 21.3157C7.58441 20.9985 7.58907 20.6739 7.60904 20.3519L7.68751 18.7548L5.24673 18.4748Z" fill="#034C8C"/>
</svg>
