<svg width="24" height="24" viewBox="0 0 24 24" fill="none" xmlns="http://www.w3.org/2000/svg">
<path d="M16.7148 18.6757C16.2596 18.7533 15.6604 18.8145 15.1898 18.8388L8.89073 18.837C8.79164 18.8318 8.69395 18.8133 8.59512 18.806L7.69416 18.7279C6.54349 18.5862 5.39426 18.306 4.29666 17.9354L3.1072 17.4763C2.57433 17.2675 1.43745 16.8817 1.16427 16.3221L1.15625 16.3054C1.10877 16.2082 1.0887 16.112 1.11011 16.0045L1.11429 15.9845C1.26247 15.242 1.86113 14.1637 2.27566 13.5562C2.54262 13.1649 2.84984 12.7884 3.06731 12.3666C3.51415 11.4998 3.77707 10.5527 4.30013 9.72291C4.52262 9.36996 4.75894 9.02618 5.02167 8.70188L5.56948 8.02744C5.64277 7.9313 5.72484 7.83019 5.78407 7.72493C5.88551 7.54474 5.75266 7.44628 6.05269 7.3286C6.06511 7.18081 6.05726 7.02865 6.05731 6.88017L6.05777 6.093C6.05791 5.94949 6.03422 5.75557 6.07941 5.61905C6.24602 5.11549 6.64217 4.79909 7.1805 4.75099L16.4421 4.74394C16.5869 4.74406 16.7356 4.73768 16.8799 4.74856C17.6379 4.80574 17.9344 5.42487 17.9433 6.09373L17.9491 7.20696C17.953 7.30505 17.9327 7.30315 18.0101 7.35617C18.216 7.49702 18.1044 7.57322 18.2036 7.72317C18.6204 8.3527 19.1665 8.88366 19.5703 9.52744C19.8545 9.98063 20.1089 10.4589 20.3227 10.9496C20.5966 11.5781 20.8075 12.2411 21.1951 12.8134L22.2021 14.3224L22.483 14.8594C22.6805 15.2516 22.8498 15.6454 22.9476 16.0741C22.838 16.5009 21.8915 17.1274 21.5198 17.2603C21.3378 17.3254 21.1304 17.3456 20.9543 17.4184C20.7909 17.4859 20.6369 17.5764 20.4713 17.6427L19.2659 18.0665C18.6813 18.2561 18.0943 18.4259 17.491 18.5465L16.7148 18.6757ZM7.43573 5.41404C7.14909 5.42004 6.93558 5.40612 6.77243 5.69541L6.76514 5.70813C6.74674 5.74099 6.73582 5.77692 6.72431 5.81259L6.71986 5.82591C6.70441 5.87611 6.69729 7.20539 6.71426 7.26567L16.5338 7.26542L17.2961 7.26534L17.2931 6.01317C17.2877 5.59873 17.0679 5.41308 16.6443 5.41352L7.43573 5.41404ZM15.8636 7.93964C15.2057 7.94742 7.99095 7.92987 7.96179 7.9507C8.06248 8.7672 7.95307 8.84367 7.41495 9.45171L7.02073 9.92588C6.37357 10.7363 5.87107 12.0058 5.44999 12.9475L3.87473 16.5154C3.81061 16.6602 3.7219 16.8215 3.68447 16.9744C3.8711 17.0993 4.14338 17.164 4.35323 17.2376C5.14791 17.5165 5.9562 17.7566 6.78595 17.9063L8.18927 18.1029L9.3454 18.175L14.8074 18.1714L15.7368 18.1029C17.2416 17.9772 18.7405 17.6386 20.1342 17.0499C20.1853 17.0283 20.2668 17.0041 20.3082 16.9686L18.8633 13.697C18.2085 12.234 17.6494 10.6216 16.5615 9.40901C16.1636 8.96545 15.8372 8.61942 15.9633 7.94013L15.8636 7.93964ZM7.05251 7.95106L6.43073 7.95384C6.38536 8.01122 6.36436 8.0722 6.3248 8.13145L5.39156 9.31064C4.89991 9.94369 4.52215 10.6427 4.21781 11.3835L3.97027 12.0286C3.70474 12.6786 3.32986 13.1938 2.93805 13.7713C2.55368 14.3379 2.22727 14.917 1.96698 15.551L1.8518 15.8673C1.73679 16.2173 2.13127 16.3576 2.41064 16.4801L3.04148 16.7461L4.73133 12.9143C5.31532 11.6106 5.85335 10.2773 6.7747 9.16877L7.13878 8.7577C7.39404 8.4638 7.37988 8.32641 7.24446 7.9557L7.05251 7.95106ZM16.8113 7.94714L16.7059 7.95687C16.4939 8.30674 16.6372 8.48262 16.8739 8.75543L17.0771 8.99651C17.4981 9.4961 18.1323 10.3784 18.3773 10.9904L20.8792 16.6056C20.9033 16.6531 20.9201 16.6929 20.9536 16.7356C21.2542 16.6535 21.4522 16.5923 21.7219 16.4247C21.9132 16.2916 22.0714 16.1546 22.2301 15.9844C21.9577 15.1924 21.5506 14.4859 21.0806 13.7957C20.6227 13.1232 20.3444 12.7556 20.0222 11.9745L19.7706 11.3333C19.4613 10.605 19.0686 9.9019 18.5839 9.27549C18.2428 8.83484 17.8732 8.42426 17.5678 7.95553L16.8113 7.94714Z" fill="#034C8C"/>
</svg>
