<svg width="24" height="24" viewBox="0 0 24 24" fill="none" xmlns="http://www.w3.org/2000/svg">
<path d="M11.5858 20.7683L9.86551 21.3779C9.01719 21.6683 7.9472 21.77 7.07024 21.594C4.71829 21.122 3.48498 18.4586 4.54171 16.3406C5.14251 15.1364 5.89239 14.6786 7.07357 14.2091L10.8788 12.6425C11.0233 12.5814 11.0228 12.6213 11.0237 12.4554L11.0262 3.00192C11.0262 2.92476 11.0172 2.82928 11.0463 2.75697L11.0515 2.74476C11.1164 2.58304 11.2424 2.48299 11.4157 2.4514L18.4396 2.448C18.807 2.44783 19.6556 2.29007 19.6657 2.83697L19.6625 14.4723C19.6568 14.7296 19.6253 14.991 19.5783 15.2445C19.231 17.1187 18.2602 18.2648 16.4638 18.9944L11.5858 20.7683ZM12.7987 3.25024L11.8378 3.25617L11.8371 3.94772L17.923 3.94676L18.5837 3.94671C18.6585 3.94668 18.7791 3.96178 18.8478 3.94008L18.8491 3.25404L12.7987 3.25024ZM17.8532 4.74597L11.8444 4.7475L11.8443 6.16132L12.8581 6.16254L18.246 6.16249C18.4419 6.16294 18.6543 6.1815 18.8475 6.16115L18.8456 4.75024L17.8532 4.74597ZM11.8476 6.98402L11.8445 7.55522L18.8423 7.56246L18.8451 6.98442L11.8476 6.98402ZM12.5331 8.37112L11.8552 8.37372C11.8379 8.39419 11.8383 8.42993 11.8376 8.45646L11.8384 12.6564C11.8381 13.2261 11.7236 13.1925 11.2002 13.4043L6.81536 15.2035C7.06077 15.3192 7.32065 15.3933 7.56264 15.521C8.49069 16.011 9.33892 16.8724 9.69074 17.879L9.82855 18.2757C10.0563 19.0385 10.0119 19.7721 9.80694 20.5267L12.4357 19.5988L14.8489 18.7271C14.3876 17.6679 14.2736 16.5015 14.7063 15.4043C15.2818 13.9451 16.7773 12.8296 18.3654 12.8123L18.8431 12.8115L18.8436 8.37072L12.5331 8.37112ZM18.3475 13.6328C16.7788 13.7232 15.4446 14.951 15.2747 16.519C15.2291 16.9394 15.2434 17.4516 15.3931 17.8516L15.5613 18.3285C15.5743 18.3647 15.5948 18.4095 15.623 18.4358L15.7215 18.3984C18.0531 17.6587 19.0073 15.9718 18.8343 13.6374L18.3475 13.6328ZM5.93673 15.8044C5.60786 16.1774 5.32972 16.5247 5.16311 17.0027C4.57129 18.7007 5.62138 20.6381 7.4803 20.8138C7.73172 20.8376 7.99253 20.8245 8.24507 20.8238C8.44426 20.8185 8.65044 20.8192 8.84654 20.7826C9.01222 20.3579 9.14533 19.954 9.15697 19.4973C9.1967 17.9374 8.16653 16.6159 6.74915 16.0572L5.93673 15.8044Z" fill="#034C8C"/>
</svg>
