<svg width="24" height="24" viewBox="0 0 24 24" fill="none" xmlns="http://www.w3.org/2000/svg">
<path d="M12.377 20.1801L11.9993 19.3976C11.9105 19.5977 11.8292 19.7978 11.726 19.9913C11.1704 21.0335 10.0553 22.2564 8.7923 22.2543C7.85801 22.2528 6.60349 21.4166 6.42916 20.4649C6.40945 20.3573 6.41555 20.2415 6.41501 20.1325L6.42326 18.5959C6.42816 18.4975 6.4515 18.4044 6.45816 18.307L6.68161 16.0465C6.70364 15.8729 6.73671 15.6867 6.741 15.5124L6.70758 12.9436L6.60373 11.6115C6.50398 10.5889 6.37071 9.54777 6.1084 8.55196L5.93752 7.94924C5.90672 7.84719 5.87116 7.74686 5.85112 7.64188L5.8485 7.62744C5.80069 7.77008 5.77999 7.9149 5.74934 8.06118L5.55712 9.20258L5.29952 11.5919L5.20221 13.4162C5.19837 13.5097 5.17263 13.6004 5.17034 13.6941L5.1753 17.4914C5.18587 17.7011 5.19602 17.9228 5.20826 18.1305L5.38177 19.8584C5.39248 19.9709 5.43431 20.1232 5.40923 20.233C5.33583 20.5545 4.93512 20.5638 4.79091 20.2755C4.72847 20.1507 4.73841 19.9712 4.72322 19.8334L4.51172 17.0497L4.51221 14.0091L4.60519 12.2515L4.77492 10.3373L5.01335 8.51387C5.11003 7.92456 5.21409 7.33082 5.42062 6.76778C5.463 6.65223 5.44233 6.49356 5.45222 6.36939L5.5729 5.23274C5.59594 5.01794 5.58044 4.81 5.64187 4.59953C5.82314 3.97839 6.42084 3.85251 6.97343 3.69983C7.43053 3.57351 7.88039 3.40103 8.35894 3.38099C8.63644 2.87601 9.31078 2.3341 9.81431 2.01501C10.1779 1.78461 10.6154 1.7458 11.0334 1.71613C11.3068 1.67199 11.8113 1.75214 12.0592 1.83876C12.1065 1.85528 12.2079 1.90552 12.2523 1.89892C12.6619 1.83803 13.0422 1.69096 13.4656 1.74281L13.4889 1.74575C14.1955 1.82898 15.2632 2.72849 15.63 3.36266C15.6755 3.38847 15.7769 3.37668 15.8333 3.38598C16.113 3.43216 16.3956 3.5181 16.6701 3.59022L17.3139 3.76855C17.683 3.87812 18.1032 4.03157 18.2797 4.40575L18.3286 4.51192C18.4175 4.71318 18.4025 4.94329 18.4238 5.15645L18.5336 6.34591C18.5471 6.4743 18.529 6.62931 18.5751 6.7502L18.6487 6.99475C18.6716 7.1087 18.7212 7.21984 18.7426 7.33398L18.8489 7.80095C18.8726 7.87565 18.877 7.9517 18.8886 8.02867L19.2009 10.129L19.486 13.8904L19.485 17.0145C19.4814 17.1275 19.4611 17.2407 19.4583 17.3524L19.4393 17.8911C19.4312 18.2106 19.41 18.5254 19.383 18.8441L19.2721 19.9303C19.2572 20.0542 19.2671 20.2187 19.1966 20.3253C19.0327 20.573 18.6377 20.5142 18.5873 20.2046C18.5725 20.1136 18.6014 20.0145 18.6131 19.9235L18.7987 17.9436L18.8362 16.8084L18.8318 13.9266L18.6999 11.6897L18.4189 9.08404L18.1578 7.64024C18.0944 7.85666 18.0106 8.06589 17.9554 8.28536L17.6741 9.54512L17.4619 11.0217C17.4386 11.2048 17.4051 11.3898 17.3925 11.574L17.3422 12.217C17.3095 12.6421 17.2632 13.1243 17.2494 13.5486L17.2458 15.3635C17.2462 15.5733 17.2777 15.7755 17.2965 15.9842L17.5616 18.5156C17.5709 18.6212 17.5666 18.7254 17.5693 18.831L17.5782 20.0572C17.5772 20.6293 17.4454 20.9231 17.0648 21.3737C16.6909 21.8164 15.9298 22.2047 15.3356 22.2494C14.058 22.3455 12.9809 21.2012 12.377 20.1801ZM10.905 2.38342C10.4644 2.41417 10.1336 2.55894 9.81098 2.85015L10.6549 4.87485L11.9494 8.43714C11.9649 8.48083 11.9876 8.51645 12.013 8.55503C12.0851 8.21802 12.234 7.91019 12.3416 7.58469L13.8597 3.59411C13.9641 3.33625 14.0628 3.07778 14.1923 2.83129C13.9363 2.59605 13.5996 2.39087 13.2401 2.40449C12.891 2.41773 12.5491 2.58215 12.2057 2.56827C12.0856 2.5634 11.955 2.50333 11.8385 2.47279C11.5333 2.39275 11.2206 2.35984 10.905 2.38342ZM9.3023 3.25492C9.21321 3.34862 9.10263 3.44605 9.0378 3.55804L9.0435 3.57128C9.2531 4.06865 8.8376 4.12579 8.49241 4.12752L8.06163 4.14128C8.06482 4.28256 8.08493 4.48124 8.1292 4.61329L8.20917 4.88123C8.26413 5.04126 8.33948 5.19906 8.40884 5.35351L8.99981 6.55684L11.1813 10.3845L11.5879 11.0695C11.6131 11.1141 11.646 11.1438 11.6613 11.1958L11.6675 10.3114C11.6681 9.73384 11.6956 9.63114 11.4956 9.10567L9.50829 3.77209C9.44609 3.60173 9.38944 3.41331 9.3023 3.25492ZM14.7072 3.25954L13.7356 5.67208L12.5954 8.84078C12.5095 9.08706 12.4022 9.34281 12.3442 9.59676C12.3217 9.69508 12.3223 11.065 12.3442 11.1167C12.3781 11.1964 12.4773 10.9355 12.4937 10.9071L12.827 10.3427L14.0899 8.19126L15.4101 5.7235C15.6599 5.20977 15.8795 4.70868 15.9313 4.13055C15.7635 4.12647 15.2359 4.15949 15.1178 4.09089L15.1023 4.08233C14.8804 3.95748 14.8513 3.74659 14.9786 3.54433L14.7072 3.25954ZM7.3662 4.27169L6.89655 4.42124C6.15122 4.66047 6.27537 4.60907 6.21619 5.32757L6.1152 6.35207C6.09244 6.63498 6.06661 6.63578 6.1995 6.87709L6.33164 7.13861C6.61259 7.7328 6.77184 8.53005 6.89733 9.16954L7.19773 11.063L7.29037 12.0548C7.3237 12.4806 7.34787 12.8652 7.36523 13.2937C7.37114 13.4399 7.39369 13.5841 7.39523 13.7306L7.39636 14.0375C7.39652 14.1782 7.40571 14.1877 7.48952 14.3042L7.98089 14.9417C8.11451 15.1014 8.28961 15.2096 8.25438 15.4397L8.25253 15.4539C8.23116 15.6066 8.07014 15.7703 7.90685 15.7438C7.73496 15.716 7.60847 15.5248 7.51423 15.3928L7.40161 15.2274L7.1753 17.3593C7.16048 17.4796 7.1625 17.6034 7.15226 17.7245L7.08647 18.4446C7.05703 18.8829 7.07737 19.3353 7.07763 19.7751L7.07822 20.1545C7.07855 20.2798 7.06711 20.3761 7.12516 20.4904L7.15287 20.5509C7.40538 21.1125 8.12285 21.5747 8.74575 21.5893C10.1062 21.5997 11.5391 19.517 11.6647 18.2423C11.6764 18.123 11.6669 17.995 11.6669 17.8747L11.6658 12.7315C11.6655 12.6241 11.7023 12.426 11.6276 12.3388C11.4878 12.1756 11.3815 11.9736 11.2682 11.7902L8.48606 6.98237C8.10593 6.24885 7.68396 5.49676 7.47907 4.69007L7.42629 4.45921C7.41579 4.39975 7.4231 4.3202 7.40023 4.26592L7.3662 4.27169ZM16.5757 4.26489C16.5562 4.39117 16.5503 4.52223 16.5217 4.64669C16.3091 5.57176 15.7139 6.59973 15.2641 7.42628L14.4214 8.94667L12.5562 12.0831C12.4077 12.3415 12.3358 12.3211 12.3356 12.6088L12.3363 18.1747C12.3421 18.4045 12.4459 18.7624 12.5338 18.9732L12.8575 19.71C13.2415 20.5109 14.342 21.6792 15.2791 21.5774C15.9908 21.4873 16.921 20.9461 16.9226 20.1428L16.8768 18.0336L16.6195 15.7619C16.6006 15.6092 16.6129 15.4519 16.5855 15.3011C16.4848 15.4548 16.3159 15.7033 16.1266 15.7457C15.8307 15.8119 15.6358 15.393 15.8183 15.1757L16.5644 14.2545C16.6221 14.1914 16.6066 14.0979 16.6069 14.0182L16.6077 13.6087C16.6106 13.4667 16.631 13.3261 16.6376 13.1843L16.7036 11.9904L17.0311 9.49825C17.1611 8.74848 17.3113 7.9393 17.6257 7.23932L17.8002 6.87726C17.9022 6.67511 17.8866 6.67007 17.8763 6.43975L17.7799 5.22735C17.7232 4.6547 17.7804 4.61012 17.1594 4.42956L16.5757 4.26489Z" fill="#034C8C"/>
</svg>
