<svg width="24" height="24" viewBox="0 0 24 24" fill="none" xmlns="http://www.w3.org/2000/svg">
<path d="M9.885 21.366L8.874 21.3661C8.66086 21.3661 8.4341 21.3813 8.22235 21.3623C7.17178 21.2683 6.38841 20.3753 6.18757 19.377C6.09188 18.9013 6.18136 18.4331 6.16371 17.9579C6.12764 18.037 6.08199 18.1102 6.04125 18.1869L5.68969 18.8592C5.51147 19.219 5.2861 19.9285 5.25406 20.3011C5.23186 20.5591 5.06874 20.7591 4.82065 20.8406L4.80492 20.8455C4.76377 20.8588 4.72802 20.8607 4.68504 20.861L3.06176 20.8605C2.45609 20.8595 2.43431 20.5459 2.43539 20.0114L2.43706 19.0949C2.4251 19.072 2.4132 19.0483 2.39063 19.0342L2.36013 19.0167C2.31224 18.9878 2.26717 18.9304 2.22803 18.8903C1.69067 18.3396 1.51056 17.7096 1.50977 16.9648C1.50873 15.9936 1.79931 15.4596 2.12063 14.5547L4.545 8.10524C4.66095 7.78877 4.73344 7.45865 4.86738 7.14895C5.25237 6.25884 6.01927 5.53689 6.92642 5.19529C7.18892 5.09643 7.46065 5.02919 7.72981 4.95208L8.50936 4.71313C8.73846 4.63977 8.70804 4.69293 8.69857 4.47074C8.69013 4.27312 8.67802 4.05395 8.7011 3.85804C8.77585 3.22389 9.30394 2.70395 9.93774 2.63249C10.3914 2.58133 10.768 2.76963 11.1889 2.89476C12.4121 3.25842 12.7679 2.70981 13.8077 2.61841C14.4532 2.57193 15.0086 2.97229 15.2348 3.5684C15.3597 3.8977 15.3084 4.29074 15.3122 4.63874C15.4736 4.72694 15.6718 4.76067 15.8466 4.8171L16.4735 5.01124C17.736 5.38082 18.5559 5.93913 19.1377 7.19135C19.2628 7.46045 19.2763 7.63565 19.3669 7.87675L21.8198 14.3789L22.2662 15.6329C22.299 15.7224 22.3357 15.8165 22.3536 15.9105L22.4658 16.4725C22.5016 16.635 22.5111 17.1802 22.4737 17.3533L22.4422 17.5476C22.3531 18.0031 22.1391 18.4918 21.816 18.8298C21.5985 19.0573 21.5901 18.9315 21.5874 19.2799L21.5883 20.2444C21.5873 20.5302 21.4433 20.8383 21.1229 20.8587C20.8052 20.879 20.4749 20.8605 20.1555 20.8604L19.6684 20.8616C18.999 20.8727 18.8624 20.7758 18.737 20.1581C18.5942 19.4549 18.3531 18.929 18.0208 18.3097L17.8443 17.9591L17.8599 18.5958C17.8609 18.8184 17.8669 19.0414 17.8399 19.2628C17.7045 20.3729 16.891 21.1464 15.8179 21.3533C15.6485 21.3859 15.4449 21.3659 15.2715 21.3659L9.885 21.366ZM10.0907 3.3678C9.8107 3.39562 9.62843 3.49867 9.50651 3.75004L9.49824 3.76626C9.39527 3.97263 9.38569 4.25338 9.43671 4.4763L9.44156 4.49913C9.58962 5.17879 9.34038 5.21826 8.72829 5.42594L7.47094 5.81329C6.63659 6.07755 5.91429 6.62036 5.55886 7.44243C5.44013 7.717 5.3813 8.00664 5.27693 8.28625L3.09828 14.0702C2.77805 14.9181 2.06992 16.4336 2.25536 17.3512L2.26934 17.4099C2.28479 17.4712 2.28773 17.5346 2.30513 17.5957C2.51524 18.3338 3.17611 18.7992 3.93928 18.811L4.41354 18.8143C4.56666 18.8149 4.73499 18.8296 4.88651 18.8122C4.9257 18.748 4.93793 18.6729 4.97201 18.6051L5.97619 16.67C6.67669 15.3176 6.79725 14.5334 6.72167 12.9668C6.71449 12.8186 6.71611 12.6693 6.70123 12.5215L6.55948 11.5156C6.52849 11.3225 6.42448 11.0056 6.50084 10.8155L6.50815 10.797C6.57495 10.6345 6.75129 10.5285 6.92602 10.5792L6.94284 10.5839C7.04016 10.6124 7.10981 10.6827 7.15704 10.7705L7.17907 10.8154C7.20907 10.874 7.21517 10.9516 7.22377 11.0165L7.34815 11.8067C7.46705 12.7147 7.53382 13.6216 7.43703 14.5361C7.3496 15.3618 7.06071 16.1524 6.98731 16.9794L6.94163 17.7272C6.93609 17.8657 6.93677 18.009 6.92405 18.1465L6.88835 18.7559C6.86466 19.6662 7.39896 20.5167 8.37054 20.6236C8.5392 20.6421 8.71554 20.633 8.88534 20.633L15.334 20.6322C15.4409 20.632 15.5741 20.6431 15.677 20.6165C16.4584 20.4148 17.092 19.845 17.1127 19.0052C17.1489 18.5869 17.0867 18.2003 17.0694 17.7874L17.0306 17.3068C17.0139 16.924 17.0143 16.861 16.9376 16.488L16.5593 14.5079C16.5329 14.2687 16.516 14.0269 16.5146 13.7864L16.5617 12.5274L16.7342 11.2383C16.7608 11.0836 16.7699 10.8395 16.861 10.7097C17.0242 10.4769 17.3711 10.5418 17.4845 10.7813L17.4911 10.7947C17.5821 10.9865 17.4248 11.5734 17.3946 11.7922L17.3193 12.4381C17.3125 12.5006 17.2984 12.5622 17.2935 12.6249L17.2719 13.1133C17.2353 13.7019 17.2557 14.7536 17.4573 15.3266L17.569 15.6605C17.8208 16.3209 18.1823 16.9473 18.5024 17.576L18.906 18.3951C18.975 18.5335 19.0327 18.6606 19.0894 18.803C19.1449 18.8285 20.1783 18.8163 20.2783 18.8048C21.2191 18.6963 21.7438 17.9071 21.7548 17.0133C21.7627 16.3749 21.6267 16.0214 21.4143 15.4308L18.6844 8.17832C18.6342 8.02849 18.6048 7.87284 18.5569 7.7227C18.3148 6.96482 17.655 6.28363 16.9391 5.9692C16.6646 5.84866 16.3763 5.77977 16.091 5.6917L15.2373 5.40756C14.9488 5.31025 14.6319 5.26145 14.5112 4.94163C14.4436 4.76228 14.544 4.61052 14.5753 4.43559C14.717 3.6427 14.2708 3.22806 13.51 3.4241L13.7537 4.18127C13.829 4.44318 13.5507 5.26087 13.657 5.76738C13.6674 5.81725 13.6627 5.87336 13.6612 5.9241C13.6077 7.73798 11.3156 8.23328 10.5275 6.68833L10.4436 6.49523C10.2964 6.13059 10.3904 5.74621 10.3614 5.3654C10.34 5.08518 10.1773 4.38717 10.2511 4.14848L10.4873 3.42953C10.3525 3.40066 10.2293 3.37267 10.0907 3.3678ZM11.2065 3.67138L11.0945 3.96799C10.8572 4.56838 11.0934 4.7433 11.0951 5.34199L11.0958 5.85377C11.0959 5.9467 11.0871 6.05338 11.1087 6.1442C11.273 6.83603 12.135 7.07556 12.6394 6.57824C13.1183 6.04082 12.8008 5.5855 12.9254 4.97936C13.0871 4.19252 12.9805 4.31285 12.824 3.66217C12.2641 3.80099 11.773 3.79511 11.2065 3.67138ZM3.17925 19.4483C3.17904 19.5348 3.16357 20.0786 3.18788 20.1101L4.5091 20.1136L4.53663 20.0065L4.59966 19.7234C4.60903 19.6781 4.6129 19.6228 4.63399 19.5819C4.14492 19.5813 3.6492 19.612 3.17925 19.4483ZM20.8192 19.459C20.296 19.6111 19.8734 19.5616 19.3669 19.5785L19.4857 20.0181L19.5095 20.1029C19.5528 20.1168 19.6047 20.1108 19.6501 20.1108L20.4863 20.1087C20.6012 20.1082 20.7216 20.113 20.8357 20.0999L20.8192 19.459Z" fill="#034C8C"/>
<path d="M14.1905 14.6742C14.1621 14.5937 14.152 14.5025 14.1128 14.4275L9.88677 14.4275C9.85068 14.4842 9.84285 14.5513 9.81728 14.6132L9.59073 15.1376C9.46277 15.4133 9.30791 15.6896 9.13987 15.9426L8.86717 16.321C8.56766 16.7479 8.50644 17.3644 8.75814 17.8271C8.81282 17.9277 8.90694 18.0113 8.94801 18.117L8.98042 18.2063C9.07567 18.5875 8.58843 18.8828 8.23736 18.3925C7.75844 17.7236 7.74144 16.6802 8.1884 15.9884L8.51345 15.5353C8.78092 15.1415 8.97916 14.7133 9.15009 14.2706C9.25595 13.9964 9.29059 13.7318 9.62144 13.667L14.0158 13.6776C14.3011 13.6774 14.6014 13.6166 14.7243 13.9518L15.0612 14.8293C15.196 15.098 15.3289 15.3459 15.5045 15.591C15.6305 15.7668 15.7833 15.9225 15.885 16.1152C16.1702 16.6555 16.1929 17.3341 16.0112 17.909L15.9701 18.0242C15.5161 19.0957 14.803 18.5756 15.068 18.0553C15.1299 17.9338 15.2306 17.8395 15.2891 17.711C15.4363 17.3876 15.4422 16.8938 15.2939 16.5683C15.2264 16.4201 15.1089 16.2995 15.0089 16.1734C14.6527 15.7243 14.3913 15.2096 14.1905 14.6742Z" fill="#034C8C"/>
</svg>
