<svg width="24" height="24" viewBox="0 0 24 24" fill="none" xmlns="http://www.w3.org/2000/svg">
<path d="M15.4836 20.4445C15.0061 20.5132 14.527 20.5237 14.046 20.5372L10.4824 20.5604C10.3928 20.5579 10.3049 20.5411 10.2153 20.5381L9.58199 20.5197C9.47355 20.5117 9.36665 20.49 9.25839 20.4835L8.18613 20.3972C7.34967 20.3046 6.72571 20.0855 6.48442 19.1409C6.40394 18.8258 6.43528 18.482 6.43532 18.1579L6.4356 12.3699C6.43542 12.2532 6.45257 12.0914 6.41938 11.9793L6.33485 11.5875C6.00843 11.8698 5.87029 11.8976 5.45388 11.8131C4.29899 11.5789 2.7427 10.6708 2.28091 9.55515C2.02832 8.94494 2.17932 8.59173 2.55637 8.11583L3.90944 6.55811C4.4463 5.96183 4.83916 5.46923 5.59628 5.14525C6.02875 4.96016 6.47826 4.83953 6.90435 4.63455L8.22553 3.97122C8.7936 3.67565 8.99842 3.5124 9.6471 3.43804C9.70342 3.42662 9.80151 3.42543 9.85417 3.44812L9.86777 3.45437C10.0896 3.54686 10.1373 3.80207 10.2696 3.98247C11.0454 5.0398 13.2002 4.98536 13.8236 3.83183C13.9057 3.68008 13.9305 3.52972 14.1116 3.45873L14.129 3.45219C14.5806 3.27829 15.3524 3.79576 15.7275 3.97909L17.3542 4.76186L18.154 5.05987C19.0375 5.38806 19.4464 5.8214 20.0471 6.51655L21.4618 8.21725C21.5451 8.31482 21.6548 8.42788 21.7076 8.54519L21.7125 8.55618C21.9174 8.9702 21.6908 9.52511 21.4638 9.8789C20.9093 10.7433 20.0218 11.3408 19.067 11.6807C18.5101 11.879 18.1643 12.0181 17.6992 11.6273L17.6156 11.8768C17.508 12.1571 17.5654 12.5663 17.5653 12.8637L17.5653 18.4653C17.565 19.0264 17.5786 19.3769 17.1791 19.8478C16.7525 20.3508 16.0942 20.3956 15.4836 20.4445ZM14.3887 4.09965C13.571 5.77787 10.6803 5.79266 9.69461 4.29944L9.5853 4.10908C9.5009 4.1163 9.42339 4.12227 9.34385 4.15419C9.29915 4.24094 9.39841 4.59512 9.44172 4.70357L9.53081 4.96658C9.61912 5.19826 9.7031 5.43869 9.83376 5.65091C10.1733 6.27018 10.6957 6.79705 11.3851 7.00145C12.9608 7.46865 14.1466 6.12697 14.5476 4.73619L14.6876 4.15361L14.3887 4.09965ZM8.72681 4.45696L6.97324 5.32065C5.99449 5.75662 5.24955 5.79297 4.58542 6.76933C6.30728 7.26381 7.40156 8.78652 6.99792 10.5632C6.95503 10.7519 6.90107 10.9709 6.82675 11.1506L6.83449 11.1588C7.13324 11.5306 7.07821 12.692 7.07831 13.1432L7.07718 18.1574L7.94967 18.2789L10.4303 18.4315C10.519 18.435 10.6059 18.4515 10.695 18.4534L13.46 18.454C13.5438 18.4517 13.6258 18.434 13.7096 18.4317L14.3465 18.4252L16.9336 18.2462L16.9338 16.8808L16.9354 12.0819C16.9472 11.8069 17.0264 11.5184 17.1346 11.2647C17.1773 11.1647 17.2049 11.1672 17.1665 11.0664L17.0922 10.8673C16.9591 10.4841 16.9328 10.2422 16.9328 9.84758C16.9327 8.27261 17.9903 7.28943 19.3435 6.70726C18.7222 5.83626 17.9522 5.73451 17.0439 5.33345L15.2662 4.46432C15.2274 4.73237 15.1534 4.97502 15.0632 5.22958C14.4823 6.86877 12.9465 8.18141 11.1676 7.61737C9.81979 7.19001 8.96275 5.78898 8.72681 4.45696ZM19.8437 7.31812C19.5109 7.3435 19.2337 7.48194 18.9487 7.64537C18.2408 8.0514 17.752 8.58142 17.5968 9.40785C17.5109 9.8658 17.5534 10.7057 17.946 11.0389L17.9484 11.0254C17.9759 10.8793 18.0472 10.737 18.1234 10.6104C18.6251 9.80366 19.8903 8.84973 20.7754 8.39814L20.0308 7.46554C19.9939 7.4163 19.9605 7.36035 19.9147 7.31905L19.8437 7.31812ZM4.0582 7.34437L3.16769 8.38593C3.92472 8.84111 5.50581 9.83326 5.9339 10.6357C5.99538 10.7512 6.04467 10.8776 6.11671 10.9865L6.12145 10.9766C6.18527 10.8448 6.27056 10.732 6.32385 10.5928C6.59446 9.88602 6.36974 8.92323 5.92605 8.34451C5.51095 7.80313 4.74386 7.38501 4.0582 7.34437ZM2.77858 8.93544C2.77509 9.00923 2.79274 9.07061 2.81317 9.14052L2.83703 9.21083C3.18953 10.1099 4.50703 10.9305 5.45859 11.1516C5.25454 10.6002 4.49435 10.0279 4.03183 9.71495L2.96067 9.02678C2.9192 9.0021 2.82937 8.92058 2.77858 8.93544ZM21.1118 8.93544C20.9325 9.03278 20.7632 9.17265 20.5906 9.2841C19.935 9.70743 18.8744 10.3509 18.5945 11.1327L18.6275 11.1344C19.4654 10.9027 20.5129 10.2442 20.9554 9.46065C20.9954 9.38973 21.2164 8.9376 21.1118 8.93544ZM7.09617 18.8026C7.07533 18.8348 7.07964 18.8583 7.08609 18.8964L7.15462 19.1135C7.32499 19.6079 7.70341 19.7012 8.16269 19.7465L10.2964 19.9083L13.6729 19.9084L14.5632 19.8736C14.7515 19.8619 14.9408 19.8384 15.1303 19.8258L15.4042 19.7942C15.8272 19.7579 16.3576 19.7861 16.6704 19.4521C16.8083 19.2883 16.8959 19.105 16.9276 18.8926C16.65 18.8904 16.3767 18.9439 16.1005 18.9649L14.4264 19.071C14.0432 19.0932 13.6546 19.0687 13.2706 19.0792C13.1595 19.0822 13.0511 19.108 12.9386 19.1102L11.0457 19.1083L8.95999 19.018C8.8852 19.0135 8.8128 18.9994 8.7386 18.9936L7.64371 18.8847C7.46278 18.8603 7.27455 18.8404 7.09617 18.8026Z" fill="#034C8C"/>
</svg>
