<svg width="32" height="33" viewBox="0 0 32 33" fill="none" xmlns="http://www.w3.org/2000/svg">
<path d="M15.1777 16.9111L15.9989 18.6899L16.82 16.9111L15.9989 15.1324L15.1777 16.9111Z" fill="#034C8C"/>
<path d="M11.4316 23.6113H20.5682V10.2111H11.4316V23.6113ZM16.8293 12.5693L18.6566 16.5285C18.7128 16.6498 18.7408 16.7807 18.7408 16.9112C18.7408 17.0418 18.7128 17.1726 18.6566 17.294L16.8293 21.2531C16.68 21.5768 16.3562 21.784 15.9999 21.784C15.6436 21.784 15.3197 21.5767 15.1704 21.2531L13.3431 17.294C13.2307 17.0513 13.2307 16.7711 13.3431 16.5284L15.1704 12.5693C15.3197 12.2456 15.6436 12.0384 15.9999 12.0384C16.3562 12.0384 16.68 12.2457 16.8293 12.5693Z" fill="#034C8C"/>
<path d="M11.4312 3.81552C11.4312 3.31081 11.0222 2.90186 10.5175 2.90186C10.0128 2.90186 9.60383 3.31081 9.60383 3.81552V4.72919H7.77655V3.81552C7.77655 3.31081 7.3676 2.90186 6.86289 2.90186C6.35817 2.90186 5.94922 3.31081 5.94922 3.81552V5.6428L5.94922 27.5704V28.1795V30.0067C5.94927 30.5115 6.35822 30.9204 6.86294 30.9204C7.36766 30.9204 7.77661 30.5115 7.77661 30.0067V29.0931H9.60389V30.0067C9.60383 30.5115 10.0128 30.9204 10.5175 30.9204C11.0222 30.9204 11.4312 30.5115 11.4312 30.0067V29.0931H13.2584V30.0067C13.2584 30.5115 13.6674 30.9204 14.1721 30.9204C14.6768 30.9204 15.0858 30.5115 15.0858 30.0067V29.0931H16.9131V30.0067C16.9131 30.5115 17.322 30.9204 17.8267 30.9204C18.3314 30.9204 18.7403 30.5115 18.7403 30.0067V29.0931H20.5676V30.0067C20.5676 30.5115 20.9766 30.9204 21.4813 30.9204C21.986 30.9204 22.395 30.5115 22.395 30.0067V29.0931H24.2222V30.0067C24.2222 30.5115 24.6312 30.9204 25.1359 30.9204C25.6406 30.9204 26.0496 30.5115 26.0496 30.0067V28.1795V27.5704V5.6428V3.81552C26.0496 3.31081 25.6406 2.90186 25.1359 2.90186C24.6312 2.90186 24.2222 3.31081 24.2222 3.81552V4.72919H22.395V3.81552C22.395 3.31081 21.986 2.90186 21.4813 2.90186C20.9766 2.90186 20.5676 3.31081 20.5676 3.81552V4.72919H18.7403V3.81552C18.7403 3.31081 18.3314 2.90186 17.8267 2.90186C17.322 2.90186 16.913 3.31081 16.913 3.81552V4.72919H15.0857V3.81552C15.0857 3.31081 14.6768 2.90186 14.1721 2.90186C13.6673 2.90186 13.2584 3.31081 13.2584 3.81552V4.72919H11.4311V3.81552H11.4312ZM21.4813 8.38375C21.986 8.38375 22.395 8.7927 22.395 9.29742V24.5248C22.395 25.0296 21.986 25.4385 21.4813 25.4385H10.5175C10.0128 25.4385 9.60383 25.0296 9.60383 24.5248L9.60383 9.29742C9.60383 8.7927 10.0128 8.38375 10.5175 8.38375H21.4813Z" fill="#034C8C"/>
</svg>
