<svg width="32" height="33" viewBox="0 0 32 33" fill="none" xmlns="http://www.w3.org/2000/svg">
<path d="M25.9204 25.2994C27.8393 23.0335 29 20.106 29 16.9111C29 13.7162 27.8393 10.7888 25.9204 8.52288L28.6145 5.82879C29.0375 5.40567 29.0375 4.71976 28.6145 4.2968C28.1914 3.87384 27.5055 3.87384 27.0823 4.2968L24.3884 6.99074C22.1224 5.07185 19.1949 3.91113 16 3.91113C12.8051 3.91113 9.87762 5.07185 7.61175 6.99074L4.91781 4.29664C4.49485 3.87368 3.80894 3.87353 3.38567 4.29664C2.9627 4.71961 2.9627 5.40567 3.38567 5.82863L6.07976 8.52273C4.16071 10.7888 3 13.7162 3 16.9111C3 20.106 4.16071 23.0335 6.07961 25.2994L3.38551 27.9935C2.96255 28.4166 2.96255 29.1025 3.38551 29.5255C3.59707 29.737 3.8744 29.8427 4.15158 29.8427C4.42876 29.8427 4.7061 29.7369 4.91765 29.5255L7.6116 26.8315C9.87762 28.7504 12.8051 29.9111 16 29.9111C19.1949 29.9111 22.1224 28.7504 24.3883 26.8315L27.0822 29.5255C27.2938 29.737 27.5709 29.8427 27.8483 29.8427C28.1254 29.8427 28.4028 29.7369 28.6143 29.5255C29.0373 29.1025 29.0373 28.4164 28.6143 27.9935L25.9204 25.2994ZM26.8333 16.9111C26.8333 19.5085 25.9137 21.8948 24.3841 23.7631L17.5321 16.9111L24.3841 10.0592C25.9137 11.9275 26.8333 14.3138 26.8333 16.9111ZM16 6.0778C18.5974 6.0778 20.9836 6.99739 22.8518 8.52706L16 15.379L9.14823 8.52706C11.0164 6.99739 13.4026 6.0778 16 6.0778ZM5.16667 16.9111C5.16667 14.3138 6.08626 11.9275 7.61593 10.0592L14.4679 16.9111L7.61593 23.7631C6.08626 21.8948 5.16667 19.5085 5.16667 16.9111ZM16 27.7445C13.4026 27.7445 11.0164 26.8249 9.14823 25.2952L16 18.4433L22.8518 25.2952C20.9836 26.8249 18.5974 27.7445 16 27.7445Z" fill="#034C8C"/>
</svg>
