<svg width="32" height="33" viewBox="0 0 32 33" fill="none" xmlns="http://www.w3.org/2000/svg">
<path d="M11.0131 6.6521C10.4451 6.6521 10.0488 7.06734 10.0488 7.66085C10.0488 8.3652 10.596 9.23521 11.4439 9.8786C12.1693 10.4289 13.4531 11.0854 15.4465 11.0854C18.2395 11.0854 19.4292 10.6284 20.2976 10.2953C20.7791 10.1108 21.1274 9.9771 21.6278 9.9771C22.9788 9.9771 25.4042 10.8255 25.8858 13.8563H28.5386H29.3006H29.7519C29.215 9.1996 26.3547 6.6521 21.5423 6.6521H11.0131ZM18.1242 12.7587C17.416 12.7587 16.8234 13.2179 16.6306 13.8563L22.5694 13.8498C22.371 13.2202 21.7822 12.7587 21.0801 12.7587H18.1242ZM17.1263 14.9646C16.8091 14.9646 16.4951 14.9773 16.1835 15.0003C16.1347 15.004 16.0862 15.0123 16.0374 15.0165C15.7642 15.04 15.4926 15.0704 15.2235 15.1118C15.1975 15.1159 15.1716 15.1216 15.1456 15.1259C11.1333 15.7697 7.56686 18.4159 4.16832 23.2771H4.17265C3.53634 24.1823 2.90215 25.1667 2.26987 26.2438C2.1937 26.3345 2.14856 26.4471 2.14106 26.5653C2.1329 26.6528 2.14568 26.741 2.17835 26.8226C2.21102 26.9043 2.26263 26.9769 2.32893 27.0347C2.39523 27.0924 2.47431 27.1335 2.55965 27.1547C2.64498 27.1758 2.73412 27.1764 2.8197 27.1562H28.7464C29.3522 27.1562 29.8548 26.6536 29.8548 26.0479V20.9381V15.6118C29.8684 15.5317 29.8643 15.4495 29.8426 15.3711C29.821 15.2927 29.7823 15.2201 29.7294 15.1583C29.6765 15.0965 29.6107 15.0472 29.5366 15.0137C29.4625 14.9802 29.3819 14.9634 29.3006 14.9646H17.1263ZM15.4465 18.8437C16.0583 18.8437 16.5548 19.3403 16.5548 19.9521C16.5548 20.5639 16.0583 21.0604 15.4465 21.0604C14.8347 21.0604 14.3381 20.5639 14.3381 19.9521C14.3381 19.3403 14.8347 18.8437 15.4465 18.8437ZM19.3256 18.8437C19.9374 18.8437 20.434 19.3403 20.434 19.9521C20.434 20.5639 19.9374 21.0604 19.3256 21.0604C18.7138 21.0604 18.2173 20.5639 18.2173 19.9521C18.2173 19.3403 18.7138 18.8437 19.3256 18.8437ZM23.2048 18.8437C23.8166 18.8437 24.3131 19.3403 24.3131 19.9521C24.3131 20.5639 23.8166 21.0604 23.2048 21.0604C22.593 21.0604 22.0964 20.5639 22.0964 19.9521C22.0964 19.3403 22.593 18.8437 23.2048 18.8437ZM28.7464 23.8172V26.0479H3.68559C4.16966 25.2563 4.6522 24.5146 5.13269 23.8312H28.6772C28.7018 23.8312 28.7226 23.8203 28.7464 23.8172Z" fill="#034C8C"/>
</svg>
