<svg width="32" height="33" viewBox="0 0 32 33" fill="none" xmlns="http://www.w3.org/2000/svg">
<path d="M10.8206 19.8553C10.6698 19.9523 10.5157 20.0509 10.3613 20.1453C10.646 23.0085 13.0618 25.2445 15.9999 25.2445C19.1295 25.2445 21.6666 22.7074 21.6666 19.5778V19.5705C21.4891 19.6023 21.3057 19.6307 21.1281 19.6582L21.1073 19.6614C20.8917 19.6949 20.6787 19.7278 20.4601 19.7671C19.5255 19.9355 18.7707 19.8674 18.1158 19.6258C17.507 19.4011 17.0479 19.0449 16.7094 18.7819L16.6778 18.7574C16.3106 18.4726 16.0705 18.2947 15.7733 18.1851C15.503 18.0854 15.1161 18.0205 14.4759 18.1359C13.5377 18.305 12.6984 18.7042 11.9231 19.1618C11.5913 19.3575 11.2836 19.5563 10.9801 19.7523L10.8206 19.8553Z" fill="#034C8C"/>
<path fill-rule="evenodd" clip-rule="evenodd" d="M4 14.2445C4 9.21623 4 6.70208 5.56209 5.13997C7.1242 3.57788 9.63835 3.57788 14.6667 3.57788H17.3333C22.3616 3.57788 24.8759 3.57788 26.4379 5.13997C28 6.70208 28 9.21623 28 14.2445V19.5779C28 24.6061 28 27.1204 26.4379 28.6824C24.8759 30.2445 22.3616 30.2445 17.3333 30.2445H14.6667C9.63835 30.2445 7.1242 30.2445 5.56209 28.6824C4 27.1204 4 24.6061 4 19.5779V14.2445ZM23.6667 19.5779C23.6667 19.2855 23.6503 18.9971 23.6184 18.7132L23.6451 18.6949L23.524 18.0981C22.8345 14.572 19.728 11.9112 16 11.9112C11.7658 11.9112 8.33333 15.3437 8.33333 19.5779C8.33333 23.812 11.7658 27.2445 16 27.2445C20.2341 27.2445 23.6667 23.812 23.6667 19.5779ZM10.6667 7.91121C10.1144 7.91121 9.66667 8.35893 9.66667 8.91121C9.66667 9.46349 10.1144 9.91121 10.6667 9.91121H21.3333C21.8856 9.91121 22.3333 9.46349 22.3333 8.91121C22.3333 8.35893 21.8856 7.91121 21.3333 7.91121H10.6667Z" fill="#034C8C"/>
</svg>
