<svg width="32" height="33" viewBox="0 0 32 33" fill="none" xmlns="http://www.w3.org/2000/svg">
<path d="M11.6304 22.9505C11.4984 23.0342 11.3636 23.1192 11.2285 23.2006C11.4776 25.6701 13.5915 27.5987 16.1623 27.5987C18.9007 27.5987 21.1206 25.4105 21.1206 22.7112V22.7049C20.9654 22.7323 20.8048 22.7568 20.6494 22.7805L20.6312 22.7833C20.4426 22.8122 20.2563 22.8406 20.0649 22.8745C19.2472 23.0197 18.5868 22.961 18.0137 22.7526C17.481 22.5588 17.0793 22.2515 16.7831 22.0247L16.7554 22.0036C16.4341 21.7579 16.224 21.6045 15.964 21.51C15.7275 21.424 15.3889 21.368 14.8288 21.4676C14.0078 21.6134 13.2735 21.9577 12.5951 22.3524C12.3047 22.5212 12.0355 22.6927 11.7699 22.8617L11.6304 22.9505Z" fill="#034C8C"/>
<path fill-rule="evenodd" clip-rule="evenodd" d="M5.66211 18.1111C5.66211 13.7742 5.66211 11.6058 7.02894 10.2584C8.39578 8.91113 10.5957 8.91113 14.9954 8.91113H17.3288C21.7285 8.91113 23.9285 8.91113 25.2952 10.2584C26.6621 11.6058 26.6621 13.7742 26.6621 18.1111V22.7111C26.6621 27.048 26.6621 29.2166 25.2952 30.5638C23.9285 31.9111 21.7285 31.9111 17.3288 31.9111H14.9954C10.5957 31.9111 8.39578 31.9111 7.02894 30.5638C5.66211 29.2166 5.66211 27.048 5.66211 22.7111V18.1111ZM22.8704 22.7111C22.8704 22.4589 22.8561 22.2102 22.8282 21.9654L22.8515 21.9496L22.7456 21.4349C22.1423 18.3936 19.4241 16.0986 16.1621 16.0986C12.4572 16.0986 9.45378 19.0592 9.45378 22.7111C9.45378 26.3631 12.4572 29.3236 16.1621 29.3236C19.867 29.3236 22.8704 26.3631 22.8704 22.7111ZM11.4954 12.6486C11.0122 12.6486 10.6204 13.0348 10.6204 13.5111C10.6204 13.9875 11.0122 14.3736 11.4954 14.3736H20.8288C21.312 14.3736 21.7038 13.9875 21.7038 13.5111C21.7038 13.0348 21.312 12.6486 20.8288 12.6486H11.4954Z" fill="#034C8C"/>
<path d="M14.5765 1.91113C14.4143 1.91113 14.3012 2.02968 14.3012 2.19911C14.3012 2.40019 14.4574 2.64857 14.6994 2.83224C14.9065 2.98934 15.273 3.17677 15.8421 3.17677C16.6395 3.17677 16.9791 3.04628 17.227 2.9512C17.3645 2.89852 17.4639 2.86036 17.6068 2.86036C17.9925 2.86036 18.6849 3.10257 18.8223 3.96779H19.5797H19.7972H19.9261C19.7728 2.6384 18.9562 1.91113 17.5824 1.91113H14.5765ZM16.6066 3.65447C16.4044 3.65447 16.2352 3.78554 16.1801 3.96779L17.8756 3.96594C17.819 3.78622 17.6509 3.65447 17.4504 3.65447H16.6066ZM16.3217 4.2842C16.2311 4.2842 16.1415 4.28783 16.0525 4.2944C16.0386 4.29545 16.0247 4.29781 16.0108 4.29903C15.9328 4.30572 15.8553 4.31441 15.7785 4.32622C15.771 4.32739 15.7636 4.32902 15.7562 4.33024C14.6108 4.51405 13.5926 5.26948 12.6224 6.65727H12.6236C12.442 6.91569 12.2609 7.19672 12.0804 7.50422C12.0587 7.53009 12.0458 7.56226 12.0437 7.59599C12.0413 7.62098 12.045 7.64616 12.0543 7.66946C12.0636 7.69276 12.0784 7.71351 12.0973 7.72999C12.1162 7.74648 12.1388 7.75822 12.1631 7.76425C12.1875 7.77029 12.213 7.77044 12.2374 7.7647H19.639C19.8119 7.7647 19.9554 7.62122 19.9554 7.44829V5.98953V4.46898C19.9593 4.44609 19.9581 4.42263 19.952 4.40025C19.9458 4.37788 19.9347 4.35714 19.9196 4.3395C19.9045 4.32187 19.8857 4.30777 19.8646 4.29821C19.8434 4.28866 19.8204 4.28387 19.7972 4.2842H16.3217ZM15.8421 5.39163C16.0168 5.39163 16.1585 5.53338 16.1585 5.70804C16.1585 5.8827 16.0168 6.02445 15.8421 6.02445C15.6674 6.02445 15.5257 5.8827 15.5257 5.70804C15.5257 5.53338 15.6674 5.39163 15.8421 5.39163ZM16.9495 5.39163C17.1242 5.39163 17.2659 5.53338 17.2659 5.70804C17.2659 5.8827 17.1242 6.02445 16.9495 6.02445C16.7749 6.02445 16.6331 5.8827 16.6331 5.70804C16.6331 5.53338 16.7749 5.39163 16.9495 5.39163ZM18.057 5.39163C18.2316 5.39163 18.3734 5.53338 18.3734 5.70804C18.3734 5.8827 18.2316 6.02445 18.057 6.02445C17.8823 6.02445 17.7406 5.8827 17.7406 5.70804C17.7406 5.53338 17.8823 5.39163 18.057 5.39163ZM19.639 6.81145V7.44829H12.4846C12.6228 7.2223 12.7605 7.01056 12.8977 6.81547H19.6192C19.6263 6.81547 19.6322 6.81234 19.639 6.81145Z" fill="#034C8C"/>
</svg>
