<svg id="Layer_1" data-name="Layer 1" xmlns="http://www.w3.org/2000/svg" viewBox="0 0 2990.85 1805.75"><defs><style>.cls-1{fill:#4fba09;}.cls-2{fill:#247693;}.cls-3{fill:#fff;}.cls-4{fill:#1d1d1b;}.cls-5{fill:#ed7577;}.cls-6{fill:#fdf18f;}.cls-7{fill:#56ae31;}</style></defs><path class="cls-1" d="M2783.06,716.66H2485.61l-48.53-118.12a24.54,24.54,0,0,1,22.7-33.86h159.66a151,151,0,0,1,139.63,93.59Z"/><path class="cls-1" d="M2885.64,868.65H2845.5l-62.44-152h172.58l12.11,29.48c24,58.42-19,122.51-82.11,122.51"/><path class="cls-1" d="M2473.81,792.28A75.26,75.26,0,1,1,2398.54,717a75.26,75.26,0,0,1,75.27,75.25"/><path class="cls-1" d="M1421.47,803c0,205.43-165.79,372.89-370.64,375.54-1.64.07-3.32.07-5,.07H732.9C684,1329.17,542.29,1438.3,375.6,1438.3,168.47,1438.3,0,1269.83,0,1062.69V946.08H231.75v116.61c0,79.34,64.52,143.86,143.85,143.86S519.46,1142,519.46,1062.69V53H751.2V946.82h294.63c79.33,0,143.89-64.52,143.89-143.86s-64.56-143.88-143.89-143.88H805V427.33h3.66L805,421.72,1445.88,0l127.4,193.6-393,258.62c140.93,54.17,241.23,191,241.23,350.74"/><path class="cls-2" d="M2182,946.83c2.28-5.65,4.47-11.32,6.6-17.08.4-1.09.75-2.14,1.15-3.23h0v0A374.66,374.66,0,0,0,2210.65,803c0-207.18-168.49-375.62-375.63-375.62S1459.4,595.8,1459.4,803s168.54,375.58,375.62,375.58c6.86,0,13.66-.15,20.37-.55l-.2.55-66.76,188.65,218.51,77.25,94.08-265.9h889.83V946.83Zm-347,0c-79.32,0-143.9-64.52-143.9-143.85s64.58-143.9,143.9-143.9,143.85,64.58,143.85,143.9S1914.3,946.83,1835,946.83"/><path class="cls-3" d="M1855.39,1178l-.2.55H1835c6.86,0,13.66-.15,20.37-.55"/><path class="cls-4" d="M1050.83,1178.5v.07h-5c1.68,0,3.36,0,5-.07"/><path class="cls-5" d="M2964.76,1699.27a36.41,36.41,0,1,1-36.4-36.41,36.41,36.41,0,0,1,36.4,36.41"/><path class="cls-6" d="M2964.76,1619.34a36.41,36.41,0,1,1-36.4-36.41,36.41,36.41,0,0,1,36.4,36.41"/><path class="cls-7" d="M2964.76,1539.41a36.41,36.41,0,1,1-36.4-36.41,36.41,36.41,0,0,1,36.4,36.41"/><polygon class="cls-2" points="199.86 1588.56 111.83 1588.56 111.83 1530.1 350.77 1530.1 350.77 1588.56 262.74 1588.56 262.74 1805.75 199.86 1805.75 199.86 1588.56"/><path class="cls-2" d="M770.85,1805.75H706.27l-18.69-54.38H579.83l-18.35,54.38H496.9l98.23-275.65h77.49Zm-171.3-113.18h68.31l-34-100.61Z"/><polygon class="cls-2" points="1178.35 1739.47 1216.41 1530.1 1281.34 1530.1 1225.93 1805.74 1139.94 1805.74 1106.63 1585.84 1073.66 1805.74 987.67 1805.74 932.27 1530.1 996.85 1530.1 1034.92 1739.47 1066.53 1530.1 1147.08 1530.1 1178.35 1739.47"/><path class="cls-2" d="M1716.7,1805.75h-64.58l-18.7-54.38H1525.68l-18.35,54.38h-64.58L1541,1530.1h77.5Zm-171.3-113.18h68.31l-34-100.61Z"/><polygon class="cls-2" points="1917.2 1805.75 1917.2 1530.1 1980.08 1530.1 1980.08 1667.76 2075.25 1530.1 2151.39 1530.1 2050.78 1667.76 2155.46 1805.75 2078.99 1805.75 1980.08 1668.78 1980.08 1805.75 1917.2 1805.75"/><path class="cls-2" d="M2599.33,1805.75h-64.58l-18.69-54.38H2408.32L2390,1805.75h-64.57l98.22-275.65h77.49ZM2428,1692.57h68.32l-34-100.61Z"/><polygon class="cls-2" points="2863.05 1747.29 2984.05 1747.29 2984.05 1805.75 2799.83 1805.75 2799.83 1530.1 2863.05 1530.1 2863.05 1747.29"/></svg>